<svg width="100" height="100" viewBox="0 0 100 100" fill="none" xmlns="http://www.w3.org/2000/svg">
<path fill-rule="evenodd" clip-rule="evenodd" d="M28.159 24.6509C27.3833 24.3689 26.5258 24.769 26.2437 25.5447C25.9616 26.3204 26.3618 27.1779 27.1375 27.46L75.4725 45.0364V72.4402C75.4725 73.2656 76.1416 73.9347 76.967 73.9347C77.7924 73.9347 78.4615 73.2656 78.4615 72.4402V43.9896C78.4615 43.3611 78.0684 42.7998 77.4778 42.585L28.159 24.6509ZM28.1398 30.4595C27.3859 30.1885 26.5551 30.58 26.2841 31.3339C26.0132 32.0878 26.4047 32.9186 27.1586 33.1896L69.7152 48.4855V70.9896H59.5607V67.906C62.0632 67.2619 63.9124 64.9902 63.9124 62.2865C63.9124 59.5829 62.0632 57.3112 59.5607 56.6671V53.5828C59.5607 51.1794 57.6124 49.2311 55.209 49.2311H43.6046C41.2012 49.2311 39.2529 51.1794 39.2529 53.5828V56.6672C36.7504 57.3113 34.9014 59.583 34.9014 62.2865C34.9014 64.9901 36.7504 67.2618 39.2529 67.9059V70.9896H27.6488C26.8477 70.9896 26.1982 71.639 26.1982 72.4402C26.1982 73.2413 26.8477 73.8907 27.6488 73.8907H71.1575L71.1658 73.8907C71.9669 73.8907 72.6163 73.2413 72.6163 72.4402V47.4654C72.6163 46.8535 72.2323 46.3074 71.6564 46.1004L28.1398 30.4595ZM56.6596 68.0888V70.9896H42.154V68.0888H56.6596ZM58.1329 65.1876C59.7247 65.1753 61.0113 63.8812 61.0113 62.2865C61.0113 60.6843 59.7124 59.3854 58.1102 59.3854H40.7036C39.1013 59.3854 37.8025 60.6843 37.8025 62.2865C37.8025 63.8812 39.089 65.1753 40.6807 65.1876L40.7035 65.1874L40.7314 65.1877H58.0822L58.1101 65.1874L58.1329 65.1876ZM42.154 53.5828C42.154 52.7816 42.8035 52.1322 43.6046 52.1322H55.209C56.0101 52.1322 56.6596 52.7816 56.6596 53.5828V56.4839H42.154V53.5828ZM43.6052 62.2862C43.6052 63.0873 42.9558 63.7368 42.1547 63.7368C41.3535 63.7368 40.7041 63.0873 40.7041 62.2862C40.7041 61.4851 41.3535 60.8357 42.1547 60.8357C42.9558 60.8357 43.6052 61.4851 43.6052 62.2862ZM56.6586 63.7368C57.4597 63.7368 58.1091 63.0873 58.1091 62.2862C58.1091 61.4851 57.4597 60.8357 56.6586 60.8357C55.8574 60.8357 55.208 61.4851 55.208 62.2862C55.208 63.0873 55.8574 63.7368 56.6586 63.7368Z" fill="black"/>
</svg>
