<svg width="100" height="100" viewBox="0 0 100 100" fill="none" xmlns="http://www.w3.org/2000/svg">
<path fill-rule="evenodd" clip-rule="evenodd" d="M51.9282 35.8764C52.4478 35.1264 52.9725 34.4543 53.5061 33.8633L62.3605 66.5565C62.5826 67.3766 63.4275 67.8614 64.2477 67.6393C65.0678 67.4172 65.5526 66.5723 65.3305 65.7521L64.1236 61.2959H69.2865L70.8292 66.5851C71.0671 67.4008 71.9212 67.8692 72.7369 67.6312C73.5526 67.3933 74.021 66.5392 73.7831 65.7235L63.565 30.6905C64.1755 30.4865 64.6155 29.9102 64.6155 29.2311C64.6155 28.3814 63.9267 27.6926 63.0771 27.6926H63.0769H59.4557H53.8715C53.8548 27.6923 53.8381 27.6923 53.8213 27.6926H50.7289C46.3113 27.6926 43.0656 30.5005 40.5266 34.1162C38.0069 37.7044 35.9384 42.4355 33.952 46.9788L33.952 46.9788L33.9094 47.0763C31.8729 51.734 29.917 56.1916 27.5933 59.5008C25.2708 62.8082 22.8295 64.6157 19.9091 64.6157L18.4615 64.6157L16.9232 64.6157C16.0736 64.6157 15.3848 65.3045 15.3848 66.1541C15.3848 67.0038 16.0736 67.6926 16.9232 67.6926H18.4581L18.4615 67.6926L19.9091 67.6926H29.0806C33.438 67.6926 36.6378 64.8689 39.1374 61.261C41.6224 57.674 43.6704 52.9445 45.638 48.4008L45.6799 48.3039C47.6968 43.6465 49.6347 39.187 51.9282 35.8764ZM68.3891 58.219L66.3108 51.0934H61.3604L63.2902 58.219H68.3891ZM65.4133 48.0165H60.5271L58.5972 40.891H63.335L65.4133 48.0165ZM62.4376 37.8141L60.3829 30.7695H59.4557C58.2702 30.7695 57.1617 31.0827 56.1051 31.6894L57.7639 37.8141H62.4376ZM30.1114 61.269C29.2429 62.5058 28.2918 63.648 27.2393 64.6157H29.0806C31.9161 64.6157 34.3114 62.8239 36.6081 59.5088C38.9016 56.1982 40.8395 51.7387 42.8564 47.0812L42.8983 46.9844L42.8983 46.9844C44.8659 42.4406 46.9139 37.7112 49.3989 34.1242C50.2566 32.8861 51.1968 31.7405 52.2378 30.7695H50.7289C47.8084 30.7695 45.3672 32.577 43.0447 35.8844C40.721 39.1935 38.7651 43.6512 36.7286 48.3089L36.686 48.4063L36.686 48.4064L36.686 48.4064C34.6996 52.9497 32.6311 57.6808 30.1114 61.269Z" fill="black"/>
</svg>
