<svg width="100" height="100" viewBox="0 0 100 100" fill="none" xmlns="http://www.w3.org/2000/svg">
<path fill-rule="evenodd" clip-rule="evenodd" d="M51.5727 26.3811C51.0794 26.0787 50.4582 26.0787 49.9648 26.3811L25.2015 41.5586C24.4771 42.0026 24.2498 42.9498 24.6938 43.6742C25.1378 44.3986 26.085 44.626 26.8094 44.182L28.46 43.1703V45.952L25.2015 47.9491C24.4771 48.3931 24.2498 49.3403 24.6938 50.0647C25.1378 50.7892 26.085 51.0165 26.8094 50.5725L28.46 49.5609V69.2311C28.46 70.0808 29.1488 70.7696 29.9984 70.7696C30.8481 70.7696 31.5369 70.0808 31.5369 69.2311V47.675L50.7688 35.8877L69.998 47.6734V69.2311C69.998 70.0808 70.6868 70.7696 71.5365 70.7696C72.3862 70.7696 73.075 70.0808 73.075 69.2311V49.5592L74.7282 50.5725C75.4526 51.0165 76.3998 50.7892 76.8438 50.0647C77.2878 49.3403 77.0605 48.3931 76.336 47.9491L73.075 45.9504V43.1687L74.7282 44.182C75.4526 44.626 76.3998 44.3986 76.8438 43.6742C77.2878 42.9498 77.0605 42.0026 76.336 41.5586L51.5727 26.3811ZM69.998 41.2829L50.7688 29.4972L31.5369 41.2845V44.0661L49.9648 32.7716C50.4582 32.4692 51.0794 32.4692 51.5727 32.7716L69.998 44.0645V41.2829ZM66.2353 53.7646C66.8361 54.3654 66.8361 55.3396 66.2353 55.9404L59.4949 62.6807V69.2312C59.4949 70.0809 58.8061 70.7697 57.9564 70.7697C57.1068 70.7697 56.418 70.0809 56.418 69.2312V63.5803H44.2166L37.4779 70.3191C36.8771 70.9199 35.903 70.9199 35.3022 70.3191C34.7014 69.7183 34.7014 68.7441 35.3022 68.1433L42.4915 60.954C42.78 60.6655 43.1713 60.5034 43.5794 60.5034H57.3208L64.0596 53.7646C64.6604 53.1638 65.6345 53.1638 66.2353 53.7646Z" fill="black"/>
</svg>
