<svg width="230" height="227" viewBox="0 0 230 227" fill="none" xmlns="http://www.w3.org/2000/svg">
<g clip-path="url(#clip0_2417_3964)">
<path d="M32.6375 169.089V194.051H25.1399V180.272L20.2131 194.051H14.0009L8.85978 180.272V194.051H1.3623V169.089H10.3593L16.9999 185.264L23.6406 169.089H32.6375Z" fill="white"/>
<path d="M44.2056 169.089V194.051H36.708V169.089H44.2056Z" fill="white"/>
<path d="M61.9852 194.051L56.6298 184.865H55.7729V194.051H48.2754V169.089H60.0572C62.1994 169.089 63.9129 169.488 65.4125 170.087C66.9121 170.686 67.983 171.685 68.8398 172.883C69.6967 174.081 69.9109 175.479 69.9109 176.877C69.9109 178.474 69.4825 180.072 68.4114 181.27C67.3405 182.468 66.0552 183.467 64.1272 184.066L70.1252 193.851H61.9852V194.051ZM55.9872 180.072H59.6287C60.6998 180.072 61.3425 179.872 61.9852 179.473C62.4136 179.074 62.8418 178.474 62.8418 177.476C62.8418 176.677 62.6276 176.078 61.9852 175.679C61.5567 175.279 60.6998 175.08 59.6287 175.08H55.9872V180.072Z" fill="white"/>
<path d="M90.4747 189.857H81.0494L79.5498 193.851H71.624L81.2636 168.889H89.8322L99.4718 193.851H91.5458L90.4747 189.857ZM88.5469 184.665L85.762 176.677L82.9774 184.665H88.5469Z" fill="white"/>
<path d="M109.54 188.659H117.894V193.851H102.257V169.089H109.754V188.659H109.54Z" fill="white"/>
<path d="M137.602 189.857H128.177L126.678 193.851H118.966L128.606 168.889H137.174L146.814 193.851H138.888L137.602 189.857ZM135.674 184.665L132.89 176.677L130.105 184.665H135.674Z" fill="white"/>
<path d="M166.307 177.276C165.878 176.677 165.235 176.078 164.593 175.679C163.95 175.279 162.879 175.08 162.022 175.08C160.094 175.08 158.595 175.679 157.524 176.677C156.453 177.676 155.81 179.273 155.81 181.27C155.81 183.467 156.453 185.065 157.524 186.063C158.595 187.261 160.309 187.661 162.451 187.661C165.021 187.661 166.949 186.662 168.02 184.465H160.523V179.473H174.447V186.263C173.804 187.661 172.947 188.859 171.876 190.057C170.805 191.255 169.305 192.254 167.592 192.853C165.878 193.652 163.95 194.051 161.808 194.051C159.237 194.051 156.667 193.452 154.739 192.454C152.597 191.455 151.097 189.857 150.026 188.06C148.955 186.063 148.312 183.866 148.312 181.47C148.312 179.074 148.955 176.877 150.026 174.88C151.097 172.883 152.811 171.485 154.739 170.487C156.881 169.488 159.237 168.889 161.808 168.889C165.235 168.889 168.02 169.688 170.162 171.086C172.305 172.683 173.804 174.68 174.232 177.276H166.307Z" fill="white"/>
<path d="M183.872 192.653C181.73 191.655 180.017 190.057 178.946 188.06C177.66 186.063 177.018 183.867 177.018 181.47C177.018 179.074 177.66 176.877 178.946 174.88C180.231 172.883 181.73 171.485 183.872 170.287C186.014 169.288 188.157 168.689 190.727 168.689C193.298 168.689 195.654 169.288 197.582 170.287C199.724 171.286 201.224 172.883 202.509 174.88C203.794 176.877 204.223 179.074 204.223 181.47C204.223 183.867 203.58 186.063 202.509 188.06C201.224 190.057 199.724 191.455 197.582 192.653C195.44 193.652 193.298 194.251 190.727 194.251C188.157 194.251 185.8 193.652 183.872 192.653ZM195.226 186.063C196.297 184.865 196.939 183.467 196.939 181.47C196.939 179.473 196.297 177.875 195.226 176.877C194.155 175.679 192.655 175.08 190.727 175.08C188.799 175.08 187.3 175.679 186.229 176.877C185.158 178.075 184.515 179.673 184.515 181.47C184.515 183.467 185.158 185.065 186.229 186.063C187.3 187.261 188.799 187.86 190.727 187.86C192.655 187.86 194.155 187.261 195.226 186.063Z" fill="white"/>
<path d="M204.581 49.6577C187.823 49.6577 171.5 45.5998 157.353 38.0928L120.355 18.2095C109.473 12.3257 95.1086 12.3257 84.2266 18.2095L47.4455 38.0928C33.299 45.8029 16.976 49.6577 0.217773 49.6577V35.8611C14.3643 35.8611 28.2932 32.412 40.0457 26.1223L76.8268 6.23889C92.2792 -2.07967 112.302 -2.07967 127.754 6.23889L164.535 26.1223C176.505 32.6149 190.217 35.8611 204.363 35.8611V49.6577H204.581Z" fill="white"/>
<path d="M102.291 110.119C93.3683 110.119 84.445 108.09 76.8276 103.83L40.0465 83.9463C28.0765 77.6567 14.1475 74.2074 0.000976562 74.2074V60.4108C16.7592 60.4108 33.0821 64.4687 47.2288 71.9757L84.0096 91.8592C94.8916 97.743 109.256 97.743 120.138 91.8592L156.919 71.9757C171.065 64.2659 187.388 60.4108 204.147 60.4108V74.2074C190 74.2074 176.071 77.6567 164.319 83.9463L127.538 103.83C119.92 108.09 111.215 110.119 102.291 110.119Z" fill="white"/>
<path d="M102.291 135.886C89.233 135.886 76.3923 132.843 65.0752 126.756L38.7408 112.554C26.553 106.061 13.0593 98.7573 0.000976562 98.7573V84.9608C16.9768 84.9608 33.0821 93.685 45.923 100.583L72.2572 114.786C90.3212 124.525 113.826 124.525 131.89 114.786L158.225 100.583C171.065 93.685 187.388 84.9608 204.147 84.9608V98.7573C191.088 98.7573 177.595 106.061 165.625 112.554L139.29 126.756C128.191 132.843 115.132 135.886 102.291 135.886Z" fill="white"/>
<path d="M25.0294 144.205C17.4121 139.538 8.92418 133.655 0.000976562 133.655V144.408H25.0294V144.205Z" fill="white"/>
<path d="M204.581 144.205V133.452C195.658 133.452 187.17 139.538 179.553 144.205H204.581Z" fill="white"/>
<path d="M159.966 144.205L164.754 141.567C167.583 139.944 170.412 138.321 173.459 136.698C183.906 130.611 194.57 123.307 204.799 123.307V109.51C190.435 109.51 177.159 118.235 165.624 125.133C162.795 126.756 159.966 128.379 157.354 129.799L143.643 137.104C137.766 140.35 131.455 142.785 124.926 144.408H159.966V144.205Z" fill="white"/>
<path d="M39.829 141.77L44.617 144.408H79.4394C72.9101 142.785 66.5985 140.35 60.7223 137.104L47.2288 129.799C44.617 128.379 42.0054 126.756 38.9583 125.133C27.6412 118.235 14.3652 109.51 0.000976562 109.51V123.307C10.0124 123.307 20.8944 130.611 31.341 136.698C34.1703 138.524 36.9996 140.147 39.829 141.77Z" fill="white"/>
<path d="M225.823 30.9914C225.823 30.5855 225.823 30.1798 225.605 29.7739C225.388 29.3683 224.952 29.1654 224.734 28.9624C224.299 28.7595 223.863 28.7595 223.21 28.7595H219.729V36.0637H221.687V33.2233H222.123L223.863 36.0637H226.041L224.081 33.0202C224.734 33.0202 225.17 32.6145 225.605 32.2087C226.041 31.803 225.823 31.6001 225.823 30.9914ZM223.645 31.803C223.428 32.0058 223.21 32.0058 222.777 32.0058H221.47V29.977H222.777C223.21 29.977 223.428 29.977 223.645 30.1798C223.863 30.3827 223.863 30.5855 223.863 30.9914C224.081 31.3971 223.863 31.6001 223.645 31.803Z" fill="white"/>
<path d="M222.559 25.5137C218.64 25.5137 215.158 28.5569 215.158 32.4119C215.158 36.2668 218.423 39.3102 222.559 39.3102C226.692 39.3102 229.959 36.2668 229.959 32.4119C229.959 28.5569 226.692 25.5137 222.559 25.5137ZM222.559 38.4986C218.858 38.4986 216.029 35.6582 216.029 32.4119C216.029 28.9628 219.076 26.325 222.559 26.325C226.259 26.325 229.088 29.1657 229.088 32.4119C229.305 35.8611 226.259 38.4986 222.559 38.4986Z" fill="white"/>
<path d="M10.3224 220.433V218.903C9.49709 220.106 8.28371 220.708 6.68222 220.708C5.64451 220.708 4.68851 220.441 3.81422 219.909C2.94811 219.375 2.274 218.634 1.79192 217.682C1.31801 216.724 1.08105 215.624 1.08105 214.383C1.08105 213.174 1.29758 212.077 1.73064 211.096C2.1637 210.106 2.81329 209.349 3.6794 208.823C4.54551 208.299 5.51378 208.037 6.58415 208.037C7.36858 208.037 8.06718 208.192 8.68 208.504C9.29282 208.809 9.79124 209.208 10.1753 209.703V203.698H12.3692V220.433H10.3224ZM3.34849 214.383C3.34849 215.935 3.69982 217.096 4.40253 217.866C5.10522 218.634 5.93458 219.019 6.89058 219.019C7.85473 219.019 8.67182 218.653 9.34184 217.922C10.02 217.183 10.3591 216.061 10.3591 214.554C10.3591 212.894 10.016 211.677 9.32958 210.901C8.64322 210.125 7.79753 209.738 6.79251 209.738C5.81202 209.738 4.99084 210.11 4.329 210.856C3.67531 211.601 3.34849 212.776 3.34849 214.383ZM24.7604 216.529L27.04 216.792C26.6804 218.032 26.0147 218.996 25.0422 219.679C24.07 220.364 22.828 220.708 21.3163 220.708C19.4125 220.708 17.9009 220.164 16.7815 219.075C15.6702 217.98 15.1146 216.446 15.1146 214.474C15.1146 212.435 15.6784 210.851 16.806 209.725C17.9336 208.6 19.3962 208.037 21.1938 208.037C22.9342 208.037 24.3558 208.587 25.4589 209.692C26.562 210.796 27.1136 212.348 27.1136 214.349C27.1136 214.472 27.1096 214.654 27.1013 214.898H17.3943C17.476 216.229 17.8804 217.249 18.6076 217.957C19.3349 218.665 20.2418 219.019 21.3286 219.019C22.1375 219.019 22.828 218.82 23.4 218.425C23.9718 218.03 24.4253 217.396 24.7604 216.529ZM17.5168 213.207H24.7849C24.6869 212.189 24.4089 211.423 23.9513 210.914C23.2487 210.121 22.3378 209.725 21.2183 209.725C20.2051 209.725 19.3512 210.042 18.6567 210.673C17.9703 211.305 17.5904 212.149 17.5168 213.207ZM37.0902 220.433V203.698H43.868C45.0609 203.698 45.972 203.751 46.6011 203.858C47.4836 203.995 48.2231 204.257 48.8196 204.646C49.416 205.026 49.894 205.563 50.2536 206.255C50.6213 206.948 50.8051 207.709 50.8051 208.537C50.8051 209.961 50.3189 211.168 49.3467 212.158C48.3742 213.139 46.6175 213.629 44.0764 213.629H39.468V220.433H37.0902ZM39.468 211.655H44.1131C45.6493 211.655 46.74 211.388 47.3856 210.856C48.0311 210.324 48.3538 209.574 48.3538 208.608C48.3538 207.906 48.1618 207.31 47.7778 206.815C47.402 206.312 46.9036 205.981 46.2824 205.821C45.8822 205.722 45.1427 205.673 44.0642 205.673H39.468V211.655ZM52.7293 214.372C52.7293 212.126 53.3993 210.464 54.7393 209.384C55.8589 208.486 57.2233 208.037 58.8331 208.037C60.6224 208.037 62.0851 208.585 63.2209 209.68C64.3567 210.769 64.9244 212.276 64.9244 214.2C64.9244 215.761 64.6711 216.991 64.1644 217.889C63.6662 218.779 62.9349 219.47 61.9707 219.965C61.0147 220.46 59.9689 220.708 58.8331 220.708C57.0109 220.708 55.536 220.164 54.4084 219.075C53.2891 217.986 52.7293 216.419 52.7293 214.372ZM54.9969 214.372C54.9969 215.925 55.3604 217.088 56.0876 217.866C56.8149 218.634 57.73 219.019 58.8331 219.019C59.928 219.019 60.8389 218.63 61.5662 217.854C62.2933 217.077 62.6571 215.894 62.6571 214.304C62.6571 212.803 62.2893 211.671 61.554 210.901C60.8267 210.125 59.9198 209.738 58.8331 209.738C57.73 209.738 56.8149 210.121 56.0876 210.891C55.3604 211.659 54.9969 212.82 54.9969 214.372ZM72.3395 218.595L72.6582 220.41C72.0371 220.532 71.4816 220.594 70.9913 220.594C70.1907 220.594 69.5695 220.476 69.1284 220.24C68.6871 220.004 68.3767 219.696 68.1969 219.315C68.0171 218.926 67.9273 218.117 67.9273 216.883V209.908H66.3093V208.31H67.9273V205.308L70.1211 204.075V208.31H72.3395V209.908H70.1211V216.997C70.1211 217.583 70.158 217.959 70.2316 218.127C70.3131 218.295 70.4398 218.429 70.6113 218.526C70.7911 218.626 71.0444 218.675 71.3713 218.675C71.6164 218.675 71.9391 218.648 72.3395 218.595ZM74.4844 220.433V208.31H76.47V210.148C76.9764 209.289 77.4422 208.722 77.8671 208.446C78.3002 208.173 78.7742 208.037 79.2889 208.037C80.0324 208.037 80.7882 208.256 81.5562 208.699L80.7964 210.605C80.2571 210.307 79.7178 210.16 79.1787 210.16C78.6964 210.16 78.2635 210.297 77.8793 210.57C77.4953 210.837 77.2215 211.21 77.0582 211.69C76.8131 212.42 76.6904 213.219 76.6904 214.087V220.433H74.4844ZM91.7782 216.529L94.0578 216.792C93.6982 218.032 93.0324 218.996 92.06 219.679C91.0878 220.364 89.8458 220.708 88.334 220.708C86.4302 220.708 84.9187 220.164 83.7993 219.075C82.688 217.98 82.1324 216.446 82.1324 214.474C82.1324 212.435 82.6962 210.851 83.8238 209.725C84.9513 208.6 86.414 208.037 88.2115 208.037C89.952 208.037 91.3738 208.587 92.4767 209.692C93.5798 210.796 94.1313 212.348 94.1313 214.349C94.1313 214.472 94.1273 214.654 94.1191 214.898H84.412C84.4938 216.229 84.8982 217.249 85.6255 217.957C86.3527 218.665 87.2596 219.019 88.3464 219.019C89.1553 219.019 89.8458 218.82 90.4178 218.425C90.9895 218.03 91.4431 217.396 91.7782 216.529ZM84.5347 213.207H91.8027C91.7047 212.189 91.4269 211.423 90.9691 210.914C90.2664 210.121 89.3556 209.725 88.236 209.725C87.2229 209.725 86.3689 210.042 85.6744 210.673C84.9882 211.305 84.6082 212.149 84.5347 213.207ZM96.8155 220.433V208.31H98.8011V210.148C99.3075 209.289 99.7733 208.722 100.198 208.446C100.631 208.173 101.105 208.037 101.62 208.037C102.364 208.037 103.119 208.256 103.887 208.699L103.128 210.605C102.588 210.307 102.049 210.16 101.51 210.16C101.028 210.16 100.594 210.297 100.21 210.57C99.8264 210.837 99.5527 211.21 99.3893 211.69C99.1442 212.42 99.0215 213.219 99.0215 214.087V220.433H96.8155ZM105.211 206.061V203.698H107.417V206.061H105.211ZM105.211 220.433V208.31H107.417V220.433H105.211ZM110.739 220.433V203.698H112.945V220.433H110.739ZM116.328 220.433V203.698H118.534V220.433H116.328ZM121.144 214.372C121.144 212.126 121.814 210.464 123.154 209.384C124.274 208.486 125.638 208.037 127.248 208.037C129.038 208.037 130.5 208.585 131.636 209.68C132.772 210.769 133.34 212.276 133.34 214.2C133.34 215.761 133.086 216.991 132.58 217.889C132.081 218.779 131.35 219.47 130.386 219.965C129.43 220.46 128.384 220.708 127.248 220.708C125.426 220.708 123.951 220.164 122.824 219.075C121.704 217.986 121.144 216.419 121.144 214.372ZM123.412 214.372C123.412 215.925 123.775 217.088 124.503 217.866C125.23 218.634 126.145 219.019 127.248 219.019C128.343 219.019 129.254 218.63 129.981 217.854C130.708 217.077 131.072 215.894 131.072 214.304C131.072 212.803 130.704 211.671 129.969 210.901C129.242 210.125 128.335 209.738 127.248 209.738C126.145 209.738 125.23 210.121 124.503 210.891C123.775 211.659 123.412 212.82 123.412 214.372ZM135.055 216.815L137.237 216.496C137.36 217.309 137.699 217.934 138.254 218.367C138.818 218.802 139.602 219.019 140.608 219.019C141.621 219.019 142.372 218.829 142.863 218.448C143.353 218.059 143.598 217.605 143.598 217.088C143.598 216.624 143.382 216.26 142.948 215.993C142.646 215.811 141.894 215.579 140.693 215.297C139.075 214.917 137.952 214.59 137.323 214.314C136.702 214.033 136.228 213.648 135.901 213.161C135.582 212.667 135.423 212.122 135.423 211.528C135.423 210.988 135.554 210.491 135.815 210.034C136.085 209.57 136.448 209.185 136.906 208.881C137.249 208.645 137.715 208.446 138.303 208.287C138.9 208.119 139.537 208.037 140.215 208.037C141.237 208.037 142.131 208.173 142.899 208.446C143.676 208.722 144.248 209.094 144.615 209.566C144.983 210.03 145.236 210.655 145.375 211.437L143.218 211.713C143.12 211.087 142.834 210.601 142.36 210.251C141.894 209.901 141.232 209.725 140.375 209.725C139.361 209.725 138.638 209.881 138.205 210.193C137.772 210.506 137.556 210.87 137.556 211.29C137.556 211.555 137.646 211.795 137.825 212.009C138.005 212.23 138.287 212.412 138.671 212.557C138.892 212.634 139.541 212.807 140.62 213.083C142.18 213.47 143.267 213.791 143.88 214.041C144.501 214.285 144.987 214.641 145.338 215.113C145.69 215.585 145.866 216.171 145.866 216.873C145.866 217.558 145.649 218.203 145.216 218.812C144.791 219.414 144.174 219.882 143.365 220.217C142.556 220.544 141.641 220.708 140.62 220.708C138.928 220.708 137.637 220.381 136.747 219.727C135.864 219.071 135.3 218.1 135.055 216.815Z" fill="white"/>
</g>
<defs>
<clipPath id="clip0_2417_3964">
<rect width="230" height="226.231" fill="white"/>
</clipPath>
</defs>
</svg>
