<svg width="24" height="24" viewBox="0 0 24 24" fill="none" xmlns="http://www.w3.org/2000/svg">
<path fill-rule="evenodd" clip-rule="evenodd" d="M0.894361 15.2763C1.33156 15.2763 1.49839 15.4719 1.93559 16.2543C2.37279 17.0366 2.98833 18.1526 4.53579 18.1526C6.08325 18.1526 6.72179 17.0021 7.14174 16.2543C7.56168 15.5064 7.717 15.2763 8.18297 15.2763C8.64893 15.2763 8.787 15.4719 9.2242 16.2543C9.6614 17.0366 10.2769 18.1526 11.8244 18.1526C13.3719 18.1526 14.0104 17.0021 14.4246 16.2543C14.8388 15.5064 14.9999 15.2763 15.4658 15.2763C15.9318 15.2763 16.0698 15.4719 16.507 16.2543C16.9443 17.0366 17.5598 18.1526 19.113 18.1526C20.6662 18.1526 21.299 17.0021 21.7132 16.2543C22.1274 15.5064 22.2885 15.2763 22.7544 15.2763C23.231 15.2763 23.6173 14.89 23.6173 14.4134C23.6173 13.9369 23.231 13.5505 22.7544 13.5505C21.2415 13.5505 20.6144 14.7011 20.206 15.4201C19.7976 16.1392 19.6307 16.4268 19.113 16.4268C18.5953 16.4268 18.4342 16.168 18.02 15.4201C17.6058 14.6723 16.9845 13.5505 15.4716 13.5505C13.9586 13.5505 13.3316 14.7011 12.9231 15.4201C12.5147 16.1392 12.3479 16.4268 11.8301 16.4268C11.3124 16.4268 11.1513 16.168 10.7371 15.4201C10.323 14.6723 9.70167 13.5505 8.18872 13.5505C6.67577 13.5505 6.04873 14.7011 5.6403 15.4201C5.23186 16.1392 5.06503 16.4268 4.54729 16.4268C4.02955 16.4268 3.86848 16.168 3.45429 15.4201C3.0401 14.6723 2.41881 13.5505 0.905866 13.5505C0.429301 13.5505 0.0429688 13.9369 0.0429688 14.4134C0.0429688 14.89 0.429301 15.2763 0.905866 15.2763H0.894361Z" fill="white"/>
<path fill-rule="evenodd" clip-rule="evenodd" d="M22.7544 18.728C21.2415 18.728 20.6144 19.8786 20.206 20.5976C19.7976 21.3167 19.6307 21.6044 19.113 21.6044C18.5953 21.6044 18.4342 21.3455 18.02 20.5976C17.6058 19.8498 16.9845 18.728 15.4716 18.728C13.9586 18.728 13.3316 19.8786 12.9231 20.5976C12.5147 21.3167 12.3479 21.6044 11.8301 21.6044C11.3124 21.6044 11.1513 21.3455 10.7371 20.5976C10.323 19.8498 9.70167 18.728 8.18872 18.728C6.67577 18.728 6.04873 19.8786 5.6403 20.5976C5.23186 21.3167 5.06503 21.6044 4.54729 21.6044C4.02955 21.6044 3.86848 21.3455 3.45429 20.5976C3.0401 19.8498 2.41881 18.728 0.905866 18.728C0.429301 18.728 0.0429688 19.1144 0.0429688 19.5909C0.0429688 20.0675 0.429301 20.4538 0.905866 20.4538C1.34307 20.4538 1.50989 20.6494 1.9471 21.4318C2.3843 22.2141 2.99983 23.3301 4.54729 23.3301C6.09475 23.3301 6.7333 22.1796 7.15324 21.4318C7.57319 20.6839 7.72851 20.4538 8.19447 20.4538C8.66044 20.4538 8.7985 20.6494 9.2357 21.4318C9.6729 22.2141 10.2884 23.3301 11.8359 23.3301C13.3834 23.3301 14.0219 22.1796 14.4361 21.4318C14.8503 20.6839 15.0114 20.4538 15.4773 20.4538C15.9433 20.4538 16.0814 20.6494 16.5186 21.4318C16.9558 22.2141 17.5713 23.3301 19.1245 23.3301C20.6777 23.3301 21.3105 22.1796 21.7247 21.4318C22.1389 20.6839 22.3 20.4538 22.7659 20.4538C23.2425 20.4538 23.6288 20.0675 23.6288 19.5909C23.6288 19.1144 23.2425 18.728 22.7659 18.728H22.7544Z" fill="white"/>
<path fill-rule="evenodd" clip-rule="evenodd" d="M5.00635 3.20801C5.00635 2.52257 5.562 1.96692 6.24744 1.96692C6.93287 1.96692 7.48852 2.52257 7.48852 3.20801V11.4819C7.48852 11.9389 7.85896 12.3093 8.31592 12.3093C8.77287 12.3093 9.14331 11.9389 9.14331 11.4819V10.241H14.9349V11.4819C14.9349 11.9389 15.3053 12.3093 15.7623 12.3093C16.2193 12.3093 16.5897 11.9389 16.5897 11.4819V3.20801C16.5897 1.60866 15.2932 0.312134 13.6938 0.312134C12.0945 0.312134 10.7979 1.60866 10.7979 3.20801V3.6217C10.7979 4.07866 11.1684 4.44909 11.6253 4.44909C12.0823 4.44909 12.4527 4.07866 12.4527 3.6217V3.20801C12.4527 2.52257 13.0084 1.96692 13.6938 1.96692C14.3793 1.96692 14.9349 2.52257 14.9349 3.20801V5.27647H9.14331V3.20801C9.14331 1.60866 7.84678 0.312134 6.24744 0.312134C4.64809 0.312134 3.35156 1.60866 3.35156 3.20801V3.6217C3.35156 4.07866 3.722 4.44909 4.17895 4.44909C4.63591 4.44909 5.00635 4.07866 5.00635 3.6217V3.20801ZM14.9349 8.58618V6.93125H9.14331V8.58618H14.9349Z" fill="white"/>
</svg>
