<svg width="100" height="100" viewBox="0 0 100 100" fill="none" xmlns="http://www.w3.org/2000/svg">
<path fill-rule="evenodd" clip-rule="evenodd" d="M37.6918 44.6152C37.6151 44.6152 37.5386 44.6159 37.4623 44.6174C37.539 44.6159 37.6158 44.6152 37.6927 44.6152C38.3264 44.6152 38.9481 44.6662 39.554 44.7645L45.8883 40.5417C45.9872 40.4987 46.0843 40.4502 46.1794 40.3963C46.6234 40.1446 47.1364 39.9998 47.6926 39.9998C48.6112 39.9998 49.4328 40.3984 50.0011 41.0423C50.0207 41.0646 50.0407 41.0865 50.0609 41.1082L47.3384 49.8204C45.2757 46.685 41.7254 44.6152 37.6918 44.6152ZM50.1433 51.1602C50.8165 50.9073 51.5457 50.769 52.3072 50.769C53.0936 50.769 53.8456 50.9165 54.537 51.1854L52.4029 43.9296L50.1433 51.1602ZM57.3221 49.7504L54.7258 40.923C55.2876 40.3495 56.063 39.9998 56.9234 39.9998C57.4795 39.9998 57.9925 40.1446 58.4366 40.3963C58.5316 40.4502 58.6288 40.4987 58.7277 40.5417L65.0617 44.7644C61.8391 45.2868 59.064 47.144 57.3221 49.7504ZM48.0086 61.3265C46.112 65.1016 42.2044 67.6921 37.6918 67.6921C31.3193 67.6921 26.1533 62.5262 26.1533 56.1536C26.1533 51.9056 28.449 48.1937 31.8674 46.1909L44.6157 37.6921L44.6618 37.7197C45.5564 37.2125 46.5907 36.9229 47.6926 36.9229C48.9766 36.9229 50.1687 37.3161 51.1551 37.9887C51.5807 38.2789 51.9681 38.6211 52.308 39.0062C52.6479 38.6211 53.0352 38.2789 53.4609 37.9886C54.4473 37.3161 55.6394 36.9229 56.9234 36.9229C58.0253 36.9229 59.0595 37.2125 59.9542 37.7197L60.0003 37.6921L72.7553 46.1954C71.044 45.191 69.0509 44.6152 66.9232 44.6152L66.9223 44.6152C73.2948 44.6152 78.4607 49.7811 78.4607 56.1536C78.4607 62.5262 73.2948 67.6921 66.9223 67.6921C62.4097 67.6921 58.5021 65.1017 56.6056 61.3267C55.4964 62.4095 53.9797 63.0767 52.3072 63.0767C50.6345 63.0767 49.1178 62.4094 48.0086 61.3265ZM52.2429 53.8466C52.1325 53.8489 52.0235 53.8569 51.9162 53.8706C50.6778 54.0277 49.669 54.921 49.3423 56.098L49.342 56.0981C49.2692 56.3606 49.2302 56.6372 49.2302 56.9229C49.2302 58.6222 50.6078 59.9998 52.3072 59.9998C54.0065 59.9998 55.3841 58.6222 55.3841 56.9229C55.3841 55.2235 54.0065 53.8459 52.3072 53.8459C52.2857 53.8459 52.2643 53.8462 52.2429 53.8466ZM46.1533 56.1536C46.1533 60.8268 42.365 64.6152 37.6918 64.6152C33.0186 64.6152 29.2302 60.8268 29.2302 56.1536C29.2302 51.4805 33.0186 47.6921 37.6918 47.6921C42.365 47.6921 46.1533 51.4805 46.1533 56.1536ZM75.3838 56.1536C75.3838 60.8268 71.5954 64.6152 66.9223 64.6152C62.2491 64.6152 58.4607 60.8268 58.4607 56.1536C58.4607 51.4805 62.2491 47.6921 66.9223 47.6921C71.5954 47.6921 75.3838 51.4805 75.3838 56.1536ZM34.8132 57.6896C34.6622 57.3 34.5826 56.8824 34.5826 56.4565C34.5826 55.5514 34.9421 54.6835 35.5821 54.0435C36.2221 53.4035 37.09 53.044 37.9951 53.044C38.421 53.044 38.8386 53.1236 39.2282 53.2746C39.3155 53.3084 39.4014 53.3459 39.4857 53.3868C39.6258 53.4548 39.7753 53.5074 39.9277 53.5411C40.3898 53.6435 40.8783 53.5732 41.2124 53.2392C41.6566 52.795 41.6612 52.0631 41.1376 51.716C40.9263 51.576 40.7064 51.4505 40.4794 51.3403C40.3095 51.2578 40.1356 51.1838 39.9584 51.1186C39.3355 50.8895 38.6715 50.769 37.9951 50.769C36.4867 50.769 35.04 51.3682 33.9734 52.4348C32.9068 53.5014 32.3076 54.9481 32.3076 56.4565C32.3076 57.1329 32.4281 57.7969 32.6572 58.4198C32.7224 58.597 32.7964 58.7709 32.8789 58.9408C32.9891 59.1678 33.1146 59.3878 33.2546 59.599C33.6017 60.1226 34.3335 60.118 34.7778 59.6738C35.1118 59.3397 35.1821 58.8512 35.0797 58.3891C35.046 58.2367 34.9934 58.0872 34.9254 57.9471C34.8845 57.8628 34.847 57.7769 34.8132 57.6896ZM63.8131 56.4565C63.8131 56.8824 63.8927 57.3 64.0437 57.6896C64.0775 57.7769 64.1149 57.8628 64.1558 57.9471C64.2239 58.0872 64.2764 58.2367 64.3102 58.3891C64.4126 58.8512 64.3423 59.3397 64.0082 59.6738C63.564 60.118 62.8322 60.1226 62.4851 59.599C62.3451 59.3878 62.2196 59.1678 62.1094 58.9408C62.0269 58.7709 61.9529 58.597 61.8877 58.4198C61.6586 57.7969 61.5381 57.1329 61.5381 56.4565C61.5381 54.9481 62.1373 53.5014 63.2039 52.4348C64.2705 51.3682 65.7171 50.769 67.2255 50.769C67.902 50.769 68.566 50.8895 69.1888 51.1186C69.3661 51.1838 69.54 51.2578 69.7099 51.3403C69.9369 51.4505 70.1568 51.576 70.368 51.716C70.8916 52.0631 70.8871 52.795 70.4429 53.2392C70.1088 53.5732 69.6203 53.6435 69.1582 53.5411C69.0058 53.5074 68.8563 53.4548 68.7162 53.3868C68.6319 53.3459 68.546 53.3084 68.4587 53.2746C68.0691 53.1236 67.6514 53.044 67.2255 53.044C66.3205 53.044 65.4525 53.4035 64.8126 54.0435C64.1726 54.6835 63.8131 55.5514 63.8131 56.4565Z" fill="black"/>
</svg>
