<svg width="30" height="18" viewBox="0 0 30 18" fill="none" xmlns="http://www.w3.org/2000/svg">
<path fill-rule="evenodd" clip-rule="evenodd" d="M12.2919 7.56956C11.3568 6.14813 9.85322 5.13392 8.10466 4.85041L11.5112 2.5794C11.5644 2.55627 11.6166 2.53022 11.6677 2.50124C11.9065 2.36584 12.1825 2.28796 12.4815 2.28796C12.9756 2.28796 13.4174 2.50235 13.7231 2.84864C13.7338 2.86085 13.7448 2.87288 13.7559 2.88473L12.2919 7.56956ZM13.8004 8.29024C14.1624 8.15424 14.5546 8.07985 14.9641 8.07985C15.3872 8.07985 15.7917 8.15924 16.1636 8.30393L15.0157 4.40103L13.8004 8.29024ZM17.6615 7.53198L16.2649 2.78361C16.567 2.47571 16.9836 2.28796 17.4459 2.28796C17.745 2.28796 18.0209 2.36584 18.2597 2.50124C18.3108 2.53022 18.3631 2.55627 18.4163 2.5794L21.823 4.85054C20.0902 5.13172 18.5981 6.13047 17.6615 7.53198ZM12.6522 13.7577C11.6323 15.7879 9.53076 17.181 7.10388 17.181C3.67671 17.181 0.898438 14.4027 0.898438 10.9756C0.898438 8.69368 2.13011 6.69946 3.96491 5.62144L10.8268 1.04687L10.8515 1.06175C11.3327 0.788936 11.8889 0.633179 12.4815 0.633179C13.1721 0.633179 13.8132 0.844654 14.3437 1.20637C14.5726 1.36245 14.7809 1.54651 14.9637 1.75361C15.1465 1.54651 15.3548 1.36245 15.5837 1.20637C16.1143 0.844653 16.7554 0.633179 17.4459 0.633179C18.0385 0.633179 18.5947 0.788936 19.0759 1.06175L19.1007 1.04687L25.9554 5.61667C27.7947 6.69357 29.03 8.69031 29.03 10.9756C29.03 14.4027 26.2517 17.181 22.8245 17.181C20.3976 17.181 18.2961 15.7878 17.2761 13.7575C16.6796 14.34 15.8638 14.699 14.9641 14.699C14.0645 14.699 13.2488 14.3401 12.6522 13.7577ZM13.3696 10.9452C13.3303 11.0866 13.3093 11.2356 13.3093 11.3894C13.3093 12.3033 14.0502 13.0442 14.9641 13.0442C15.878 13.0442 16.6189 12.3033 16.6189 11.3894C16.6189 10.761 16.2686 10.2144 15.7527 9.93423C15.6743 9.89168 15.5921 9.85528 15.5068 9.82567C15.3368 9.7667 15.1542 9.73466 14.9642 9.73466C14.2041 9.73466 13.5638 10.247 13.3697 10.9452L13.3696 10.9452ZM11.6545 10.9756C11.6545 13.4888 9.61714 15.5262 7.10388 15.5262C4.59062 15.5262 2.55322 13.4888 2.55322 10.9756C2.55322 8.46232 4.59062 6.42492 7.10388 6.42492C9.61714 6.42492 11.6545 8.46232 11.6545 10.9756ZM27.3752 10.9756C27.3752 13.4888 25.3378 15.5262 22.8245 15.5262C20.3113 15.5262 18.2739 13.4888 18.2739 10.9756C18.2739 8.46232 20.3113 6.42492 22.8245 6.42492C25.3378 6.42492 27.3752 8.46232 27.3752 10.9756ZM5.55566 11.8018C5.47446 11.5923 5.43165 11.3676 5.43165 11.1386C5.43165 10.6519 5.625 10.1851 5.96918 9.84088C6.31335 9.4967 6.78016 9.30334 7.26689 9.30334C7.49594 9.30334 7.72056 9.34616 7.93008 9.42736C7.97704 9.44556 8.02324 9.46569 8.06856 9.48769C8.14393 9.52429 8.22433 9.55254 8.30627 9.5707C8.55479 9.62576 8.81752 9.58796 8.99718 9.4083C9.23608 9.1694 9.23854 8.7758 8.95694 8.58913C8.84335 8.51384 8.72508 8.44637 8.60298 8.38708C8.5116 8.34271 8.41808 8.30293 8.32276 8.26787C7.98778 8.14465 7.63068 8.07985 7.26689 8.07985C6.45567 8.07985 5.67766 8.40211 5.10404 8.97573C4.53041 9.54936 4.20815 10.3274 4.20815 11.1386C4.20815 11.5024 4.27296 11.8595 4.39617 12.1945C4.43123 12.2898 4.47102 12.3833 4.51539 12.4747C4.57467 12.5968 4.64214 12.715 4.71744 12.8286C4.90411 13.1102 5.29771 13.1078 5.53661 12.8689C5.71627 12.6892 5.75407 12.4265 5.69901 12.178C5.68085 12.096 5.65259 12.0156 5.616 11.9403C5.59399 11.8949 5.57386 11.8487 5.55566 11.8018ZM21.1523 11.1386C21.1523 11.3676 21.1951 11.5923 21.2763 11.8018C21.2945 11.8487 21.3147 11.8949 21.3367 11.9403C21.3733 12.0156 21.4015 12.096 21.4197 12.178C21.4747 12.4265 21.4369 12.6892 21.2573 12.8689C21.0184 13.1078 20.6248 13.1102 20.4381 12.8286C20.3628 12.715 20.2953 12.5968 20.2361 12.4747C20.1917 12.3833 20.1519 12.2898 20.1168 12.1945C19.9936 11.8595 19.9288 11.5024 19.9288 11.1386C19.9288 10.3274 20.2511 9.54936 20.8247 8.97573C21.3983 8.40211 22.1763 8.07985 22.9876 8.07985C23.3513 8.07985 23.7084 8.14465 24.0434 8.26787C24.1387 8.30293 24.2323 8.34271 24.3237 8.38708C24.4457 8.44637 24.564 8.51384 24.6776 8.58913C24.9592 8.7758 24.9568 9.1694 24.7178 9.4083C24.5382 9.58796 24.2755 9.62576 24.0269 9.5707C23.945 9.55254 23.8646 9.52429 23.7892 9.48769C23.7439 9.46569 23.6977 9.44556 23.6507 9.42736C23.4412 9.34616 23.2166 9.30334 22.9876 9.30334C22.5008 9.30334 22.034 9.4967 21.6898 9.84088C21.3457 10.1851 21.1523 10.6519 21.1523 11.1386Z" fill="white"/>
</svg>
