<svg width="33" height="20" viewBox="0 0 33 20" fill="none" xmlns="http://www.w3.org/2000/svg">
<path fill-rule="evenodd" clip-rule="evenodd" d="M16.7897 17.4891C21.0851 17.4891 24.5672 14.007 24.5672 9.71157C24.5672 5.41618 21.0851 1.93408 16.7897 1.93408C12.4943 1.93408 9.01221 5.41618 9.01221 9.71157C9.01221 14.007 12.4943 17.4891 16.7897 17.4891ZM16.7897 19.1438C21.999 19.1438 26.222 14.9209 26.222 9.71157C26.222 4.50227 21.999 0.279297 16.7897 0.279297C11.5804 0.279297 7.35742 4.50227 7.35742 9.71157C7.35742 14.9209 11.5804 19.1438 16.7897 19.1438Z" fill="white"/>
<path fill-rule="evenodd" clip-rule="evenodd" d="M14.9007 5.04909C15.3584 4.86365 15.8432 4.74573 16.3398 4.70114C17.27 4.61761 18.2052 4.79472 19.0405 5.21263C19.8758 5.63055 20.5783 6.27276 21.0692 7.06735C21.3313 7.49151 21.5276 7.95014 21.6536 8.42766C21.7105 8.64318 21.7531 8.86255 21.781 9.08433C21.7863 9.12665 21.7951 9.16803 21.8072 9.20807C21.8935 9.49406 22.1444 9.71152 22.449 9.71152C22.7963 9.71152 23.0811 9.42929 23.0464 9.08374C23.0412 9.03157 23.0353 8.9795 23.0288 8.92753C22.9957 8.6643 22.946 8.40379 22.8802 8.14753C22.7232 7.53594 22.4742 6.94858 22.1391 6.4063C21.5254 5.41307 20.6474 4.6103 19.6032 4.08791C18.5591 3.56551 17.3901 3.34413 16.2273 3.44854C15.5924 3.50555 14.973 3.65844 14.3894 3.89946C14.1449 4.00045 13.9066 4.11691 13.6761 4.24827C13.6306 4.2742 13.5854 4.30072 13.5405 4.32781C13.2432 4.50725 13.1881 4.9044 13.3963 5.18233C13.579 5.42613 13.9035 5.49656 14.1841 5.39411C14.2233 5.37977 14.2618 5.36204 14.2988 5.34092C14.493 5.23025 14.6941 5.13279 14.9007 5.04909Z" fill="white"/>
<path fill-rule="evenodd" clip-rule="evenodd" d="M29.4071 3.2389V9.67016H30.8838C30.7999 7.11113 30.3316 5.2706 29.786 4.00897C29.6614 3.72071 29.5338 3.46491 29.4071 3.2389ZM29.4071 11.3249V18.3579C29.4071 18.8148 29.0367 19.1853 28.5797 19.1853C28.1228 19.1853 27.7523 18.8148 27.7523 18.3579V1.06539C27.7523 0.64253 28.0696 0.293762 28.479 0.244066C28.6449 0.223431 28.8186 0.252742 28.9766 0.338917C29.722 0.745467 30.6089 1.74243 31.3049 3.35222C32.0123 4.98828 32.5519 7.31846 32.5519 10.4976C32.5519 10.9545 32.1815 11.3249 31.7245 11.3249H29.4071ZM1.89697 1.06537C1.89697 0.608413 1.52654 0.237977 1.06958 0.237977C0.612624 0.237977 0.242188 0.608413 0.242188 1.06537V4.99548C0.242188 5.08535 0.256515 5.17187 0.28301 5.25289V6.56753C0.28301 8.01758 1.26464 9.23836 2.59962 9.60159V18.3579C2.59962 18.8148 2.97006 19.1853 3.42701 19.1853C3.88397 19.1853 4.2544 18.8148 4.2544 18.3579V9.60164C5.58948 9.23847 6.57119 8.01764 6.57119 6.56753V5.25621C6.59838 5.17424 6.61311 5.08658 6.61311 4.99548V1.06537C6.61311 0.608413 6.24267 0.237977 5.78571 0.237977C5.32876 0.237977 4.95832 0.608413 4.95832 1.06537V4.16809H4.2544V1.06539C4.2544 0.608432 3.88397 0.237996 3.42701 0.237996C2.97006 0.237996 2.59962 0.608432 2.59962 1.06539V4.16809H1.89697V1.06537ZM1.93779 5.86425V6.56753C1.93779 7.39005 2.60458 8.05684 3.4271 8.05684C4.24962 8.05684 4.91641 7.39005 4.91641 6.56753V5.86425H1.93779Z" fill="white"/>
</svg>
