<svg width="25" height="27" viewBox="0 0 25 27" fill="none" xmlns="http://www.w3.org/2000/svg">
<path fill-rule="evenodd" clip-rule="evenodd" d="M10.6489 0.621391C11.0408 0.386289 11.549 0.513348 11.7841 0.905184L12.5066 2.10942L13.2292 0.905184C13.4643 0.513348 13.9725 0.386289 14.3643 0.621391C14.7562 0.856493 14.8832 1.36473 14.6481 1.75656L13.5228 3.63218L13.5835 3.68142C14.4537 4.38719 15.5821 5.30238 16.5224 6.58062C17.7331 8.22634 18.6484 10.4676 18.6484 13.7418C18.6484 14.1987 18.2779 14.5691 17.821 14.5691C17.364 14.5691 16.9936 14.1987 16.9936 13.7418C16.9936 10.8104 16.1852 8.91477 15.1894 7.56119C14.6089 6.77199 13.9686 6.16376 13.334 5.62345V25.3253H17.407V22.0157H16.5795C16.1226 22.0157 15.7521 21.6453 15.7521 21.1883C15.7521 20.7314 16.1226 20.3609 16.5795 20.3609H18.2343H18.2344H23.1987C23.6557 20.3609 24.0261 20.7314 24.0261 21.1883V26.1527C24.0261 26.6096 23.6557 26.9801 23.1987 26.9801H18.2344L18.2289 26.9801H12.5065H12.4429H6.66127L6.65112 26.9801H1.68677C1.22981 26.9801 0.859375 26.6097 0.859375 26.1527V21.1884C0.859375 20.7314 1.22981 20.361 1.68677 20.361H6.64285L6.65135 20.3609H8.30613C8.76309 20.3609 9.13353 20.7314 9.13353 21.1883C9.13353 21.6453 8.76309 22.0157 8.30613 22.0157H7.47851V25.3253H11.6792V14.0603C11.6383 13.9623 11.6157 13.8546 11.6157 13.7417V5.56928C10.9603 6.12313 10.2964 6.7455 9.69635 7.56119C8.70062 8.91477 7.89221 10.8104 7.89221 13.7418C7.89221 14.1987 7.52177 14.5691 7.06482 14.5691C6.60786 14.5691 6.23742 14.1987 6.23742 13.7418C6.23742 10.4676 7.15275 8.22634 8.36339 6.58062C9.3037 5.30238 10.4321 4.38719 11.3023 3.68142L11.3024 3.6814L11.4487 3.56259L10.3651 1.75656C10.13 1.36473 10.2571 0.856493 10.6489 0.621391ZM22.3714 22.0157V25.3253H19.0618V22.0157H22.3714ZM5.82373 25.3253V22.0158H2.51416V25.3253H5.82373Z" fill="white"/>
<path fill-rule="evenodd" clip-rule="evenodd" d="M22.1669 13.0418C22.044 12.3245 21.8413 11.6214 21.5615 10.9458C21.0689 9.75661 20.347 8.67611 19.4368 7.76597C18.5267 6.85582 17.4462 6.13386 16.257 5.64129C15.0679 5.14872 13.7933 4.8952 12.5062 4.8952C11.219 4.8952 9.9445 5.14872 8.75533 5.64129C7.56617 6.13386 6.48567 6.85582 5.57553 7.76597C4.66538 8.67612 3.94341 9.75662 3.45085 10.9458C3.17101 11.6214 2.96833 12.3245 2.84546 13.0418L22.1669 13.0418ZM2.70265 13.0417C2.70215 13.0416 2.70265 13.0417 2.70265 13.0417V13.0417ZM23.8431 13.0476C23.9746 13.952 23.2215 14.6966 22.3076 14.6966L2.70476 14.6966C1.79085 14.6966 1.03773 13.952 1.16928 13.0476C1.30561 12.1103 1.55795 11.1915 1.92203 10.3125C2.49775 8.92259 3.34161 7.65967 4.40542 6.59586C5.46922 5.53205 6.73215 4.6882 8.12208 4.11247C9.512 3.53674 11.0017 3.24042 12.5062 3.24042C14.0106 3.24042 15.5003 3.53674 16.8903 4.11247C18.2802 4.6882 19.5431 5.53205 20.6069 6.59586C21.6707 7.65967 22.5146 8.92259 23.0903 10.3125C23.4544 11.1915 23.7067 12.1103 23.8431 13.0476Z" fill="white"/>
</svg>
