<svg width="29" height="27" viewBox="0 0 29 27" fill="none" xmlns="http://www.w3.org/2000/svg">
<path fill-rule="evenodd" clip-rule="evenodd" d="M1.86771 0.173122C1.45054 0.0214216 0.989373 0.236632 0.837673 0.653807C0.685972 1.07098 0.901183 1.53215 1.31836 1.68385L27.3132 11.1365V25.8744C27.3132 26.3183 27.673 26.6782 28.1169 26.6782C28.5608 26.6782 28.9207 26.3183 28.9207 25.8744V10.5735C28.9207 10.2355 28.7092 9.93367 28.3916 9.81817L1.86771 0.173122ZM1.85713 3.29708C1.45168 3.15135 1.00486 3.36189 0.859128 3.76735C0.713399 4.1728 0.923946 4.61962 1.3294 4.76535L24.2166 12.9915V25.0942H18.7551V25.0942V23.436C20.1013 23.0899 21.0962 21.868 21.0962 20.4137C21.0962 18.9594 20.1013 17.7374 18.7551 17.3913V15.7328C18.7551 14.4402 17.7072 13.3924 16.4147 13.3924H10.1738C8.88126 13.3924 7.83345 14.4402 7.83345 15.7328V17.3917C6.48799 17.7384 5.49392 18.96 5.49392 20.4137C5.49392 21.8674 6.48799 23.0889 7.83345 23.4356V25.0942V25.0942H1.59305C1.1622 25.0942 0.812935 25.4435 0.812935 25.8743C0.812935 26.3052 1.1622 26.6544 1.59305 26.6544H24.9798L24.9967 26.6546C25.4275 26.6546 25.7768 26.3053 25.7768 25.8745V12.443C25.7768 12.1138 25.5703 11.8201 25.2606 11.7088L1.85713 3.29708ZM17.1948 25.0942V25.0942H9.39368V25.0942V23.5341H17.1948V25.0942ZM17.9897 21.9738C18.845 21.9664 19.536 21.2707 19.536 20.4137C19.536 19.552 18.8374 18.8534 17.9758 18.8534H8.61438C7.75269 18.8534 7.05415 19.552 7.05415 20.4137C7.05415 21.2703 7.74457 21.9658 8.59933 21.9738L8.61357 21.9737L8.63133 21.9739H17.9572L17.9749 21.9737L17.9897 21.9738ZM9.39368 15.7328C9.39368 15.3019 9.74295 14.9526 10.1738 14.9526H16.4147C16.8456 14.9526 17.1948 15.3019 17.1948 15.7328V17.293H9.39368V15.7328ZM10.1748 20.4136C10.1748 20.8444 9.82553 21.1937 9.39468 21.1937C8.96384 21.1937 8.61457 20.8444 8.61457 20.4136C8.61457 19.9827 8.96384 19.6335 9.39468 19.6335C9.82553 19.6335 10.1748 19.9827 10.1748 20.4136ZM17.1953 21.1937C17.6262 21.1937 17.9754 20.8444 17.9754 20.4136C17.9754 19.9827 17.6262 19.6335 17.1953 19.6335C16.7645 19.6335 16.4152 19.9827 16.4152 20.4136C16.4152 20.8444 16.7645 21.1937 17.1953 21.1937Z" fill="white"/>
</svg>
