<svg width="40" height="22" viewBox="0 0 40 22" fill="none" xmlns="http://www.w3.org/2000/svg">
<path fill-rule="evenodd" clip-rule="evenodd" d="M0.308594 13.9922C0.308594 13.5352 0.67903 13.1648 1.13599 13.1648H38.3686C38.8256 13.1648 39.196 13.5352 39.196 13.9922C39.196 14.4491 38.8256 14.8196 38.3686 14.8196H1.13599C0.67903 14.8196 0.308594 14.4491 0.308594 13.9922Z" fill="white"/>
<path fill-rule="evenodd" clip-rule="evenodd" d="M7.75464 0.753845C8.2116 0.753845 8.58203 1.12428 8.58203 1.58124L8.58203 11.5099C8.58203 11.9669 8.2116 12.3373 7.75464 12.3373C7.29768 12.3373 6.92725 11.9669 6.92725 11.5099L6.92725 1.58124C6.92725 1.12428 7.29768 0.753845 7.75464 0.753845Z" fill="white"/>
<path fill-rule="evenodd" clip-rule="evenodd" d="M31.7488 0.753845C32.2057 0.753845 32.5762 1.12428 32.5762 1.58124L32.5762 11.5099C32.5762 11.9669 32.2057 12.3373 31.7488 12.3373C31.2918 12.3373 30.9214 11.9669 30.9214 11.5099L30.9214 1.58124C30.9214 1.12428 31.2918 0.753845 31.7488 0.753845Z" fill="white"/>
<path fill-rule="evenodd" clip-rule="evenodd" d="M7.75464 15.6469C8.2116 15.6469 8.58203 16.0173 8.58203 16.4742L8.58203 20.6112C8.58203 21.0682 8.2116 21.4386 7.75464 21.4386C7.29768 21.4386 6.92725 21.0682 6.92725 20.6112L6.92725 16.4742C6.92725 16.0173 7.29768 15.6469 7.75464 15.6469Z" fill="white"/>
<path fill-rule="evenodd" clip-rule="evenodd" d="M31.7488 15.6469C32.2057 15.6469 32.5762 16.0173 32.5762 16.4742L32.5762 20.6112C32.5762 21.0682 32.2057 21.4386 31.7488 21.4386C31.2918 21.4386 30.9214 21.0682 30.9214 20.6112L30.9214 16.4742C30.9214 16.0173 31.2918 15.6469 31.7488 15.6469Z" fill="white"/>
<path fill-rule="evenodd" clip-rule="evenodd" d="M32.4201 1.0966C32.6878 1.46694 32.6045 1.98417 32.2342 2.25186C21.4646 10.0363 11.0887 5.49505 7.21982 2.21218C6.8714 1.91653 6.82861 1.3944 7.12426 1.04598C7.41991 0.697552 7.94204 0.654768 8.29046 0.950417C11.7798 3.91124 21.3033 8.11113 31.2648 0.910738C31.6352 0.643049 32.1524 0.726264 32.4201 1.0966Z" fill="white"/>
<path fill-rule="evenodd" clip-rule="evenodd" d="M8.21417 0.892893C8.59438 1.14637 8.69712 1.66007 8.44364 2.04028L1.82451 11.969C1.57103 12.3492 1.05733 12.4519 0.677119 12.1985C0.296909 11.945 0.194168 11.4313 0.447642 11.0511L7.06678 1.12237C7.32025 0.74216 7.83396 0.63942 8.21417 0.892893Z" fill="white"/>
<path fill-rule="evenodd" clip-rule="evenodd" d="M31.2904 0.892893C31.6706 0.63942 32.1843 0.74216 32.4378 1.12237L39.0569 11.0511C39.3104 11.4313 39.2077 11.945 38.8274 12.1985C38.4472 12.4519 37.9335 12.3492 37.6801 11.969L31.0609 2.04028C30.8074 1.66007 30.9102 1.14637 31.2904 0.892893Z" fill="white"/>
<path fill-rule="evenodd" clip-rule="evenodd" d="M20.1672 4.89075C20.6242 4.89075 20.9946 5.26118 20.9946 5.71814V11.5099C20.9946 11.9668 20.6242 12.3373 20.1672 12.3373C19.7103 12.3373 19.3398 11.9668 19.3398 11.5099V5.71814C19.3398 5.26118 19.7103 4.89075 20.1672 4.89075Z" fill="white"/>
<path fill-rule="evenodd" clip-rule="evenodd" d="M13.5461 4.06332C14.0031 4.06332 14.3735 4.43376 14.3735 4.89072V11.5099C14.3735 11.9668 14.0031 12.3372 13.5461 12.3372C13.0892 12.3372 12.7188 11.9668 12.7188 11.5099V4.89072C12.7188 4.43376 13.0892 4.06332 13.5461 4.06332Z" fill="white"/>
<path fill-rule="evenodd" clip-rule="evenodd" d="M25.9583 4.06332C26.4152 4.06332 26.7856 4.43376 26.7856 4.89072V11.5099C26.7856 11.9668 26.4152 12.3372 25.9583 12.3372C25.5013 12.3372 25.1309 11.9668 25.1309 11.5099V4.89072C25.1309 4.43376 25.5013 4.06332 25.9583 4.06332Z" fill="white"/>
</svg>
