<svg width="30" height="25" viewBox="0 0 30 25" fill="none" xmlns="http://www.w3.org/2000/svg">
<path fill-rule="evenodd" clip-rule="evenodd" d="M15.2521 0.250149C14.9385 0.0579746 14.5437 0.0579746 14.2301 0.250149L0.912303 8.41269C0.451865 8.69489 0.307378 9.29692 0.589582 9.75736C0.871786 10.2178 1.47382 10.3623 1.93425 10.0801L2.59304 9.67631V10.8193L0.912303 11.8494C0.451865 12.1316 0.307378 12.7336 0.589582 13.1941C0.871786 13.6545 1.47382 13.799 1.93425 13.5168L2.59304 13.113V23.4234C2.59304 23.9634 3.03083 24.4012 3.57087 24.4012C4.11091 24.4012 4.5487 23.9634 4.5487 23.4234V11.9144L14.7411 5.66744L24.9331 11.9142V23.4234C24.9331 23.9634 25.3709 24.4012 25.911 24.4012C26.451 24.4012 26.8888 23.9634 26.8888 23.4234V13.1128L27.548 13.5168C28.0084 13.799 28.6104 13.6545 28.8926 13.1941C29.1748 12.7336 29.0304 12.1316 28.5699 11.8494L26.8888 10.819V9.67608L27.548 10.0801C28.0084 10.3623 28.6104 10.2178 28.8926 9.75736C29.1748 9.29692 29.0304 8.69489 28.5699 8.41269L15.2521 0.250149ZM24.9331 8.47745L14.7411 2.23072L4.5487 8.47768V9.62065L14.2301 3.68687C14.5437 3.49469 14.9385 3.49469 15.2521 3.68687L24.9331 9.62042V8.47745ZM23.1658 14.9989C23.5477 15.3808 23.5477 15.9999 23.1658 16.3818L19.5847 19.9629V23.4235C19.5847 23.9635 19.1469 24.4013 18.6069 24.4013C18.0668 24.4013 17.629 23.9635 17.629 23.4235V20.5347H11.28L7.69997 24.1147C7.31811 24.4966 6.69898 24.4966 6.31711 24.1147C5.93525 23.7329 5.93525 23.1137 6.31711 22.7319L10.1836 18.8654C10.367 18.682 10.6157 18.579 10.875 18.579H18.2029L21.783 14.9989C22.1648 14.6171 22.784 14.6171 23.1658 14.9989Z" fill="white"/>
</svg>
