<svg width="24" height="25" viewBox="0 0 24 25" fill="none" xmlns="http://www.w3.org/2000/svg">
<path fill-rule="evenodd" clip-rule="evenodd" d="M0.99983 16.8725C1.43703 16.8725 1.60386 17.0681 2.04106 17.8504C2.47826 18.6328 3.09379 19.7488 4.64126 19.7488C6.18872 19.7488 6.82726 18.5983 7.24721 17.8504C7.66715 17.1026 7.82247 16.8725 8.28844 16.8725C8.7544 16.8725 8.89246 17.0681 9.32967 17.8504C9.76687 18.6328 10.3824 19.7488 11.9299 19.7488C13.4773 19.7488 14.1159 18.5983 14.5301 17.8504C14.9443 17.1026 15.1053 16.8725 15.5713 16.8725C16.0373 16.8725 16.1753 17.0681 16.6125 17.8504C17.0497 18.6328 17.6653 19.7488 19.2185 19.7488C20.7717 19.7488 21.4045 18.5983 21.8187 17.8504C22.2329 17.1026 22.3939 16.8725 22.8599 16.8725C23.3365 16.8725 23.7228 16.4861 23.7228 16.0096C23.7228 15.533 23.3365 15.1467 22.8599 15.1467C21.3469 15.1467 20.7199 16.2972 20.3115 17.0163C19.903 17.7354 19.7362 18.023 19.2185 18.023C18.7007 18.023 18.5397 17.7641 18.1255 17.0163C17.7113 16.2684 17.09 15.1467 15.577 15.1467C14.0641 15.1467 13.4371 16.2972 13.0286 17.0163C12.6202 17.7354 12.4534 18.023 11.9356 18.023C11.4179 18.023 11.2568 17.7641 10.8426 17.0163C10.4284 16.2684 9.80714 15.1467 8.29419 15.1467C6.78124 15.1467 6.1542 16.2972 5.74577 17.0163C5.33733 17.7354 5.1705 18.023 4.65276 18.023C4.13502 18.023 3.97395 17.7641 3.55976 17.0163C3.14557 16.2684 2.52428 15.1467 1.01133 15.1467C0.53477 15.1467 0.148438 15.533 0.148438 16.0096C0.148438 16.4861 0.53477 16.8725 1.01133 16.8725H0.99983Z" fill="white"/>
<path fill-rule="evenodd" clip-rule="evenodd" d="M22.8599 20.3242C21.3469 20.3242 20.7199 21.4747 20.3115 22.1938C19.903 22.9129 19.7362 23.2005 19.2185 23.2005C18.7007 23.2005 18.5397 22.9416 18.1255 22.1938C17.7113 21.446 17.09 20.3242 15.577 20.3242C14.0641 20.3242 13.4371 21.4747 13.0286 22.1938C12.6202 22.9129 12.4534 23.2005 11.9356 23.2005C11.4179 23.2005 11.2568 22.9416 10.8426 22.1938C10.4284 21.446 9.80713 20.3242 8.29419 20.3242C6.78124 20.3242 6.1542 21.4747 5.74576 22.1938C5.33733 22.9129 5.1705 23.2005 4.65276 23.2005C4.13502 23.2005 3.97395 22.9416 3.55976 22.1938C3.14557 21.446 2.52428 20.3242 1.01133 20.3242C0.53477 20.3242 0.148438 20.7105 0.148438 21.1871C0.148438 21.6637 0.53477 22.05 1.01133 22.05C1.44854 22.05 1.61536 22.2456 2.05256 23.0279C2.48977 23.8103 3.1053 24.9263 4.65276 24.9263C6.20022 24.9263 6.83877 23.7758 7.25871 23.0279C7.67865 22.2801 7.83398 22.05 8.29994 22.05C8.7659 22.05 8.90397 22.2456 9.34117 23.0279C9.77837 23.8103 10.3939 24.9263 11.9414 24.9263C13.4888 24.9263 14.1274 23.7758 14.5416 23.0279C14.9558 22.2801 15.1168 22.05 15.5828 22.05C16.0488 22.05 16.1868 22.2456 16.624 23.0279C17.0612 23.8103 17.6768 24.9263 19.23 24.9263C20.7832 24.9263 21.416 23.7758 21.8302 23.0279C22.2444 22.2801 22.4054 22.05 22.8714 22.05C23.348 22.05 23.7343 21.6637 23.7343 21.1871C23.7343 20.7105 23.348 20.3242 22.8714 20.3242H22.8599Z" fill="white"/>
<path fill-rule="evenodd" clip-rule="evenodd" d="M10.9078 1.00086C10.9212 0.861475 10.9692 0.732194 11.0431 0.621701C11.2262 0.346851 11.5603 0.204476 11.8891 0.26867C11.9361 0.277752 11.9818 0.290822 12.0256 0.307514C15.0861 1.40429 16.9679 3.16614 18.0847 4.6738C18.642 5.4262 19.0068 6.1123 19.2342 6.61684C19.348 6.86929 19.4277 7.07698 19.4801 7.22574C19.5063 7.30014 19.5257 7.3599 19.5392 7.40325C19.5459 7.42493 19.5511 7.44251 19.555 7.45579L19.5598 7.47244L19.5614 7.47829L19.5621 7.48059L19.5623 7.48159C19.5625 7.48204 19.5626 7.48247 18.7668 7.69951L19.5626 7.48247C19.6304 7.73126 19.5784 7.99746 19.4219 8.20239C19.2653 8.40733 19.0222 8.52757 18.7643 8.52757H12.5588V10.1821H21.6396C21.6912 10.1808 21.7437 10.1844 21.7965 10.1932C22.2472 10.2684 22.5517 10.6947 22.4766 11.1454C22.4031 11.5863 22.2828 12.2042 21.9306 12.8879C21.5763 13.5756 21.0088 14.2906 20.0884 14.9809C19.7228 15.255 19.2042 15.1809 18.9301 14.8154C18.6559 14.4498 18.73 13.9312 19.0955 13.657C19.83 13.1062 20.2277 12.5801 20.4595 12.1301C20.5108 12.0306 20.555 11.9329 20.5934 11.8369H11.753L11.7314 11.8371L11.7098 11.8369H3.69731C3.73573 11.9329 3.77992 12.0306 3.83119 12.1301C4.06301 12.5801 4.46074 13.1062 5.19517 13.657C5.56074 13.9312 5.63482 14.4498 5.36065 14.8154C5.08648 15.1809 4.56787 15.255 4.2023 14.9809C3.28195 14.2906 2.71438 13.5756 2.36013 12.8879C2.0139 12.2158 1.89177 11.6074 1.81791 11.168C1.80795 11.1167 1.80273 11.0637 1.80273 11.0095L1.80273 11.0088C1.80271 10.9677 1.80577 10.927 1.81173 10.887C1.83607 10.723 1.90859 10.5746 2.01444 10.4567C2.14223 10.3145 2.31861 10.2168 2.51746 10.1897C2.5624 10.1835 2.60705 10.181 2.65107 10.1821H10.904V8.52756H5.93951C5.66287 8.52756 5.40453 8.38929 5.25108 8.15911C5.09762 7.92893 5.06937 7.63728 5.17578 7.38192C6.3392 4.58989 8.49167 2.69985 10.904 1.40526V1.0929C10.9035 1.06237 10.9048 1.03165 10.9078 1.00086ZM10.904 3.31363C9.428 4.22507 8.1627 5.38467 7.27849 6.87277H10.904V3.31363ZM12.5588 6.87278V2.31159C14.6289 3.27013 15.9415 4.56057 16.755 5.65877C17.0858 6.10537 17.3351 6.52167 17.5189 6.87278H12.5588Z" fill="white"/>
</svg>
