<svg width="27" height="27" viewBox="0 0 27 27" fill="none" xmlns="http://www.w3.org/2000/svg">
<path fill-rule="evenodd" clip-rule="evenodd" d="M2.55196 12.9776C2.54372 13.1536 2.53955 13.3308 2.53955 13.5089C2.53955 15.0907 2.86836 16.5957 3.46137 17.9593C6.86212 14.3997 10.9583 13.0421 13.1351 12.7392C13.4849 11.8174 13.8568 10.3343 13.9544 8.52402C8.22026 8.40482 4.07758 11.2424 2.75748 12.8025C2.69728 12.8737 2.62764 12.9321 2.55196 12.9776ZM2.99622 10.3373C5.23424 8.61441 9.09867 6.7746 13.9628 6.86906C13.9013 5.46626 13.6591 3.93344 13.1309 2.35379C8.31874 2.59928 4.3107 5.89028 2.99622 10.3373ZM13.284 14.3892C12.2308 14.5459 10.5961 15.0026 8.81849 15.9506C9.98007 18.243 13.0068 22.4238 19.5594 23.026C20.858 22.2261 21.9804 21.1679 22.8551 19.9229C17.5554 18.8205 14.4807 16.1235 13.284 14.3892ZM4.28469 19.5065C5.27412 18.3985 6.33972 17.5097 7.39604 16.8029C8.57489 19.0778 11.3369 22.8678 16.8214 24.2394C15.8336 24.5254 14.7894 24.6787 13.7093 24.6787C9.74771 24.6787 6.26778 22.6162 4.28469 19.5065ZM23.749 18.4106C24.4728 16.9308 24.8791 15.2673 24.8791 13.5089C24.8791 10.0919 23.3448 7.03321 20.9275 4.98432C21.739 8.22914 21.5959 11.1121 21.1946 13.2966C20.9517 14.6191 20.6139 15.6881 20.3343 16.4312C20.1945 16.803 20.069 17.094 19.9767 17.2952L19.9633 17.3243C21.0519 17.7711 22.31 18.1527 23.749 18.4106ZM18.4666 16.6183L18.4725 16.6055C18.5499 16.4366 18.6603 16.1814 18.7855 15.8486C19.036 15.1826 19.3446 14.2089 19.5671 12.9976C19.9686 10.8114 20.0888 7.85906 19.0883 4.53728C18.9895 4.2092 18.8797 3.8775 18.7582 3.54259C17.572 2.94046 16.2638 2.54389 14.8806 2.39975C16.2869 7.12339 15.4392 11.4026 14.6385 13.4388C15.2005 14.2583 16.437 15.5255 18.4666 16.6183ZM13.722 0.684289C20.799 0.691148 26.5339 6.43028 26.5339 13.5089C26.5339 20.5917 20.7922 26.3334 13.7093 26.3334C6.62653 26.3334 0.884766 20.5917 0.884766 13.5089C0.884766 6.42985 6.62035 0.690457 13.6979 0.684287L13.722 0.684289Z" fill="white"/>
</svg>
