<svg width="100" height="100" viewBox="0 0 100 100" fill="none" xmlns="http://www.w3.org/2000/svg">
<path fill-rule="evenodd" clip-rule="evenodd" d="M29.2755 55.5166C30.0884 55.5166 30.3986 55.8803 31.2115 57.335C32.0245 58.7897 33.169 60.8648 36.0464 60.8648C38.9237 60.8648 40.1111 58.7255 40.8919 57.335C41.6728 55.9444 41.9616 55.5166 42.828 55.5166C43.6944 55.5166 43.9511 55.8803 44.7641 57.335C45.577 58.7897 46.7215 60.8648 49.5989 60.8648C52.4763 60.8648 53.6636 58.7255 54.4337 57.335C55.2039 55.9444 55.5034 55.5166 56.3698 55.5166C57.2362 55.5166 57.4929 55.8803 58.3059 57.335C59.1188 58.7897 60.2633 60.8648 63.1514 60.8648C66.0395 60.8648 67.2161 58.7255 67.9862 57.335C68.7564 55.9444 69.0559 55.5166 69.9223 55.5166C70.8084 55.5166 71.5268 54.7982 71.5268 53.9121C71.5268 53.026 70.8084 52.3076 69.9223 52.3076C67.1091 52.3076 65.9432 54.4469 65.1837 55.784C64.4243 57.1211 64.1141 57.6559 63.1514 57.6559C62.1887 57.6559 61.8892 57.1745 61.1191 55.784C60.3489 54.3934 59.1937 52.3076 56.3805 52.3076C53.5673 52.3076 52.4014 54.4469 51.6419 55.784C50.8825 57.1211 50.5723 57.6559 49.6096 57.6559C48.6469 57.6559 48.3474 57.1745 47.5772 55.784C46.8071 54.3934 45.6519 52.3076 42.8387 52.3076C40.0255 52.3076 38.8596 54.4469 38.1001 55.784C37.3407 57.1211 37.0305 57.6559 36.0678 57.6559C35.1051 57.6559 34.8056 57.1745 34.0354 55.784C33.2653 54.3934 32.1101 52.3076 29.2969 52.3076C28.4107 52.3076 27.6924 53.026 27.6924 53.9121C27.6924 54.7982 28.4107 55.5166 29.2969 55.5166H29.2755Z" fill="black"/>
<path fill-rule="evenodd" clip-rule="evenodd" d="M69.9223 61.9346C67.1091 61.9346 65.9432 64.0739 65.1837 65.4109C64.4243 66.748 64.1141 67.2828 63.1514 67.2828C62.1887 67.2828 61.8892 66.8015 61.1191 65.4109C60.3489 64.0204 59.1937 61.9346 56.3805 61.9346C53.5673 61.9346 52.4014 64.0739 51.6419 65.4109C50.8825 66.748 50.5723 67.2828 49.6096 67.2828C48.6469 67.2828 48.3474 66.8015 47.5772 65.4109C46.8071 64.0204 45.6519 61.9346 42.8387 61.9346C40.0255 61.9346 38.8596 64.0739 38.1001 65.4109C37.3407 66.748 37.0305 67.2828 36.0678 67.2828C35.1051 67.2828 34.8056 66.8015 34.0354 65.4109C33.2653 64.0204 32.1101 61.9346 29.2969 61.9346C28.4107 61.9346 27.6924 62.6529 27.6924 63.5391C27.6924 64.4252 28.4107 65.1435 29.2969 65.1435C30.1098 65.1435 30.42 65.5072 31.2329 66.9619C32.0459 68.4167 33.1904 70.4918 36.0678 70.4918C38.9451 70.4918 40.1325 68.3525 40.9133 66.9619C41.6941 65.5714 41.983 65.1435 42.8494 65.1435C43.7158 65.1435 43.9725 65.5072 44.7854 66.9619C45.5984 68.4167 46.7429 70.4918 49.6203 70.4918C52.4976 70.4918 53.685 68.3525 54.4551 66.9619C55.2253 65.5714 55.5248 65.1435 56.3912 65.1435C57.2576 65.1435 57.5143 65.5072 58.3273 66.9619C59.1402 68.4167 60.2847 70.4918 63.1728 70.4918C66.0609 70.4918 67.2375 68.3525 68.0076 66.9619C68.7778 65.5714 69.0773 65.1435 69.9437 65.1435C70.8298 65.1435 71.5482 64.4252 71.5482 63.5391C71.5482 62.6529 70.8298 61.9346 69.9437 61.9346H69.9223Z" fill="black"/>
<path fill-rule="evenodd" clip-rule="evenodd" d="M47.7129 25.8975C47.7455 25.7035 47.8143 25.5219 47.9122 25.3598C48.1505 24.9652 48.5609 24.6863 49.0395 24.6272C49.1635 24.6116 49.2904 24.6111 49.4175 24.6268C49.5468 24.6425 49.6711 24.6742 49.7885 24.7199C55.4724 26.7596 58.9681 30.0331 61.0432 32.8345C62.0796 34.2336 62.7579 35.5093 63.1807 36.4474C63.3923 36.9169 63.5405 37.303 63.6379 37.5796C63.6866 37.718 63.7227 37.8291 63.7477 37.9097C63.7603 37.95 63.77 37.9827 63.7772 38.0074L63.7861 38.0384L63.7891 38.0492L63.7903 38.0535L63.7908 38.0554C63.791 38.0562 63.7913 38.057 62.3119 38.4605L63.7913 38.057C63.9174 38.5196 63.8207 39.0146 63.5296 39.3956C63.2386 39.7767 62.7865 40.0003 62.307 40.0003H50.7686V43.0772H67.6559C67.7333 43.0755 67.8117 43.0796 67.8907 43.0899C68.3569 43.1501 68.7577 43.4191 68.9963 43.8C69.047 43.8809 69.0904 43.9668 69.1255 44.0569C69.2148 44.2855 69.2504 44.5381 69.2195 44.7968C69.2158 44.8284 69.2112 44.8597 69.2056 44.8906C69.0686 45.709 68.8431 46.8486 68.194 48.1085C67.5353 49.3871 66.48 50.7166 64.7687 52.0001C64.089 52.5099 63.1246 52.3722 62.6148 51.6924C62.105 51.0127 62.2428 50.0484 62.9225 49.5386C64.2881 48.5144 65.0277 47.5361 65.4587 46.6994C65.5541 46.5143 65.6362 46.3326 65.7077 46.1541H34.2913C34.3628 46.3326 34.4449 46.5143 34.5403 46.6994C34.9713 47.5361 35.7109 48.5144 37.0765 49.5386C37.7562 50.0484 37.894 51.0127 37.3842 51.6924C36.8744 52.3722 35.9101 52.5099 35.2303 52.0001C33.519 50.7166 32.4637 49.3871 31.805 48.1085C31.1611 46.8585 30.934 45.7269 30.7967 44.91C30.7782 44.8147 30.7686 44.7163 30.7686 44.6156L30.7686 44.6104C30.7687 44.5388 30.7739 44.468 30.7838 44.3984C30.8294 44.0754 30.9754 43.7847 31.1891 43.5587C31.33 43.4094 31.5014 43.2874 31.6957 43.2034C31.8316 43.1445 31.9776 43.1046 32.1305 43.0872C32.202 43.0789 32.2729 43.0756 32.3431 43.0772H47.6916V40.0002H38.4605C37.9461 40.0002 37.4658 39.7431 37.1804 39.3151C36.8951 38.8871 36.8426 38.3448 37.0404 37.87C39.2037 32.6784 43.2061 29.164 47.6916 26.7568V26.1905C47.6893 26.0935 47.6962 25.9954 47.7129 25.8975ZM47.6916 30.3053C44.9471 32 42.5944 34.1562 40.9502 36.9233H47.6916V30.3053ZM50.7686 36.9233V28.4424C54.6177 30.2247 57.0582 32.6241 58.5708 34.666C59.1859 35.4964 59.6494 36.2705 59.9912 36.9233H50.7686Z" fill="black"/>
</svg>
