<svg width="100" height="100" viewBox="0 0 100 100" fill="none" xmlns="http://www.w3.org/2000/svg">
<path fill-rule="evenodd" clip-rule="evenodd" d="M47.4347 21.758C48.1633 21.3209 49.1083 21.5572 49.5455 22.2857L50.889 24.5249L52.2325 22.2857C52.6696 21.5572 53.6147 21.3209 54.3432 21.758C55.0718 22.1952 55.3081 23.1402 54.8709 23.8688L52.7783 27.3565L52.8908 27.4478C54.5089 28.7601 56.6071 30.4619 58.3555 32.8386C60.6066 35.8987 62.3086 40.0662 62.3086 46.1541C62.3086 47.0038 61.6198 47.6926 60.7701 47.6926C59.9205 47.6926 59.2317 47.0038 59.2317 46.1541C59.2317 40.7036 57.7285 37.1788 55.877 34.6619C54.7976 33.1947 53.6072 32.0638 52.4275 31.0592V67.6922H60.001V61.5385H58.4622C57.6125 61.5385 56.9238 60.8497 56.9238 60.0001C56.9238 59.1504 57.6125 58.4616 58.4622 58.4616H61.5391L61.5524 58.4617H70.7702C71.6199 58.4617 72.3087 59.1505 72.3087 60.0001V69.2309C72.3087 70.0806 71.6199 70.7694 70.7702 70.7694H61.5394L61.5151 70.7692H50.925C50.913 70.7694 50.901 70.7696 50.889 70.7696C50.877 70.7696 50.865 70.7694 50.853 70.7692H50.7699H40.021L40.0007 70.7693H30.7699C29.9202 70.7693 29.2314 70.0805 29.2314 69.2308V60.0001C29.2314 59.1504 29.9202 58.4616 30.7699 58.4616H40.0007L40.014 58.4617H43.0773C43.927 58.4617 44.6158 59.1505 44.6158 60.0001C44.6158 60.8498 43.927 61.5386 43.0773 61.5386H41.5391V67.6922H49.3505V46.7486C49.2739 46.5658 49.2315 46.365 49.2315 46.1543V30.9584C48.013 31.9881 46.7787 33.1453 45.663 34.6619C43.8115 37.1788 42.3084 40.7036 42.3084 46.1541C42.3084 47.0038 41.6196 47.6926 40.7699 47.6926C39.9202 47.6926 39.2314 47.0038 39.2314 46.1541C39.2314 40.0662 40.9334 35.8987 43.1845 32.8386C44.9329 30.4619 47.0311 28.7601 48.6492 27.4478L48.9217 27.2266L46.907 23.8688C46.4699 23.1402 46.7062 22.1952 47.4347 21.758ZM69.2317 61.5386V67.6922H63.0779V61.5386H69.2317ZM38.4622 67.6922V61.5385H32.3084V67.6922H38.4622Z" fill="black"/>
<path fill-rule="evenodd" clip-rule="evenodd" d="M68.8503 44.8518C68.6219 43.518 68.245 42.2106 67.7247 40.9544C66.8088 38.7432 65.4663 36.7341 63.774 35.0418C62.0817 33.3495 60.0726 32.007 57.8614 31.0912C55.6503 30.1753 53.2804 29.7039 50.8871 29.7039C48.4938 29.7039 46.1239 30.1753 43.9127 31.0912C41.7016 32.007 39.6925 33.3495 38.0002 35.0418C36.3078 36.7341 34.9654 38.7432 34.0495 40.9544C33.5292 42.2106 33.1523 43.518 32.9239 44.8518H68.8503ZM32.6583 44.8516C32.6574 44.8514 32.6583 44.8515 32.6583 44.8516V44.8516ZM71.967 44.8625C72.2116 46.5441 70.8113 47.9287 69.1119 47.9287H32.6622C30.9629 47.9287 29.5625 46.5441 29.8072 44.8625C30.0607 43.1197 30.5299 41.4112 31.2068 39.7769C32.2773 37.1924 33.8464 34.8442 35.8245 32.8661C37.8025 30.888 40.1508 29.319 42.7353 28.2485C45.3197 27.1779 48.0897 26.627 50.8871 26.627C53.6845 26.627 56.4545 27.1779 59.0389 28.2485C61.6234 29.319 63.9717 30.888 65.9497 32.8661C67.9278 34.8442 69.4969 37.1924 70.5674 39.7769C71.2443 41.4112 71.7135 43.1197 71.967 44.8625Z" fill="black"/>
</svg>
