<svg width="100" height="100" viewBox="0 0 100 100" fill="none" xmlns="http://www.w3.org/2000/svg">
<path fill-rule="evenodd" clip-rule="evenodd" d="M49.7828 47.6125C53.6227 47.6125 56.7356 44.4997 56.7356 40.6598C56.7356 36.8199 53.6227 33.707 49.7828 33.707C45.9429 33.707 42.8301 36.8199 42.8301 40.6598C42.836 44.4972 45.9454 47.6066 49.7828 47.6125ZM49.7828 36.916C51.8505 36.916 53.5266 38.5921 53.5266 40.6598C53.5266 42.7274 51.8505 44.4036 49.7828 44.4036C47.7152 44.4036 46.039 42.7274 46.039 40.6598C46.039 38.5921 47.7152 36.916 49.7828 36.916Z" fill="black"/>
<path fill-rule="evenodd" clip-rule="evenodd" d="M47.6445 50.8213V55.0999C47.6445 55.986 48.3629 56.7044 49.249 56.7044C50.1351 56.7044 50.8535 55.986 50.8535 55.0999V50.8213C50.8535 49.9351 50.1351 49.2168 49.249 49.2168C48.3629 49.2168 47.6445 49.9351 47.6445 50.8213Z" fill="black"/>
<path fill-rule="evenodd" clip-rule="evenodd" d="M49.249 32.1028C50.1351 32.1028 50.8535 31.3845 50.8535 30.4983V26.2197C50.8535 25.3336 50.1351 24.6152 49.249 24.6152C48.3629 24.6152 47.6445 25.3336 47.6445 26.2197V30.4983C47.6445 31.3845 48.3629 32.1028 49.249 32.1028Z" fill="black"/>
<path fill-rule="evenodd" clip-rule="evenodd" d="M34.8076 42.2646H39.0862C39.9723 42.2646 40.6907 41.5463 40.6907 40.6601C40.6907 39.774 39.9723 39.0557 39.0862 39.0557H34.8076C33.9215 39.0557 33.2031 39.774 33.2031 40.6601C33.2031 41.5463 33.9215 42.2646 34.8076 42.2646Z" fill="black"/>
<path fill-rule="evenodd" clip-rule="evenodd" d="M57.8066 40.6601C57.8066 41.5463 58.525 42.2646 59.4111 42.2646H63.6897C64.5759 42.2646 65.2942 41.5463 65.2942 40.6601C65.2942 39.774 64.5759 39.0557 63.6897 39.0557H59.4111C58.525 39.0557 57.8066 39.774 57.8066 40.6601Z" fill="black"/>
<path fill-rule="evenodd" clip-rule="evenodd" d="M40.9265 34.6053C41.5587 35.1944 42.5438 35.177 43.1549 34.566C43.7659 33.955 43.7832 32.9698 43.1942 32.3376L40.1671 29.3105C39.7671 28.8813 39.1647 28.7046 38.5962 28.8497C38.0277 28.9949 37.5838 29.4388 37.4386 30.0073C37.2934 30.5758 37.4701 31.1782 37.8994 31.5782L40.9265 34.6053Z" fill="black"/>
<path fill-rule="evenodd" clip-rule="evenodd" d="M55.3022 46.7144C54.6766 47.3408 54.6766 48.3556 55.3022 48.982L58.3294 52.0091C58.9615 52.5982 59.9467 52.5808 60.5577 51.9698C61.1687 51.3588 61.1861 50.3737 60.597 49.7415L57.5699 46.7144C56.9435 46.0887 55.9287 46.0887 55.3022 46.7144Z" fill="black"/>
<path fill-rule="evenodd" clip-rule="evenodd" d="M56.4361 35.0769C56.8615 35.0765 57.2693 34.9073 57.57 34.6063L60.5971 31.5792C61.1862 30.947 61.1688 29.9618 60.5578 29.3508C59.9467 28.7398 58.9616 28.7224 58.3294 29.3115L55.3023 32.3386C54.844 32.7975 54.707 33.4871 54.9551 34.0863C55.2032 34.6854 55.7876 35.0763 56.4361 35.0769Z" fill="black"/>
<path fill-rule="evenodd" clip-rule="evenodd" d="M40.9265 46.7138L37.8994 49.7409C37.4701 50.1409 37.2934 50.7433 37.4386 51.3118C37.5838 51.8803 38.0277 52.3242 38.5962 52.4694C39.1647 52.6146 39.7671 52.4379 40.1671 52.0086L43.1942 48.9815C43.7832 48.3493 43.7659 47.3642 43.1549 46.7531C42.5438 46.1421 41.5587 46.1248 40.9265 46.7138Z" fill="black"/>
<path fill-rule="evenodd" clip-rule="evenodd" d="M29.46 59.4853C30.273 59.4853 30.5832 59.849 31.3961 61.3037C32.209 62.7585 33.3536 64.8336 36.2309 64.8336C39.1083 64.8336 40.2956 62.6943 41.0765 61.3037C41.8573 59.9132 42.1461 59.4853 43.0126 59.4853C43.879 59.4853 44.1357 59.849 44.9486 61.3037C45.7616 62.7585 46.9061 64.8336 49.7835 64.8336C52.6608 64.8336 53.8481 62.6943 54.6183 61.3037C55.3884 59.9132 55.6879 59.4853 56.5544 59.4853C57.4208 59.4853 57.6775 59.849 58.4904 61.3037C59.3034 62.7585 60.4479 64.8336 63.336 64.8336C66.224 64.8336 67.4007 62.6943 68.1708 61.3037C68.9409 59.9132 69.2405 59.4853 70.1069 59.4853C70.993 59.4853 71.7114 58.767 71.7114 57.8808C71.7114 56.9947 70.993 56.2764 70.1069 56.2764C67.2937 56.2764 66.1278 58.4157 65.3683 59.7527C64.6089 61.0898 64.2987 61.6246 63.336 61.6246C62.3733 61.6246 62.0738 61.1433 61.3036 59.7527C60.5335 58.3622 59.3782 56.2764 56.5651 56.2764C53.7519 56.2764 52.5859 58.4157 51.8265 59.7527C51.067 61.0898 50.7568 61.6246 49.7942 61.6246C48.8315 61.6246 48.532 61.1433 47.7618 59.7527C46.9917 58.3622 45.8364 56.2764 43.0232 56.2764C40.2101 56.2764 39.0441 58.4157 38.2847 59.7527C37.5252 61.0898 37.215 61.6246 36.2523 61.6246C35.2897 61.6246 34.9901 61.1433 34.22 59.7527C33.4498 58.3622 32.2946 56.2764 29.4814 56.2764C28.5953 56.2764 27.877 56.9947 27.877 57.8808C27.877 58.767 28.5953 59.4853 29.4814 59.4853H29.46Z" fill="black"/>
<path fill-rule="evenodd" clip-rule="evenodd" d="M70.1069 65.9043C67.2937 65.9043 66.1278 68.0436 65.3683 69.3807C64.6089 70.7177 64.2987 71.2526 63.336 71.2526C62.3733 71.2526 62.0738 70.7712 61.3036 69.3807C60.5335 67.9901 59.3782 65.9043 56.5651 65.9043C53.7519 65.9043 52.5859 68.0436 51.8265 69.3807C51.067 70.7177 50.7568 71.2526 49.7942 71.2526C48.8315 71.2526 48.532 70.7712 47.7618 69.3807C46.9917 67.9901 45.8364 65.9043 43.0232 65.9043C40.2101 65.9043 39.0441 68.0436 38.2847 69.3807C37.5252 70.7177 37.215 71.2526 36.2523 71.2526C35.2897 71.2526 34.9901 70.7712 34.22 69.3807C33.4498 67.9901 32.2946 65.9043 29.4814 65.9043C28.5953 65.9043 27.877 66.6226 27.877 67.5088C27.877 68.3949 28.5953 69.1133 29.4814 69.1133C30.2944 69.1133 30.6046 69.4769 31.4175 70.9317C32.2304 72.3864 33.375 74.4615 36.2523 74.4615C39.1297 74.4615 40.317 72.3222 41.0979 70.9317C41.8787 69.5411 42.1675 69.1133 43.0339 69.1133C43.9004 69.1133 44.1571 69.4769 44.97 70.9317C45.783 72.3864 46.9275 74.4615 49.8048 74.4615C52.6822 74.4615 53.8695 72.3222 54.6397 70.9317C55.4098 69.5411 55.7093 69.1133 56.5758 69.1133C57.4422 69.1133 57.6989 69.4769 58.5118 70.9317C59.3248 72.3864 60.4693 74.4615 63.3574 74.4615C66.2454 74.4615 67.422 72.3222 68.1922 70.9317C68.9623 69.5411 69.2618 69.1133 70.1283 69.1133C71.0144 69.1133 71.7327 68.3949 71.7327 67.5088C71.7327 66.6226 71.0144 65.9043 70.1283 65.9043H70.1069Z" fill="black"/>
</svg>
