<svg width="100" height="100" viewBox="0 0 100 100" fill="none" xmlns="http://www.w3.org/2000/svg">
<path fill-rule="evenodd" clip-rule="evenodd" d="M29.2755 55.5166C30.0884 55.5166 30.3986 55.8803 31.2115 57.335C32.0245 58.7897 33.169 60.8648 36.0464 60.8648C38.9237 60.8648 40.1111 58.7255 40.8919 57.335C41.6728 55.9444 41.9616 55.5166 42.828 55.5166C43.6944 55.5166 43.9511 55.8803 44.7641 57.335C45.577 58.7897 46.7215 60.8648 49.5989 60.8648C52.4763 60.8648 53.6636 58.7255 54.4337 57.335C55.2039 55.9444 55.5034 55.5166 56.3698 55.5166C57.2362 55.5166 57.4929 55.8803 58.3059 57.335C59.1188 58.7897 60.2633 60.8648 63.1514 60.8648C66.0395 60.8648 67.2161 58.7255 67.9862 57.335C68.7564 55.9444 69.0559 55.5166 69.9223 55.5166C70.8084 55.5166 71.5268 54.7982 71.5268 53.9121C71.5268 53.026 70.8084 52.3076 69.9223 52.3076C67.1091 52.3076 65.9432 54.4469 65.1837 55.784C64.4243 57.1211 64.1141 57.6559 63.1514 57.6559C62.1887 57.6559 61.8892 57.1745 61.1191 55.784C60.3489 54.3934 59.1937 52.3076 56.3805 52.3076C53.5673 52.3076 52.4014 54.4469 51.6419 55.784C50.8825 57.1211 50.5723 57.6559 49.6096 57.6559C48.6469 57.6559 48.3474 57.1745 47.5772 55.784C46.8071 54.3934 45.6519 52.3076 42.8387 52.3076C40.0255 52.3076 38.8596 54.4469 38.1001 55.784C37.3407 57.1211 37.0305 57.6559 36.0678 57.6559C35.1051 57.6559 34.8056 57.1745 34.0354 55.784C33.2653 54.3934 32.1101 52.3076 29.2969 52.3076C28.4107 52.3076 27.6924 53.026 27.6924 53.9121C27.6924 54.7982 28.4107 55.5166 29.2969 55.5166H29.2755Z" fill="black"/>
<path fill-rule="evenodd" clip-rule="evenodd" d="M69.9223 61.9346C67.1091 61.9346 65.9432 64.0739 65.1837 65.4109C64.4243 66.748 64.1141 67.2828 63.1514 67.2828C62.1887 67.2828 61.8892 66.8015 61.1191 65.4109C60.3489 64.0204 59.1937 61.9346 56.3805 61.9346C53.5673 61.9346 52.4014 64.0739 51.6419 65.4109C50.8825 66.748 50.5723 67.2828 49.6096 67.2828C48.6469 67.2828 48.3474 66.8015 47.5772 65.4109C46.8071 64.0204 45.6519 61.9346 42.8387 61.9346C40.0255 61.9346 38.8596 64.0739 38.1001 65.4109C37.3407 66.748 37.0305 67.2828 36.0678 67.2828C35.1051 67.2828 34.8056 66.8015 34.0354 65.4109C33.2653 64.0204 32.1101 61.9346 29.2969 61.9346C28.4107 61.9346 27.6924 62.6529 27.6924 63.5391C27.6924 64.4252 28.4107 65.1435 29.2969 65.1435C30.1098 65.1435 30.42 65.5072 31.2329 66.9619C32.0459 68.4167 33.1904 70.4918 36.0678 70.4918C38.9451 70.4918 40.1325 68.3525 40.9133 66.9619C41.6941 65.5714 41.983 65.1435 42.8494 65.1435C43.7158 65.1435 43.9725 65.5072 44.7854 66.9619C45.5984 68.4167 46.7429 70.4918 49.6203 70.4918C52.4976 70.4918 53.685 68.3525 54.4551 66.9619C55.2253 65.5714 55.5248 65.1435 56.3912 65.1435C57.2576 65.1435 57.5143 65.5072 58.3273 66.9619C59.1402 68.4167 60.2847 70.4918 63.1728 70.4918C66.0609 70.4918 67.2375 68.3525 68.0076 66.9619C68.7778 65.5714 69.0773 65.1435 69.9437 65.1435C70.8298 65.1435 71.5482 64.4252 71.5482 63.5391C71.5482 62.6529 70.8298 61.9346 69.9437 61.9346H69.9223Z" fill="black"/>
<path fill-rule="evenodd" clip-rule="evenodd" d="M50.7693 33.077C50.7693 31.8025 51.8025 30.7693 53.077 30.7693C54.3515 30.7693 55.3847 31.8025 55.3847 33.077V36.9232H44.6159V33.0771C44.6159 30.1032 42.2051 27.6925 39.2313 27.6925C36.2575 27.6925 33.8467 30.1032 33.8467 33.0771V33.8463C33.8467 34.696 34.5355 35.3848 35.3851 35.3848C36.2348 35.3848 36.9236 34.696 36.9236 33.8463V33.0771C36.9236 31.8026 37.9568 30.7694 39.2313 30.7694C40.5058 30.7694 41.539 31.8026 41.539 33.0771V48.4617C41.539 49.3114 42.2278 50.0001 43.0774 50.0001C43.9271 50.0001 44.6159 49.3114 44.6159 48.4617V46.1539H55.3847V48.4616C55.3847 49.3113 56.0735 50.0001 56.9232 50.0001C57.7728 50.0001 58.4616 49.3113 58.4616 48.4616V33.077C58.4616 30.1032 56.0508 27.6924 53.077 27.6924C50.1032 27.6924 47.6924 30.1032 47.6924 33.077V33.8462C47.6924 34.6959 48.3812 35.3847 49.2308 35.3847C50.0805 35.3847 50.7693 34.6959 50.7693 33.8462V33.077ZM55.3847 43.077V40.0001H44.6159V43.077H55.3847Z" fill="black"/>
</svg>
