<svg width="100" height="100" viewBox="0 0 100 100" fill="none" xmlns="http://www.w3.org/2000/svg">
<path fill-rule="evenodd" clip-rule="evenodd" d="M50.6918 65.2305C58.6787 65.2305 65.1533 58.7558 65.1533 50.7689C65.1533 42.782 58.6787 36.3074 50.6918 36.3074C42.7049 36.3074 36.2302 42.782 36.2302 50.7689C36.2302 58.7558 42.7049 65.2305 50.6918 65.2305ZM50.6918 68.3074C60.378 68.3074 68.2302 60.4552 68.2302 50.7689C68.2302 41.0827 60.378 33.2305 50.6918 33.2305C41.0056 33.2305 33.1533 41.0827 33.1533 50.7689C33.1533 60.4552 41.0056 68.3074 50.6918 68.3074Z" fill="black"/>
<path d="M61.2152 50.7685C61.8609 50.7685 62.3905 50.2437 62.326 49.6012C62.1493 47.8402 61.5745 46.137 60.639 44.6227C59.4979 42.7759 57.8652 41.2832 55.9237 40.3119C53.9822 39.3405 51.8087 38.9289 49.6465 39.123C47.8737 39.2822 46.1659 39.8435 44.6507 40.758C44.0978 41.0916 43.9953 41.8301 44.3825 42.3469C44.7697 42.8637 45.4996 42.9615 46.0606 42.6417C47.2218 41.98 48.5155 41.5725 49.8556 41.4521C51.5854 41.2968 53.3242 41.6261 54.8774 42.4032C56.4306 43.1803 57.7367 44.3744 58.6496 45.8519C59.3568 46.9965 59.8064 48.2762 59.973 49.6023C60.0535 50.243 60.5695 50.7685 61.2152 50.7685Z" fill="#D9D9D9"/>
<path fill-rule="evenodd" clip-rule="evenodd" d="M47.1798 42.0991C48.0309 41.7543 48.9322 41.535 49.8556 41.4521C51.5854 41.2968 53.3242 41.6261 54.8774 42.4032C56.4306 43.1803 57.7367 44.3744 58.6496 45.8519C59.1369 46.6406 59.5018 47.4934 59.7362 48.3813C59.842 48.782 59.9212 49.1899 59.973 49.6023C59.9829 49.681 59.9993 49.7579 60.0218 49.8324C60.1822 50.3641 60.6488 50.7685 61.2152 50.7685C61.8609 50.7685 62.3905 50.2437 62.326 49.6012C62.3163 49.5042 62.3053 49.4073 62.2932 49.3107C62.2317 48.8213 62.1394 48.3369 62.017 47.8604C61.725 46.7232 61.262 45.631 60.639 44.6227C59.4979 42.7759 57.8652 41.2832 55.9237 40.3119C53.9822 39.3405 51.8087 38.9289 49.6465 39.123C48.466 39.229 47.3143 39.5133 46.2291 39.9615C45.7744 40.1493 45.3314 40.3658 44.9028 40.6101C44.8182 40.6583 44.7341 40.7076 44.6507 40.758C44.0978 41.0916 43.9953 41.8301 44.3825 42.3469C44.7221 42.8002 45.3255 42.9311 45.8472 42.7407C45.9203 42.714 45.9917 42.681 46.0606 42.6417C46.4217 42.436 46.7957 42.2547 47.1798 42.0991Z" fill="black"/>
<path fill-rule="evenodd" clip-rule="evenodd" d="M25.8451 33.1533C26.6948 33.1533 27.3836 33.8421 27.3836 34.6918V66.8456C27.3836 67.6953 26.6948 68.3841 25.8451 68.3841C24.9954 68.3841 24.3066 67.6953 24.3066 66.8456V34.6918C24.3066 33.8421 24.9954 33.1533 25.8451 33.1533ZM72.6143 33.1533C73.464 33.1533 74.1528 33.8421 74.1528 34.6918V66.8456C74.1528 67.6953 73.464 68.3841 72.6143 68.3841C71.7647 68.3841 71.0759 67.6953 71.0759 66.8456V34.6918C71.0759 33.8421 71.7647 33.1533 72.6143 33.1533Z" fill="black"/>
<path fill-rule="evenodd" clip-rule="evenodd" d="M71.2653 33.9554C71.6722 33.2095 72.6067 32.9346 73.3526 33.3415C74.7385 34.0974 76.3876 35.9512 77.6819 38.9444C78.9972 41.9865 80.0005 46.3193 80.0005 52.2305C80.0005 53.0802 79.3117 53.769 78.4621 53.769H72.6159C71.7662 53.769 71.0774 53.0802 71.0774 52.2305C71.0774 51.3809 71.7662 50.6921 72.6159 50.6921H76.8988C76.7428 45.9338 75.872 42.5115 74.8576 40.1656C73.716 37.5253 72.442 36.3497 71.8792 36.0427C71.1333 35.6358 70.8584 34.7013 71.2653 33.9554Z" fill="black"/>
<path fill-rule="evenodd" clip-rule="evenodd" d="M21.4613 33.1533C22.311 33.1533 22.9998 33.8421 22.9998 34.6918V40.461H28.6921V34.6918C28.6921 33.8421 29.3809 33.1533 30.2305 33.1533C31.0802 33.1533 31.769 33.8421 31.769 34.6918V41.9995C31.769 42.8491 31.0802 43.5379 30.2305 43.5379H21.4613C20.6116 43.5379 19.9229 42.8491 19.9229 41.9995V34.6918C19.9229 33.8421 20.6116 33.1533 21.4613 33.1533Z" fill="black"/>
<path d="M19.999 40.7817C19.999 40.6471 20.1081 40.5381 20.2426 40.5381H31.4477C31.5823 40.5381 31.6913 40.6471 31.6913 40.7817V44.9227C31.6913 48.1514 29.0739 50.7689 25.8452 50.7689L-nan -nanL25.8452 50.7689C22.6164 50.7689 19.999 48.1514 19.999 44.9227V40.7817Z" fill="#E5E5E5"/>
<path fill-rule="evenodd" clip-rule="evenodd" d="M23.0759 43.615V44.9227C23.0759 46.4521 24.3158 47.6919 25.8452 47.6919C27.3746 47.6919 28.6144 46.4521 28.6144 44.9227V43.615H23.0759ZM20.2426 40.5381C20.1081 40.5381 19.999 40.6471 19.999 40.7817V44.9227C19.999 48.1514 22.6164 50.7689 25.8452 50.7689C29.0739 50.7689 31.6913 48.1514 31.6913 44.9227V40.7817C31.6913 40.6471 31.5823 40.5381 31.4477 40.5381H20.2426Z" fill="black"/>
</svg>
