<svg width="100" height="100" viewBox="0 0 100 100" fill="none" xmlns="http://www.w3.org/2000/svg">
<path fill-rule="evenodd" clip-rule="evenodd" d="M13.8467 55.3842C13.8467 54.5345 14.5355 53.8457 15.3851 53.8457H84.6159C85.4656 53.8457 86.1544 54.5345 86.1544 55.3842C86.1544 56.2338 85.4656 56.9226 84.6159 56.9226H15.3851C14.5355 56.9226 13.8467 56.2338 13.8467 55.3842Z" fill="black"/>
<path fill-rule="evenodd" clip-rule="evenodd" d="M27.693 30.769C28.5427 30.769 29.2314 31.4578 29.2314 32.3075L29.2314 50.769C29.2314 51.6187 28.5427 52.3075 27.693 52.3075C26.8433 52.3075 26.1545 51.6187 26.1545 50.769L26.1545 32.3075C26.1545 31.4578 26.8433 30.769 27.693 30.769Z" fill="black"/>
<path fill-rule="evenodd" clip-rule="evenodd" d="M72.3082 30.769C73.1579 30.769 73.8467 31.4578 73.8467 32.3075L73.8467 50.769C73.8467 51.6187 73.1579 52.3075 72.3082 52.3075C71.4586 52.3075 70.7698 51.6187 70.7698 50.769L70.7698 32.3075C70.7698 31.4578 71.4585 30.769 72.3082 30.769Z" fill="black"/>
<path fill-rule="evenodd" clip-rule="evenodd" d="M27.693 58.4614C28.5427 58.4614 29.2314 59.1502 29.2314 59.9999L29.2314 67.6922C29.2314 68.5419 28.5427 69.2307 27.693 69.2307C26.8433 69.2307 26.1545 68.5419 26.1545 67.6922L26.1545 59.9999C26.1545 59.1502 26.8433 58.4614 27.693 58.4614Z" fill="black"/>
<path fill-rule="evenodd" clip-rule="evenodd" d="M72.3082 58.4614C73.1579 58.4614 73.8467 59.1502 73.8467 59.9999L73.8467 67.6922C73.8467 68.5419 73.1579 69.2307 72.3082 69.2307C71.4585 69.2307 70.7698 68.5419 70.7698 67.6922L70.7698 59.9999C70.7698 59.1502 71.4585 58.4614 72.3082 58.4614Z" fill="black"/>
<path fill-rule="evenodd" clip-rule="evenodd" d="M73.555 31.4064C74.0528 32.095 73.898 33.0567 73.2094 33.5545C53.1843 48.029 33.8913 39.5849 26.6974 33.4807C26.0495 32.931 25.97 31.9601 26.5197 31.3122C27.0695 30.6644 28.0403 30.5848 28.6882 31.1346C35.1763 36.6399 52.8843 44.4493 71.4069 31.0608C72.0955 30.563 73.0573 30.7178 73.555 31.4064Z" fill="black"/>
<path fill-rule="evenodd" clip-rule="evenodd" d="M28.5464 31.0276C29.2533 31.4989 29.4444 32.4541 28.9731 33.1611L16.6654 51.6226C16.1941 52.3296 15.2389 52.5206 14.5319 52.0493C13.825 51.578 13.6339 50.6228 14.1052 49.9158L26.4129 31.4543C26.8842 30.7473 27.8394 30.5563 28.5464 31.0276Z" fill="black"/>
<path fill-rule="evenodd" clip-rule="evenodd" d="M71.4548 31.0276C72.1617 30.5563 73.1169 30.7473 73.5882 31.4543L85.8959 49.9158C86.3672 50.6228 86.1762 51.578 85.4692 52.0493C84.7623 52.5206 83.8071 52.3296 83.3358 51.6226L71.0281 33.1611C70.5568 32.4541 70.7478 31.4989 71.4548 31.0276Z" fill="black"/>
<path fill-rule="evenodd" clip-rule="evenodd" d="M50.7699 38.4614C51.6196 38.4614 52.3084 39.1502 52.3084 39.9999V50.7691C52.3084 51.6188 51.6196 52.3076 50.7699 52.3076C49.9202 52.3076 49.2314 51.6188 49.2314 50.7691V39.9999C49.2314 39.1502 49.9202 38.4614 50.7699 38.4614Z" fill="black"/>
<path fill-rule="evenodd" clip-rule="evenodd" d="M38.4623 36.9229C39.312 36.9229 40.0008 37.6116 40.0008 38.4613V50.769C40.0008 51.6187 39.312 52.3075 38.4623 52.3075C37.6126 52.3075 36.9238 51.6187 36.9238 50.769V38.4613C36.9238 37.6116 37.6126 36.9229 38.4623 36.9229Z" fill="black"/>
<path fill-rule="evenodd" clip-rule="evenodd" d="M61.5394 36.9229C62.3891 36.9229 63.0779 37.6116 63.0779 38.4613V50.769C63.0779 51.6187 62.3891 52.3075 61.5394 52.3075C60.6898 52.3075 60.001 51.6187 60.001 50.769V38.4613C60.001 37.6116 60.6898 36.9229 61.5394 36.9229Z" fill="black"/>
</svg>
