<svg width="100" height="100" viewBox="0 0 100 100" fill="none" xmlns="http://www.w3.org/2000/svg">
<path fill-rule="evenodd" clip-rule="evenodd" d="M50.0002 29.6152C41.2309 29.6152 34.2309 36.4782 34.2309 44.812C34.2309 48.9254 36.3534 53.4441 39.6958 58.0592C42.6378 62.1216 46.3738 66.0561 49.9809 69.6028C53.7792 65.7769 57.5432 61.8234 60.4633 57.8023C63.7441 53.2845 65.7694 48.9328 65.7694 44.812C65.7694 36.4782 58.7694 29.6152 50.0002 29.6152ZM30.3848 44.812C30.3848 34.2357 39.227 25.769 50.0002 25.769C60.7733 25.769 69.6155 34.2357 69.6155 44.812C69.6155 50.1462 67.0255 55.3114 63.5754 60.0623C60.1083 64.8368 55.58 69.4473 51.36 73.6673C50.6177 74.4096 49.4173 74.4195 48.6629 73.6895C44.6297 69.7869 40.1034 65.1792 36.5807 60.3152C33.0875 55.4918 30.3848 50.1536 30.3848 44.812Z" fill="black"/>
<path fill-rule="evenodd" clip-rule="evenodd" d="M50.0005 38.8462C47.239 38.8462 45.0005 41.0847 45.0005 43.8462C45.0005 46.6076 47.239 48.8462 50.0005 48.8462C52.7619 48.8462 55.0005 46.6076 55.0005 43.8462C55.0005 41.0847 52.7619 38.8462 50.0005 38.8462ZM41.1543 43.8462C41.1543 38.9606 45.1149 35 50.0005 35C54.886 35 58.8466 38.9606 58.8466 43.8462C58.8466 48.7317 54.886 52.6923 50.0005 52.6923C45.1149 52.6923 41.1543 48.7317 41.1543 43.8462Z" fill="black"/>
</svg>
