<svg width="100" height="100" viewBox="0 0 100 100" fill="none" xmlns="http://www.w3.org/2000/svg">
<path fill-rule="evenodd" clip-rule="evenodd" d="M29.2533 49.0126C29.238 49.3401 29.2302 49.6695 29.2302 50.0007C29.2302 52.9418 29.8416 55.7402 30.9441 58.2756C37.2672 51.6572 44.883 49.1328 48.9309 48.5694C49.5813 46.8553 50.2728 44.0976 50.4543 40.7314C39.7927 40.5102 32.0903 45.7862 29.6358 48.687C29.5238 48.8193 29.3942 48.9281 29.2533 49.0126ZM30.0794 44.1034C34.2406 40.8999 41.4258 37.4789 50.4698 37.6542C50.3555 35.0459 49.9052 32.1959 48.923 29.2589C39.9757 29.7157 32.5235 35.8348 30.0794 44.1034ZM49.2077 51.6375C47.2494 51.929 44.2102 52.7781 40.9054 54.5406C43.0653 58.8031 48.6933 66.577 60.8776 67.6967C63.2919 66.2094 65.3789 64.2418 67.0052 61.9271C57.1502 59.8773 51.4328 54.8623 49.2077 51.6375ZM32.475 61.1524C34.3148 59.0921 36.2963 57.4395 38.2605 56.1253C40.4525 60.3554 45.5884 67.4026 55.7868 69.9529C53.9498 70.4848 52.0079 70.7699 49.9995 70.7699C42.633 70.7699 36.1623 66.9349 32.475 61.1524ZM68.6672 59.115C70.0132 56.3634 70.7687 53.2703 70.7687 50.0007C70.7687 43.6465 67.9152 37.9588 63.4198 34.1491C64.9289 40.1828 64.6628 45.5438 63.9167 49.6058C63.465 52.065 62.8368 54.0526 62.3171 55.4344C62.057 56.1257 61.8236 56.6667 61.6521 57.0409L61.6271 57.0951C63.6515 57.9259 65.9913 58.6355 68.6672 59.115ZM58.8442 55.7823L58.8551 55.7584C58.9991 55.4445 59.2044 54.9699 59.4371 54.3511C59.903 53.1126 60.4767 51.3022 60.8904 49.0499C61.637 44.9849 61.8605 39.4952 60.0002 33.3187C59.8164 32.7085 59.6123 32.0916 59.3863 31.4687C57.1806 30.3493 54.7483 29.6121 52.1764 29.3442C54.7913 38.1274 53.2151 46.0843 51.7262 49.8704C52.7712 51.3941 55.0704 53.7504 58.8442 55.7823ZM50.0279 26.1546C63.1847 26.1699 73.8456 36.8403 73.8456 50.0007C73.8456 63.1706 63.1693 73.8468 49.9995 73.8468C36.8296 73.8468 26.1533 63.1706 26.1533 50.0007C26.1533 36.8402 36.8145 26.1697 49.9715 26.1546C49.9903 26.1542 50.0091 26.1542 50.0279 26.1546Z" fill="black"/>
</svg>
