<svg width="253" height="199" viewBox="0 0 253 199" fill="none" xmlns="http://www.w3.org/2000/svg">
<g clip-path="url(#clip0_2420_11207)">
<path d="M76.9943 105.213C77.922 106.96 78.8855 108.654 79.8846 110.294C81.3178 109.64 82.6678 108.779 83.203 108.351C82.7629 108.803 81.746 109.92 80.5447 111.352C84.1665 117.128 88.1926 122.238 92.3496 126.73C93.765 124.425 94.1813 123.046 94.2527 122.274C94.4251 123.634 94.7463 126.421 94.9544 129.458C95.8405 130.355 96.7326 131.223 97.6246 132.061C97.6127 131.918 97.6068 131.781 97.589 131.633C96.4531 122.161 99.8072 119.505 99.8072 119.505C99.8072 119.505 96.4352 126.998 99.2779 133.011C99.2779 133.011 99.1649 125.631 101.139 121.495C103.114 117.359 102.37 116.498 106.759 112.332C111.148 108.167 119.141 100.786 120.646 97.1201C122.15 93.4538 121.657 99.1108 118.939 103.651C116.221 108.196 125.635 98.8671 127.164 95.8663C128.692 92.8655 124.672 100.656 125.968 102.848C126.676 98.5582 130.542 97.5658 136.013 93.2398C141.484 88.9139 128.876 99.1108 132.504 106.705C136.132 114.299 127.158 97.3043 142.608 91.6711C134.752 104.756 144.416 113.515 144.416 113.515C144.416 113.515 140.515 103.199 144.933 98.5581C149.346 93.9113 154.954 94.4223 158.891 91.8018C158.891 91.8018 172.314 83.7679 170.048 79.7747C165.986 82.8765 157.321 83.8808 157.321 83.8808C157.321 83.8808 152.153 84.1601 154.371 80.5175C156.59 76.8749 159.248 76.9699 160.634 76.7739C162.013 76.5778 171.083 76.5302 174.187 71.9963C177.291 67.4683 177.392 63.7722 174.532 61.3597C172.076 59.7374 169.001 60.2782 165.504 55.5006C165.504 55.5006 164.773 53.5813 167.062 54.5142C169.352 55.4471 172.563 57.4615 176.905 56.2374C181.246 55.0133 182.941 53.5872 182.21 50.9132C181.478 48.2392 170.553 40.8708 166.355 36.4379C157.303 26.8649 135.519 15.438 114.8 27.0313C110.922 28.9388 107.479 30.4778 104.773 31.9336C104.951 31.8029 105.136 31.6841 105.326 31.5771C108.972 29.5805 98.8914 34.7919 94.1694 34.2214C89.4474 33.645 83.5598 33.9778 82.3526 34.9761C82.3526 34.9761 88.9122 34.1858 94.3954 37.5728C96.0843 38.6187 97.4224 38.6365 98.5762 38.1076C98.5643 38.2443 98.5583 38.3869 98.5643 38.5295C99.0936 40.4132 105.183 43.5983 105.183 43.5983C105.183 43.5983 98.3204 44.5134 97.7376 48.774C97.1548 53.0346 91.6954 53.6229 91.297 57.3189C90.8985 61.015 91.065 62.0965 90.286 64.3605C89.5069 66.6245 92.2782 65.4598 89.7626 70.9207C87.2411 76.3817 86.7772 75.9003 85.8554 77.0175C84.9336 78.1346 85.1061 80.5947 81.5319 82.3596C77.9577 84.1244 84.2913 82.9776 89.0252 79.4835C93.759 75.9895 80.9848 88.8545 77.4641 89.9062C73.9435 90.958 78.7844 91.6354 81.6687 90.0964C84.553 88.5573 76.5066 96.9003 74.8296 98.5581C73.1525 100.216 80.2533 96.2763 80.2533 96.2763C80.2533 96.2763 80.4614 101.214 77.0121 105.213H76.9943ZM122.483 55.2035C117.749 53.2841 116.715 48.4056 116.715 48.4056C116.715 48.4056 116.715 47.6687 120.705 51.8342C124.696 55.9998 133.271 51.8342 133.271 51.8342C132.534 52.4522 127.211 57.1228 122.477 55.2035H122.483ZM127.187 56.9386C133.842 57.0159 135.573 52.5711 135.573 52.5711C135.573 52.5711 133.027 54.2052 134.508 52.8028C135.787 51.5906 135.591 51.0499 135.519 50.9251C136.019 51.65 140.545 54.4132 138.6 53.5991C136.625 52.7672 132.587 57.9191 127.187 56.9446V56.9386ZM143.381 87.7789C141.115 89.2407 149.84 78.2654 149.84 78.2654C149.84 78.2654 145.647 86.3171 143.381 87.7789ZM164.529 67.6584C164.428 66.6126 166.188 66.8265 166.188 66.8265L165.73 67.2365C165.272 67.6466 164.63 68.7043 164.529 67.6644V67.6584ZM170.643 66.8265L171.035 63.9505C171.035 63.9505 172.088 66.6007 170.643 70.3087C169.191 74.0167 170.643 66.8265 170.643 66.8265ZM169.162 62.2035C169.162 62.2035 169.061 64.5685 167.782 65.5549C166.503 66.5413 169.162 62.2035 169.162 62.2035ZM169.162 65.6975C169.162 65.6975 168.139 69.2034 166.188 71.4674C164.238 73.7314 169.162 65.6975 169.162 65.6975ZM166.188 63.9505C166.188 63.9505 166.599 65.2697 165.219 65.0676C164.44 64.9547 161.413 67.5277 158.612 70.5226C155.9 73.8443 153.682 77.1779 153.682 77.1779C154.413 75.4131 156.441 72.846 158.612 70.5226C161.169 67.391 164.166 64.2714 166.182 63.9505H166.188ZM142.697 82.2526C149.055 75.211 159.409 66.1907 159.409 66.1907C155.763 70.178 147.187 77.5701 142.697 82.2526ZM159.01 62.0846L157.196 62.6313C156.863 61.4785 159.01 62.0846 159.01 62.0846ZM134.574 73.6304C132.332 74.3732 130.381 74.8902 129.043 75.009C130.292 74.7297 132.183 74.2959 134.574 73.6304C143.233 70.7722 156.352 64.5447 156.352 64.5447C147.764 69.4352 139.932 72.127 134.574 73.6304ZM129.043 63.4929C134.758 62.4174 151.053 64.3189 151.053 64.3189C138.695 63.1483 123.328 64.5685 129.043 63.4929ZM130.97 38.1017C137.672 39.9319 141.924 46.6526 140.848 46.8368C139.771 47.021 135.24 41.2095 129.4 39.5635C123.56 37.9175 114.722 40.6331 114.621 40.0508C114.52 39.4684 124.267 36.2715 130.97 38.1017ZM117.089 40.8351C119.676 40.2825 119.968 41.3165 119.968 41.3165C119.968 41.3165 115.977 41.6136 114.205 43.83C114.205 43.83 114.496 41.3878 117.083 40.8351H117.089ZM127.223 41.3165C131.808 43.5329 135.501 48.2629 135.501 48.2629C133.878 47.5261 133.432 48.2629 132.694 48.5601C131.957 48.8572 130.922 51.3648 126.04 51.8105C121.163 52.2561 118.499 47.5261 117.91 46.3436C117.321 45.1611 114.211 46.4922 114.211 46.4922C115.246 45.1611 122.638 39.1059 127.223 41.3224V41.3165ZM115.085 55.2332C118.725 58.4123 123.215 57.9548 123.215 57.9548C115.953 59.3631 111.446 52.0541 115.085 55.2332ZM100.854 107.887C100.384 107.959 99.9024 107.953 99.4087 107.87C96.8991 108.904 94.217 108.856 91.743 106.693L91.071 105.356C91.071 105.356 96.3995 108.648 103.399 103.068C102.228 103.33 100.979 103.169 99.6942 102.349L99.0876 101.494C99.0876 101.494 105.695 104.316 110.94 93.1031C111.154 93.8519 110.256 96.4189 108.668 98.778C108.246 100.757 106.212 104.827 103.393 106.812C100.075 111.72 93.3011 117.918 87.6038 112.938L86.9318 111.601C86.9318 111.601 93.087 115.398 100.86 107.899L100.854 107.887Z" fill="white"/>
<path d="M71.6469 91.5344C73.1455 88.4207 74.216 86.3587 74.216 86.3587L70.8262 88.486C71.0878 89.52 71.3614 90.5361 71.6469 91.5344Z" fill="white"/>
<path d="M79.9849 43.3071C77.5466 47.0983 81.6857 51.5134 81.6857 51.5134C81.6857 51.5134 76.7318 43.9905 86.7883 40.7401C86.7883 40.7401 82.4291 39.516 79.9849 43.3012V43.3071Z" fill="white"/>
<path d="M127.663 46.3317C131.802 45.2918 128.549 43.3844 128.549 43.3844C128.549 43.3844 127.217 42.3504 124.868 42.3504C122.518 42.3504 120.122 43.5329 119.973 44.858C119.824 46.1832 123.523 47.3716 127.663 46.3317Z" fill="white"/>
<path d="M136.5 115.244C144.195 123.92 139.307 128.549 139.307 128.549L140.27 128.347C146.063 124.437 138.171 115.47 136.5 115.25V115.244Z" fill="white"/>
<path d="M90.9278 45.6899C90.9278 45.6899 87.9721 44.5847 85.8252 46.7952C83.6783 49.0117 90.9278 45.6899 90.9278 45.6899Z" fill="white"/>
<path d="M78.6586 71.4556C78.2661 71.5566 76.8805 73.0303 76.8805 73.0303C76.0836 71.6101 85.4621 57.1704 85.4621 57.1704L80.6331 56.4454C78.2661 56.701 75.3104 50.2001 73.5382 44.4837C71.766 38.7613 74.7217 34.7146 77.6833 32.8428C80.645 30.971 87.5614 31.6484 87.5614 31.6484C87.5614 31.6484 92.7591 26.443 100.615 24.7495C108.471 23.0559 125.337 17.7733 131.1 17.9337C136.862 18.0942 158.426 25.9795 159.598 26.6391C160.77 27.3047 163.737 28.6119 165.414 32.3496C167.097 36.0932 169.988 37.5669 175.179 40.544C180.371 43.5211 182.857 49.7604 182.857 49.7604C182.857 49.7604 185.022 53.4268 180.549 60.6169C182.25 66.3749 180.99 69.7145 179.247 71.6338C179.348 71.6457 179.348 71.7111 179.211 71.8596C177.1 74.1355 175.251 75.318 173.8 75.9241C173.562 77.7187 172.795 82.1813 170.636 85.5684C167.876 89.9003 165.313 91.7721 162.78 92.6575C160.246 93.5429 157.725 95.8663 157.725 95.8663C157.082 96.7517 156.654 97.6312 156.398 98.5106C148.881 104.031 159.158 116.979 161.513 117.419C155.756 110.187 155.388 105.017 156.232 101.815C157.035 106.378 161.828 110.728 166.348 114.483C167.573 115.5 168.655 116.516 169.631 117.556C172.58 113.55 175.352 109.177 177.826 104.399C190.535 79.8757 189.982 27.0848 189.458 10.5653L127.193 7.42783L64.9269 10.5653C64.4987 24.0245 64.0467 61.5677 70.7788 88.284C71.7184 82.627 79.0452 71.3605 78.6586 71.4556Z" fill="white"/>
<path d="M126.806 159.347C126.806 159.347 163.767 145.056 183.512 106.955C199.878 75.3834 195.65 3.47027 195.65 3.47027L126.806 0L57.9634 3.47027C57.9634 3.47027 53.7351 75.3834 70.1013 106.955C89.8456 145.056 126.806 159.347 126.806 159.347ZM63.7618 9.98298L63.7796 9.44223L64.3208 9.41252L127.193 6.2453H127.223L190.606 9.44223L190.624 9.98298C191.154 25.926 191.861 79.8876 178.879 104.946C163.179 135.24 135.537 149.893 127.443 153.661L127.193 153.779L126.943 153.661C118.843 149.893 91.2074 135.24 75.5072 104.946C62.5129 79.8757 63.2325 25.926 63.7618 9.98298Z" fill="white"/>
<path d="M176.899 71.8656C182.251 65.858 178.368 61.4013 177.755 61.0982C177.143 60.7952 176.363 60.5278 177.678 62.2986C180.687 67.5693 176.001 72.234 176.899 71.8656Z" fill="white"/>
<path d="M67.5732 153.524C67.5732 153.524 79.9134 155.491 82.5063 150.482C85.0159 154.802 96.8625 160.381 111.706 160.381C111.706 160.381 97.6178 155.913 88.0906 150.482C78.7478 145.157 69.5358 137.403 69.5358 137.403C69.5358 137.403 73.0624 141.045 72.7591 146.108C72.4379 151.533 67.5792 153.524 67.5792 153.524H67.5732Z" fill="white"/>
<path d="M64.6714 108.375C65.2007 108.315 65.5872 107.846 65.5278 107.317C65.4683 106.788 64.2848 104.756 64.2848 104.756C64.2848 104.756 63.5533 106.996 63.6128 107.525C63.6663 108.054 64.1421 108.434 64.6714 108.381V108.375Z" fill="white"/>
<path d="M46.7945 107.715C47.5022 108.511 47.3892 111.423 48.3407 114.65C49.1138 117.282 51.7662 119.814 55.5366 118.554C57.7787 122.125 61.6443 127.396 67.7816 133.326C64.4513 132.958 61.7097 133.481 59.5985 134.889C57.2494 136.458 55.7507 139.108 55.269 142.561C54.5851 147.457 58.0106 151.991 62.911 152.674C63.2559 152.722 63.6008 152.746 63.9339 152.746C67.5556 152.746 70.7254 150.072 71.2428 146.387C71.4688 144.771 71.0525 143.161 70.0653 141.859C69.084 140.558 67.6508 139.714 66.0272 139.488C64.6773 139.304 63.3332 139.649 62.2509 140.469C61.1625 141.289 60.4608 142.483 60.2705 143.832C60.1099 144.967 60.4073 146.09 61.0971 147.005C61.787 147.92 62.792 148.509 63.9279 148.669C64.5048 148.746 62.2568 147.552 62.3341 144.123C62.352 143.315 62.8634 142.62 63.5057 142.133C64.148 141.645 64.9508 141.443 65.7418 141.55C66.8063 141.699 67.7519 142.252 68.4061 143.113C69.0543 143.975 69.3279 145.032 69.1792 146.102C68.7748 148.996 66.0927 151.016 63.1964 150.618C59.4379 150.095 56.8034 146.607 57.3267 142.852C57.6062 140.867 58.421 138.175 60.7522 136.624C63.024 135.109 66.3484 134.895 70.6184 135.971C73.0804 138.175 75.8518 140.445 78.968 142.733C93.4015 153.334 114.829 160.274 115.043 160.34C115.15 160.375 115.257 160.387 115.358 160.387C115.798 160.387 116.208 160.108 116.351 159.662C116.53 159.116 116.226 158.527 115.679 158.355C115.465 158.29 94.3531 151.45 80.1991 141.051C73.8952 136.422 69.0186 131.835 65.2958 127.746C65.3076 127.622 65.3017 127.485 65.266 127.354C64.4453 124.371 64.5405 122.066 65.5515 120.503C66.5565 118.952 68.3525 118.382 69.6847 118.179C70.8741 118.001 72.0754 118.286 73.0507 119.005C74.026 119.719 74.6624 120.77 74.8467 121.965C74.9835 122.868 74.7635 123.765 74.2223 124.502C73.6811 125.239 72.8901 125.714 71.9862 125.857C71.3142 125.958 70.654 125.797 70.1129 125.399C69.5717 125.001 69.2149 124.413 69.1138 123.747C69.0424 123.272 69.1792 122.808 69.4468 122.404C71.2547 119.623 74.1866 122.981 74.1033 122.404C73.9725 121.531 73.5027 120.758 72.789 120.23C72.0754 119.707 71.2012 119.487 70.321 119.623C69.2922 119.778 68.3882 120.331 67.7757 121.162C67.1631 122 66.9074 123.028 67.068 124.05C67.2523 125.263 67.9006 126.332 68.8937 127.063C69.8869 127.794 71.112 128.091 72.3133 127.901C75.3106 127.443 77.3683 124.639 76.9103 121.644C76.6427 119.903 75.715 118.364 74.2877 117.318C72.8664 116.272 71.1179 115.85 69.3754 116.112C66.8658 116.498 64.9389 117.621 63.8149 119.362C62.8872 120.788 62.5244 122.595 62.6969 124.74C60.3954 121.965 58.6826 119.528 57.4516 117.597C60.6511 115.446 60.33 111.863 58.7897 109.64C56.8688 106.877 54.5316 105.136 54.3591 104.084C54.1867 103.039 55.3285 101.737 55.3285 101.737C55.3285 101.737 49.0425 102.664 50.7552 106.247C49.0425 102.664 44.374 106.972 44.374 106.972C44.374 106.972 46.1046 106.901 46.8123 107.691L46.7945 107.715Z" fill="white"/>
<path d="M65.4745 115.874C67.7404 115.63 68.2875 113.741 67.9128 112.362C67.4846 110.793 66.6996 109.623 66.7888 109.118C66.8781 108.612 67.6095 108.202 67.6095 108.202C67.6095 108.202 64.5944 107.614 64.7966 109.522C64.5944 107.614 61.7695 108.826 61.7695 108.826C61.7695 108.826 62.5724 109.07 62.7627 109.545C62.9589 110.021 62.4356 111.328 62.3523 112.956C62.275 114.382 63.2087 116.117 65.4745 115.874Z" fill="white"/>
<path d="M58.3731 133.207C60.1988 131.876 63.2853 131.686 63.2853 131.686C63.2853 131.686 60.8292 129.648 58.4028 126.956C55.8396 124.104 54.2101 121.436 54.2101 121.436C54.2101 121.436 52.1406 124.193 52.8364 126.576C53.5322 128.959 56.7257 129.089 56.7257 129.089C55.7861 130.997 54.7751 135.596 54.4896 139.162C54.4896 139.162 55.7028 135.151 58.3731 133.207Z" fill="white"/>
<path d="M49.7081 104.114C50.7013 103.639 51.1235 102.45 50.6478 101.458C50.172 100.466 46.4551 97.3162 46.4551 97.3162C46.4551 97.3162 46.574 102.189 47.0498 103.181C47.5255 104.174 48.715 104.595 49.7081 104.12V104.114Z" fill="white"/>
<path d="M44.6654 129.642C42.2687 128.852 42.1914 132.887 42.1914 132.887C42.1914 132.887 42.9169 132.061 43.5949 132.084C44.2729 132.108 45.5574 133.439 47.4605 134.42C49.1316 135.287 51.7126 135.103 52.6523 132.257C53.586 129.41 51.6175 127.735 49.7561 127.437C47.6449 127.105 45.8132 127.408 45.2541 127.027C44.6951 126.647 44.6 125.554 44.6 125.554C44.6 125.554 42.2628 128.846 44.6654 129.63V129.642Z" fill="white"/>
<path d="M203.904 104.114C204.897 104.59 206.086 104.168 206.562 103.175C207.038 102.183 207.157 97.3103 207.157 97.3103C207.157 97.3103 203.44 100.46 202.964 101.452C202.488 102.444 202.911 103.633 203.904 104.108V104.114Z" fill="white"/>
<path d="M83.6189 139.233C83.6189 139.233 77.9394 128.965 75.9888 130.914C74.0382 132.863 72.1768 131.781 72.1768 131.781C72.1768 131.781 79.5333 139.203 89.9584 145.217C100.384 151.23 106.265 152.751 106.265 152.751C106.265 152.751 91.6831 140.903 89.6968 139.762C87.7105 138.621 83.6248 139.239 83.6248 139.239L83.6189 139.233Z" fill="white"/>
<path d="M43.2263 129.167C43.4464 128.501 43.0836 127.788 42.4175 127.568C41.7515 127.348 38.6709 127.669 38.6709 127.669C38.6709 127.669 40.9605 129.755 41.6266 129.975C42.2927 130.195 43.0063 129.832 43.2263 129.167Z" fill="white"/>
<path d="M209.013 125.566C209.013 125.566 208.918 126.659 208.359 127.039C207.8 127.42 205.974 127.111 203.857 127.449C201.995 127.746 200.027 129.422 200.96 132.269C201.894 135.115 204.481 135.299 206.152 134.432C208.049 133.451 209.34 132.12 210.018 132.096C210.696 132.072 211.421 132.898 211.421 132.898C211.421 132.898 211.35 128.864 208.947 129.654C211.344 128.864 209.013 125.578 209.013 125.578V125.566Z" fill="white"/>
<path d="M199.271 104.102C199.098 105.148 196.755 106.895 194.84 109.658C193.3 111.881 192.979 115.458 196.178 117.615C194.947 119.546 193.235 121.988 190.933 124.758C191.105 122.612 190.743 120.806 189.815 119.38C188.685 117.639 186.764 116.516 184.255 116.129C182.512 115.862 180.764 116.29 179.342 117.336C177.921 118.382 176.987 119.915 176.72 121.662C176.262 124.657 178.325 127.461 181.317 127.919C182.524 128.109 183.749 127.812 184.736 127.081C185.729 126.356 186.378 125.286 186.562 124.068C186.717 123.04 186.467 122.018 185.854 121.18C185.242 120.342 184.332 119.796 183.309 119.641C182.429 119.505 181.555 119.724 180.841 120.247C180.127 120.77 179.657 121.543 179.527 122.422C179.437 122.993 182.375 119.635 184.183 122.422C184.445 122.826 184.588 123.29 184.516 123.765C184.415 124.431 184.058 125.019 183.517 125.417C182.976 125.815 182.316 125.982 181.644 125.875C180.746 125.738 179.949 125.257 179.408 124.52C178.866 123.783 178.646 122.886 178.783 121.983C178.968 120.788 179.604 119.736 180.579 119.023C181.555 118.31 182.75 118.019 183.945 118.197C185.277 118.399 187.073 118.97 188.078 120.521C189.089 122.084 189.185 124.383 188.364 127.372C188.328 127.503 188.322 127.634 188.334 127.764C184.611 131.853 179.729 136.434 173.431 141.069C159.277 151.468 138.165 158.307 137.951 158.373C137.404 158.551 137.1 159.133 137.279 159.68C137.421 160.12 137.832 160.405 138.272 160.405C138.379 160.405 138.486 160.387 138.587 160.358C138.801 160.286 160.234 153.352 174.662 142.751C177.772 140.463 180.544 138.193 183.012 135.988C187.282 134.913 190.606 135.127 192.878 136.642C195.203 138.193 196.024 140.885 196.303 142.87C196.827 146.625 194.198 150.113 190.433 150.636C187.531 151.034 184.849 149.014 184.445 146.12C184.296 145.05 184.57 143.993 185.218 143.131C185.866 142.269 186.812 141.717 187.882 141.568C188.673 141.461 189.476 141.663 190.118 142.151C190.761 142.638 191.272 143.333 191.29 144.141C191.373 147.57 189.119 148.764 189.696 148.687C190.832 148.527 191.837 147.938 192.527 147.023C193.217 146.108 193.508 144.979 193.353 143.85C193.163 142.501 192.461 141.307 191.373 140.487C190.285 139.667 188.941 139.322 187.597 139.506C185.979 139.732 184.546 140.576 183.559 141.877C182.577 143.179 182.155 144.789 182.381 146.405C182.899 150.089 186.068 152.763 189.69 152.763C190.029 152.763 190.368 152.74 190.713 152.692C195.613 152.009 199.039 147.469 198.355 142.578C197.873 139.126 196.375 136.476 194.026 134.907C191.914 133.499 189.173 132.982 185.842 133.344C191.98 127.414 195.845 122.143 198.087 118.572C201.858 119.831 204.51 117.3 205.283 114.668C206.235 111.441 206.122 108.529 206.83 107.733C207.537 106.937 209.268 107.014 209.268 107.014C209.268 107.014 204.599 102.706 202.887 106.289C204.599 102.706 198.313 101.779 198.313 101.779C198.313 101.779 199.455 103.08 199.283 104.126L199.271 104.102Z" fill="white"/>
<path d="M165.528 150.482C155.995 155.913 141.912 160.381 141.912 160.381C156.756 160.381 168.602 154.802 171.112 150.482C173.705 155.491 186.045 153.524 186.045 153.524C186.045 153.524 181.192 151.533 180.865 146.108C180.562 141.039 184.089 137.403 184.089 137.403C184.089 137.403 174.877 145.157 165.534 150.482H165.528Z" fill="white"/>
<path d="M200.776 126.576C201.472 124.193 199.402 121.436 199.402 121.436C199.402 121.436 197.773 124.104 195.21 126.956C192.783 129.648 190.327 131.686 190.327 131.686C190.327 131.686 193.414 131.876 195.239 133.207C197.904 135.156 199.123 139.162 199.123 139.162C198.837 135.59 197.826 130.991 196.887 129.089C196.887 129.089 200.08 128.959 200.776 126.576Z" fill="white"/>
<path d="M211.992 129.975C212.658 129.755 214.948 127.669 214.948 127.669C214.948 127.669 211.867 127.348 211.201 127.568C210.535 127.788 210.172 128.501 210.392 129.167C210.612 129.832 211.326 130.195 211.992 129.975Z" fill="white"/>
<path d="M181.448 131.775C181.448 131.775 179.586 132.857 177.636 130.908C175.685 128.959 170.006 139.227 170.006 139.227C170.006 139.227 165.92 138.603 163.934 139.75C161.947 140.897 147.365 152.74 147.365 152.74C147.365 152.74 153.247 151.224 163.672 145.205C174.097 139.191 181.454 131.769 181.454 131.769L181.448 131.775Z" fill="white"/>
<path d="M190.005 107.519C190.058 106.99 189.333 104.75 189.333 104.75C189.333 104.75 188.144 106.782 188.09 107.311C188.036 107.84 188.417 108.315 188.946 108.369C189.476 108.422 189.951 108.042 190.005 107.513V107.519Z" fill="white"/>
<path d="M188.144 115.874C190.41 116.117 191.344 114.382 191.266 112.956C191.177 111.334 190.66 110.021 190.856 109.545C191.052 109.07 191.849 108.826 191.849 108.826C191.849 108.826 189.024 107.614 188.822 109.522C189.024 107.614 186.009 108.202 186.009 108.202C186.009 108.202 186.741 108.612 186.83 109.118C186.919 109.623 186.134 110.793 185.706 112.362C185.331 113.741 185.878 115.63 188.144 115.874Z" fill="white"/>
<path d="M19.2542 161.314L23.988 144.034L25.7186 144.7C30.4644 146.53 35.2339 148.223 40.0332 149.786L44.4756 139.019L11.5944 127.42L13.319 144.628L0.556641 154.35L19.2542 161.314Z" fill="white"/>
<path d="M155.215 184.335C155.506 183.11 155.601 181.785 155.482 180.347C155.375 179.016 155.078 177.81 154.596 176.728C154.108 175.647 153.436 174.803 152.58 174.203C151.724 173.603 150.725 173.347 149.583 173.436C147.852 173.573 146.615 174.405 145.866 175.938C145.117 177.465 144.831 179.349 145.009 181.577C145.117 182.926 145.408 184.156 145.89 185.262C146.371 186.373 147.026 187.234 147.858 187.858C148.691 188.482 149.666 188.744 150.79 188.655C151.968 188.559 152.925 188.126 153.662 187.341C154.4 186.563 154.917 185.559 155.209 184.335H155.215Z" fill="white"/>
<path d="M25.1177 146.268C22.1917 156.953 19.2658 167.631 16.3398 178.309C87.9364 205.905 165.058 205.905 236.654 178.309C233.728 167.631 230.802 156.953 227.876 146.268C161.983 171.666 91.0051 171.666 25.1117 146.268H25.1177ZM58.439 166.086L57.5767 169.651C57.5351 169.8 57.434 169.907 57.2794 169.96C57.1188 170.014 56.9642 170.026 56.8155 169.984C56.6133 169.931 56.4349 169.835 56.2862 169.705C56.1316 169.574 56.0662 169.437 56.084 169.301C56.1791 168.427 56.2089 167.756 56.1791 167.274C56.1435 166.799 56.0007 166.407 55.745 166.092C55.4893 165.777 55.0789 165.539 54.514 165.367L52.8072 164.903L49.5482 176.871C49.453 177.293 49.3936 177.644 49.3876 177.917C49.3757 178.19 49.4649 178.452 49.6493 178.689C49.8336 178.927 50.1726 179.111 50.6543 179.248L50.803 179.29C50.9517 179.331 51.0587 179.391 51.1182 179.468C51.1777 179.545 51.1836 179.706 51.136 179.943C51.0944 180.092 51.0231 180.211 50.916 180.3C50.809 180.389 50.6841 180.413 50.5354 180.371C49.4768 180.032 48.4956 179.735 47.5916 179.492C46.5865 179.218 45.5339 178.963 44.4337 178.713C44.285 178.672 44.1839 178.588 44.1364 178.458C44.0888 178.327 44.0888 178.19 44.1304 178.036C44.2137 177.792 44.3088 177.655 44.404 177.626C44.4991 177.596 44.6657 177.614 44.9035 177.679C45.3912 177.81 45.7718 177.822 46.0573 177.709C46.3368 177.596 46.5449 177.418 46.6758 177.174C46.8066 176.931 46.9374 176.604 47.0623 176.188L50.3213 164.22L48.5907 163.751C48.0198 163.614 47.544 163.614 47.1753 163.751C46.8066 163.893 46.4795 164.167 46.2 164.565C45.9205 164.963 45.6112 165.557 45.2723 166.347C45.2187 166.478 45.0879 166.555 44.8797 166.591C44.6716 166.627 44.4694 166.615 44.2672 166.561C44.1185 166.52 43.9877 166.436 43.8925 166.312C43.7914 166.187 43.7617 166.05 43.8033 165.896L44.8441 162.378C44.9511 161.974 45.2366 161.837 45.6885 161.962L57.9692 165.296C58.4033 165.414 58.5699 165.676 58.4569 166.074L58.439 166.086ZM78.4984 170.198C78.433 170.43 78.3557 170.572 78.2665 170.614C78.1773 170.655 78.0465 170.661 77.8799 170.626C77.202 170.489 76.7143 170.448 76.4289 170.513C76.1434 170.578 75.9055 170.828 75.7212 171.256C75.5368 171.689 75.3287 172.474 75.0967 173.609L73.6456 180.716C73.4137 181.857 72.9023 182.736 72.1232 183.366C71.3382 183.996 70.4402 184.388 69.4232 184.554C68.4063 184.721 67.425 184.703 66.4735 184.507C65.1651 184.239 64.0947 183.782 63.2621 183.134C62.4295 182.487 61.8526 181.744 61.5255 180.894C61.2044 180.05 61.1271 179.195 61.3055 178.327L63.0837 169.639C63.155 169.212 63.1848 168.861 63.1788 168.582C63.1788 168.308 63.0718 168.053 62.8696 167.827C62.6674 167.601 62.3224 167.435 61.8288 167.334L61.6742 167.304C61.5018 167.268 61.3888 167.215 61.3352 167.144C61.2817 167.072 61.2698 166.912 61.2996 166.674C61.3293 166.52 61.3947 166.395 61.4958 166.3C61.5969 166.205 61.7218 166.175 61.8764 166.205C62.9528 166.478 63.9519 166.71 64.8678 166.894C65.9026 167.108 66.973 167.298 68.0732 167.47C68.2279 167.5 68.329 167.583 68.3825 167.708C68.436 167.833 68.4479 167.976 68.4182 168.124C68.3528 168.356 68.2755 168.498 68.1862 168.54C68.097 168.582 67.9662 168.588 67.7997 168.552C67.2526 168.439 66.8363 168.445 66.5508 168.564C66.2594 168.683 66.0572 168.861 65.9502 169.105C65.8372 169.348 65.7301 169.699 65.6171 170.15L63.9936 178.101C63.7557 179.272 63.8271 180.312 64.2196 181.227C64.6061 182.136 65.5993 182.754 67.199 183.081C68.7631 183.402 69.9466 183.265 70.7494 182.677C71.5523 182.088 72.0637 181.251 72.2838 180.163L73.6516 173.46C73.8895 172.307 74.0144 171.481 74.0262 170.988C74.0381 170.495 73.9311 170.156 73.7051 169.966C73.4791 169.776 73.0509 169.622 72.4205 169.491L72.2659 169.461C72.1113 169.431 72.0042 169.378 71.9388 169.301C71.8734 169.223 71.8556 169.069 71.8913 168.825C71.921 168.671 71.9864 168.552 72.0875 168.457C72.1886 168.362 72.3135 168.332 72.4681 168.362C73.5624 168.641 74.508 168.861 75.3108 169.021C76.1256 169.188 77.083 169.36 78.1832 169.526C78.3379 169.556 78.439 169.639 78.4925 169.764C78.546 169.889 78.5579 170.032 78.5282 170.18L78.4984 170.198ZM97.7253 173.306C97.6301 173.347 97.4636 173.347 97.2257 173.318C96.7262 173.252 96.3515 173.294 96.0957 173.442C95.84 173.591 95.6676 173.787 95.5843 174.031C95.5011 174.274 95.4178 174.625 95.3405 175.088L93.5504 188.072C93.5028 188.292 93.2709 188.375 92.8606 188.322C92.5335 188.28 92.3015 188.132 92.1588 187.888L84.1719 173.603L84.0946 173.591L82.7803 183.829C82.7327 184.293 82.7208 184.655 82.7387 184.911C82.7565 185.166 82.8695 185.398 83.0777 185.612C83.2858 185.826 83.6367 185.963 84.1362 186.028L84.2909 186.046C84.4633 186.07 84.5823 186.117 84.6536 186.189C84.725 186.26 84.7488 186.414 84.7369 186.658C84.7191 186.812 84.6596 186.943 84.5704 187.044C84.4752 187.145 84.3563 187.187 84.2017 187.163C83.1074 186.967 82.2748 186.83 81.7098 186.753C81.3649 186.706 80.7643 186.646 79.896 186.563L79.3013 186.509C79.1467 186.492 79.0396 186.414 78.9742 186.295C78.9147 186.177 78.8909 186.034 78.9088 185.88C78.9623 185.624 79.0337 185.475 79.1288 185.434C79.224 185.392 79.3905 185.392 79.6284 185.422C80.1279 185.487 80.5026 185.446 80.7583 185.297C81.014 185.149 81.1865 184.953 81.2698 184.709C81.353 184.465 81.4363 184.115 81.5136 183.651L82.9349 173.425C83.0063 172.908 83.0004 172.509 82.923 172.23C82.8457 171.951 82.6971 171.731 82.4711 171.577C82.2451 171.422 81.918 171.273 81.4779 171.131C81.1925 171.042 81.02 170.964 80.9546 170.905C80.8951 170.846 80.8773 170.691 80.9129 170.453C80.9427 170.245 81.014 170.115 81.133 170.061C81.2519 170.008 81.4363 169.996 81.6742 170.032C82.7387 170.174 83.5713 170.358 84.1719 170.59C84.7726 170.816 85.284 171.155 85.7063 171.594C86.1285 172.034 86.5745 172.682 87.0384 173.532L92.8665 183.752L92.9438 183.764L94.0738 174.916C94.1213 174.453 94.1332 174.09 94.1154 173.835C94.0975 173.579 93.9846 173.347 93.7764 173.133C93.5683 172.919 93.2174 172.783 92.7178 172.717L92.5632 172.7C92.3908 172.676 92.2718 172.628 92.2004 172.557C92.1291 172.486 92.1053 172.331 92.1172 172.088C92.135 171.933 92.2004 171.808 92.3015 171.707C92.4026 171.606 92.5216 171.565 92.6584 171.582C93.7526 171.779 94.5733 171.915 95.1264 171.992C95.4535 172.034 96.0839 172.105 97.0176 172.195L97.5647 172.242C97.7193 172.26 97.8264 172.331 97.8918 172.456C97.9512 172.575 97.975 172.717 97.9512 172.872C97.8977 173.127 97.8263 173.276 97.7371 173.318L97.7253 173.306ZM117.38 181.975C117.273 183.74 116.732 185.208 115.769 186.373C114.799 187.537 113.586 188.375 112.123 188.886C110.66 189.397 109.114 189.599 107.484 189.504L103.898 189.284C102.982 189.225 101.948 189.189 100.8 189.172C100.663 189.166 100.556 189.1 100.485 188.981C100.413 188.863 100.384 188.726 100.39 188.571C100.425 188.31 100.485 188.161 100.574 188.114C100.663 188.066 100.83 188.054 101.073 188.066C101.573 188.096 101.954 188.031 102.209 187.864C102.465 187.698 102.626 187.484 102.703 187.217C102.78 186.955 102.84 186.604 102.881 186.171L103.512 175.867C103.524 175.433 103.506 175.082 103.458 174.809C103.417 174.536 103.274 174.304 103.048 174.108C102.816 173.912 102.447 173.799 101.948 173.769L101.793 173.757C101.621 173.745 101.502 173.71 101.436 173.644C101.371 173.579 101.335 173.425 101.335 173.181C101.347 173.026 101.395 172.896 101.478 172.783C101.561 172.676 101.674 172.622 101.811 172.634C102.953 172.753 103.982 172.842 104.897 172.902L108.947 173.151C110.613 173.252 112.099 173.68 113.42 174.429C114.74 175.178 115.751 176.2 116.464 177.495C117.178 178.79 117.481 180.282 117.374 181.981L117.38 181.975ZM138.35 174.589C138.272 174.649 138.147 174.684 137.975 174.684C137.279 174.69 136.797 174.756 136.53 174.88C136.262 175.005 136.084 175.296 135.989 175.754C135.899 176.217 135.858 177.026 135.87 178.184L135.935 185.44C135.947 186.604 135.632 187.573 134.995 188.346C134.359 189.124 133.562 189.7 132.605 190.069C131.647 190.443 130.678 190.633 129.709 190.639C128.37 190.651 127.229 190.425 126.283 189.968C125.331 189.51 124.612 188.898 124.118 188.144C123.625 187.383 123.375 186.563 123.369 185.677L123.292 176.812C123.268 176.378 123.226 176.027 123.167 175.76C123.101 175.492 122.947 175.267 122.703 175.088C122.459 174.91 122.084 174.821 121.579 174.827H121.424C121.252 174.827 121.127 174.803 121.061 174.738C120.99 174.678 120.948 174.53 120.925 174.286C120.925 174.132 120.96 173.995 121.038 173.882C121.115 173.769 121.234 173.71 121.389 173.71C122.501 173.751 123.524 173.769 124.457 173.763C125.516 173.751 126.598 173.716 127.71 173.656C127.865 173.656 127.984 173.71 128.061 173.823C128.138 173.936 128.18 174.066 128.18 174.227C128.162 174.47 128.121 174.625 128.043 174.684C127.966 174.744 127.841 174.779 127.669 174.779C127.116 174.779 126.705 174.874 126.45 175.053C126.188 175.231 126.033 175.445 125.974 175.706C125.914 175.968 125.879 176.33 125.867 176.8L125.938 184.911C125.95 186.105 126.241 187.11 126.812 187.918C127.383 188.726 128.483 189.124 130.113 189.112C131.707 189.1 132.837 188.72 133.497 187.977C134.157 187.234 134.484 186.307 134.472 185.196L134.413 178.357C134.401 177.18 134.353 176.348 134.258 175.861C134.169 175.374 133.99 175.065 133.729 174.928C133.467 174.791 133.015 174.726 132.373 174.732H132.218C132.064 174.732 131.945 174.708 131.867 174.643C131.79 174.577 131.736 174.435 131.719 174.191C131.719 174.037 131.754 173.9 131.832 173.787C131.909 173.674 132.028 173.615 132.182 173.615C133.312 173.656 134.282 173.674 135.097 173.668C135.929 173.662 136.898 173.627 138.011 173.567C138.165 173.567 138.284 173.621 138.361 173.734C138.439 173.846 138.48 173.977 138.48 174.138C138.463 174.381 138.421 174.53 138.344 174.595L138.35 174.589ZM162.685 191.893C162.364 192.38 161.947 192.784 161.424 193.117C160.901 193.444 160.366 193.64 159.812 193.7C159.105 193.753 158.462 193.711 157.898 193.563C157.327 193.414 156.827 193.218 156.387 192.963C155.947 192.707 155.382 192.351 154.68 191.887C154.127 191.495 153.633 191.168 153.205 190.907C152.777 190.645 152.319 190.413 151.832 190.205C151.255 189.974 150.583 189.801 149.804 189.689C147.954 189.421 146.592 188.999 145.706 188.423C144.624 187.71 143.749 186.777 143.095 185.63C142.435 184.483 142.055 183.235 141.948 181.886C141.805 180.074 142.09 178.458 142.804 177.043C143.518 175.629 144.487 174.512 145.712 173.692C146.937 172.872 148.204 172.414 149.518 172.307C151.177 172.177 152.682 172.45 154.02 173.133C155.364 173.817 156.429 174.779 157.214 176.009C157.999 177.24 158.451 178.6 158.57 180.086C158.724 182.023 158.367 183.752 157.505 185.267C156.643 186.789 155.435 187.93 153.877 188.696C153.61 188.839 153.259 188.934 152.831 188.987V189.041C153.306 189.053 153.741 189.142 154.133 189.302C154.835 189.576 155.786 190.087 156.994 190.823C157.892 191.364 158.605 191.75 159.146 191.994C159.688 192.238 160.211 192.339 160.71 192.297C161.02 192.238 161.24 192.119 161.377 191.947C161.507 191.768 161.567 191.56 161.549 191.323C161.513 190.907 161.323 190.538 160.978 190.205C160.627 189.879 160.205 189.724 159.699 189.748C159.628 189.475 159.705 189.201 159.949 188.922C160.187 188.643 160.568 188.482 161.085 188.441C161.311 188.423 161.573 188.482 161.87 188.613C162.168 188.744 162.435 188.958 162.679 189.255C162.923 189.546 163.06 189.92 163.095 190.372C163.137 190.889 163 191.394 162.679 191.881L162.685 191.893ZM178.338 170.174C178.272 170.245 178.147 170.293 177.981 170.323C177.297 170.424 176.827 170.56 176.577 170.715C176.327 170.875 176.191 171.19 176.167 171.66C176.143 172.129 176.214 172.937 176.387 174.084L177.469 181.256C177.642 182.403 177.469 183.408 176.952 184.269C176.434 185.131 175.727 185.808 174.823 186.313C173.925 186.818 172.997 187.139 172.034 187.288C170.713 187.49 169.548 187.425 168.543 187.104C167.538 186.783 166.735 186.278 166.146 185.6C165.551 184.917 165.189 184.138 165.058 183.265L163.732 174.5C163.648 174.072 163.559 173.734 163.458 173.478C163.357 173.223 163.173 173.021 162.905 172.878C162.637 172.735 162.257 172.7 161.757 172.777L161.603 172.801C161.43 172.824 161.305 172.813 161.228 172.765C161.151 172.717 161.085 172.569 161.032 172.337C161.008 172.183 161.032 172.046 161.085 171.921C161.145 171.796 161.252 171.725 161.406 171.701C162.512 171.588 163.529 171.458 164.457 171.321C165.504 171.161 166.574 170.976 167.663 170.756C167.817 170.733 167.942 170.774 168.037 170.869C168.132 170.97 168.192 171.095 168.216 171.25C168.234 171.493 168.216 171.648 168.144 171.719C168.079 171.79 167.954 171.838 167.782 171.868C167.234 171.951 166.842 172.099 166.61 172.307C166.378 172.515 166.253 172.753 166.229 173.021C166.206 173.288 166.229 173.65 166.277 174.12L167.49 182.142C167.669 183.324 168.097 184.275 168.775 185C169.453 185.725 170.6 185.963 172.212 185.719C173.788 185.481 174.853 184.947 175.406 184.121C175.953 183.295 176.149 182.332 175.983 181.233L174.96 174.47C174.781 173.306 174.615 172.486 174.46 172.022C174.299 171.553 174.085 171.273 173.806 171.172C173.526 171.071 173.068 171.071 172.438 171.172L172.283 171.196C172.129 171.22 172.01 171.208 171.921 171.161C171.837 171.113 171.766 170.97 171.713 170.733C171.689 170.578 171.713 170.442 171.766 170.317C171.826 170.192 171.933 170.121 172.087 170.097C173.211 169.978 174.175 169.859 174.983 169.74C175.804 169.616 176.762 169.443 177.856 169.229C178.01 169.206 178.135 169.247 178.23 169.342C178.326 169.443 178.385 169.568 178.409 169.723C178.427 169.966 178.409 170.121 178.338 170.192V170.174ZM196.565 181.975C196.476 182.065 196.315 182.136 196.078 182.189L187.68 183.996C186.765 184.192 185.754 184.436 184.641 184.727C184.505 184.756 184.386 184.727 184.291 184.632C184.189 184.537 184.124 184.418 184.088 184.263C184.053 184.008 184.071 183.841 184.142 183.776C184.213 183.705 184.368 183.645 184.606 183.598C185.099 183.491 185.444 183.324 185.641 183.099C185.837 182.873 185.944 182.617 185.944 182.344C185.944 182.071 185.908 181.72 185.837 181.292L183.66 171.202C183.553 170.78 183.44 170.448 183.321 170.198C183.202 169.948 183.012 169.758 182.732 169.633C182.459 169.509 182.072 169.497 181.579 169.604L181.424 169.639C181.252 169.675 181.127 169.675 181.049 169.627C180.966 169.586 180.895 169.443 180.823 169.212C180.788 169.057 180.8 168.92 180.853 168.796C180.907 168.671 181.002 168.594 181.133 168.564C182.263 168.374 183.28 168.184 184.178 167.987L192.164 166.27C192.605 166.175 192.872 166.33 192.955 166.74L193.8 170.281C193.836 170.436 193.782 170.572 193.651 170.697C193.52 170.822 193.378 170.905 193.223 170.935C193.021 170.976 192.831 170.976 192.664 170.935C192.497 170.893 192.384 170.792 192.337 170.644C192.022 169.841 191.736 169.241 191.486 168.843C191.231 168.445 190.927 168.178 190.565 168.029C190.208 167.886 189.738 167.869 189.155 167.976L185.748 168.706L187.139 175.166L191.742 174.173C191.867 174.167 191.974 174.209 192.063 174.304C192.153 174.399 192.218 174.524 192.248 174.678C192.277 174.815 192.266 174.94 192.224 175.059C192.176 175.178 192.093 175.243 191.974 175.273L187.371 176.265L188.406 181.066C188.519 181.417 188.62 181.69 188.715 181.892C188.81 182.094 189.007 182.249 189.298 182.368C189.589 182.481 190.006 182.475 190.541 182.338L192.884 181.833C193.473 181.69 193.901 181.494 194.169 181.251C194.436 181.007 194.621 180.68 194.716 180.27C194.811 179.86 194.9 179.2 194.971 178.303C195.025 177.97 195.287 177.792 195.756 177.762C195.935 177.762 196.095 177.798 196.244 177.869C196.393 177.947 196.476 178.06 196.494 178.214L196.672 181.524C196.672 181.756 196.625 181.916 196.536 182.005L196.565 181.975ZM211.796 176.259C211.457 177.079 210.892 177.804 210.101 178.434C209.31 179.064 208.382 179.527 207.312 179.818C205.557 180.3 204.13 180.365 203.03 180.009C201.935 179.652 201.222 178.88 200.895 177.697C200.728 177.097 200.8 176.544 201.097 176.039C201.4 175.534 201.876 175.189 202.53 175.011C202.917 174.922 203.238 174.94 203.488 175.059C203.737 175.178 203.88 175.314 203.922 175.463C203.922 175.481 203.856 175.564 203.72 175.706C203.583 175.855 203.47 176.045 203.392 176.283C203.315 176.52 203.321 176.812 203.416 177.168C203.63 177.953 204.035 178.493 204.629 178.79C205.224 179.088 206.021 179.093 207.026 178.82C207.71 178.63 208.275 178.333 208.721 177.923C209.167 177.513 209.464 177.049 209.619 176.532C209.774 176.015 209.786 175.51 209.649 175.029C209.482 174.429 209.167 173.953 208.709 173.615C208.245 173.276 207.722 173.026 207.145 172.872C206.568 172.717 205.783 172.569 204.808 172.42C203.678 172.242 202.756 172.058 202.037 171.862C201.317 171.666 200.657 171.321 200.05 170.828C199.45 170.335 199.021 169.639 198.772 168.736C198.373 167.28 198.569 166.056 199.372 165.064C200.169 164.071 201.382 163.352 203.006 162.907C204.279 162.556 205.456 162.521 206.55 162.8C207.645 163.073 208.329 163.733 208.614 164.767C208.781 165.367 208.709 165.925 208.412 166.425C208.108 166.93 207.633 167.274 206.979 167.453C206.592 167.542 206.271 167.524 206.021 167.405C205.771 167.286 205.629 167.15 205.587 167.001C205.587 166.983 205.676 166.894 205.878 166.734C206.075 166.573 206.235 166.365 206.354 166.116C206.473 165.866 206.485 165.569 206.39 165.218C206.217 164.6 205.849 164.178 205.278 163.959C204.707 163.739 204.053 163.727 203.315 163.929C202.292 164.208 201.585 164.66 201.192 165.278C200.8 165.896 200.693 166.561 200.889 167.262C201.049 167.845 201.341 168.29 201.769 168.599C202.197 168.903 202.81 169.152 203.618 169.348C204.267 169.491 204.968 169.627 205.724 169.74C206.925 169.931 207.9 170.139 208.638 170.37C209.375 170.602 210.047 170.982 210.654 171.517C211.26 172.052 211.695 172.807 211.962 173.775C212.194 174.613 212.135 175.439 211.796 176.259Z" fill="white"/>
<path d="M111.64 175.195C110.707 174.512 109.577 174.132 108.245 174.048L106.217 173.947L105.438 186.64C105.396 187.318 105.569 187.793 105.961 188.066C106.354 188.34 107.008 188.506 107.924 188.565C109.952 188.69 111.474 188.155 112.491 186.955C113.514 185.761 114.091 184.037 114.227 181.785C114.317 180.365 114.138 179.082 113.692 177.935C113.252 176.788 112.562 175.873 111.629 175.189L111.64 175.195Z" fill="white"/>
<path d="M208.524 139.025L212.967 149.792C217.766 148.229 222.536 146.536 227.281 144.706L229.012 144.04L233.746 161.32L252.449 154.356L239.693 144.634L241.418 127.426L208.536 139.025H208.524Z" fill="white"/>
</g>
<defs>
<clipPath id="clip0_2420_11207">
<rect width="251.887" height="199" fill="white" transform="translate(0.556641)"/>
</clipPath>
</defs>
</svg>
