<svg width="355" height="108" viewBox="0 0 355 108" fill="none" xmlns="http://www.w3.org/2000/svg">
<path d="M351.019 5.47127C351.224 5.19771 351.36 4.85575 351.36 4.44541C351.36 4.10345 351.292 3.76149 351.155 3.48793C351.018 3.21437 350.745 3.00919 350.471 2.87241C350.129 2.73563 349.787 2.66724 349.309 2.66724H346.915V8.3437H348.283V6.15518H348.625L349.856 8.27531H351.36L349.993 6.0184C350.471 5.95001 350.813 5.74484 351.019 5.47127ZM349.787 5.06093C349.651 5.19771 349.446 5.2661 349.172 5.2661H348.283V3.76149H349.172C349.446 3.76149 349.651 3.82989 349.787 3.96667C349.924 4.10345 349.993 4.24023 349.993 4.5138C349.993 4.71897 349.924 4.92414 349.787 5.06093Z" fill="white"/>
<path d="M349.036 0.27356C346.163 0.27356 343.77 2.66725 343.77 5.53968C343.77 8.48049 346.163 10.8058 349.036 10.8058C351.976 10.8058 354.302 8.4121 354.302 5.53968C354.302 2.59886 351.976 0.27356 349.036 0.27356ZM349.036 10.1903C346.437 10.1903 344.385 8.07015 344.385 5.53968C344.385 2.94081 346.505 0.88908 349.036 0.88908C351.635 0.88908 353.686 3.0092 353.686 5.53968C353.755 8.13854 351.635 10.1903 349.036 10.1903Z" fill="white"/>
<path d="M102.65 107.211L95 87.3419H101.501L106.524 102.956H105.638L110.661 87.3419H117.162L109.512 107.211H102.65Z" fill="white"/>
<path d="M118.746 107.211V87.3419H124.787V107.211H118.746Z" fill="white"/>
<path d="M136.699 107.8C133.263 107.8 130.778 107.211 129.246 106.032C127.736 104.832 126.981 103.108 126.981 100.861H133.285C133.372 101.668 133.733 102.29 134.368 102.726C135.003 103.141 135.9 103.348 137.06 103.348C138.045 103.348 138.8 103.196 139.326 102.89C139.873 102.585 140.146 102.126 140.146 101.515C140.146 100.992 139.906 100.577 139.424 100.271C138.943 99.9659 138.133 99.7259 136.995 99.5513L134.302 99.1258C132.004 98.7766 130.264 98.1438 129.082 97.2273C127.9 96.3107 127.309 94.936 127.309 93.1029C127.309 91.0517 128.075 89.4805 129.607 88.3894C131.14 87.2765 133.427 86.72 136.469 86.72C138.614 86.72 140.365 87.0037 141.722 87.5711C143.079 88.1384 144.053 88.9131 144.644 89.8951C145.257 90.8771 145.564 92.0118 145.564 93.2993H139.457C139.391 92.9065 139.249 92.5574 139.03 92.2519C138.833 91.9245 138.494 91.6627 138.012 91.4663C137.553 91.2699 136.94 91.1717 136.174 91.1717C135.189 91.1717 134.477 91.3244 134.04 91.6299C133.602 91.9136 133.383 92.3173 133.383 92.8411C133.383 93.3648 133.624 93.7685 134.105 94.0522C134.587 94.3359 135.331 94.5432 136.338 94.6741L137.553 94.8378C139.545 95.056 141.153 95.3724 142.379 95.787C143.627 96.2016 144.59 96.8345 145.268 97.6855C145.947 98.5366 146.286 99.6931 146.286 101.155C146.286 103.49 145.476 105.181 143.856 106.229C142.237 107.276 139.851 107.8 136.699 107.8Z" fill="white"/>
<path d="M153.275 107.211V92.3173H147.201V87.3419H165.39V92.3173H159.316V107.211H153.275Z" fill="white"/>
<path d="M170.049 103.185L171.428 99.584H178.126L179.636 103.185H170.049ZM178.093 87.3419L185.743 107.211H179.242L174.219 91.5972H175.105L170.082 107.211H163.581L171.231 87.3419H178.093Z" fill="white"/>
<path d="M187.328 107.211V87.3419H193.369V102.104H202.923V107.211H187.328Z" fill="white"/>
<path d="M204.609 107.211V87.3419H215.871C217.906 87.3419 219.504 87.7129 220.664 88.4548C221.846 89.175 222.437 90.4625 222.437 92.3173C222.437 93.6703 222.098 94.7177 221.419 95.4597C220.763 96.1798 219.832 96.6926 218.628 96.9981L219.613 95.2306V98.2747L218.563 96.5399C219.482 96.7145 220.27 96.9981 220.927 97.3909C221.583 97.7837 222.087 98.3293 222.437 99.0276C222.809 99.7041 222.995 100.544 222.995 101.548C222.995 103.577 222.328 105.029 220.992 105.901C219.657 106.774 217.786 107.211 215.378 107.211H204.609ZM214.689 102.857C215.433 102.857 215.991 102.672 216.363 102.301C216.735 101.93 216.921 101.417 216.921 100.762C216.921 100.173 216.724 99.7259 216.33 99.4204C215.958 99.093 215.411 98.9294 214.689 98.9294H210.618V102.857H214.689ZM214.557 95.3615C215.236 95.3615 215.728 95.2087 216.035 94.9032C216.363 94.5759 216.527 94.1286 216.527 93.5612C216.527 92.9502 216.363 92.4919 216.035 92.1864C215.706 91.8591 215.214 91.6954 214.557 91.6954H210.618V95.3615H214.557Z" fill="white"/>
<path d="M229.878 103.185L231.257 99.584H237.954L239.465 103.185H229.878ZM237.922 87.3419L245.571 107.211H239.071L234.047 91.5972H234.934L229.911 107.211H223.41L231.06 87.3419H237.922Z" fill="white"/>
<path d="M46.0272 40.8295C51.4301 36.5209 54.8497 30.3657 54.8497 23.5265C54.7813 10.5322 42.5393 0 27.4248 0C12.242 0 0 10.5322 0 23.5265C0 36.5209 12.242 47.0531 27.4248 47.0531C31.1863 47.0531 34.8111 46.3692 38.0939 45.2065L43.7019 49.0364L44.6594 49.7203C46.164 50.6094 47.9422 51.0198 49.7887 50.883C53.8922 50.4727 57.0382 47.1899 57.4485 43.2232C56.4227 43.8387 55.1916 44.2491 53.8922 44.3858C50.6094 44.7278 47.737 43.2232 46.0272 40.8295ZM39.7352 38.1622C38.9829 37.8887 38.299 37.6151 37.6151 37.4783C35.5634 36.9312 33.7168 37.068 33.1697 37.1364C33.0329 37.1364 33.0329 37.1364 32.9645 37.1364C30.2973 37.4783 28.1088 39.3933 27.3564 41.9238C28.4507 41.1715 29.7501 40.7611 31.118 40.7611C32.2806 40.7611 33.3065 41.0347 34.264 41.5818C34.6743 41.787 35.2898 42.1289 35.9737 42.6077C33.4433 44.8646 30.5024 46.164 27.2881 46.164C18.3288 46.164 11.0794 36.0421 11.0794 23.5265C11.2161 11.011 18.4656 0.889085 27.4248 0.889085C36.3841 0.889085 43.6335 11.011 43.6335 23.5265C43.6335 29.1346 42.1289 34.264 39.7352 38.1622Z" fill="white"/>
<path d="M106.621 0.27356H93.285C94.1741 0.615515 94.3793 0.820689 94.5845 1.02586C96.4994 2.53047 97.3885 4.51381 97.3885 6.56554C97.3201 8.82245 96.5678 10.8058 95.6787 12.7207C93.0115 18.6708 84.8729 36.4525 84.8729 36.4525C84.8729 36.4525 75.3666 15.6616 71.947 8.20693C70.6476 5.40289 70.1688 2.87242 72.9045 0.341951C67.1596 0.341951 55.9435 0.341951 55.6699 0.341951C59.2947 3.28277 60.1153 4.37703 62.1671 8.75406C64.6975 14.0886 80.7011 46.6427 80.9746 47.1899C81.2482 46.7111 98.004 9.43797 100.329 6.01841C101.424 4.17185 101.902 2.80403 106.621 0.27356Z" fill="white"/>
<path d="M140.544 38.641C138.014 33.3065 122.01 0.752297 121.737 0.27356C121.463 0.752297 104.776 37.9571 102.382 41.445C101.219 43.1548 100.74 44.591 96.0898 47.0531H109.426C108.537 46.7111 108.332 46.506 108.127 46.3008C106.212 44.8646 105.323 42.8128 105.323 40.7611C105.323 40.0772 105.391 39.3933 105.528 38.7778C105.665 38.0255 105.87 37.3415 106.143 36.6576C106.143 36.5892 106.212 36.5209 106.212 36.4525C107.169 34.1272 109.426 32.4858 112.093 32.4858H127.618C128.849 35.153 129.943 37.4783 130.696 39.1881C131.995 41.9921 132.474 44.5226 129.738 47.0531C135.483 47.0531 146.699 47.0531 146.973 47.0531C143.416 44.1123 142.664 43.018 140.544 38.641ZM111.957 31.5283C110.794 31.5967 109.7 31.8703 108.674 32.4174C108.332 32.6226 107.99 32.8277 107.716 33.0329C107.785 32.8277 107.922 32.6226 107.99 32.4174C108.127 32.1438 108.263 31.8019 108.4 31.5283C111.751 24.0737 117.838 10.9426 117.838 10.9426C117.838 10.9426 123.173 22.5691 127.276 31.5283H111.957Z" fill="white"/>
<path d="M276.027 40.0772C273.907 36.9996 271.992 33.7168 269.803 30.7076C269.051 29.6817 268.093 28.8611 267.136 27.972C266.178 27.1513 265.084 26.5358 263.921 26.1254C263.785 26.057 263.579 25.9886 263.374 25.9202C264.4 25.5783 265.016 25.3731 265.7 25.2363C267.82 24.826 269.803 24.0053 271.786 23.0478C275.616 21.0645 277.668 17.7133 277.873 13.473C278.078 9.09602 274.659 0.20517 263.579 0.20517C256.809 0.20517 230.683 0.136779 227.811 0.20517V0.410344C228.974 1.09425 234.171 4.03507 234.171 9.36958C234.171 15.9351 234.171 22.8426 234.171 29.4082C234.171 32.4858 234.24 35.5634 234.103 38.641C233.966 41.7186 232.461 44.0439 229.726 45.4801C228.837 45.8904 227.948 46.3008 227.059 46.7795V47.1215H251.543V46.9163C250.927 46.6427 250.38 46.4376 250.038 46.3008C245.319 44.3174 243.336 40.7611 244.02 35.9053C244.567 32.1438 246.276 29.0662 249.833 27.2881C251.885 26.2622 254.073 26.1254 256.125 27.5616C257.424 28.4507 258.519 29.545 259.408 30.7076C261.528 33.5116 263.238 36.4525 265.152 39.3933C266.589 41.6502 266.452 43.7019 264.811 45.6853C264.469 46.0956 264.127 46.3692 263.716 46.9163V47.1215C269.461 47.1215 280.609 47.1215 283.139 47.1215V46.9163C279.993 45.2749 277.736 42.5393 276.027 40.0772ZM254.278 25.1679C250.312 25.1679 247.371 26.8777 244.977 29.8185C244.498 30.3657 243.951 31.4599 243.951 31.4599C243.951 31.4599 243.951 19.9018 243.951 14.7041C243.951 13.1311 244.02 11.5581 243.951 9.9851C243.814 5.60807 247.166 1.29943 252.5 1.29943C254.894 1.29943 257.287 1.02586 259.613 1.57299C263.169 2.46208 265.7 5.06094 266.589 8.75406C267.273 11.5581 267.341 14.7041 266.589 17.5081C265.631 21.2012 263.169 23.3898 259.544 24.3472C257.835 24.826 256.056 25.1679 254.278 25.1679Z" fill="white"/>
<path d="M188.212 0.27356H179.868H144.031V11.3529H144.373C144.92 9.09601 146.083 7.04428 147.656 5.47128C147.724 5.40289 147.793 5.3345 147.93 5.26611C149.092 4.17185 150.392 3.35116 151.896 2.73564C153.264 2.18851 154.837 1.91495 156.41 1.91495C160.582 1.91495 164.001 5.26611 164.07 9.43797V38.0938C164.07 42.4709 160.992 46.0956 156.957 46.9847V47.1899H181.031V46.9847C176.927 46.0956 173.918 42.4709 173.918 38.0938V9.36958C173.918 7.24945 174.739 5.40289 176.107 4.03507C177.475 2.66725 179.321 1.84656 181.373 1.84656H181.441H186.844C190.948 1.91495 194.299 5.26611 194.299 9.43797V38.0938C194.299 42.4709 191.221 46.0956 187.186 46.9847V47.1899H211.26V46.9847C207.156 46.0956 204.147 42.4709 204.147 38.0938V8.95923C204.421 4.99255 207.703 1.84656 211.738 1.84656C213.311 1.84656 214.884 2.12012 216.252 2.73564C217.688 3.28277 219.056 4.17185 220.151 5.19772C220.219 5.26611 220.356 5.3345 220.424 5.47128C221.997 7.04428 223.16 9.09601 223.707 11.3529H224.049V0.27356H188.212Z" fill="white"/>
<path d="M312.615 0C297.501 0 285.19 10.5322 285.19 23.5265C285.19 36.5209 297.432 47.0531 312.615 47.0531C327.73 47.0531 340.04 36.5209 340.04 23.5265C340.04 10.5322 327.73 0 312.615 0ZM312.615 46.164C303.656 46.164 296.407 36.0421 296.407 23.5265C296.407 11.011 303.656 0.889085 312.615 0.889085C321.575 0.889085 328.824 11.011 328.824 23.5265C328.824 35.9737 321.575 46.164 312.615 46.164Z" fill="white"/>
</svg>
