<svg width="278" height="169" viewBox="0 0 278 169" fill="none" xmlns="http://www.w3.org/2000/svg">
<g clip-path="url(#clip0_2420_11598)">
<path opacity="0.5" d="M96.1431 32.0505C97.6562 33.9539 103.712 41.9396 104.471 44.6015C105.229 47.2634 112.04 55.6319 109.391 69.3243C106.742 83.0166 100.309 97.4711 95.3884 97.4711C90.4681 97.4711 77.2202 90.1621 73.4356 64.5284C71.3972 44.7204 91.6556 25.7043 96.1431 32.0505Z" fill="white"/>
<path opacity="0.5" d="M136.646 0C140.231 0 155.584 17.5662 154.614 36.6009C153.641 55.6319 145.872 74.1759 136.646 72.2241C127.419 70.2723 115.71 54.446 120.62 26.3512C124.042 10.246 133.061 0 136.646 0Z" fill="white"/>
<path opacity="0.5" d="M187.584 29.2027C187.584 29.2027 200.628 28.6079 204.187 52.7396C204.768 72.4026 194.106 90.8722 187.584 90.8722C181.062 90.8722 169.797 78.5071 169.797 54.2267C169.797 29.9462 187.584 29.2027 187.584 29.2027Z" fill="white"/>
<path d="M157.606 28.303C155.69 23.9049 153.026 19.7188 149.686 15.8598C144.011 9.30543 138.365 5.97435 138.129 5.8368L137.059 5.21222L135.99 5.8368C135.753 5.97435 130.112 9.30543 124.433 15.8598C121.092 19.7188 118.429 23.9049 116.512 28.303C114.108 33.8238 112.891 39.6866 112.891 45.7279C112.891 58.3273 122.624 68.6811 134.928 69.6031V103.23H139.187V69.6031C151.491 68.6811 161.224 58.3273 161.224 45.7279C161.224 39.6866 160.007 33.8238 157.603 28.303M127.548 18.7782C130.226 15.6702 132.927 13.3243 134.928 11.7777V30.4853L123.582 24.0908C124.755 22.2617 126.076 20.4846 127.548 18.7782ZM120.378 30.0986C120.715 29.3253 121.074 28.5595 121.459 27.8011L134.928 35.3927V49.0404L117.67 39.3148C118.188 36.1548 119.091 33.0728 120.378 30.0986ZM134.928 65.3091C124.973 64.3983 117.149 55.9665 117.149 45.7279C117.149 45.1331 117.164 44.5382 117.189 43.9471L134.928 53.9441V65.3091ZM153.7 30.0168C155.006 33.0133 155.919 36.125 156.441 39.3111L139.183 49.0367V35.3889L152.653 27.7974C153.026 28.5297 153.374 29.2696 153.7 30.0168ZM139.183 30.4853V11.774C141.158 13.2983 143.811 15.6032 146.467 18.6704C147.977 20.4102 149.331 22.2245 150.526 24.0945L139.179 30.489L139.183 30.4853ZM139.183 65.3091V53.9441L156.922 43.9471C156.948 44.5382 156.963 45.1331 156.963 45.7279C156.963 55.9665 149.138 64.3983 139.183 65.3091Z" fill="white"/>
<path d="M109.709 58.8515C108.026 54.9851 105.684 51.3045 102.747 47.9102C97.7564 42.1478 92.7954 39.2182 92.5882 39.0992L91.6485 38.5527L90.7089 39.0992C90.498 39.2219 85.537 42.1478 80.5501 47.9102C77.6127 51.3008 75.2709 54.9813 73.5876 58.8515C71.4752 63.7068 70.4023 68.8596 70.4023 74.1722C70.4023 85.2473 78.9593 94.3557 89.7803 95.1661V103.234H93.5242V95.1661C104.345 94.3557 112.902 85.251 112.902 74.1722C112.902 68.8633 111.829 63.7068 109.717 58.8515M83.2914 50.4755C85.6443 47.7392 88.0193 45.6833 89.7803 44.3189V60.7661L79.8065 55.1449C80.8349 53.5351 82.0003 51.9737 83.2914 50.4755ZM76.9874 60.4278C77.2834 59.7474 77.5979 59.0745 77.9382 58.4054L89.7803 65.0787V77.0794L74.605 68.5287C75.06 65.7516 75.8554 63.0413 76.9837 60.4278M89.7766 91.3852C81.0236 90.5859 74.1425 83.1691 74.1425 74.1685C74.1425 73.6443 74.1573 73.1238 74.1795 72.6033L89.7766 81.392V91.3852ZM106.284 60.3572C107.431 62.993 108.233 65.7255 108.696 68.5287L93.5205 77.0794V65.0787L105.363 58.4054C105.688 59.0485 105.995 59.6991 106.284 60.3572ZM93.5205 60.7661V44.3152C95.2555 45.6573 97.5899 47.6797 99.9243 50.3788C101.252 51.9105 102.44 53.5017 103.494 55.1449L93.5205 60.7661ZM93.5205 91.3852V81.392L109.118 72.6033C109.14 73.1238 109.155 73.6443 109.155 74.1685C109.155 83.1691 102.273 90.5859 93.5205 91.3852Z" fill="white"/>
<path d="M203.432 51.799C201.749 47.9325 199.407 44.252 196.469 40.8577C191.479 35.0952 186.518 32.1694 186.307 32.0467L185.367 31.5002L184.428 32.0467C184.22 32.1694 179.259 35.0952 174.269 40.8577C171.331 44.2483 168.99 47.9325 167.306 51.799C165.194 56.6543 164.121 61.807 164.121 67.1197C164.121 78.1947 172.678 87.3032 183.499 88.1136V103.234H187.243V88.1136C198.064 87.3032 206.621 78.1985 206.621 67.1197C206.621 61.807 205.548 56.6543 203.436 51.799M177.01 43.4229C179.363 40.6904 181.738 38.6308 183.499 37.2664V53.7136L173.525 48.0924C174.554 46.4826 175.719 44.9212 177.01 43.4192M170.706 53.3715C171.002 52.6912 171.317 52.0183 171.657 51.3491L183.499 58.0224V70.0232L168.324 61.4725C168.779 58.6953 169.574 55.9851 170.702 53.3715M183.495 84.329C174.742 83.5297 167.861 76.1128 167.861 67.1122C167.861 66.588 167.876 66.0676 167.898 65.5471L183.495 74.3358V84.329ZM200.002 53.3009C201.149 55.9368 201.952 58.6693 202.415 61.4725L187.239 70.0232V58.0224L199.081 51.3491C199.407 51.9923 199.714 52.6429 199.999 53.3009M187.236 53.7099V37.259C188.971 38.6011 191.305 40.6235 193.639 43.3226C194.967 44.8543 196.155 46.4454 197.209 48.0887L187.236 53.7099ZM187.236 84.329V74.3358L202.833 65.5471C202.855 66.0676 202.87 66.588 202.87 67.1122C202.87 76.1128 195.989 83.5297 187.236 84.329Z" fill="white"/>
<path d="M3.31598 125.848C3.31598 125.272 2.98672 124.941 2.4133 124.941H0.652344V120.369H5.89822C7.86635 120.369 8.68394 121.235 8.68394 123.168V144.132C8.68394 144.708 9.0132 145.039 9.58662 145.039H15.9386C16.5121 145.039 16.8413 144.708 16.8413 144.132V142.363H21.7172V146.813C21.7172 148.79 20.8997 149.612 18.9315 149.612H6.10539C4.13726 149.612 3.31968 148.787 3.31968 146.813V125.848H3.31598Z" fill="white"/>
<path d="M33.5621 128.113C39.9548 128.113 45.0379 132.685 45.0379 139.11C45.0379 145.534 39.9548 150.107 33.5621 150.107C27.1694 150.107 22.127 145.575 22.127 139.11C22.127 132.644 27.2101 128.113 33.5621 128.113ZM33.5621 145.66C36.9656 145.66 39.792 143.024 39.792 139.113C39.792 135.202 36.9656 132.563 33.5621 132.563C30.1585 132.563 27.3728 135.239 27.3728 139.113C27.3728 142.987 30.1992 145.66 33.5621 145.66Z" fill="white"/>
<path d="M48.8047 142.943C48.8047 142.943 51.4683 146.032 55.0346 146.032C56.6328 146.032 57.861 145.374 57.861 143.972C57.861 141.006 46.8366 141.046 46.8366 134.25C46.8366 130.049 50.6063 128.113 54.9495 128.113C57.776 128.113 62.2856 129.061 62.2856 132.477V134.659H57.6946V133.63C57.6946 132.641 56.2185 132.146 55.0716 132.146C53.2293 132.146 51.9566 132.804 51.9566 134.042C51.9566 137.336 63.0625 136.678 63.0625 143.679C63.0625 147.634 59.5776 150.103 55.0309 150.103C49.293 150.103 46.3408 146.355 46.3408 146.355L48.801 142.935L48.8047 142.943Z" fill="white"/>
<path d="M73.7607 145.043H74.4156C75.1111 145.043 75.4403 144.879 75.6845 144.136L84.3339 120.372H89.9497L98.5584 144.136C98.8026 144.879 99.1319 145.043 99.8311 145.043H100.486V149.616H97.2895C95.24 149.616 94.5038 149.08 93.8453 147.229L92.0436 142.121H82.2067L80.405 147.229C79.7502 149.084 79.051 149.616 77.0015 149.616H73.7644V145.043H73.7607ZM90.8117 137.671L88.3108 130.339C87.7781 128.733 87.164 125.975 87.164 125.975H87.0826C87.0826 125.975 86.4685 128.733 85.9358 130.339L83.4349 137.671H90.8117Z" fill="white"/>
<path d="M103.184 125.726C103.184 125.109 102.855 124.819 102.281 124.819H100.643V120.369H105.604C107.531 120.369 108.389 121.235 108.389 123.168V144.296C108.389 144.872 108.719 145.203 109.292 145.203H110.89V149.608H105.97C104.002 149.608 103.184 148.787 103.184 146.809V125.722V125.726Z" fill="white"/>
<path d="M114.209 133.964C114.209 133.347 113.879 133.057 113.306 133.057H111.667V128.607H116.462C118.308 128.607 119.207 129.473 119.207 130.953V131.57C119.207 132.024 119.166 132.477 119.166 132.477H119.247C120.231 130.418 122.732 128.113 126.01 128.113C129.288 128.113 131.215 129.596 132.118 132.44H132.199C133.305 130.172 136.01 128.113 139.332 128.113C143.679 128.113 146.176 130.585 146.176 136.106V144.303C146.176 144.879 146.505 145.21 147.079 145.21H148.677V149.616H143.76C141.792 149.616 140.974 148.79 140.974 146.816V137.095C140.974 134.704 140.523 132.894 138.104 132.894C135.521 132.894 133.675 135.076 133.102 137.712C132.858 138.533 132.773 139.4 132.773 140.388V149.616H127.567V137.095C127.567 134.827 127.238 132.894 124.741 132.894C122.118 132.894 120.357 135.076 119.699 137.753C119.495 138.578 119.369 139.44 119.369 140.388V149.616H114.205V133.964H114.209Z" fill="white"/>
<path d="M160.352 128.116C166.334 128.116 169.615 132.522 169.615 138.083C169.615 138.701 169.493 140.02 169.493 140.02H155.065C155.476 143.727 158.18 145.664 161.336 145.664C164.695 145.664 167.196 143.318 167.196 143.318L169.368 146.943C169.368 146.943 166.171 150.114 160.966 150.114C154.041 150.114 149.734 145.091 149.734 139.117C149.734 132.652 154.078 128.12 160.348 128.12M164.284 136.399C164.203 133.886 162.479 132.157 160.348 132.157C157.685 132.157 155.798 133.763 155.224 136.399H164.281H164.284Z" fill="white"/>
<path d="M173.628 133.964C173.628 133.347 173.299 133.057 172.726 133.057H171.087V128.607H175.881C177.727 128.607 178.63 129.473 178.63 130.953V131.57C178.63 132.024 178.549 132.477 178.549 132.477H178.63C179.529 130.707 181.786 128.113 186.007 128.113C190.639 128.113 193.302 130.544 193.302 136.106V144.303C193.302 144.879 193.632 145.21 194.205 145.21H195.844V149.616H190.883C188.915 149.616 188.097 148.79 188.097 146.816V137.176C188.097 134.622 187.442 132.894 184.819 132.894C182.034 132.894 179.943 134.663 179.204 137.176C178.915 138.043 178.793 138.991 178.793 139.976V149.612H173.628V133.96V133.964Z" fill="white"/>
<path d="M206.37 128.116C210.92 128.116 212.396 130.67 212.396 130.67H212.478C212.478 130.67 212.437 130.135 212.437 129.436V125.729C212.437 125.112 212.108 124.822 211.535 124.822H209.896V120.372H214.857C216.784 120.372 217.642 121.238 217.642 123.172V144.299C217.642 144.876 217.968 145.207 218.545 145.207H220.143V149.612H215.349C213.466 149.612 212.766 148.705 212.766 147.471V146.686H212.685C212.685 146.686 210.965 150.107 206.167 150.107C200.51 150.107 196.862 145.619 196.862 139.11C196.862 132.6 200.839 128.113 206.37 128.113M212.559 139.069C212.559 135.816 210.88 132.604 207.395 132.604C204.524 132.604 202.149 134.949 202.149 139.11C202.149 143.27 204.239 145.701 207.313 145.701C210.018 145.701 212.559 143.723 212.559 139.069Z" fill="white"/>
<path d="M223.417 133.964C223.417 133.347 223.088 133.057 222.518 133.057H220.879V128.607H225.633C227.479 128.607 228.418 129.391 228.418 131.161V132.395C228.418 133.18 228.337 133.715 228.337 133.715H228.418C229.362 130.708 231.863 128.321 235.059 128.321C235.51 128.321 236.002 128.403 236.002 128.403V133.552C236.002 133.552 235.47 133.47 234.734 133.47C232.521 133.47 229.98 134.749 229.036 137.875C228.748 138.905 228.585 140.058 228.585 141.296V149.616H223.42V133.964H223.417Z" fill="white"/>
<path d="M247.841 128.113C254.234 128.113 259.317 132.685 259.317 139.11C259.317 145.534 254.234 150.107 247.841 150.107C241.449 150.107 236.406 145.575 236.406 139.11C236.406 132.644 241.489 128.113 247.841 128.113ZM247.841 145.66C251.245 145.66 254.071 143.024 254.071 139.113C254.071 135.202 251.245 132.563 247.841 132.563C244.438 132.563 241.652 135.239 241.652 139.113C241.652 142.987 244.479 145.66 247.841 145.66Z" fill="white"/>
<path d="M263.085 142.943C263.085 142.943 265.749 146.032 269.315 146.032C270.913 146.032 272.142 145.374 272.142 143.972C272.142 141.006 261.117 141.046 261.117 134.25C261.117 130.049 264.887 128.113 269.234 128.113C272.06 128.113 276.57 129.061 276.57 132.477V134.659H271.979V133.63C271.979 132.641 270.503 132.146 269.356 132.146C267.513 132.146 266.241 132.804 266.241 134.042C266.241 137.336 277.347 136.678 277.347 143.679C277.347 147.634 273.862 150.103 269.315 150.103C263.577 150.103 260.625 146.355 260.625 146.355L263.085 142.935V142.943Z" fill="white"/>
<path d="M199.108 164.464H77.9053V168.996H199.108V164.464Z" fill="white"/>
</g>
<defs>
<clipPath id="clip0_2420_11598">
<rect width="276.696" height="169" fill="white" transform="translate(0.652344)"/>
</clipPath>
</defs>
</svg>
