<svg width="167" height="214" viewBox="0 0 167 214" fill="none" xmlns="http://www.w3.org/2000/svg">
<g clip-path="url(#clip0_2420_12072)">
<path d="M67.7533 50.0869H62.3652V148.984H67.7533V50.0869Z" fill="white"/>
<path d="M68.0653 149.298H62.0547V49.7734H68.0653V149.298ZM62.6772 148.671H67.4383V50.4005H62.6772V148.671Z" fill="white"/>
<path d="M79.8744 25.0905H74.4863V148.984H79.8744V25.0905Z" fill="white"/>
<path d="M80.1864 149.298H74.1758V24.777H80.1864V149.298ZM74.7983 148.671H79.5594V25.404H74.7983V148.671Z" fill="white"/>
<path d="M91.9916 25.0905H86.6035V148.984H91.9916V25.0905Z" fill="white"/>
<path d="M92.3036 149.298H86.293V24.777H92.3036V149.298ZM86.9155 148.671H91.6765V25.404H86.9155V148.671Z" fill="white"/>
<path d="M104.113 50.0869H98.7246V148.984H104.113V50.0869Z" fill="white"/>
<path d="M104.425 149.298H98.4141V49.7734H104.425V149.298ZM99.0366 148.671H103.798V50.4005H99.0366V148.671Z" fill="white"/>
<path d="M0.3125 0.313507V148.989H50.2427H55.6308V75.7284H50.2427V144.676H4.62115V4.62216H161.851V144.676H116.23V75.7284H110.846V148.989H116.23H166.16V0.313507H0.3125Z" fill="white"/>
<path d="M166.474 149.298H110.529V75.4104H116.54V144.362H161.534V4.93569H4.93569V144.367H49.9302V75.4149H55.9408V149.302H0V0H166.474V149.298ZM111.156 148.671H165.847V0.627039H0.627039V148.675H55.3183V76.0419H50.5573V144.994H4.30865V4.30865H162.166V144.989H115.917V76.0374H111.156V148.671Z" fill="white"/>
<path d="M2.3234 175.634V182.459H10.4525V184.233H2.3234V192.411H0.34375V173.864H11.8589V175.638H2.3234V175.634Z" fill="white"/>
<path d="M30.542 190.745C29.3954 191.892 27.8591 192.568 25.9287 192.568C23.9983 192.568 22.4397 191.892 21.2931 190.745C19.5464 188.999 19.4434 187.386 19.4434 183.14C19.4434 178.894 19.5464 177.277 21.2931 175.535C22.4397 174.388 24.0028 173.712 25.9287 173.712C27.8546 173.712 29.3954 174.388 30.542 175.535C32.2887 177.282 32.4186 178.894 32.4186 183.14C32.4186 187.386 32.2887 189.003 30.542 190.745ZM29.1356 176.78C28.2757 175.92 27.1828 175.477 25.9332 175.477C24.6836 175.477 23.5863 175.92 22.7308 176.78C21.5574 177.981 21.4275 179.333 21.4275 183.136C21.4275 186.938 21.5574 188.295 22.7308 189.491C23.5908 190.351 24.6836 190.795 25.9332 190.795C27.1828 190.795 28.2757 190.351 29.1356 189.491C30.3091 188.291 30.4389 186.938 30.4389 183.136C30.4389 179.333 30.3091 177.976 29.1356 176.78Z" fill="white"/>
<path d="M52.9482 192.411L48.7291 184.179H44.2726V192.411H42.293V173.864H49.4054C52.6346 173.864 54.9009 175.817 54.9009 179.024C54.9009 181.734 53.2617 183.503 50.861 184L55.2637 192.416H52.9437L52.9482 192.411ZM49.2217 175.634H44.2726V182.433H49.2217C51.385 182.433 52.9213 181.313 52.9213 179.047C52.9213 176.78 51.385 175.634 49.2217 175.634Z" fill="white"/>
<path d="M69.65 175.634V192.411H67.6703V175.634H62.3047V173.86H75.0201V175.634H69.6545H69.65Z" fill="white"/>
<path d="M83.6953 192.411V173.864H85.675V192.411H83.6953Z" fill="white"/>
<path d="M107.061 192.411L105.574 188.219H97.4715L95.9845 192.411H93.875L100.701 173.864H102.367L109.166 192.411H107.056H107.061ZM101.565 176.704L98.0762 186.499H105.005L101.565 176.704Z" fill="white"/>
<path d="M121.263 175.634V192.411H119.284V175.634H113.918V173.86H126.633V175.634H121.268H121.263Z" fill="white"/>
<path d="M140.75 175.634V192.411H138.77V175.634H133.404V173.86H146.12V175.634H140.754H140.75Z" fill="white"/>
<path d="M154.797 192.411V173.864H166.312V175.638H156.777V182.177H164.906V183.951H156.777V190.647H166.312V192.42H154.797V192.411Z" fill="white"/>
<path d="M30.4485 213.296L29.2034 210.748H28.3076V213.296H27.0625V206.909H29.5662C30.865 206.909 31.6399 207.796 31.6399 208.867C31.6399 209.762 31.0935 210.318 30.4754 210.542L31.8997 213.296H30.4575H30.4485ZM29.4811 208.025H28.3076V209.709H29.4811C30.0275 209.709 30.3858 209.359 30.3858 208.867C30.3858 208.374 30.0275 208.025 29.4811 208.025Z" fill="white"/>
<path d="M38.3047 213.296V206.909H42.5103V208.02H39.5498V209.516H42.0714V210.627H39.5498V212.177H42.5103V213.287H38.3047V213.296Z" fill="white"/>
<path d="M50.8725 213.35C49.9051 213.35 49.1706 213.144 48.5391 212.508L49.3453 211.702C49.7483 212.105 50.2948 212.239 50.877 212.239C51.6205 212.239 52.0146 211.953 52.0146 211.442C52.0146 211.227 51.9519 211.048 51.8176 210.914C51.6922 210.797 51.5668 210.743 51.2443 210.699L50.4829 210.582C49.9185 210.501 49.5334 210.331 49.2467 210.054C48.9422 209.758 48.7899 209.337 48.7899 208.8C48.7899 207.662 49.6319 206.86 51.0159 206.86C51.8937 206.86 52.5297 207.075 53.0806 207.604L52.2923 208.383C51.8982 207.998 51.4055 207.944 50.9845 207.944C50.3216 207.944 50.0081 208.311 50.0081 208.75C50.0081 208.92 50.0529 209.082 50.1873 209.207C50.3127 209.324 50.5008 209.413 50.7695 209.449L51.5309 209.565C52.1132 209.646 52.4715 209.798 52.7492 210.067C53.0896 210.381 53.2419 210.837 53.2419 211.411C53.2419 212.647 52.2207 213.35 50.8725 213.35Z" fill="white"/>
<path d="M59.793 213.296V206.909H61.0381V213.296H59.793Z" fill="white"/>
<path d="M72.1472 212.365C71.6903 213.001 71.0901 213.296 70.2168 213.296H67.9102V206.909H70.2168C71.0857 206.909 71.6858 207.205 72.1472 207.841C72.5413 208.387 72.5502 209.041 72.5502 210.103C72.5502 211.164 72.5413 211.814 72.1472 212.365ZM71.0454 208.419C70.8393 208.159 70.5348 208.025 70.1137 208.025H69.1642V212.186H70.1137C70.5348 212.186 70.8393 212.051 71.0454 211.791C71.2783 211.514 71.3051 211.111 71.3051 210.107C71.3051 209.104 71.2783 208.701 71.0454 208.423V208.419Z" fill="white"/>
<path d="M79.2051 213.296V206.909H83.4107V208.02H80.4502V209.516H82.9718V210.627H80.4502V212.177H83.4107V213.287H79.2051V213.296Z" fill="white"/>
<path d="M93.7893 213.296L91.2588 209.377V213.296H90.0137V206.909H91.1244L93.655 210.819V206.909H94.9001V213.296H93.7893Z" fill="white"/>
<path d="M103.914 213.35C103.18 213.35 102.642 213.108 102.204 212.678C101.568 212.042 101.559 211.326 101.559 210.103C101.559 208.88 101.568 208.164 102.204 207.528C102.642 207.098 103.18 206.856 103.914 206.856C105.106 206.856 106.024 207.536 106.257 208.876H104.985C104.86 208.356 104.537 207.971 103.919 207.971C103.579 207.971 103.301 208.096 103.122 208.302C102.889 208.571 102.808 208.885 102.808 210.103C102.808 211.321 102.889 211.635 103.122 211.903C103.301 212.109 103.579 212.235 103.919 212.235C104.537 212.235 104.868 211.85 104.994 211.33H106.257C106.024 212.665 105.101 213.35 103.914 213.35Z" fill="white"/>
<path d="M112.713 213.296V206.909H113.958V213.296H112.713Z" fill="white"/>
<path d="M124.464 213.296L124.088 212.168H121.817L121.432 213.296H120.133L122.457 206.909H123.434L125.767 213.296H124.468H124.464ZM122.977 208.795L122.171 211.12H123.756L122.977 208.795Z" fill="white"/>
<path d="M133.697 213.35C132.729 213.35 131.995 213.144 131.363 212.508L132.169 211.702C132.573 212.105 133.119 212.239 133.701 212.239C134.445 212.239 134.839 211.953 134.839 211.442C134.839 211.227 134.776 211.048 134.642 210.914C134.516 210.797 134.391 210.743 134.068 210.699L133.307 210.582C132.743 210.501 132.358 210.331 132.071 210.054C131.766 209.758 131.614 209.337 131.614 208.8C131.614 207.662 132.456 206.86 133.84 206.86C134.718 206.86 135.354 207.075 135.905 207.604L135.117 208.383C134.722 207.998 134.23 207.944 133.809 207.944C133.146 207.944 132.832 208.311 132.832 208.75C132.832 208.92 132.877 209.082 133.011 209.207C133.137 209.324 133.325 209.413 133.594 209.449L134.355 209.565C134.937 209.646 135.296 209.798 135.573 210.067C135.914 210.381 136.066 210.837 136.066 211.411C136.066 212.647 135.045 213.35 133.697 213.35Z" fill="white"/>
</g>
<defs>
<clipPath id="clip0_2420_12072">
<rect width="166.474" height="213.35" fill="white"/>
</clipPath>
</defs>
</svg>
