<svg width="100" height="100" viewBox="0 0 100 100" fill="none" xmlns="http://www.w3.org/2000/svg">
<g filter="url(#filter0_d_2468_1567)">
<path fill-rule="evenodd" clip-rule="evenodd" d="M50.0123 22.7695C48.8615 22.7695 47.7752 23.3015 47.0696 24.2107L34.6205 40.2476C33.7506 41.3394 33.5955 42.8377 34.2231 44.0848C34.857 45.3421 36.1584 46.1218 37.5658 46.0879H38.0829L34.2958 53.1057C33.665 54.2593 33.689 55.6601 34.3592 56.7914C35.0294 57.9229 36.2469 58.6171 37.562 58.6179H37.7723L34.3715 64.3244C33.6588 65.4767 33.6279 66.9252 34.2909 68.1068C34.9543 69.2889 36.2073 70.0174 37.5627 70.0089H47.4022C47.4021 70.0852 47.4034 70.1627 47.4051 70.2393C47.4062 70.289 47.4075 70.3385 47.4088 70.3877L47.4088 70.3882C47.4127 70.5406 47.4166 70.6907 47.4151 70.8371L47.4151 70.8403V73.1185C47.4151 74.5466 48.5728 75.7044 50.0009 75.7044C51.4291 75.7044 52.5868 74.5466 52.5868 73.1185L52.5868 70.8403L52.5868 70.8371C52.5853 70.6889 52.5889 70.5366 52.5925 70.3827C52.5936 70.3349 52.5948 70.2869 52.5957 70.2388C52.5973 70.1622 52.5985 70.0848 52.5985 70.0089H62.4399C63.7811 70.0091 65.019 69.288 65.6807 68.1214C66.3479 66.9429 66.3385 65.4987 65.6559 64.3291L65.6545 64.3266L62.2524 58.6179H62.4618C63.7664 58.6277 64.9811 57.9542 65.6639 56.8424L65.6685 56.8342C66.3245 55.6887 66.3479 54.2869 65.7305 53.1201L61.9425 46.1221H62.4586C63.8674 46.1588 65.1706 45.3775 65.8021 44.1173C66.4339 42.8562 66.2789 41.3435 65.4046 40.2368L65.4037 40.2356L52.9551 24.2107C52.2495 23.3015 51.1632 22.7695 50.0123 22.7695ZM44.9149 42.0552H38.1904L50.0123 26.8262L61.8343 42.0552H55.1098L61.9443 54.5853H55.0846L61.9192 65.9762H38.1055L44.94 54.5853H38.0803L44.9149 42.0552Z" fill="black"/>
</g>
<defs>
<filter id="filter0_d_2468_1567" x="29.8145" y="22.7695" width="40.373" height="60.9351" filterUnits="userSpaceOnUse" color-interpolation-filters="sRGB">
<feFlood flood-opacity="0" result="BackgroundImageFix"/>
<feColorMatrix in="SourceAlpha" type="matrix" values="0 0 0 0 0 0 0 0 0 0 0 0 0 0 0 0 0 0 127 0" result="hardAlpha"/>
<feOffset dy="4"/>
<feGaussianBlur stdDeviation="2"/>
<feComposite in2="hardAlpha" operator="out"/>
<feColorMatrix type="matrix" values="0 0 0 0 0 0 0 0 0 0 0 0 0 0 0 0 0 0 0.25 0"/>
<feBlend mode="normal" in2="BackgroundImageFix" result="effect1_dropShadow_2468_1567"/>
<feBlend mode="normal" in="SourceGraphic" in2="effect1_dropShadow_2468_1567" result="shape"/>
</filter>
</defs>
</svg>
