<svg width="29" height="33" viewBox="0 0 29 33" fill="none" xmlns="http://www.w3.org/2000/svg">
<path fill-rule="evenodd" clip-rule="evenodd" d="M14.3591 14.9485C16.8551 14.9485 18.8784 12.9251 18.8784 10.4292C18.8784 7.93327 16.8551 5.90991 14.3591 5.90991C11.8632 5.90991 9.83984 7.93327 9.83984 10.4292C9.84367 12.9235 11.8648 14.9447 14.3591 14.9485ZM14.3591 7.99574C15.7031 7.99574 16.7926 9.08523 16.7926 10.4292C16.7926 11.7732 15.7031 12.8627 14.3591 12.8627C13.0152 12.8627 11.9257 11.7732 11.9257 10.4292C11.9257 9.08523 13.0152 7.99574 14.3591 7.99574Z" fill="white"/>
<path fill-rule="evenodd" clip-rule="evenodd" d="M12.9688 17.0341V19.8152C12.9688 20.3912 13.4357 20.8581 14.0117 20.8581C14.5876 20.8581 15.0546 20.3912 15.0546 19.8152V17.0341C15.0546 16.4581 14.5876 15.9912 14.0117 15.9912C13.4357 15.9912 12.9688 16.4581 12.9688 17.0341Z" fill="white"/>
<path fill-rule="evenodd" clip-rule="evenodd" d="M14.0117 4.86692C14.5876 4.86692 15.0546 4.4 15.0546 3.82401V1.04291C15.0546 0.466928 14.5876 0 14.0117 0C13.4357 0 12.9688 0.466928 12.9688 1.04291V3.82401C12.9688 4.4 13.4357 4.86692 14.0117 4.86692Z" fill="white"/>
<path fill-rule="evenodd" clip-rule="evenodd" d="M4.62494 11.4721H7.40604C7.98203 11.4721 8.44896 11.0051 8.44896 10.4291C8.44896 9.85316 7.98203 9.38623 7.40604 9.38623H4.62494C4.04896 9.38623 3.58203 9.85316 3.58203 10.4291C3.58203 11.0051 4.04896 11.4721 4.62494 11.4721Z" fill="white"/>
<path fill-rule="evenodd" clip-rule="evenodd" d="M19.5742 10.4291C19.5742 11.0051 20.0411 11.4721 20.6171 11.4721H23.3982C23.9742 11.4721 24.4411 11.0051 24.4411 10.4291C24.4411 9.85316 23.9742 9.38623 23.3982 9.38623H20.6171C20.0411 9.38623 19.5742 9.85316 19.5742 10.4291Z" fill="white"/>
<path fill-rule="evenodd" clip-rule="evenodd" d="M8.60233 6.49379C9.01325 6.87669 9.65359 6.86539 10.0508 6.46823C10.4479 6.07107 10.4592 5.43073 10.0763 5.01981L8.10868 3.05218C7.84869 2.77316 7.45713 2.65831 7.08762 2.75267C6.7181 2.84704 6.42956 3.13558 6.33519 3.5051C6.24083 3.87461 6.35568 4.26617 6.6347 4.52616L8.60233 6.49379Z" fill="white"/>
<path fill-rule="evenodd" clip-rule="evenodd" d="M17.9466 14.3643C17.5399 14.7715 17.5399 15.4311 17.9466 15.8383L19.9142 17.8059C20.3252 18.1888 20.9655 18.1775 21.3627 17.7804C21.7598 17.3832 21.7711 16.7429 21.3882 16.332L19.4206 14.3643C19.0134 13.9577 18.3538 13.9577 17.9466 14.3643Z" fill="white"/>
<path fill-rule="evenodd" clip-rule="evenodd" d="M18.6836 6.7999C18.9601 6.79966 19.2252 6.68962 19.4206 6.49398L21.3882 4.52635C21.7711 4.11543 21.7598 3.47508 21.3627 3.07792C20.9655 2.68077 20.3252 2.66947 19.9143 3.05237L17.9466 5.02C17.6488 5.31825 17.5597 5.7665 17.721 6.15597C17.8822 6.54544 18.2621 6.79953 18.6836 6.7999Z" fill="white"/>
<path fill-rule="evenodd" clip-rule="evenodd" d="M8.60233 14.3644L6.6347 16.332C6.35568 16.592 6.24083 16.9836 6.33519 17.3531C6.42956 17.7226 6.7181 18.0111 7.08762 18.1055C7.45713 18.1999 7.84869 18.085 8.10868 17.806L10.0763 15.8384C10.4592 15.4274 10.4479 14.7871 10.0508 14.3899C9.65359 13.9928 9.01325 13.9815 8.60233 14.3644Z" fill="white"/>
<path fill-rule="evenodd" clip-rule="evenodd" d="M1.14912 22.6659C1.67753 22.6659 1.87916 22.9023 2.40757 23.8479C2.93598 24.7934 3.67992 26.1423 5.55021 26.1423C7.4205 26.1423 8.19226 24.7517 8.69981 23.8479C9.20736 22.944 9.39508 22.6659 9.95826 22.6659C10.5214 22.6659 10.6883 22.9023 11.2167 23.8479C11.7451 24.7934 12.4891 26.1423 14.3593 26.1423C16.2296 26.1423 17.0014 24.7517 17.502 23.8479C18.0026 22.944 18.1973 22.6659 18.7604 22.6659C19.3236 22.6659 19.4905 22.9023 20.0189 23.8479C20.5473 24.7934 21.2912 26.1423 23.1685 26.1423C25.0457 26.1423 25.8105 24.7517 26.3111 23.8479C26.8117 22.944 27.0064 22.6659 27.5696 22.6659C28.1455 22.6659 28.6125 22.199 28.6125 21.623C28.6125 21.047 28.1455 20.5801 27.5696 20.5801C25.741 20.5801 24.9831 21.9706 24.4895 22.8397C23.9959 23.7088 23.7942 24.0565 23.1685 24.0565C22.5427 24.0565 22.3481 23.7436 21.8475 22.8397C21.3469 21.9359 20.596 20.5801 18.7674 20.5801C16.9388 20.5801 16.181 21.9706 15.6873 22.8397C15.1937 23.7088 14.992 24.0565 14.3663 24.0565C13.7406 24.0565 13.5459 23.7436 13.0453 22.8397C12.5447 21.9359 11.7938 20.5801 9.96521 20.5801C8.13663 20.5801 7.37879 21.9706 6.88514 22.8397C6.3915 23.7088 6.18987 24.0565 5.56412 24.0565C4.93837 24.0565 4.74369 23.7436 4.2431 22.8397C3.7425 21.9359 2.9916 20.5801 1.16303 20.5801C0.587045 20.5801 0.120117 21.047 0.120117 21.623C0.120117 22.199 0.587045 22.6659 1.16303 22.6659H1.14912Z" fill="white"/>
<path fill-rule="evenodd" clip-rule="evenodd" d="M27.5696 26.8376C25.741 26.8376 24.9831 28.2282 24.4895 29.0973C23.9959 29.9664 23.7942 30.314 23.1685 30.314C22.5427 30.314 22.3481 30.0011 21.8475 29.0973C21.3469 28.1934 20.596 26.8376 18.7674 26.8376C16.9388 26.8376 16.181 28.2282 15.6873 29.0973C15.1937 29.9664 14.992 30.314 14.3663 30.314C13.7406 30.314 13.5459 30.0011 13.0453 29.0973C12.5447 28.1934 11.7938 26.8376 9.96521 26.8376C8.13663 26.8376 7.37879 28.2282 6.88514 29.0973C6.3915 29.9664 6.18987 30.314 5.56412 30.314C4.93837 30.314 4.74369 30.0011 4.2431 29.0973C3.7425 28.1934 2.9916 26.8376 1.16303 26.8376C0.587045 26.8376 0.120117 27.3046 0.120117 27.8806C0.120117 28.4565 0.587045 28.9235 1.16303 28.9235C1.69144 28.9235 1.89307 29.1599 2.42148 30.1054C2.94989 31.051 3.69383 32.3998 5.56412 32.3998C7.43441 32.3998 8.20616 31.0093 8.71371 30.1054C9.22126 29.2016 9.40899 28.9235 9.97216 28.9235C10.5353 28.9235 10.7022 29.1599 11.2306 30.1054C11.759 31.051 12.503 32.3998 14.3733 32.3998C16.2435 32.3998 17.0153 31.0093 17.5159 30.1054C18.0165 29.2016 18.2112 28.9235 18.7743 28.9235C19.3375 28.9235 19.5044 29.1599 20.0328 30.1054C20.5612 31.051 21.3051 32.3998 23.1824 32.3998C25.0596 32.3998 25.8244 31.0093 26.325 30.1054C26.8256 29.2016 27.0203 28.9235 27.5835 28.9235C28.1595 28.9235 28.6264 28.4565 28.6264 27.8806C28.6264 27.3046 28.1595 26.8376 27.5835 26.8376H27.5696Z" fill="white"/>
</svg>
