<svg width="100" height="100" viewBox="0 0 100 100" fill="none" xmlns="http://www.w3.org/2000/svg">
<circle cx="50" cy="50" r="50" fill="white"/>
<path fill-rule="evenodd" clip-rule="evenodd" d="M64.462 44.8101C63.9823 44.8151 63.5035 44.8516 63.0286 44.9195L62.7879 43.9785C62.8321 43.7619 62.8321 43.5386 62.7879 43.322L61.6937 38.9452C61.641 38.7393 61.548 38.5459 61.4201 38.3762L60.5995 35.0936C60.418 34.3594 59.7583 33.8443 59.002 33.8462H52.4368C51.5303 33.8462 50.7955 34.581 50.7955 35.4875C50.7955 36.394 51.5303 37.1288 52.4368 37.1288H57.7217L57.8859 37.7963C52.52 38.4373 47.5177 40.8383 43.6613 44.6241V39.8643C43.6613 38.9578 42.9264 38.223 42.02 38.223H36.0019C35.0954 38.223 34.3606 38.9578 34.3606 39.8643C34.3606 40.7708 35.0954 41.5056 36.0019 41.5056H40.3787V45.2915C36.0585 43.9339 31.3483 45.3778 28.5312 48.9234C25.7141 52.469 25.3722 57.3836 27.6712 61.2852C29.9702 65.1867 34.435 67.2689 38.9016 66.5226C43.3682 65.7763 46.9135 62.3556 47.8192 57.9186H50.2265C50.8071 57.9173 51.3438 57.6094 51.638 57.1089C51.638 57.1089 52.5571 55.5442 53.706 53.6403C52.8192 58.1734 54.8745 62.7753 58.8423 65.1402C62.81 67.5051 67.8355 67.1237 71.401 64.1871C74.9664 61.2504 76.3037 56.3911 74.7428 52.0437C73.182 47.6963 69.0592 44.7973 64.4401 44.7991L64.462 44.8101ZM42.7203 50.5546C43.7734 51.6926 44.4564 53.1234 44.6789 54.6579H39.8425C40.7101 53.2281 41.6714 51.8573 42.7203 50.5546ZM37.107 63.4115C34.0126 63.4148 31.2201 61.5558 30.0292 58.6997C28.8384 55.8435 29.4831 52.5514 31.6634 50.3555C33.8437 48.1595 37.1311 47.4913 39.9957 48.6617C38.2849 50.8131 36.8171 53.1469 35.6189 55.6208C35.388 56.1295 35.4317 56.7208 35.7349 57.19C36.0382 57.6593 36.5593 57.942 37.118 57.9405H44.46C43.4909 61.1911 40.4991 63.4172 37.107 63.4115ZM49.2964 54.6579H47.9943C47.7392 52.1809 46.6469 49.865 44.8977 48.0927C48.1803 44.6788 52.8197 41.5275 58.6846 41.046L59.0785 42.6326C57.1425 43.4126 55.4898 44.7637 54.3407 46.5061C52.6228 49.0665 50.2921 52.9728 49.2964 54.6579ZM64.462 63.4115C60.9862 63.4058 57.95 61.0605 57.0666 57.6988C56.1831 54.3372 57.674 50.8021 60.698 49.0884L62.8864 57.842C63.0669 58.5722 63.7207 59.0863 64.4729 59.0894C64.6074 59.1059 64.7434 59.1059 64.8778 59.0894C65.3001 58.9835 65.6629 58.7142 65.8866 58.3407C66.1103 57.9672 66.1764 57.5202 66.0705 57.0979L63.8821 48.224H64.5058C68.7359 48.224 72.1652 51.6532 72.1652 55.8834C72.1652 60.1135 68.7359 63.5428 64.5058 63.5428L64.462 63.4115Z" fill="black"/>
</svg>
