<svg width="65" height="65" viewBox="0 0 65 65" fill="none" xmlns="http://www.w3.org/2000/svg">
<path fill-rule="evenodd" clip-rule="evenodd" d="M41.8987 29.1265C41.5869 29.1298 41.2757 29.1535 40.967 29.1976L40.8106 28.586C40.8393 28.4452 40.8393 28.3 40.8106 28.1593L40.0993 25.3143C40.0651 25.1805 40.0046 25.0548 39.9215 24.9445L39.3881 22.8108C39.2701 22.3336 38.8413 21.9987 38.3497 22H34.0823C33.4931 22 33.0155 22.4776 33.0155 23.0668C33.0155 23.6561 33.4931 24.1337 34.0823 24.1337H37.5176L37.6243 24.5675C34.1364 24.9842 30.885 26.5449 28.3783 29.0056V25.9118C28.3783 25.3226 27.9006 24.8449 27.3114 24.8449H23.3997C22.8105 24.8449 22.3328 25.3226 22.3328 25.9118C22.3328 26.501 22.8105 26.9786 23.3997 26.9786H26.2446V29.4395C23.4364 28.557 20.3749 29.4956 18.5437 31.8002C16.7126 34.1048 16.4904 37.2993 17.9847 39.8353C19.4791 42.3713 22.3812 43.7248 25.2845 43.2397C28.1878 42.7545 30.4922 40.5311 31.0809 37.6471H32.6456C33.023 37.6462 33.3719 37.4461 33.5631 37.1207C33.5631 37.1207 34.1606 36.1037 34.9074 34.8661C34.3309 37.8127 35.6668 40.8039 38.2459 42.3411C40.825 43.8783 44.0915 43.6304 46.4091 41.7216C48.7266 39.8128 49.5958 36.6542 48.5813 33.8284C47.5667 31.0026 44.8869 29.1182 41.8845 29.1194L41.8987 29.1265ZM27.7666 32.8605C28.4511 33.6002 28.8951 34.5302 29.0397 35.5276H25.8961C26.46 34.5982 27.0849 33.7072 27.7666 32.8605ZM24.118 41.2174C22.1066 41.2196 20.2915 40.0113 19.5174 38.1548C18.7434 36.2983 19.1625 34.1584 20.5797 32.731C21.9968 31.3037 24.1337 30.8693 25.9956 31.6301C24.8836 33.0285 23.9295 34.5455 23.1507 36.1535C23.0006 36.4842 23.029 36.8685 23.2261 37.1735C23.4232 37.4785 23.762 37.6623 24.1251 37.6613H28.8975C28.2675 39.7742 26.3228 41.2211 24.118 41.2174ZM32.0411 35.5276H31.1947C31.0289 33.9175 30.3189 32.4122 29.182 31.2602C31.3156 29.0412 34.3313 26.9928 38.1434 26.6799L38.3995 27.7112C37.141 28.2181 36.0668 29.0964 35.3199 30.2289C34.2032 31.8932 32.6883 34.4323 32.0411 35.5276ZM41.8987 41.2174C39.6395 41.2138 37.6659 39.6893 37.0917 37.5042C36.5175 35.3192 37.4866 33.0214 39.4521 31.9074L40.8746 37.5973C40.9919 38.0719 41.4169 38.4061 41.9059 38.4081C41.9932 38.4188 42.0816 38.4188 42.169 38.4081C42.4435 38.3392 42.6793 38.1642 42.8247 37.9214C42.9701 37.6787 43.0131 37.3881 42.9442 37.1136L41.5218 31.3456H41.9272C44.6768 31.3456 46.9058 33.5746 46.9058 36.3242C46.9058 39.0738 44.6768 41.3028 41.9272 41.3028L41.8987 41.2174Z" fill="black"/>
</svg>
