<svg width="29" height="18" viewBox="0 0 29 18" fill="none" xmlns="http://www.w3.org/2000/svg">
<path fill-rule="evenodd" clip-rule="evenodd" d="M10.3849 0.384766C10.1147 0.384766 9.86432 0.526534 9.72531 0.75823L8.79554 2.30784H8.46327V1.154C8.46327 0.729162 8.11888 0.384766 7.69404 0.384766H3.84789C3.42305 0.384766 3.07866 0.729162 3.07866 1.154V2.30784H1.53876C1.11393 2.30784 0.769531 2.65224 0.769531 3.07707V16.9232C0.769531 17.3481 1.11393 17.6925 1.53876 17.6925H28.0772C28.5021 17.6925 28.8465 17.3481 28.8465 16.9232V3.07707C28.8465 2.65224 28.5021 2.30784 28.0772 2.30784H20.8204L19.8907 0.75823C19.7517 0.526534 19.5013 0.384766 19.2311 0.384766H10.3849ZM4.61712 2.30784H6.92481V1.92323H4.61712V2.30784ZM3.84728 3.8463H2.30799V16.154H27.308V3.8463H20.3849C20.1147 3.8463 19.8643 3.70454 19.7253 3.47284L18.7955 1.92323H10.8204L9.89068 3.47284C9.75166 3.70454 9.50127 3.8463 9.23107 3.8463H7.69465L7.69404 3.8463H3.84789L3.84728 3.8463ZM14.6165 13.4619C16.7407 13.4619 18.4627 11.7399 18.4627 9.61571C18.4627 7.49153 16.7407 5.76955 14.6165 5.76955C12.4923 5.76955 10.7704 7.49153 10.7704 9.61571C10.7704 11.7399 12.4923 13.4619 14.6165 13.4619ZM14.6165 15.0003C17.5903 15.0003 20.0011 12.5895 20.0011 9.61571C20.0011 6.64186 17.5903 4.23109 14.6165 4.23109C11.6427 4.23109 9.23189 6.64186 9.23189 9.61571C9.23189 12.5895 11.6427 15.0003 14.6165 15.0003ZM25.3841 6.53859C25.3841 7.38826 24.6953 8.07706 23.8456 8.07706C22.996 8.07706 22.3072 7.38826 22.3072 6.53859C22.3072 5.68893 22.996 5.00013 23.8456 5.00013C24.6953 5.00013 25.3841 5.68893 25.3841 6.53859Z" fill="white"/>
</svg>
