<svg width="50" height="50" viewBox="0 0 50 50" fill="none" xmlns="http://www.w3.org/2000/svg">
<circle cx="25" cy="25" r="25" fill="#1A11A8"/>
<path fill-rule="evenodd" clip-rule="evenodd" d="M20.3849 15.3848C20.1147 15.3848 19.8643 15.5265 19.7253 15.7582L18.7955 17.3078H18.4633V16.154C18.4633 15.7292 18.1189 15.3848 17.694 15.3848H13.8479C13.4231 15.3848 13.0787 15.7292 13.0787 16.154V17.3078H11.5388C11.1139 17.3078 10.7695 17.6522 10.7695 18.0771V31.9232C10.7695 32.3481 11.1139 32.6925 11.5388 32.6925H38.0772C38.5021 32.6925 38.8465 32.3481 38.8465 31.9232V18.0771C38.8465 17.6522 38.5021 17.3078 38.0772 17.3078H30.8204L29.8907 15.7582C29.7517 15.5265 29.5013 15.3848 29.2311 15.3848H20.3849ZM14.6171 17.3078H16.9248V16.9232H14.6171V17.3078ZM13.8473 18.8463H12.308V31.154H37.308V18.8463H30.3849C30.1147 18.8463 29.8643 18.7045 29.7253 18.4728L28.7955 16.9232H20.8204L19.8907 18.4728C19.7517 18.7045 19.5013 18.8463 19.2311 18.8463H17.6947L17.694 18.8463H13.8479L13.8473 18.8463ZM24.6165 28.4619C26.7407 28.4619 28.4627 26.7399 28.4627 24.6157C28.4627 22.4915 26.7407 20.7696 24.6165 20.7696C22.4923 20.7696 20.7704 22.4915 20.7704 24.6157C20.7704 26.7399 22.4923 28.4619 24.6165 28.4619ZM24.6165 30.0003C27.5903 30.0003 30.0011 27.5895 30.0011 24.6157C30.0011 21.6419 27.5903 19.2311 24.6165 19.2311C21.6427 19.2311 19.2319 21.6419 19.2319 24.6157C19.2319 27.5895 21.6427 30.0003 24.6165 30.0003ZM35.3841 21.5386C35.3841 22.3883 34.6953 23.0771 33.8456 23.0771C32.996 23.0771 32.3072 22.3883 32.3072 21.5386C32.3072 20.6889 32.996 20.0001 33.8456 20.0001C34.6953 20.0001 35.3841 20.6889 35.3841 21.5386Z" fill="white"/>
</svg>
