<svg width="33" height="33" viewBox="0 0 33 33" fill="none" xmlns="http://www.w3.org/2000/svg">
<path d="M27.5313 5.469C24.5848 2.52261 20.6673 0.899902 16.5004 0.899902C12.3335 0.899902 8.416 2.52261 5.46948 5.469C2.5231 8.41551 0.900391 12.333 0.900391 16.4999C0.900391 20.6668 2.5231 24.5843 5.46948 27.5308C8.416 30.4772 12.3335 32.0999 16.5004 32.0999C20.6673 32.0999 24.5848 30.4772 27.5313 27.5308C30.4777 24.5843 32.1004 20.6668 32.1004 16.4999C32.1004 12.333 30.4777 8.41551 27.5313 5.469ZM27.9282 8.82226C29.0719 10.5189 29.847 12.4831 30.1405 14.5992L29.9649 14.7511L26.5212 12.7768L27.3468 8.89679L27.9282 8.82226ZM21.544 3.68444C23.5041 4.45847 25.245 5.67027 26.6468 7.1981C26.106 7.41107 25.6934 7.88328 25.5686 8.46938L24.7228 12.4445C24.7125 12.493 24.7044 12.5416 24.6983 12.5901L22.2518 13.6825L17.7294 10.3899C17.6288 10.3166 17.5232 10.2544 17.4145 10.2012V7.52149C17.4563 7.49608 17.4973 7.4689 17.5374 7.43971L20.8222 5.04664C21.2673 4.72233 21.5252 4.21515 21.544 3.68444ZM13.4463 20.8145L11.7105 15.4631C11.6757 15.3557 11.7136 15.2388 11.805 15.1724L16.3471 11.8678C16.4387 11.8011 16.5618 11.8012 16.6533 11.8679L21.1959 15.1751C21.2872 15.2415 21.3251 15.3584 21.2903 15.4658L19.5546 20.8145C19.5197 20.9221 19.4202 20.9945 19.307 20.9945H13.6939C13.5807 20.9945 13.4812 20.9221 13.4463 20.8145ZM13.4524 3.06861C14.4332 2.84606 15.4532 2.72803 16.5004 2.72803C17.5473 2.72803 18.5671 2.84606 19.5478 3.06842L19.707 3.59724L16.5008 5.9331L13.294 3.59364L13.4524 3.06861ZM11.4572 3.6842C11.477 4.2132 11.7342 4.71855 12.1778 5.04225L15.4632 7.43898C15.5034 7.46829 15.5445 7.49553 15.5864 7.52107V10.201C15.4777 10.2541 15.3721 10.3163 15.2716 10.3895L10.7467 13.6814L8.30259 12.59C8.29638 12.5415 8.28833 12.493 8.27803 12.4445L7.43222 8.46938C7.30748 7.88328 6.89487 7.41107 6.35405 7.1981C7.75586 5.67021 9.49697 4.45835 11.4572 3.6842ZM5.07254 8.82226L5.654 8.89679L6.47958 12.7768L3.03595 14.7511L2.86026 14.5992C3.15374 12.4831 3.92892 10.5189 5.07254 8.82226ZM4.82099 23.7891C3.50717 21.6916 2.74223 19.2171 2.72937 16.5677C2.82827 16.5847 2.92845 16.5936 3.02888 16.5936C3.3293 16.5936 3.63124 16.517 3.90363 16.3609L7.43167 14.3383C7.47482 14.3135 7.51644 14.2871 7.55678 14.2593L9.87234 15.2933C9.8621 15.5368 9.893 15.7849 9.97161 16.0273L11.7074 21.3787C11.7231 21.4272 11.741 21.4744 11.7599 21.5211L10.1265 23.6048C10.0778 23.5991 10.0286 23.5952 9.97892 23.5935L5.91475 23.4531C5.51366 23.4396 5.13153 23.5641 4.82099 23.7891ZM5.89983 25.2817L9.86655 25.4188L10.9058 29.0831C8.95718 28.2132 7.24618 26.9041 5.89983 25.2817ZM21.307 24.8725L20.198 28.7823C20.1047 29.1114 20.1125 29.4513 20.206 29.7648C19.0264 30.0948 17.7838 30.2718 16.5004 30.2718C15.1896 30.2718 13.9212 30.0876 12.7193 29.7439C12.8068 29.4363 12.812 29.1042 12.7207 28.7824L11.6118 24.8725C11.5983 24.8248 11.5827 24.7781 11.5656 24.7323L13.1251 22.7428C13.307 22.794 13.4976 22.8226 13.6939 22.8226H19.307C19.4791 22.8226 19.6472 22.8016 19.8087 22.7618L21.3532 24.7323C21.336 24.778 21.3205 24.8248 21.307 24.8725ZM22.0013 29.1241L23.0522 25.4187L27.0194 25.2817C27.028 25.3032 27.0379 25.3238 27.0479 25.3444C25.6881 26.9635 23.9633 28.2658 22.0013 29.1241ZM27.0041 23.453L22.9398 23.5934C22.8902 23.5951 22.841 23.5991 22.7923 23.6048L21.2115 21.5881C21.2418 21.5201 21.2701 21.4508 21.2935 21.3787L23.0292 16.03C23.1081 15.7867 23.1389 15.5376 23.1284 15.2932L25.4441 14.2592C25.4844 14.287 25.5261 14.3135 25.5692 14.3382L29.0973 16.3608C29.3697 16.517 29.6715 16.5936 29.972 16.5936C30.0724 16.5936 30.1726 16.5846 30.2715 16.5677C30.2584 19.2345 29.4836 21.7243 28.1538 23.8307C27.8338 23.5788 27.429 23.4385 27.0041 23.453Z" fill="white"/>
</svg>
