<svg width="100" height="100" viewBox="0 0 100 100" fill="none" xmlns="http://www.w3.org/2000/svg">
<circle cx="50" cy="50" r="50" fill="white"/>
<path fill-rule="evenodd" clip-rule="evenodd" d="M74.02 39.0622L64.247 29.2891C63.6366 28.678 62.8086 28.3343 61.9449 28.3335H38.0551C37.1914 28.3343 36.3634 28.678 35.753 29.2891L25.98 39.0622C24.7905 40.2255 24.6687 42.0982 25.6976 43.4057L47.4156 71.6391C48.0321 72.4425 48.9873 72.9135 50 72.9135C51.0127 72.9135 51.9679 72.4425 52.5844 71.6391L74.3024 43.4057C75.3313 42.0982 75.2095 40.2255 74.02 39.0622ZM35.4598 34.1865L38.8478 40.2784H29.368L35.4598 34.1865ZM55.7335 40.2784H44.2665L50 33.1114L55.7335 40.2784ZM56.6457 43.5361L50 65.1454L43.3543 43.5361H56.6457ZM39.9446 43.5361L46.6011 65.178L29.9109 43.5361H39.9446ZM60.0554 43.5361H70.0891L53.4423 65.178L60.0554 43.5361ZM61.1413 40.2784L64.5293 34.1865L70.6212 40.2784H61.1413ZM61.934 31.5912L62.1295 31.7866L58.4266 38.4432L52.9428 31.5803L61.934 31.5912ZM47.0355 31.5912L41.5517 38.4541L37.8488 31.7975L38.0443 31.602L47.0355 31.5912Z" fill="black"/>
</svg>
