<svg width="33" height="30" viewBox="0 0 33 30" fill="none" xmlns="http://www.w3.org/2000/svg">
<path fill-rule="evenodd" clip-rule="evenodd" d="M32.113 7.39026L25.7605 1.03776C25.3638 0.640537 24.8256 0.41712 24.2642 0.416626H8.73584C8.17443 0.41712 7.6362 0.640537 7.23947 1.03776L0.886975 7.39026C0.113796 8.14642 0.0346724 9.3637 0.703458 10.2136L14.8201 28.5652C15.2209 29.0875 15.8417 29.3936 16.5 29.3936C17.1583 29.3936 17.7791 29.0875 18.1799 28.5652L32.2965 10.2136C32.9653 9.3637 32.8862 8.14642 32.113 7.39026ZM7.0489 4.22107L9.2511 8.18079H3.08917L7.0489 4.22107ZM20.2268 8.18079H12.7732L16.5 3.52229L20.2268 8.18079ZM20.8197 10.2983L16.5 24.3444L12.1803 10.2983H20.8197ZM9.96399 10.2983L14.2907 24.3655L3.44209 10.2983H9.96399ZM23.036 10.2983H29.5579L18.7375 24.3655L23.036 10.2983ZM23.7418 8.18079L25.944 4.22107L29.9038 8.18079H23.7418ZM24.2571 2.53412L24.3842 2.66117L21.9773 6.98793L18.4128 2.52707L24.2571 2.53412ZM14.5731 2.53412L11.0086 6.99499L8.60173 2.66823L8.72878 2.54118L14.5731 2.53412Z" fill="white"/>
</svg>
