<svg width="100" height="100" viewBox="0 0 100 100" fill="none" xmlns="http://www.w3.org/2000/svg">
<circle cx="50" cy="50" r="50" fill="white"/>
<path fill-rule="evenodd" clip-rule="evenodd" d="M25.0508 42.2502C25.0508 38.3566 28.2072 35.2002 32.1007 35.2002H50.9006C54.7942 35.2002 57.9506 38.3566 57.9506 42.2502V51.6501H25.0508V42.2502ZM32.1007 39.9002C30.8029 39.9002 29.7508 40.9523 29.7508 42.2502V46.9501H53.2506V42.2502C53.2506 40.9523 52.1985 39.9002 50.9006 39.9002H32.1007Z" fill="black"/>
<path fill-rule="evenodd" clip-rule="evenodd" d="M18 56.3501C18 51.1587 22.2085 46.9502 27.3999 46.9502H55.5998C60.7912 46.9502 64.9997 51.1587 64.9997 56.3501C64.9997 61.5416 60.7912 65.7501 55.5998 65.7501H27.3999C22.2085 65.7501 18 61.5416 18 56.3501ZM27.3999 51.6502C24.8042 51.6502 22.7 53.7544 22.7 56.3501C22.7 58.9459 24.8042 61.0501 27.3999 61.0501H55.5998C58.1955 61.0501 60.2997 58.9459 60.2997 56.3501C60.2997 53.7544 58.1955 51.6502 55.5998 51.6502H27.3999Z" fill="black"/>
<path fill-rule="evenodd" clip-rule="evenodd" d="M28.2143 61C29.4372 61 30.4286 62.0745 30.4286 63.4V70.6C30.4286 71.9255 29.4372 73 28.2143 73C26.9914 73 26 71.9255 26 70.6V63.4C26 62.0745 26.9914 61 28.2143 61ZM54.7857 61C56.0086 61 57 62.0745 57 63.4V70.6C57 71.9255 56.0086 73 54.7857 73C53.5628 73 52.5714 71.9255 52.5714 70.6V63.4C52.5714 62.0745 53.5628 61 54.7857 61Z" fill="black"/>
<path d="M32.0984 56.35C32.0984 57.6478 31.0463 58.7 29.7484 58.7C28.4506 58.7 27.3984 57.6478 27.3984 56.35C27.3984 55.0521 28.4506 54 29.7484 54C31.0463 54 32.0984 55.0521 32.0984 56.35Z" fill="black"/>
<path d="M55.5945 56.35C55.5945 57.6478 54.5424 58.7 53.2445 58.7C51.9467 58.7 50.8945 57.6478 50.8945 56.35C50.8945 55.0521 51.9467 54 53.2445 54C54.5424 54 55.5945 55.0521 55.5945 56.35Z" fill="black"/>
<line x1="70" y1="71" x2="70" y2="34" stroke="black" stroke-width="4" stroke-linecap="round"/>
<circle cx="70" cy="25" r="10" fill="white" stroke="black" stroke-width="4"/>
<path d="M69 30.5V26.3913M69 26.3913V20C72 20 74 20.8913 74 23.1957C74 25.5 72 26.3913 69 26.3913Z" stroke="black" stroke-width="3" stroke-linecap="round" stroke-linejoin="round"/>
</svg>
