<svg width="100" height="100" viewBox="0 0 100 100" fill="none" xmlns="http://www.w3.org/2000/svg">
<circle cx="50" cy="50" r="50" fill="white"/>
<circle cx="50" cy="50" r="25" stroke="black" stroke-width="4"/>
<path d="M57.8699 43.1591C57.013 43.1591 56.3324 42.4919 55.9516 41.7244C55.616 41.0479 55.0956 40.4832 54.3902 40.0303C53.234 39.2879 51.8157 38.9167 50.1355 38.9167C48.907 38.9167 47.832 39.1111 46.9106 39.5C45.9982 39.8889 45.2846 40.4236 44.7696 41.1042C44.2638 41.7847 44.0108 42.5581 44.0108 43.4242C44.0108 44.149 44.187 44.7721 44.5393 45.2936C44.9006 45.8062 45.3613 46.2348 45.9214 46.5795C46.4815 46.9154 47.0687 47.1938 47.6829 47.4148C48.2972 47.6269 48.8618 47.7992 49.3767 47.9318L52.1951 48.6742C52.9178 48.8598 53.7218 49.1162 54.607 49.4432C55.5014 49.7702 56.355 50.2165 57.168 50.7822C57.9901 51.339 58.6676 52.0549 59.2005 52.9299C59.7335 53.8049 60 54.8788 60 56.1515C60 57.6187 59.607 58.9444 58.8211 60.1288C58.0443 61.3131 56.9061 62.2544 55.4065 62.9526C53.916 63.6509 52.1048 64 49.9729 64C47.9855 64 46.2647 63.6862 44.8103 63.0587C43.365 62.4312 42.2267 61.5562 41.3957 60.4337C40.9317 59.8002 40.5814 59.109 40.3448 58.3601C40.0399 57.3952 40.8617 56.5227 41.8737 56.5227C42.7764 56.5227 43.4831 57.2407 43.859 58.0614C44.0289 58.4323 44.2512 58.7679 44.5257 59.0682C45.1491 59.7311 45.935 60.226 46.8835 60.553C47.841 60.8712 48.8708 61.0303 49.9729 61.0303C51.2556 61.0303 52.4074 60.827 53.4282 60.4205C54.449 60.005 55.2575 59.4306 55.8537 58.697C56.4499 57.9545 56.748 57.0884 56.748 56.0985C56.748 55.197 56.4905 54.4634 55.9756 53.8977C55.4607 53.3321 54.7832 52.8725 53.9431 52.5189C53.103 52.1654 52.1951 51.8561 51.2195 51.5909L47.8049 50.6364C45.6369 50.0265 43.9205 49.1559 42.6558 48.0246C41.3911 46.8933 40.7588 45.4129 40.7588 43.5833C40.7588 42.0631 41.1789 40.7374 42.019 39.6061C42.8681 38.4659 44.0063 37.5821 45.4336 36.9545C46.8699 36.3182 48.4734 36 50.2439 36C52.0325 36 53.6224 36.3138 55.0136 36.9413C56.4047 37.56 57.5068 38.4085 58.3198 39.4867C58.7805 40.091 59.1192 40.7411 59.3359 41.437C59.6205 42.3511 58.8273 43.1591 57.8699 43.1591Z" fill="black" stroke="black"/>
<line x1="50" y1="34" x2="50" y2="66" stroke="black" stroke-width="4" stroke-linecap="round"/>
</svg>
