<svg width="5679" height="3857" viewBox="0 0 5679 3857" fill="none" xmlns="http://www.w3.org/2000/svg">
<path d="M999.183 0H1149.19V1626.07H999.183V1395.68C958.108 1477.84 898.282 1543.02 819.705 1591.24C742.913 1637.67 656.299 1660.89 559.864 1660.89C454.499 1660.89 360.741 1635.89 278.592 1585.88C196.443 1534.09 132.153 1459.08 85.7207 1360.86C41.0745 1260.85 18.7514 1142.98 18.7514 1007.25C18.7514 869.736 41.0745 751.866 85.7207 653.641C132.153 553.63 196.443 478.622 278.592 428.617C360.741 376.826 454.499 350.93 559.864 350.93C658.085 350.93 744.699 374.147 819.705 420.581C896.496 467.014 956.322 531.307 999.183 613.458V0ZM586.651 1521.59C720.59 1521.59 825.062 1475.16 900.068 1382.29C976.859 1287.64 1015.26 1161.73 1015.26 1004.57C1015.26 847.412 977.752 722.398 902.747 629.531C827.741 536.664 722.376 490.231 586.651 490.231C452.713 490.231 350.026 535.771 278.592 626.853C207.158 717.934 171.441 844.733 171.441 1007.25C171.441 1167.98 207.158 1293.89 278.592 1384.97C350.026 1476.05 452.713 1521.59 586.651 1521.59Z" fill="black"/>
<path d="M1947.22 1660.89C1840.07 1660.89 1742.74 1636.78 1655.23 1588.56C1567.72 1538.56 1497.18 1464.44 1443.61 1366.22C1391.82 1266.21 1365.92 1145.66 1365.92 1004.57C1365.92 863.485 1391.82 743.829 1443.61 645.605C1495.4 547.38 1565.05 473.265 1652.55 423.259C1741.84 373.254 1840.07 348.251 1947.22 348.251C2054.37 348.251 2151.7 373.254 2239.2 423.259C2326.71 473.265 2396.36 548.273 2448.15 648.283C2499.94 746.508 2525.83 866.164 2525.83 1007.25C2525.83 1148.34 2499.94 1267.99 2448.15 1366.22C2396.36 1464.44 2326.71 1538.56 2239.2 1588.56C2151.7 1636.78 2054.37 1660.89 1947.22 1660.89ZM1947.22 1521.59C2082.94 1521.59 2188.31 1474.26 2263.31 1379.61C2338.32 1283.17 2375.82 1159.05 2375.82 1007.25C2375.82 855.448 2338.32 731.328 2263.31 634.889C2188.31 538.45 2082.94 490.231 1947.22 490.231C1811.49 490.231 1706.13 538.45 1631.12 634.889C1556.12 729.542 1518.61 852.77 1518.61 1004.57C1518.61 1158.16 1555.22 1283.17 1628.44 1379.61C1703.45 1474.26 1809.71 1521.59 1947.22 1521.59Z" fill="black"/>
<path d="M3222.75 1660.89C3063.81 1660.89 2935.23 1626.96 2837.01 1559.09C2740.57 1491.23 2692.36 1393.01 2692.36 1264.42H2845.05C2845.05 1351.93 2878.08 1418.01 2944.16 1462.66C3012.02 1505.52 3108.46 1526.95 3233.47 1526.95C3342.4 1526.95 3427.23 1509.09 3487.95 1473.37C3550.46 1437.65 3581.71 1380.5 3581.71 1301.92C3581.71 1246.56 3560.28 1201.91 3517.42 1167.98C3476.34 1134.05 3405.8 1108.15 3305.79 1090.29L3110.24 1052.79C2970.95 1026 2873.62 984.926 2818.26 929.563C2764.68 874.2 2737.89 802.764 2737.89 715.255C2737.89 599.171 2778.97 509.876 2861.12 447.369C2943.27 383.077 3054.88 350.93 3195.97 350.93C3349.55 350.93 3469.2 385.755 3554.92 455.406C3640.64 525.056 3683.5 615.244 3683.5 725.97H3544.21C3544.21 658.106 3514.74 600.957 3455.81 554.523C3398.66 506.304 3312.05 482.194 3195.97 482.194C3090.6 482.194 3010.24 501.839 2954.88 541.129C2901.3 578.633 2874.51 633.103 2874.51 704.539C2874.51 808.122 2973.63 879.558 3171.86 918.848L3311.15 945.637C3462.95 974.211 3570.99 1013.5 3635.28 1063.51C3699.57 1111.73 3731.72 1184.95 3731.72 1283.17C3731.72 1415.33 3685.29 1511.77 3592.42 1572.49C3501.34 1631.42 3378.12 1660.89 3222.75 1660.89Z" fill="black"/>
<path d="M4444.23 353.609C4603.17 353.609 4726.4 392.899 4813.9 471.479C4903.19 548.273 4947.84 667.928 4947.84 830.446V1626.07H4797.83V1433.19C4669.25 1584.99 4512.09 1660.89 4326.37 1660.89C4203.14 1660.89 4102.24 1629.64 4023.66 1567.13C3945.09 1504.62 3905.8 1410.86 3905.8 1285.85C3905.8 1166.2 3953.12 1073.33 4047.77 1007.25C4142.42 941.172 4298.69 908.133 4516.56 908.133C4600.49 908.133 4694.25 913.49 4797.83 924.206V830.446C4797.83 716.148 4770.15 630.424 4714.79 573.275C4661.21 514.341 4571.03 484.873 4444.23 484.873C4337.08 484.873 4254.04 506.304 4195.11 549.166C4137.96 592.027 4104.92 652.748 4095.99 731.328H3954.02C3968.3 609.886 4018.31 517.019 4104.03 452.727C4189.75 386.648 4303.15 353.609 4444.23 353.609ZM4353.15 1534.98C4535.31 1534.98 4683.54 1458.19 4797.83 1304.6V1031.36C4710.32 1022.43 4616.57 1017.97 4516.56 1017.97C4357.62 1017.97 4241.54 1038.5 4168.32 1079.58C4095.1 1118.87 4058.49 1185.84 4058.49 1280.49C4058.49 1366.22 4085.28 1430.51 4138.85 1473.37C4194.21 1514.45 4265.65 1534.98 4353.15 1534.98Z" fill="black"/>
<path d="M953.643 2188.07H1197.41V3814.14H953.643V3672.16C908.997 3727.52 852.743 3771.28 784.881 3803.42C717.018 3833.78 642.906 3848.96 562.542 3848.96C455.391 3848.96 358.956 3823.96 273.235 3773.96C189.3 3722.16 122.331 3647.16 72.3269 3548.93C24.109 3450.71 0 3332.84 0 3195.32C0 3056.02 24.109 2937.26 72.3269 2839.03C122.331 2739.02 189.3 2664.02 273.235 2614.01C358.956 2564 455.391 2539 562.542 2539C644.691 2539 718.804 2555.08 784.881 2587.22C850.957 2619.37 907.211 2663.12 953.643 2718.49V2188.07ZM613.439 3623.94C734.877 3623.94 826.848 3584.65 889.353 3506.07C951.857 3425.7 983.11 3322.12 983.11 3195.32C983.11 3066.74 951.857 2963.15 889.353 2884.57C828.634 2805.99 736.663 2766.71 613.439 2766.71C490.216 2766.71 398.244 2804.21 337.525 2879.22C276.807 2954.23 246.447 3059.59 246.447 3195.32C246.447 3329.27 276.807 3434.63 337.525 3511.43C398.244 3586.44 490.216 3623.94 613.439 3623.94Z" fill="black"/>
<path d="M1986.77 3848.96C1877.83 3848.96 1776.93 3825.75 1684.07 3779.31C1592.99 3732.88 1518.88 3660.55 1461.73 3562.33C1404.58 3464.1 1376.01 3341.77 1376.01 3195.32C1376.01 3048.88 1404.58 2926.54 1461.73 2828.32C1518.88 2728.31 1593.88 2655.09 1686.75 2608.65C1779.61 2560.43 1879.62 2536.32 1986.77 2536.32C2095.71 2536.32 2196.61 2560.43 2289.47 2608.65C2382.34 2655.09 2457.34 2728.31 2514.49 2828.32C2571.64 2926.54 2600.21 3048.88 2600.21 3195.32C2600.21 3341.77 2571.64 3464.1 2514.49 3562.33C2457.34 3660.55 2382.34 3732.88 2289.47 3779.31C2196.61 3825.75 2095.71 3848.96 1986.77 3848.96ZM1986.77 3623.94C2111.78 3623.94 2203.75 3581.97 2262.68 3498.03C2323.4 3414.1 2353.76 3313.19 2353.76 3195.32C2353.76 3075.67 2323.4 2973.87 2262.68 2889.93C2203.75 2806 2111.78 2764.03 1986.77 2764.03C1861.76 2764.03 1769.79 2806 1710.86 2889.93C1651.92 2972.08 1622.46 3073.88 1622.46 3195.32C1622.46 3314.98 1651.92 3416.77 1710.86 3500.71C1769.79 3582.86 1861.76 3623.94 1986.77 3623.94Z" fill="black"/>
<path d="M3298.99 3848.96C3131.12 3848.96 2994.51 3814.14 2889.14 3744.49C2785.56 3674.84 2733.77 3572.15 2733.77 3436.42H2985.58C2985.58 3504.28 3013.26 3554.29 3068.62 3586.44C3123.98 3616.8 3207.02 3631.98 3317.74 3631.98C3512.4 3631.98 3609.73 3580.18 3609.73 3476.6C3609.73 3431.95 3590.98 3398.92 3553.48 3377.48C3517.76 3354.27 3460.61 3335.52 3382.04 3321.23L3165.05 3278.37C3023.97 3249.79 2923.07 3210.5 2862.35 3160.5C2803.42 3108.71 2773.95 3029.23 2773.95 2922.08C2773.95 2800.64 2818.6 2706.88 2907.89 2640.8C2998.97 2572.93 3123.09 2539 3280.24 2539C3444.54 2539 3572.23 2574.72 3663.31 2646.16C3754.38 2715.81 3799.92 2809.57 3799.92 2927.44H3572.23C3572.23 2881 3548.12 2839.93 3499.9 2804.21C3453.47 2768.49 3379.36 2750.63 3277.56 2750.63C3177.56 2750.63 3105.23 2764.92 3060.58 2793.49C3015.94 2820.28 2993.61 2856.89 2993.61 2903.33C2993.61 2953.33 3015.94 2989.05 3060.58 3010.48C3105.23 3030.13 3173.98 3048.88 3266.85 3066.74L3387.39 3088.17C3499.9 3107.81 3588.3 3129.24 3652.59 3152.46C3716.88 3175.68 3765.99 3209.61 3799.92 3254.26C3835.64 3298.9 3853.5 3360.52 3853.5 3439.1C3853.5 3712.34 3668.66 3848.96 3298.99 3848.96Z" fill="black"/>
<path d="M4859.29 2163.96C5009.31 2163.96 5146.82 2201.47 5271.83 2276.47C5398.62 2349.7 5497.74 2451.49 5569.17 2581.86C5642.39 2710.45 5679 2853.32 5679 3010.48C5679 3169.43 5642.39 3313.19 5569.17 3441.78C5497.74 3570.36 5399.51 3672.16 5274.5 3747.17C5149.5 3820.39 5011.09 3857 4859.29 3857C4707.5 3857 4568.2 3820.39 4441.41 3747.17C4316.4 3672.16 4217.28 3570.36 4144.06 3441.78C4072.63 3313.19 4036.91 3169.43 4036.91 3010.48C4036.91 2853.32 4072.63 2710.45 4144.06 2581.86C4217.28 2451.49 4316.4 2349.7 4441.41 2276.47C4568.2 2201.47 4707.5 2163.96 4859.29 2163.96ZM4859.29 3747.17C4984.3 3747.17 5102.17 3715.91 5212.89 3653.41C5323.62 3589.11 5412.02 3500.71 5478.09 3388.2C5544.17 3275.69 5577.21 3149.78 5577.21 3010.48C5577.21 2871.18 5544.17 2745.27 5478.09 2632.76C5412.02 2520.25 5323.62 2432.74 5212.89 2370.23C5102.17 2305.94 4984.3 2273.8 4859.29 2273.8C4732.5 2273.8 4613.74 2305.94 4503.02 2370.23C4392.3 2432.74 4303.9 2520.25 4237.82 2632.76C4171.74 2745.27 4138.71 2871.18 4138.71 3010.48C4138.71 3149.78 4171.74 3275.69 4237.82 3388.2C4303.9 3500.71 4392.3 3589.11 4503.02 3653.41C4613.74 3715.91 4732.5 3747.17 4859.29 3747.17ZM5212.89 2857.79C5212.89 2989.94 5151.28 3073.88 5028.06 3109.6L5226.29 3425.7H5081.63L4907.51 3125.67H4886.08H4677.14V3425.7H4553.92V2587.22H4953.05C5038.77 2587.22 5103.06 2611.33 5145.92 2659.55C5190.57 2707.77 5212.89 2773.85 5212.89 2857.79ZM4677.14 2702.41V3010.48H4936.98C4986.98 3010.48 5025.38 2997.98 5052.17 2972.98C5078.95 2946.19 5092.35 2907.79 5092.35 2857.79C5092.35 2754.2 5040.56 2702.41 4936.98 2702.41H4677.14Z" fill="black"/>
</svg>
