<svg width="65" height="65" viewBox="0 0 65 65" fill="none" xmlns="http://www.w3.org/2000/svg">
<path d="M28.0338 36.926C27.4629 36.0901 27.6777 34.9495 28.5137 34.3785L36.3392 29.0337C37.1752 28.4627 38.3157 28.6776 38.8867 29.5135V29.5135C39.4577 30.3495 39.2429 31.4901 38.4069 32.0611L30.5814 37.4059C29.7454 37.9769 28.6048 37.762 28.0338 36.926V36.926Z" fill="black"/>
<path d="M19.5077 34.6833C18.9415 33.8542 19.1545 32.7231 19.9836 32.1568V32.1568C20.8127 31.5906 21.9438 31.8036 22.5101 32.6327L29.7567 43.2427C30.323 44.0718 30.1099 45.2029 29.2808 45.7692V45.7692C28.4517 46.3354 27.3206 46.1224 26.7543 45.2933L19.5077 34.6833Z" fill="black"/>
<path d="M16.5816 39.8984C16.0452 39.113 16.247 38.0415 17.0324 37.505V37.505C17.8178 36.9686 18.8894 37.1704 19.4258 37.9558L23.676 44.1787C24.2124 44.9641 24.0106 46.0356 23.2252 46.572V46.572C22.4398 47.1085 21.3682 46.9066 20.8318 46.1212L16.5816 39.8984Z" fill="black"/>
<path d="M36.5253 23.0632C35.959 22.2341 36.1721 21.103 37.0012 20.5367V20.5367C37.8303 19.9704 38.9614 20.1835 39.5277 21.0126L46.7743 31.6226C47.3405 32.4516 47.1275 33.5828 46.2984 34.149V34.149C45.4693 34.7153 44.3382 34.5023 43.7719 33.6732L36.5253 23.0632Z" fill="black"/>
<path d="M42.6128 22.1361C42.0732 21.346 42.2762 20.2681 43.0662 19.7285V19.7285C43.8563 19.1889 44.9342 19.392 45.4738 20.182L49.7125 26.388C50.2521 27.178 50.049 28.2559 49.259 28.7955V28.7955C48.469 29.3351 47.3911 29.1321 46.8515 28.3421L42.6128 22.1361Z" fill="black"/>
</svg>
