<svg width="65" height="65" viewBox="0 0 65 65" fill="none" xmlns="http://www.w3.org/2000/svg">
<path d="M43.5313 21.469C40.5848 18.5226 36.6673 16.8999 32.5004 16.8999C28.3335 16.8999 24.416 18.5226 21.4695 21.469C18.5231 24.4155 16.9004 28.333 16.9004 32.4999C16.9004 36.6668 18.5231 40.5843 21.4695 43.5308C24.416 46.4772 28.3335 48.0999 32.5004 48.0999C36.6673 48.0999 40.5848 46.4772 43.5313 43.5308C46.4777 40.5843 48.1004 36.6668 48.1004 32.4999C48.1004 28.333 46.4777 24.4155 43.5313 21.469ZM43.9282 24.8223C45.0719 26.5189 45.847 28.4831 46.1405 30.5992L45.9649 30.7511L42.5212 28.7768L43.3468 24.8968L43.9282 24.8223ZM37.544 19.6844C39.5041 20.4585 41.245 21.6703 42.6468 23.1981C42.106 23.4111 41.6934 23.8833 41.5686 24.4694L40.7228 28.4445C40.7125 28.493 40.7044 28.5416 40.6983 28.5901L38.2518 29.6825L33.7294 26.3899C33.6288 26.3166 33.5232 26.2544 33.4145 26.2012V23.5215C33.4563 23.4961 33.4973 23.4689 33.5374 23.4397L36.8222 21.0466C37.2673 20.7223 37.5252 20.2151 37.544 19.6844ZM29.4463 36.8145L27.7105 31.4631C27.6757 31.3557 27.7136 31.2388 27.805 31.1724L32.3471 27.8678C32.4387 27.8011 32.5618 27.8012 32.6533 27.8679L37.1959 31.1751C37.2872 31.2415 37.3251 31.3584 37.2903 31.4658L35.5546 36.8145C35.5197 36.9221 35.4202 36.9945 35.307 36.9945H29.6939C29.5807 36.9945 29.4812 36.9221 29.4463 36.8145ZM29.4524 19.0686C30.4332 18.8461 31.4532 18.728 32.5004 18.728C33.5473 18.728 34.5671 18.8461 35.5478 19.0684L35.707 19.5972L32.5008 21.9331L29.294 19.5936L29.4524 19.0686ZM27.4572 19.6842C27.477 20.2132 27.7342 20.7186 28.1778 21.0423L31.4632 23.439C31.5034 23.4683 31.5445 23.4955 31.5864 23.5211V26.201C31.4777 26.2541 31.3721 26.3163 31.2716 26.3895L26.7467 29.6814L24.3026 28.59C24.2964 28.5415 24.2883 28.493 24.278 28.4445L23.4322 24.4694C23.3075 23.8833 22.8949 23.4111 22.3541 23.1981C23.7559 21.6702 25.497 20.4583 27.4572 19.6842ZM21.0725 24.8223L21.654 24.8968L22.4796 28.7768L19.0359 30.7511L18.8603 30.5992C19.1537 28.4831 19.9289 26.5189 21.0725 24.8223ZM20.821 39.7891C19.5072 37.6916 18.7422 35.2171 18.7294 32.5677C18.8283 32.5847 18.9285 32.5936 19.0289 32.5936C19.3293 32.5936 19.6312 32.517 19.9036 32.3609L23.4317 30.3383C23.4748 30.3135 23.5164 30.2871 23.5568 30.2593L25.8723 31.2933C25.8621 31.5368 25.893 31.7849 25.9716 32.0273L27.7074 37.3787C27.7231 37.4272 27.741 37.4744 27.7599 37.5211L26.1265 39.6048C26.0778 39.5991 26.0286 39.5952 25.9789 39.5935L21.9148 39.4531C21.5137 39.4396 21.1315 39.5641 20.821 39.7891ZM21.8998 41.2817L25.8666 41.4188L26.9058 45.0831C24.9572 44.2132 23.2462 42.9041 21.8998 41.2817ZM37.307 40.8725L36.198 44.7823C36.1047 45.1114 36.1125 45.4513 36.206 45.7648C35.0264 46.0948 33.7838 46.2718 32.5004 46.2718C31.1896 46.2718 29.9212 46.0876 28.7193 45.7439C28.8068 45.4363 28.812 45.1042 28.7207 44.7824L27.6118 40.8725C27.5983 40.8248 27.5827 40.7781 27.5656 40.7323L29.1251 38.7428C29.307 38.794 29.4976 38.8226 29.6939 38.8226H35.307C35.4791 38.8226 35.6472 38.8016 35.8087 38.7618L37.3532 40.7323C37.336 40.778 37.3205 40.8248 37.307 40.8725ZM38.0013 45.1241L39.0522 41.4187L43.0194 41.2817C43.028 41.3032 43.0379 41.3238 43.0479 41.3444C41.6881 42.9635 39.9633 44.2658 38.0013 45.1241ZM43.0041 39.453L38.9398 39.5934C38.8902 39.5951 38.841 39.5991 38.7923 39.6048L37.2115 37.5881C37.2418 37.5201 37.2701 37.4508 37.2935 37.3787L39.0292 32.03C39.1081 31.7867 39.1389 31.5376 39.1284 31.2932L41.4441 30.2592C41.4844 30.287 41.5261 30.3135 41.5692 30.3382L45.0973 32.3608C45.3697 32.517 45.6715 32.5936 45.972 32.5936C46.0724 32.5936 46.1726 32.5846 46.2715 32.5677C46.2584 35.2345 45.4836 37.7243 44.1538 39.8307C43.8338 39.5788 43.429 39.4385 43.0041 39.453Z" fill="black"/>
</svg>
