<svg width="39" height="39" viewBox="0 0 39 39" fill="none" xmlns="http://www.w3.org/2000/svg">
<path d="M14.0338 22.926C13.4629 22.0901 13.6777 20.9495 14.5137 20.3785L22.3392 15.0337C23.1752 14.4627 24.3157 14.6776 24.8867 15.5135C25.4577 16.3495 25.2429 17.4901 24.4069 18.0611L16.5814 23.4059C15.7454 23.9769 14.6048 23.762 14.0338 22.926Z" fill="white"/>
<path d="M5.50773 20.6833C4.94147 19.8542 5.15453 18.7231 5.98361 18.1568C6.81269 17.5906 7.94384 17.8036 8.5101 18.6327L15.7567 29.2427C16.323 30.0718 16.1099 31.2029 15.2808 31.7692C14.4517 32.3354 13.3206 32.1224 12.7543 31.2933L5.50773 20.6833Z" fill="white"/>
<path d="M2.58163 25.8984C2.04521 25.113 2.24704 24.0415 3.03243 23.505C3.81782 22.9686 4.88937 23.1704 5.42579 23.9558L9.67598 30.1787C10.2124 30.9641 10.0106 32.0356 9.22518 32.572C8.43979 33.1085 7.36824 32.9066 6.83182 32.1212L2.58163 25.8984Z" fill="white"/>
<path d="M22.5253 9.0632C21.959 8.23411 22.1721 7.10297 23.0012 6.5367C23.8303 5.97044 24.9614 6.1835 25.5277 7.01258L32.7743 17.6226C33.3405 18.4516 33.1275 19.5828 32.2984 20.149C31.4693 20.7153 30.3382 20.5023 29.7719 19.6732L22.5253 9.0632Z" fill="white"/>
<path d="M28.6128 8.13607C28.0732 7.34603 28.2762 6.26813 29.0662 5.72853C29.8563 5.18893 30.9342 5.39196 31.4738 6.182L35.7125 12.388C36.2521 13.178 36.049 14.2559 35.259 14.7955C34.469 15.3351 33.3911 15.1321 32.8515 14.3421L28.6128 8.13607Z" fill="white"/>
</svg>
