<svg width="65" height="65" viewBox="0 0 65 65" fill="none" xmlns="http://www.w3.org/2000/svg">
<path fill-rule="evenodd" clip-rule="evenodd" d="M32.3591 30.9485C34.8551 30.9485 36.8784 28.9251 36.8784 26.4292C36.8784 23.9333 34.8551 21.9099 32.3591 21.9099C29.8632 21.9099 27.8398 23.9333 27.8398 26.4292C27.8437 28.9235 29.8648 30.9447 32.3591 30.9485ZM32.3591 23.9957C33.7031 23.9957 34.7926 25.0852 34.7926 26.4292C34.7926 27.7732 33.7031 28.8627 32.3591 28.8627C31.0152 28.8627 29.9257 27.7732 29.9257 26.4292C29.9257 25.0852 31.0152 23.9957 32.3591 23.9957Z" fill="black"/>
<path fill-rule="evenodd" clip-rule="evenodd" d="M30.9688 33.0341V35.8152C30.9688 36.3912 31.4357 36.8581 32.0117 36.8581C32.5876 36.8581 33.0546 36.3912 33.0546 35.8152V33.0341C33.0546 32.4581 32.5876 31.9912 32.0117 31.9912C31.4357 31.9912 30.9688 32.4581 30.9688 33.0341Z" fill="black"/>
<path fill-rule="evenodd" clip-rule="evenodd" d="M32.0117 20.8669C32.5876 20.8669 33.0546 20.4 33.0546 19.824V17.0429C33.0546 16.4669 32.5876 16 32.0117 16C31.4357 16 30.9688 16.4669 30.9688 17.0429V19.824C30.9688 20.4 31.4357 20.8669 32.0117 20.8669Z" fill="black"/>
<path fill-rule="evenodd" clip-rule="evenodd" d="M22.6249 27.4721H25.406C25.982 27.4721 26.449 27.0051 26.449 26.4291C26.449 25.8532 25.982 25.3862 25.406 25.3862H22.6249C22.049 25.3862 21.582 25.8532 21.582 26.4291C21.582 27.0051 22.049 27.4721 22.6249 27.4721Z" fill="black"/>
<path fill-rule="evenodd" clip-rule="evenodd" d="M37.5742 26.4291C37.5742 27.0051 38.0411 27.4721 38.6171 27.4721H41.3982C41.9742 27.4721 42.4411 27.0051 42.4411 26.4291C42.4411 25.8532 41.9742 25.3862 41.3982 25.3862H38.6171C38.0411 25.3862 37.5742 25.8532 37.5742 26.4291Z" fill="black"/>
<path fill-rule="evenodd" clip-rule="evenodd" d="M26.6023 22.4938C27.0132 22.8767 27.6536 22.8654 28.0508 22.4682C28.4479 22.0711 28.4592 21.4307 28.0763 21.0198L26.1087 19.0522C25.8487 18.7732 25.4571 18.6583 25.0876 18.7527C24.7181 18.847 24.4296 19.1356 24.3352 19.5051C24.2408 19.8746 24.3557 20.2662 24.6347 20.5262L26.6023 22.4938Z" fill="black"/>
<path fill-rule="evenodd" clip-rule="evenodd" d="M35.9466 30.3643C35.5399 30.7715 35.5399 31.4311 35.9466 31.8383L37.9142 33.8059C38.3252 34.1888 38.9655 34.1775 39.3627 33.7804C39.7598 33.3832 39.7711 32.7429 39.3882 32.332L37.4206 30.3643C37.0134 29.9577 36.3538 29.9577 35.9466 30.3643Z" fill="black"/>
<path fill-rule="evenodd" clip-rule="evenodd" d="M36.6836 22.7999C36.9601 22.7997 37.2252 22.6896 37.4206 22.494L39.3882 20.5264C39.7711 20.1154 39.7598 19.4751 39.3627 19.0779C38.9655 18.6808 38.3252 18.6695 37.9143 19.0524L35.9466 21.02C35.6488 21.3183 35.5597 21.7665 35.721 22.156C35.8822 22.5454 36.2621 22.7995 36.6836 22.7999Z" fill="black"/>
<path fill-rule="evenodd" clip-rule="evenodd" d="M26.6023 30.3644L24.6347 32.332C24.3557 32.592 24.2408 32.9836 24.3352 33.3531C24.4296 33.7226 24.7181 34.0111 25.0876 34.1055C25.4571 34.1999 25.8487 34.085 26.1087 33.806L28.0763 31.8384C28.4592 31.4274 28.4479 30.7871 28.0508 30.3899C27.6536 29.9928 27.0132 29.9815 26.6023 30.3644Z" fill="black"/>
<path fill-rule="evenodd" clip-rule="evenodd" d="M19.1491 38.6659C19.6775 38.6659 19.8792 38.9023 20.4076 39.8479C20.936 40.7934 21.6799 42.1423 23.5502 42.1423C25.4205 42.1423 26.1923 40.7517 26.6998 39.8479C27.2074 38.944 27.3951 38.6659 27.9583 38.6659C28.5214 38.6659 28.6883 38.9023 29.2167 39.8479C29.7451 40.7934 30.4891 42.1423 32.3593 42.1423C34.2296 42.1423 35.0014 40.7517 35.502 39.8479C36.0026 38.944 36.1973 38.6659 36.7604 38.6659C37.3236 38.6659 37.4905 38.9023 38.0189 39.8479C38.5473 40.7934 39.2912 42.1423 41.1685 42.1423C43.0457 42.1423 43.8105 40.7517 44.3111 39.8479C44.8117 38.944 45.0064 38.6659 45.5696 38.6659C46.1455 38.6659 46.6125 38.199 46.6125 37.623C46.6125 37.047 46.1455 36.5801 45.5696 36.5801C43.741 36.5801 42.9831 37.9706 42.4895 38.8397C41.9959 39.7088 41.7942 40.0565 41.1685 40.0565C40.5427 40.0565 40.3481 39.7436 39.8475 38.8397C39.3469 37.9359 38.596 36.5801 36.7674 36.5801C34.9388 36.5801 34.181 37.9706 33.6873 38.8397C33.1937 39.7088 32.992 40.0565 32.3663 40.0565C31.7406 40.0565 31.5459 39.7436 31.0453 38.8397C30.5447 37.9359 29.7938 36.5801 27.9652 36.5801C26.1366 36.5801 25.3788 37.9706 24.8851 38.8397C24.3915 39.7088 24.1899 40.0565 23.5641 40.0565C22.9384 40.0565 22.7437 39.7436 22.2431 38.8397C21.7425 37.9359 20.9916 36.5801 19.163 36.5801C18.587 36.5801 18.1201 37.047 18.1201 37.623C18.1201 38.199 18.587 38.6659 19.163 38.6659H19.1491Z" fill="black"/>
<path fill-rule="evenodd" clip-rule="evenodd" d="M45.5696 42.8376C43.741 42.8376 42.9831 44.2282 42.4895 45.0973C41.9959 45.9664 41.7942 46.314 41.1685 46.314C40.5427 46.314 40.3481 46.0011 39.8475 45.0973C39.3469 44.1934 38.596 42.8376 36.7674 42.8376C34.9388 42.8376 34.181 44.2282 33.6873 45.0973C33.1937 45.9664 32.992 46.314 32.3663 46.314C31.7406 46.314 31.5459 46.0011 31.0453 45.0973C30.5447 44.1934 29.7938 42.8376 27.9652 42.8376C26.1366 42.8376 25.3788 44.2282 24.8851 45.0973C24.3915 45.9664 24.1899 46.314 23.5641 46.314C22.9384 46.314 22.7437 46.0011 22.2431 45.0973C21.7425 44.1934 20.9916 42.8376 19.163 42.8376C18.587 42.8376 18.1201 43.3046 18.1201 43.8806C18.1201 44.4565 18.587 44.9235 19.163 44.9235C19.6914 44.9235 19.8931 45.1599 20.4215 46.1054C20.9499 47.051 21.6938 48.3998 23.5641 48.3998C25.4344 48.3998 26.2062 47.0093 26.7137 46.1054C27.2213 45.2016 27.409 44.9235 27.9722 44.9235C28.5353 44.9235 28.7022 45.1599 29.2306 46.1054C29.759 47.051 30.503 48.3998 32.3733 48.3998C34.2435 48.3998 35.0153 47.0093 35.5159 46.1054C36.0165 45.2016 36.2112 44.9235 36.7743 44.9235C37.3375 44.9235 37.5044 45.1599 38.0328 46.1054C38.5612 47.051 39.3051 48.3998 41.1824 48.3998C43.0596 48.3998 43.8244 47.0093 44.325 46.1054C44.8256 45.2016 45.0203 44.9235 45.5835 44.9235C46.1595 44.9235 46.6264 44.4565 46.6264 43.8806C46.6264 43.3046 46.1595 42.8376 45.5835 42.8376H45.5696Z" fill="black"/>
</svg>
