<svg width="41" height="41" viewBox="0 0 41 41" fill="none" xmlns="http://www.w3.org/2000/svg">
<rect x="0.5" y="0.690918" width="40" height="40" rx="20" fill="black" fill-opacity="0.1"/>
<path d="M12.7402 17.9195H16.1025V28.8356H12.7402V17.9195ZM14.4213 12.5215C15.502 12.5215 16.3426 13.3612 16.3426 14.4408C16.3426 15.5204 15.502 16.3601 14.4213 16.3601C13.3406 16.3601 12.5 15.5204 12.5 14.4408C12.5 13.3612 13.3406 12.5215 14.4213 12.5215Z" fill="black" fill-opacity="0.3"/>
<path d="M18.2642 17.9194H21.5064V19.3589C21.9867 18.5192 23.0674 17.5596 24.7486 17.5596C28.2309 17.5596 28.8314 19.8388 28.8314 22.7177V28.7155H25.4691V23.4375C25.4691 22.1179 25.4691 20.5585 23.6678 20.5585C21.8666 20.5585 21.6264 21.878 21.6264 23.3175V28.7155H18.2642V17.9194Z" fill="black" fill-opacity="0.3"/>
</svg>
