<svg width="255" height="40" viewBox="0 0 255 40" fill="none" xmlns="http://www.w3.org/2000/svg">
<path d="M23.107 0.56962H26.6425V38.9873H23.107V33.5443C22.1389 35.4852 20.7289 37.0253 18.877 38.1646C17.0672 39.2616 15.0258 39.8101 12.753 39.8101C10.2698 39.8101 8.06008 39.2194 6.12398 38.038C4.18787 36.8143 2.67266 35.0422 1.57834 32.7215C0.526115 30.3587 0 27.5738 0 24.3671C0 21.1181 0.526115 18.3333 1.57834 16.0127C2.67266 13.6498 4.18787 11.8776 6.12398 10.6962C8.06008 9.47258 10.2698 8.86076 12.753 8.86076C15.0679 8.86076 17.1093 9.40929 18.877 10.5063C20.6868 11.6034 22.0968 13.1224 23.107 15.0633V0.56962ZM13.3844 36.519C16.541 36.519 19.0033 35.4219 20.771 33.2279C22.5808 30.9916 23.4858 28.0169 23.4858 24.3038C23.4858 20.5907 22.6019 17.6371 20.8341 15.443C19.0664 13.2489 16.5831 12.1519 13.3844 12.1519C10.2277 12.1519 7.80754 13.2278 6.12398 15.3797C4.44041 17.5316 3.59862 20.5274 3.59862 24.3671C3.59862 28.1646 4.44041 31.1392 6.12398 33.2911C7.80754 35.443 10.2277 36.519 13.3844 36.519Z" fill="black"/>
<path d="M45.4504 39.8101C42.925 39.8101 40.6312 39.2405 38.5688 38.1013C36.5064 36.9198 34.8439 35.1688 33.5812 32.8481C32.3607 30.4852 31.7504 27.6371 31.7504 24.3038C31.7504 20.9705 32.3607 18.1435 33.5812 15.8228C34.8018 13.5021 36.4433 11.7511 38.5057 10.5696C40.6101 9.38819 42.925 8.79747 45.4504 8.79747C47.9757 8.79747 50.2696 9.38819 52.332 10.5696C54.3943 11.7511 56.0358 13.5232 57.2564 15.8861C58.477 18.2068 59.0873 21.0338 59.0873 24.3671C59.0873 27.7004 58.477 30.5274 57.2564 32.8481C56.0358 35.1688 54.3943 36.9198 52.332 38.1013C50.2696 39.2405 47.9757 39.8101 45.4504 39.8101ZM45.4504 36.519C48.6492 36.519 51.1324 35.4008 52.9002 33.1646C54.6679 30.8861 55.5518 27.9536 55.5518 24.3671C55.5518 20.7806 54.6679 17.8481 52.9002 15.5696C51.1324 13.2911 48.6492 12.1519 45.4504 12.1519C42.2516 12.1519 39.7684 13.2911 38.0006 15.5696C36.2329 17.8059 35.349 20.7173 35.349 24.3038C35.349 27.9325 36.2118 30.8861 37.9375 33.1646C39.7052 35.4008 42.2095 36.519 45.4504 36.519Z" fill="black"/>
<path d="M75.5124 39.8101C71.7665 39.8101 68.7361 39.0084 66.4212 37.4051C64.1483 35.8017 63.0119 33.481 63.0119 30.443H66.6106C66.6106 32.5106 67.3892 34.0717 68.9465 35.1266C70.5459 36.1392 72.8187 36.6456 75.765 36.6456C78.3324 36.6456 80.3316 36.2236 81.7627 35.3797C83.2358 34.5359 83.9723 33.1857 83.9723 31.3291C83.9723 30.0211 83.4673 28.9662 82.4571 28.1646C81.4891 27.3629 79.8266 26.7511 77.4696 26.3291L72.8608 25.443C69.5778 24.8101 67.284 23.8397 65.9792 22.5316C64.7166 21.2236 64.0852 19.5359 64.0852 17.4684C64.0852 14.7257 65.0533 12.616 66.9894 11.1392C68.9255 9.62026 71.556 8.86076 74.8811 8.86076C78.5008 8.86076 81.3207 9.68355 83.341 11.3291C85.3613 12.9747 86.3714 15.1055 86.3714 17.7215H83.0885C83.0885 16.1181 82.394 14.7679 81.0051 13.6709C79.6582 12.5316 77.6169 11.962 74.8811 11.962C72.3978 11.962 70.5038 12.4262 69.1991 13.3544C67.9364 14.2405 67.305 15.5274 67.305 17.2152C67.305 19.6624 69.641 21.3502 74.3129 22.2785L77.5958 22.9114C81.1734 23.5865 83.7198 24.5148 85.235 25.6962C86.7502 26.8354 87.5078 28.5654 87.5078 30.8861C87.5078 34.0084 86.4135 36.2869 84.2249 37.7215C82.0783 39.1139 79.1742 39.8101 75.5124 39.8101Z" fill="black"/>
<path d="M104.3 8.92405C108.046 8.92405 110.951 9.85232 113.013 11.7089C115.117 13.5232 116.17 16.3502 116.17 20.1899V38.9873H112.634V34.4304C109.604 38.0169 105.9 39.8101 101.523 39.8101C98.6184 39.8101 96.2404 39.0717 94.3884 37.5949C92.5365 36.1181 91.6105 33.903 91.6105 30.9494C91.6105 28.1224 92.7259 25.9283 94.9566 24.3671C97.1874 22.8059 100.87 22.0253 106.005 22.0253C107.983 22.0253 110.193 22.1519 112.634 22.4051V20.1899C112.634 17.4895 111.982 15.4641 110.677 14.1139C109.414 12.7215 107.289 12.0253 104.3 12.0253C101.775 12.0253 99.8179 12.5316 98.429 13.5443C97.0821 14.557 96.3035 15.9916 96.093 17.8481H92.747C93.0837 14.9789 94.2622 12.7848 96.2824 11.2658C98.3027 9.70464 100.975 8.92405 104.3 8.92405ZM102.154 36.8354C106.447 36.8354 109.94 35.0211 112.634 31.3924V24.9367C110.572 24.7257 108.362 24.6203 106.005 24.6203C102.259 24.6203 99.5233 25.1055 97.7977 26.076C96.072 27.0042 95.2092 28.5865 95.2092 30.8228C95.2092 32.8481 95.8405 34.3671 97.1032 35.3797C98.408 36.3502 100.092 36.8354 102.154 36.8354Z" fill="black"/>
<path d="M143.369 0.56962H149.114V38.9873H143.369V35.6329C142.317 36.9409 140.991 37.9747 139.391 38.7342C137.792 39.4515 136.045 39.8101 134.151 39.8101C131.626 39.8101 129.353 39.2194 127.333 38.038C125.355 36.8143 123.776 35.0422 122.598 32.7215C121.461 30.4008 120.893 27.616 120.893 24.3671C120.893 21.076 121.461 18.27 122.598 15.9494C123.776 13.5865 125.355 11.8143 127.333 10.6329C129.353 9.45148 131.626 8.86076 134.151 8.86076C136.087 8.86076 137.834 9.24051 139.391 10C140.949 10.7595 142.275 11.7933 143.369 13.1013V0.56962ZM135.351 34.4937C138.213 34.4937 140.381 33.5654 141.854 31.7089C143.327 29.8101 144.063 27.3629 144.063 24.3671C144.063 21.3291 143.327 18.8819 141.854 17.0253C140.423 15.1688 138.255 14.2405 135.351 14.2405C132.447 14.2405 130.279 15.1266 128.848 16.8987C127.417 18.6709 126.702 21.1603 126.702 24.3671C126.702 27.5316 127.417 30.0211 128.848 31.8354C130.279 33.6076 132.447 34.4937 135.351 34.4937Z" fill="black"/>
<path d="M167.718 39.8101C165.15 39.8101 162.772 39.2616 160.584 38.1646C158.437 37.0675 156.69 35.3587 155.344 33.038C153.997 30.7173 153.323 27.827 153.323 24.3671C153.323 20.9072 153.997 18.0169 155.344 15.6962C156.69 13.3333 158.458 11.6034 160.647 10.5063C162.835 9.36709 165.192 8.79747 167.718 8.79747C170.285 8.79747 172.663 9.36709 174.852 10.5063C177.041 11.6034 178.808 13.3333 180.155 15.6962C181.502 18.0169 182.175 20.9072 182.175 24.3671C182.175 27.827 181.502 30.7173 180.155 33.038C178.808 35.3587 177.041 37.0675 174.852 38.1646C172.663 39.2616 170.285 39.8101 167.718 39.8101ZM167.718 34.4937C170.664 34.4937 172.832 33.5021 174.221 31.519C175.652 29.5359 176.367 27.1519 176.367 24.3671C176.367 21.5401 175.652 19.135 174.221 17.1519C172.832 15.1688 170.664 14.1772 167.718 14.1772C164.772 14.1772 162.604 15.1688 161.215 17.1519C159.826 19.0928 159.132 21.4979 159.132 24.3671C159.132 27.1941 159.826 29.5992 161.215 31.5823C162.604 33.5232 164.772 34.4937 167.718 34.4937Z" fill="black"/>
<path d="M198.644 39.8101C194.688 39.8101 191.468 38.9873 188.985 37.3418C186.544 35.6962 185.323 33.27 185.323 30.0633H191.258C191.258 31.6667 191.91 32.8481 193.215 33.6076C194.52 34.3249 196.477 34.6835 199.086 34.6835C203.674 34.6835 205.968 33.4599 205.968 31.0127C205.968 29.9578 205.526 29.1772 204.642 28.6709C203.8 28.1224 202.454 27.6793 200.602 27.3418L195.488 26.3291C192.163 25.654 189.785 24.7257 188.354 23.5443C186.965 22.3207 186.27 20.443 186.27 17.9114C186.27 15.0422 187.322 12.827 189.427 11.2658C191.573 9.66245 194.499 8.86076 198.203 8.86076C202.075 8.86076 205.084 9.70464 207.231 11.3924C209.377 13.038 210.451 15.2532 210.451 18.038H205.084C205.084 16.9409 204.516 15.9705 203.38 15.1266C202.285 14.2827 200.538 13.8608 198.139 13.8608C195.782 13.8608 194.078 14.1983 193.026 14.8734C191.973 15.5063 191.447 16.3713 191.447 17.4684C191.447 18.6498 191.973 19.4937 193.026 20C194.078 20.4641 195.698 20.9072 197.887 21.3291L200.728 21.8354C203.38 22.2996 205.463 22.8059 206.978 23.3544C208.493 23.903 209.651 24.7046 210.451 25.7595C211.292 26.8143 211.713 28.27 211.713 30.1266C211.713 36.5823 207.357 39.8101 198.644 39.8101Z" fill="black"/>
<path d="M235.418 0C238.953 0 242.194 0.886077 245.141 2.65823C248.129 4.38819 250.465 6.79325 252.148 9.87342C253.874 12.9114 254.737 16.2869 254.737 20C254.737 23.7553 253.874 27.1519 252.148 30.1899C250.465 33.2278 248.15 35.6329 245.204 37.4051C242.257 39.135 238.995 40 235.418 40C231.84 40 228.557 39.135 225.569 37.4051C222.623 35.6329 220.287 33.2278 218.561 30.1899C216.878 27.1519 216.036 23.7553 216.036 20C216.036 16.2869 216.878 12.9114 218.561 9.87342C220.287 6.79325 222.623 4.38819 225.569 2.65823C228.557 0.886077 231.84 0 235.418 0ZM235.418 37.4051C238.364 37.4051 241.142 36.6667 243.752 35.1899C246.361 33.6709 248.445 31.5823 250.002 28.9241C251.559 26.2658 252.338 23.2911 252.338 20C252.338 16.7089 251.559 13.7342 250.002 11.076C248.445 8.41772 246.361 6.35021 243.752 4.87342C241.142 3.35443 238.364 2.59494 235.418 2.59494C232.43 2.59494 229.631 3.35443 227.021 4.87342C224.412 6.35021 222.328 8.41772 220.771 11.076C219.214 13.7342 218.435 16.7089 218.435 20C218.435 23.2911 219.214 26.2658 220.771 28.9241C222.328 31.5823 224.412 33.6709 227.021 35.1899C229.631 36.6667 232.43 37.4051 235.418 37.4051ZM243.752 16.3924C243.752 19.5148 242.3 21.4979 239.395 22.3418L244.067 29.8101H240.658L236.554 22.7215H236.049H231.125V29.8101H228.221V10H237.628C239.648 10 241.163 10.5696 242.173 11.7089C243.225 12.8481 243.752 14.4093 243.752 16.3924ZM231.125 12.7215V20H237.249C238.427 20 239.332 19.7046 239.964 19.1139C240.595 18.481 240.911 17.5738 240.911 16.3924C240.911 13.9451 239.69 12.7215 237.249 12.7215H231.125Z" fill="black"/>
</svg>
