<svg width="128" height="20" viewBox="0 0 128 20" fill="none" xmlns="http://www.w3.org/2000/svg">
<path d="M11.5535 0.28481H13.3212V19.4937H11.5535V16.7722C11.0695 17.7426 10.3645 18.5127 9.4385 19.0823C8.53358 19.6308 7.51292 19.9051 6.37651 19.9051C5.13488 19.9051 4.03004 19.6097 3.06199 19.019C2.09394 18.4072 1.33633 17.5211 0.789172 16.3608C0.263057 15.1793 0 13.7869 0 12.1835C0 10.5591 0.263057 9.16667 0.789172 8.00633C1.33633 6.8249 2.09394 5.93882 3.06199 5.3481C4.03004 4.73629 5.13488 4.43038 6.37651 4.43038C7.53396 4.43038 8.55463 4.70464 9.4385 5.25317C10.3434 5.80169 11.0484 6.56118 11.5535 7.53165V0.28481ZM6.69218 18.2595C8.27052 18.2595 9.50163 17.711 10.3855 16.6139C11.2904 15.4958 11.7429 14.0084 11.7429 12.1519C11.7429 10.2954 11.3009 8.81857 10.4171 7.72152C9.5332 6.62447 8.29157 6.07595 6.69218 6.07595C5.11384 6.07595 3.90377 6.61392 3.06199 7.68987C2.2202 8.76582 1.79931 10.2637 1.79931 12.1835C1.79931 14.0823 2.2202 15.5696 3.06199 16.6456C3.90377 17.7215 5.11384 18.2595 6.69218 18.2595Z" fill="white"/>
<path d="M22.7252 19.9051C21.4625 19.9051 20.3156 19.6203 19.2844 19.0506C18.2532 18.4599 17.422 17.5844 16.7906 16.4241C16.1803 15.2426 15.8752 13.8186 15.8752 12.1519C15.8752 10.4852 16.1803 9.07173 16.7906 7.91139C17.4009 6.75106 18.2217 5.87553 19.2528 5.28481C20.3051 4.69409 21.4625 4.39874 22.7252 4.39874C23.9879 4.39874 25.1348 4.69409 26.166 5.28481C27.1972 5.87553 28.0179 6.7616 28.6282 7.94304C29.2385 9.10338 29.5436 10.5169 29.5436 12.1835C29.5436 13.8502 29.2385 15.2637 28.6282 16.4241C28.0179 17.5844 27.1972 18.4599 26.166 19.0506C25.1348 19.6203 23.9879 19.9051 22.7252 19.9051ZM22.7252 18.2595C24.3246 18.2595 25.5662 17.7004 26.4501 16.5823C27.334 15.443 27.7759 13.9768 27.7759 12.1835C27.7759 10.3903 27.334 8.92405 26.4501 7.78481C25.5662 6.64557 24.3246 6.07595 22.7252 6.07595C21.1258 6.07595 19.8842 6.64557 19.0003 7.78481C18.1164 8.90296 17.6745 10.3587 17.6745 12.1519C17.6745 13.9662 18.1059 15.443 18.9687 16.5823C19.8526 17.7004 21.1048 18.2595 22.7252 18.2595Z" fill="white"/>
<path d="M37.7562 19.9051C35.8832 19.9051 34.368 19.5042 33.2106 18.7025C32.0742 17.9008 31.506 16.7405 31.506 15.2215H33.3053C33.3053 16.2553 33.6946 17.0359 34.4733 17.5633C35.2729 18.0696 36.4094 18.3228 37.8825 18.3228C39.1662 18.3228 40.1658 18.1118 40.8813 17.6899C41.6179 17.2679 41.9862 16.5928 41.9862 15.6646C41.9862 15.0105 41.7336 14.4831 41.2286 14.0823C40.7445 13.6814 39.9133 13.3755 38.7348 13.1646L36.4304 12.7215C34.7889 12.4051 33.642 11.9198 32.9896 11.2658C32.3583 10.6118 32.0426 9.76793 32.0426 8.73418C32.0426 7.36287 32.5266 6.30802 33.4947 5.56962C34.4627 4.81013 35.778 4.43038 37.4405 4.43038C39.2504 4.43038 40.6604 4.84177 41.6705 5.66456C42.6806 6.48734 43.1857 7.55274 43.1857 8.86076H41.5442C41.5442 8.05907 41.197 7.38397 40.5025 6.83544C39.8291 6.26582 38.8084 5.98101 37.4405 5.98101C36.1989 5.98101 35.2519 6.21308 34.5995 6.67722C33.9682 7.12025 33.6525 7.76371 33.6525 8.6076C33.6525 9.83122 34.8205 10.6751 37.1564 11.1392L38.7979 11.4557C40.5867 11.7933 41.8599 12.2574 42.6175 12.8481C43.3751 13.4177 43.7539 14.2827 43.7539 15.443C43.7539 17.0042 43.2068 18.1435 42.1124 18.8608C41.0392 19.557 39.5871 19.9051 37.7562 19.9051Z" fill="white"/>
<path d="M52.1502 4.46203C54.0232 4.46203 55.4753 4.92616 56.5064 5.85443C57.5587 6.7616 58.0848 8.17511 58.0848 10.0949V19.4937H56.317V17.2152C54.8018 19.0084 52.9499 19.9051 50.7613 19.9051C49.3092 19.9051 48.1202 19.5359 47.1942 18.7975C46.2683 18.0591 45.8053 16.9515 45.8053 15.4747C45.8053 14.0612 46.363 12.9641 47.4783 12.1835C48.5937 11.403 50.4351 11.0127 53.0025 11.0127C53.9916 11.0127 55.0965 11.0759 56.317 11.2025V10.0949C56.317 8.74473 55.9909 7.73207 55.3385 7.05696C54.7071 6.36076 53.6444 6.01266 52.1502 6.01266C50.8875 6.01266 49.909 6.26582 49.2145 6.77215C48.5411 7.27848 48.1517 7.99578 48.0465 8.92405H46.3735C46.5418 7.48945 47.1311 6.39241 48.1412 5.63291C49.1514 4.85232 50.4877 4.46203 52.1502 4.46203ZM51.0769 18.4177C53.2235 18.4177 54.9702 17.5105 56.317 15.6962V12.4684C55.2859 12.3629 54.181 12.3101 53.0025 12.3101C51.1296 12.3101 49.7617 12.5527 48.8988 13.038C48.036 13.5021 47.6046 14.2933 47.6046 15.4114C47.6046 16.4241 47.9203 17.1835 48.5516 17.6899C49.204 18.1751 50.0458 18.4177 51.0769 18.4177Z" fill="white"/>
<path d="M71.6844 0.28481H74.557V19.4937H71.6844V17.8165C71.1583 18.4705 70.4954 18.9873 69.6957 19.3671C68.896 19.7257 68.0227 19.9051 67.0757 19.9051C65.813 19.9051 64.6766 19.6097 63.6665 19.019C62.6774 18.4072 61.8882 17.5211 61.2989 16.3608C60.7307 15.2004 60.4466 13.808 60.4466 12.1835C60.4466 10.538 60.7307 9.13502 61.2989 7.97468C61.8882 6.79325 62.6774 5.90717 63.6665 5.31646C64.6766 4.72574 65.813 4.43038 67.0757 4.43038C68.0437 4.43038 68.9171 4.62025 69.6957 5C70.4744 5.37975 71.1373 5.89663 71.6844 6.55063V0.28481ZM67.6755 17.2468C69.1065 17.2468 70.1903 16.7827 70.9268 15.8544C71.6634 14.9051 72.0317 13.6814 72.0317 12.1835C72.0317 10.6646 71.6634 9.44093 70.9268 8.51266C70.2113 7.58439 69.1275 7.12025 67.6755 7.12025C66.2234 7.12025 65.1396 7.56329 64.4241 8.44937C63.7085 9.33544 63.3508 10.5802 63.3508 12.1835C63.3508 13.7658 63.7085 15.0105 64.4241 15.9177C65.1396 16.8038 66.2234 17.2468 67.6755 17.2468Z" fill="white"/>
<path d="M83.8589 19.9051C82.5752 19.9051 81.3862 19.6308 80.2918 19.0823C79.2186 18.5338 78.3452 17.6793 77.6718 16.519C76.9984 15.3587 76.6617 13.9135 76.6617 12.1835C76.6617 10.4536 76.9984 9.00844 77.6718 7.8481C78.3452 6.66667 79.2291 5.80169 80.3234 5.25317C81.4177 4.68355 82.5962 4.39874 83.8589 4.39874C85.1426 4.39874 86.3316 4.68355 87.426 5.25317C88.5203 5.80169 89.4042 6.66667 90.0776 7.8481C90.751 9.00844 91.0877 10.4536 91.0877 12.1835C91.0877 13.9135 90.751 15.3587 90.0776 16.519C89.4042 17.6793 88.5203 18.5338 87.426 19.0823C86.3316 19.6308 85.1426 19.9051 83.8589 19.9051ZM83.8589 17.2468C85.332 17.2468 86.4158 16.7511 87.1103 15.7595C87.8258 14.7679 88.1836 13.576 88.1836 12.1835C88.1836 10.77 87.8258 9.56751 87.1103 8.57595C86.4158 7.58439 85.332 7.08861 83.8589 7.08861C82.3858 7.08861 81.302 7.58439 80.6075 8.57595C79.913 9.54641 79.5658 10.7489 79.5658 12.1835C79.5658 13.597 79.913 14.7996 80.6075 15.7911C81.302 16.7616 82.3858 17.2468 83.8589 17.2468Z" fill="white"/>
<path d="M99.3222 19.9051C97.344 19.9051 95.7341 19.4937 94.4925 18.6709C93.2719 17.8481 92.6616 16.635 92.6616 15.0316H95.6289C95.6289 15.8333 95.9551 16.4241 96.6075 16.8038C97.2599 17.1624 98.2384 17.3418 99.5432 17.3418C101.837 17.3418 102.984 16.73 102.984 15.5063C102.984 14.9789 102.763 14.5886 102.321 14.3354C101.9 14.0612 101.227 13.8397 100.301 13.6709L97.7439 13.1646C96.0814 12.827 94.8923 12.3629 94.1768 11.7722C93.4824 11.1603 93.1351 10.2215 93.1351 8.9557C93.1351 7.5211 93.6612 6.4135 94.7135 5.63291C95.7867 4.83123 97.2494 4.43038 99.1013 4.43038C101.037 4.43038 102.542 4.85232 103.615 5.6962C104.689 6.51899 105.225 7.62658 105.225 9.01899H102.542C102.542 8.47046 102.258 7.98523 101.69 7.56329C101.143 7.14135 100.269 6.93038 99.0697 6.93038C97.8912 6.93038 97.0389 7.09916 96.5128 7.43671C95.9867 7.75317 95.7236 8.18565 95.7236 8.73418C95.7236 9.3249 95.9867 9.74684 96.5128 10C97.0389 10.2321 97.8491 10.4536 98.9434 10.6646L100.364 10.9177C101.69 11.1498 102.731 11.403 103.489 11.6772C104.247 11.9515 104.825 12.3523 105.225 12.8797C105.646 13.4072 105.857 14.135 105.857 15.0633C105.857 18.2911 103.678 19.9051 99.3222 19.9051Z" fill="white"/>
<path d="M117.709 0C119.477 0 121.097 0.443039 122.57 1.32912C124.064 2.19409 125.232 3.39663 126.074 4.93671C126.937 6.4557 127.368 8.14346 127.368 10C127.368 11.8776 126.937 13.576 126.074 15.0949C125.232 16.6139 124.075 17.8165 122.602 18.7025C121.129 19.5675 119.498 20 117.709 20C115.92 20 114.279 19.5675 112.785 18.7025C111.311 17.8165 110.143 16.6139 109.281 15.0949C108.439 13.576 108.018 11.8776 108.018 10C108.018 8.14346 108.439 6.4557 109.281 4.93671C110.143 3.39663 111.311 2.19409 112.785 1.32912C114.279 0.443039 115.92 0 117.709 0ZM117.709 18.7025C119.182 18.7025 120.571 18.3333 121.876 17.5949C123.181 16.8354 124.222 15.7911 125.001 14.462C125.78 13.1329 126.169 11.6456 126.169 10C126.169 8.35443 125.78 6.86709 125.001 5.53798C124.222 4.20886 123.181 3.17511 121.876 2.43671C120.571 1.67722 119.182 1.29747 117.709 1.29747C116.215 1.29747 114.815 1.67722 113.511 2.43671C112.206 3.17511 111.164 4.20886 110.385 5.53798C109.607 6.86709 109.217 8.35443 109.217 10C109.217 11.6456 109.607 13.1329 110.385 14.462C111.164 15.7911 112.206 16.8354 113.511 17.5949C114.815 18.3333 116.215 18.7025 117.709 18.7025ZM121.876 8.1962C121.876 9.75738 121.15 10.7489 119.698 11.1709L122.034 14.9051H120.329L118.277 11.3608H118.025H115.562V14.9051H114.11V5H118.814C119.824 5 120.582 5.28481 121.087 5.85443C121.613 6.42405 121.876 7.20464 121.876 8.1962ZM115.562 6.36076V10H118.624C119.214 10 119.666 9.85232 119.982 9.55696C120.297 9.24051 120.455 8.78692 120.455 8.1962C120.455 6.97257 119.845 6.36076 118.624 6.36076H115.562Z" fill="white"/>
</svg>
