<svg width="32" height="22" viewBox="0 0 32 22" fill="none" xmlns="http://www.w3.org/2000/svg">
<path fill-rule="evenodd" clip-rule="evenodd" d="M24.8987 7.12653C24.5869 7.12978 24.2757 7.15354 23.967 7.19765L23.8106 6.58599C23.8393 6.4452 23.8393 6.30005 23.8106 6.15925L23.0993 3.31433C23.0651 3.18052 23.0046 3.05482 22.9215 2.94449L22.3881 0.810805C22.2701 0.333573 21.8413 -0.00125478 21.3497 3.53465e-06H17.0823C16.4931 3.53465e-06 16.0155 0.477646 16.0155 1.06685C16.0155 1.65605 16.4931 2.13369 17.0823 2.13369H20.5176L20.6243 2.56754C17.1364 2.9842 13.885 4.5449 11.3783 7.00562V3.91177C11.3783 3.32257 10.9006 2.84492 10.3114 2.84492H6.39966C5.81045 2.84492 5.33281 3.32257 5.33281 3.91177C5.33281 4.50097 5.81045 4.97861 6.39966 4.97861H9.24458V7.43947C6.43644 6.55701 3.37485 7.49555 1.54374 9.8002C-0.287378 12.1048 -0.509619 15.2993 0.984732 17.8353C2.47908 20.3713 5.38121 21.7248 8.2845 21.2397C11.1878 20.7545 13.4922 18.5311 14.0809 15.6471H15.6456C16.023 15.6462 16.3719 15.4461 16.5631 15.1207C16.5631 15.1207 17.1606 14.1037 17.9074 12.8661C17.3309 15.8127 18.6668 18.8039 21.2459 20.3411C23.825 21.8783 27.0915 21.6304 29.4091 19.7216C31.7266 17.8128 32.5958 14.6542 31.5813 11.8284C30.5667 9.00258 27.8869 7.11823 24.8845 7.11941L24.8987 7.12653ZM10.7666 10.8605C11.4511 11.6002 11.8951 12.5302 12.0397 13.5276H8.89607C9.45999 12.5982 10.0849 11.7072 10.7666 10.8605ZM7.118 19.2174C5.1066 19.2196 3.29149 18.0113 2.51744 16.1548C1.74339 14.2983 2.16247 12.1584 3.57965 10.731C4.99683 9.30368 7.13366 8.8693 8.99564 9.63005C7.88362 11.0285 6.92952 12.5455 6.15073 14.1535C6.00062 14.4842 6.02904 14.8685 6.22614 15.1735C6.42324 15.4785 6.76196 15.6623 7.12511 15.6613H11.8975C11.2675 17.7742 9.32284 19.2211 7.118 19.2174ZM15.0411 13.5276H14.1947C14.0289 11.9175 13.3189 10.4122 12.182 9.26021C14.3156 7.04118 17.3313 4.99284 21.1434 4.6799L21.3995 5.71118C20.141 6.21813 19.0668 7.09635 18.3199 8.22893C17.2032 9.89321 15.6883 12.4323 15.0411 13.5276ZM24.8987 19.2174C22.6395 19.2138 20.6659 17.6893 20.0917 15.5042C19.5175 13.3192 20.4866 11.0214 22.4521 9.90743L23.8746 15.5973C23.9919 16.0719 24.4169 16.4061 24.9059 16.4081C24.9932 16.4188 25.0816 16.4188 25.169 16.4081C25.4435 16.3392 25.6793 16.1642 25.8247 15.9214C25.9701 15.6787 26.0131 15.3881 25.9442 15.1136L24.5218 9.34556H24.9272C27.6768 9.34556 29.9058 11.5746 29.9058 14.3242C29.9058 17.0738 27.6768 19.3028 24.9272 19.3028L24.8987 19.2174Z" fill="white"/>
</svg>
