<svg width="191" height="267" viewBox="0 0 191 267" fill="none" xmlns="http://www.w3.org/2000/svg">
<g filter="url(#filter0_d_1793_357)">
<circle cx="95.8184" cy="86.2119" r="65" fill="#F7F7F7"/>
</g>
<path d="M57.3407 89.4685C57.313 89.533 57.2669 89.5791 57.1932 89.6067C57.1195 89.6344 57.0457 89.6528 56.972 89.6528C56.8983 89.6528 56.8245 89.6344 56.7508 89.6067C56.6771 89.5791 56.6218 89.533 56.5849 89.4685L52.4653 80.1417H52.41L52.4469 87.4133C52.4469 87.5884 52.4561 87.7543 52.4653 87.9294C52.4745 88.1045 52.5206 88.2519 52.5943 88.3902C52.6681 88.5284 52.7786 88.6298 52.9353 88.7127C53.092 88.7957 53.3132 88.8325 53.6081 88.8325C53.7463 88.8325 53.8477 88.8418 53.9307 88.8694C54.0136 88.8971 54.0597 89.0077 54.0873 89.2196C54.0873 89.321 54.0597 89.4132 54.0044 89.4961C53.9491 89.5791 53.8662 89.6251 53.7556 89.6251C53.562 89.6159 53.3961 89.6067 53.2671 89.5975C53.1381 89.5883 53.0183 89.5883 52.8985 89.5791C52.7786 89.5698 52.6588 89.5698 52.539 89.5698H52.0782H51.5898C51.4515 89.5698 51.3133 89.5698 51.1842 89.5791C51.0552 89.5883 50.917 89.5883 50.7695 89.5975C50.6221 89.6067 50.4562 89.6159 50.2534 89.6251C50.1336 89.6251 50.0414 89.5791 49.9954 89.4961C49.9493 89.4132 49.9216 89.321 49.9216 89.2196C49.9308 89.0077 49.9769 88.8971 50.0599 88.8694C50.1428 88.8418 50.2442 88.8325 50.3824 88.8325C50.6774 88.8325 50.8985 88.7957 51.0552 88.7127C51.2119 88.6298 51.3225 88.5284 51.3962 88.3902C51.4699 88.2519 51.516 88.1045 51.5252 87.9294C51.5345 87.7543 51.5437 87.5884 51.5437 87.4133L51.5805 80.1417C51.5805 79.8468 51.5529 79.6164 51.5068 79.4413C51.4607 79.2662 51.3778 79.1371 51.2764 79.0358C51.175 78.9344 51.046 78.8606 50.8893 78.8053C50.7327 78.75 50.5575 78.704 50.3456 78.6671C50.1705 78.6302 50.0599 78.6026 49.9861 78.5749C49.9216 78.5473 49.8848 78.4367 49.8848 78.2432C49.8848 78.0312 49.9585 77.9206 50.0967 77.9022C50.235 77.8837 50.4101 77.8745 50.6221 77.8745C51.0737 77.8745 51.4792 77.9022 51.8478 77.9575C52.2165 78.0128 52.5482 78.1049 52.8432 78.2432C53.1381 78.3814 53.4053 78.5749 53.6358 78.833C53.8662 79.091 54.0689 79.4228 54.244 79.8191L57.396 86.8972H57.4512L61.064 77.9943H62.1054C62.4741 77.9943 62.8335 77.9943 63.1745 77.9851C63.5247 77.9759 63.8934 77.9667 64.2804 77.939C64.4002 77.939 64.4924 77.9851 64.5385 78.0681C64.5846 78.151 64.6122 78.2432 64.6122 78.3445C64.603 78.5565 64.5477 78.6671 64.4648 78.6948C64.3818 78.7224 64.2712 78.7316 64.1514 78.7316C63.8565 78.7316 63.6353 78.7685 63.4694 78.8514C63.3127 78.9344 63.1929 79.0358 63.1192 79.174C63.0455 79.3122 62.9994 79.4597 62.981 79.6348C62.9625 79.8099 62.9533 79.9758 62.9533 80.1509V87.4225C62.9533 87.5976 62.9625 87.7635 62.981 87.9386C62.9994 88.1137 63.0455 88.2611 63.1192 88.3994C63.1929 88.5376 63.3127 88.639 63.4694 88.722C63.6261 88.8049 63.8565 88.8418 64.1514 88.8418C64.2712 88.8418 64.3818 88.851 64.4648 88.8786C64.5477 88.9063 64.603 89.0169 64.6122 89.2288C64.6122 89.3302 64.5846 89.4224 64.5385 89.5053C64.4924 89.5883 64.4002 89.6344 64.2804 89.6344C63.8934 89.6067 63.5155 89.5975 63.1653 89.5883C62.8151 89.5791 62.4464 89.5791 62.087 89.5791C61.3681 89.5791 60.6124 89.5975 59.829 89.6344C59.7092 89.6344 59.6171 89.5883 59.571 89.5053C59.5249 89.4224 59.4972 89.3302 59.4972 89.2288C59.5065 89.0169 59.5525 88.9063 59.6355 88.8786C59.7184 88.851 59.8198 88.8418 59.958 88.8418C60.253 88.8418 60.4742 88.8049 60.64 88.722C60.7967 88.639 60.9165 88.5376 60.9903 88.3994C61.064 88.2611 61.1101 88.1137 61.1285 87.9386C61.1469 87.7635 61.1562 87.5976 61.1562 87.4225V80.1509H61.1193L57.3407 89.4685Z" fill="#040305"/>
<path d="M70.667 77.8843C71.0449 77.8843 71.3767 77.9119 71.6624 77.9672C71.9481 78.0225 72.2062 78.1147 72.4366 78.2529C72.667 78.3912 72.8697 78.5847 73.054 78.8428C73.2384 79.1008 73.4135 79.4326 73.5886 79.8289L76.6668 87.4138C76.7313 87.5705 76.7958 87.7364 76.8695 87.9023C76.9433 88.0682 77.0262 88.2156 77.1276 88.3539C77.229 88.4921 77.3396 88.6027 77.4778 88.6949C77.616 88.787 77.7727 88.8331 77.9755 88.8331C78.1137 88.8331 78.2151 88.8423 78.298 88.87C78.381 88.8976 78.4271 89.0082 78.4363 89.2202C78.4363 89.3216 78.4086 89.4137 78.3533 89.4967C78.298 89.5796 78.2151 89.6257 78.1045 89.6257C77.7174 89.598 77.3672 89.5888 77.0815 89.5796C76.7866 89.5704 76.4548 89.5704 76.0954 89.5704C75.3581 89.5704 74.6024 89.5888 73.819 89.6257C73.6992 89.6257 73.607 89.5796 73.5609 89.4967C73.5148 89.4137 73.4872 89.3216 73.4872 89.2202C73.4964 89.0082 73.5425 88.8976 73.6254 88.87C73.7084 88.8423 73.8098 88.8331 73.948 88.8331C74.2429 88.8331 74.4641 88.8054 74.63 88.7502C74.7867 88.6949 74.8881 88.6119 74.9341 88.5013C74.9802 88.3907 74.9802 88.2433 74.9526 88.0682C74.9249 87.893 74.8604 87.6719 74.759 87.4138L74.1323 85.8931H69.6072C69.3123 86.6396 69.1187 87.1465 69.0174 87.4138C68.916 87.7272 68.8515 87.9852 68.8146 88.1695C68.7777 88.3539 68.7962 88.4921 68.8699 88.5935C68.9436 88.6949 69.0819 88.7594 69.2846 88.787C69.4874 88.8147 69.7639 88.8331 70.1141 88.8331C70.2523 88.8331 70.3537 88.8423 70.4366 88.87C70.5196 88.8976 70.5657 89.0082 70.5749 89.2202C70.5749 89.3216 70.5472 89.4137 70.4919 89.4967C70.4366 89.5796 70.3537 89.6257 70.2431 89.6257C69.856 89.598 69.515 89.5888 69.2293 89.5796C68.9436 89.5704 68.6118 89.5704 68.2524 89.5704H67.7547C67.6165 89.5704 67.4875 89.5704 67.3584 89.5796C67.2294 89.5888 67.0912 89.5888 66.9529 89.598C66.8147 89.6073 66.6488 89.6165 66.446 89.6257C66.3262 89.6257 66.2341 89.5796 66.188 89.4967C66.1419 89.4137 66.1143 89.3216 66.1143 89.2202C66.1235 89.0082 66.1696 88.8976 66.2525 88.87C66.3354 88.8423 66.4368 88.8331 66.5751 88.8331C66.8239 88.8331 67.0174 88.7962 67.1741 88.7133C67.3308 88.6303 67.4506 88.529 67.5612 88.3907C67.6626 88.2525 67.7547 88.105 67.8285 87.9299C67.9022 87.7548 67.9759 87.5889 68.0497 87.4138L71.2569 79.8289C71.3398 79.6077 71.3767 79.4326 71.349 79.2944C71.3214 79.1561 71.2661 79.0547 71.1739 78.9626C71.0818 78.8796 70.962 78.8151 70.8237 78.769C70.6855 78.7229 70.538 78.6953 70.3906 78.6677C70.2062 78.6308 70.0864 78.5939 70.0219 78.5663C69.9574 78.5386 69.9298 78.428 69.9298 78.2437C69.9298 78.0317 70.0035 77.9211 70.1417 77.9027C70.28 77.8935 70.4551 77.8843 70.667 77.8843ZM69.9298 85.1098H73.7821L71.9297 80.4003H71.8744L69.9298 85.1098Z" fill="#040305"/>
<path d="M86.8875 84.0498C87.3483 84.7871 87.8184 85.5152 88.2976 86.2617C88.7769 86.999 89.3206 87.6902 89.9473 88.3446C90.1224 88.4828 90.2883 88.5934 90.4542 88.6764C90.6201 88.7593 90.8136 88.8146 91.0532 88.8423C91.1546 88.8515 91.2468 88.8699 91.3482 88.8883C91.4495 88.9068 91.5048 89.0174 91.5141 89.2293C91.5141 89.3307 91.4864 89.4229 91.4403 89.5058C91.3942 89.5888 91.3021 89.6348 91.1823 89.6348C90.9887 89.6256 90.8228 89.6164 90.6938 89.6072C90.5648 89.598 90.445 89.598 90.3344 89.5888C90.2238 89.5795 90.104 89.5795 89.9842 89.5795H89.5234C89.0073 89.4782 88.5833 89.3123 88.2423 89.0542C87.9013 88.8054 87.5603 88.446 87.2378 87.9851C86.8968 87.5243 86.5742 87.0543 86.2885 86.5843C85.9936 86.1143 85.7079 85.6442 85.4314 85.1834C85.3484 85.0636 85.2655 84.953 85.1918 84.8516C85.118 84.7503 85.0351 84.6765 84.9337 84.6212C84.8323 84.5659 84.7125 84.5199 84.5651 84.4922C84.4176 84.4646 84.2333 84.4461 84.0121 84.4461H83.4776V87.4322C83.4776 87.6073 83.4868 87.7732 83.5052 87.9483C83.5236 88.1234 83.5697 88.2709 83.6434 88.4091C83.7172 88.5473 83.837 88.6487 83.9937 88.7317C84.1503 88.8146 84.3807 88.8515 84.6757 88.8515C84.7955 88.8515 84.9061 88.8607 84.989 88.8883C85.0719 88.916 85.1272 89.0266 85.1365 89.2386C85.1365 89.3399 85.1088 89.4321 85.0627 89.515C85.0167 89.598 84.9245 89.6441 84.8047 89.6441C84.0121 89.6072 83.2471 89.5888 82.5099 89.5888C82.1412 89.5888 81.791 89.5888 81.45 89.598C81.109 89.6072 80.7403 89.6164 80.3533 89.6441C80.2335 89.6441 80.1413 89.598 80.0952 89.515C80.0491 89.4321 80.0215 89.3399 80.0215 89.2386C80.0307 89.0266 80.0768 88.916 80.1597 88.8883C80.2427 88.8607 80.3441 88.8515 80.4823 88.8515C80.7772 88.8515 80.9984 88.8146 81.1643 88.7317C81.321 88.6487 81.4408 88.5473 81.5145 88.4091C81.5882 88.2709 81.6343 88.1234 81.6527 87.9483C81.6712 87.7732 81.6804 87.6073 81.6804 87.4322V80.179C81.6804 80.0039 81.6712 79.838 81.6527 79.6629C81.6343 79.4878 81.5882 79.3404 81.5145 79.2021C81.4408 79.0639 81.321 78.9625 81.1643 78.8703C81.0076 78.7874 80.7772 78.7413 80.4823 78.7413C80.3441 78.7413 80.2427 78.7321 80.1597 78.7045C80.0768 78.6768 80.0307 78.5662 80.0215 78.3542C80.0215 78.2529 80.0491 78.1607 80.0952 78.0778C80.1413 77.9948 80.2335 77.9487 80.3533 77.9487C80.7403 77.9764 81.1182 77.9856 81.4592 77.9948C81.8094 78.004 82.1689 78.004 82.5283 78.004H85.6802C86.4267 78.0132 87.0626 78.1146 87.588 78.2897C88.1133 78.4648 88.5464 78.6952 88.8782 78.9717C89.21 79.2482 89.4588 79.5616 89.6247 79.9118C89.7814 80.262 89.8644 80.6306 89.8644 80.9901C89.8644 81.3219 89.7999 81.6444 89.6616 81.9486C89.5234 82.2619 89.3298 82.5476 89.0718 82.8149C88.8137 83.0821 88.5004 83.3218 88.1409 83.543C87.7631 83.7549 87.3483 83.9208 86.8875 84.0498ZM84.7586 78.6768C84.5005 78.6768 84.2886 78.6952 84.1135 78.7413C83.9384 78.7874 83.8093 78.8611 83.7172 78.9809C83.625 79.1008 83.5605 79.2482 83.5236 79.451C83.4868 79.6445 83.4683 79.8933 83.4683 80.1975V83.6996H85.0812C85.7079 83.6996 86.1963 83.6075 86.5558 83.4324C86.9152 83.2572 87.1917 83.0361 87.3668 82.7872C87.5511 82.5292 87.6709 82.2527 87.7262 81.9578C87.7815 81.6629 87.8092 81.3864 87.8092 81.1467C87.8092 80.8518 87.7631 80.5569 87.6617 80.262C87.5603 79.9671 87.3944 79.6998 87.164 79.4694C86.9336 79.239 86.6203 79.0455 86.2332 78.9072C85.8553 78.7505 85.3577 78.6768 84.7586 78.6768Z" fill="#040305"/>
<path d="M98.8503 77.6353C99.7627 77.6353 100.592 77.8011 101.311 78.1329C102.039 78.4647 102.657 78.9071 103.163 79.4601C103.67 80.013 104.057 80.6582 104.334 81.377C104.61 82.0959 104.749 82.8424 104.749 83.6166C104.749 84.6303 104.564 85.5243 104.205 86.3077C103.845 87.0911 103.385 87.7454 102.813 88.2892C102.242 88.8237 101.606 89.2384 100.906 89.5149C100.205 89.7914 99.5139 89.9389 98.8411 89.9389C97.9379 89.9389 97.1269 89.773 96.408 89.4412C95.6892 89.1094 95.0717 88.667 94.574 88.114C94.0763 87.5611 93.6893 86.9159 93.4128 86.1971C93.1363 85.4782 92.998 84.7225 92.998 83.9391C92.998 82.9253 93.1732 82.0314 93.5326 81.248C93.8828 80.4646 94.3436 79.8103 94.9058 79.2665C95.468 78.732 96.0947 78.3265 96.7951 78.05C97.4955 77.7735 98.1775 77.6353 98.8503 77.6353ZM98.8319 89.1186C99.477 89.1186 100.039 88.9712 100.509 88.667C100.979 88.3721 101.366 87.9666 101.67 87.4597C101.975 86.9528 102.205 86.363 102.352 85.6994C102.5 85.0358 102.574 84.3354 102.574 83.5981C102.574 82.9161 102.5 82.2618 102.343 81.6259C102.187 80.9992 101.956 80.4462 101.643 79.9669C101.329 79.4877 100.942 79.1098 100.472 78.8334C100.002 78.5569 99.4586 78.4094 98.8319 78.4094C98.1868 78.4094 97.6246 78.5569 97.1638 78.8518C96.7029 79.1467 96.3159 79.543 96.021 80.0407C95.7168 80.5384 95.5048 81.119 95.3574 81.7825C95.2191 82.4461 95.1454 83.1373 95.1454 83.8746C95.1454 84.575 95.2191 85.2294 95.3666 85.8653C95.5141 86.492 95.7352 87.0542 96.0486 87.5334C96.3527 88.0127 96.7398 88.3998 97.2006 88.6855C97.6706 88.9804 98.2144 89.1186 98.8319 89.1186Z" fill="#040305"/>
<path d="M116.518 77.9941C116.656 77.9941 116.767 78.0218 116.859 78.0863C116.951 78.1508 116.997 78.2614 116.997 78.4365L117.071 81.017C117.071 81.1369 117.016 81.229 116.914 81.2935C116.813 81.358 116.711 81.3857 116.61 81.3857C116.472 81.3857 116.343 81.358 116.214 81.3027C116.085 81.2475 116.011 81.1645 115.983 81.0539C115.919 80.6392 115.854 80.2798 115.771 79.9941C115.688 79.6991 115.587 79.4595 115.458 79.2568C115.329 79.0632 115.163 78.9158 114.96 78.8236C114.758 78.7314 114.5 78.6761 114.177 78.6669H112.933V87.4039C112.933 87.579 112.942 87.7449 112.96 87.92C112.979 88.0951 113.025 88.2425 113.099 88.3808C113.172 88.519 113.292 88.6204 113.449 88.7033C113.606 88.7863 113.836 88.8232 114.131 88.8232C114.251 88.8232 114.361 88.8324 114.444 88.86C114.527 88.8877 114.583 88.9983 114.592 89.2102C114.592 89.3116 114.564 89.4038 114.518 89.4867C114.472 89.5697 114.38 89.6157 114.26 89.6157C113.873 89.5881 113.495 89.5789 113.154 89.5697C112.804 89.5604 112.454 89.5604 112.103 89.5604C111.357 89.5604 110.592 89.5789 109.809 89.6157C109.689 89.6157 109.597 89.5697 109.55 89.4867C109.504 89.4038 109.477 89.3116 109.477 89.2102C109.486 88.9983 109.532 88.8877 109.615 88.86C109.698 88.8324 109.799 88.8232 109.938 88.8232C110.232 88.8232 110.454 88.7863 110.62 88.7033C110.776 88.6204 110.896 88.519 110.97 88.3808C111.044 88.2425 111.09 88.0951 111.108 87.92C111.126 87.7449 111.136 87.579 111.136 87.4039V78.6669H109.873C109.56 78.6761 109.292 78.7314 109.099 78.8236C108.896 78.9158 108.73 79.0632 108.601 79.2568C108.472 79.4503 108.371 79.6991 108.297 79.9941C108.223 80.289 108.159 80.6392 108.094 81.0539C108.067 81.1645 107.993 81.2475 107.855 81.3027C107.716 81.358 107.587 81.3857 107.449 81.3857C107.348 81.3857 107.256 81.358 107.154 81.2935C107.053 81.229 107.007 81.1369 107.007 81.017L107.062 78.4365C107.062 78.2614 107.108 78.1508 107.21 78.0863C107.311 78.0218 107.422 77.9941 107.56 77.9941H116.518Z" fill="#040305"/>
<path d="M128.425 77.9941C128.563 77.9941 128.674 78.0218 128.766 78.0863C128.858 78.1508 128.904 78.2614 128.904 78.4365L128.978 81.017C128.978 81.1369 128.923 81.229 128.821 81.2935C128.72 81.358 128.619 81.3857 128.517 81.3857C128.379 81.3857 128.25 81.358 128.121 81.3027C127.992 81.2475 127.918 81.1645 127.891 81.0539C127.826 80.6392 127.762 80.2798 127.679 79.9941C127.596 79.6991 127.494 79.4595 127.365 79.2568C127.236 79.0632 127.07 78.9158 126.868 78.8236C126.665 78.7314 126.407 78.6761 126.084 78.6669H124.84V87.4039C124.84 87.579 124.849 87.7449 124.868 87.92C124.886 88.0951 124.932 88.2425 125.006 88.3808C125.08 88.519 125.199 88.6204 125.356 88.7033C125.513 88.7863 125.743 88.8232 126.038 88.8232C126.158 88.8232 126.269 88.8324 126.352 88.86C126.434 88.8877 126.49 88.9983 126.499 89.2102C126.499 89.3116 126.471 89.4038 126.425 89.4867C126.379 89.5697 126.287 89.6157 126.167 89.6157C125.78 89.5881 125.402 89.5789 125.061 89.5697C124.711 89.5604 124.361 89.5604 124.011 89.5604C123.264 89.5604 122.499 89.5789 121.716 89.6157C121.596 89.6157 121.504 89.5697 121.458 89.4867C121.412 89.4038 121.384 89.3116 121.384 89.2102C121.393 88.9983 121.439 88.8877 121.522 88.86C121.605 88.8324 121.707 88.8232 121.845 88.8232C122.14 88.8232 122.361 88.7863 122.527 88.7033C122.683 88.6204 122.803 88.519 122.877 88.3808C122.951 88.2425 122.997 88.0951 123.015 87.92C123.034 87.7449 123.043 87.579 123.043 87.4039V78.6669H121.78C121.467 78.6761 121.2 78.7314 121.006 78.8236C120.803 78.9158 120.637 79.0632 120.508 79.2568C120.379 79.4503 120.278 79.6991 120.204 79.9941C120.131 80.289 120.066 80.6392 120.002 81.0539C119.974 81.1645 119.9 81.2475 119.762 81.3027C119.624 81.358 119.495 81.3857 119.356 81.3857C119.255 81.3857 119.163 81.358 119.062 81.2935C118.96 81.229 118.914 81.1369 118.914 81.017L118.969 78.4365C118.969 78.2614 119.015 78.1508 119.117 78.0863C119.218 78.0218 119.329 77.9941 119.467 77.9941H128.425Z" fill="#040305"/>
<path d="M133.982 77.8843C134.36 77.8843 134.692 77.9119 134.978 77.9672C135.264 78.0225 135.522 78.1147 135.752 78.2529C135.982 78.3912 136.185 78.5847 136.369 78.8428C136.554 79.1008 136.729 79.4326 136.904 79.8289L139.982 87.4138C140.047 87.5705 140.111 87.7364 140.185 87.9023C140.259 88.0682 140.342 88.2156 140.443 88.3539C140.544 88.4921 140.655 88.6027 140.793 88.6949C140.931 88.787 141.088 88.8331 141.291 88.8331C141.429 88.8331 141.531 88.8423 141.613 88.87C141.696 88.8976 141.743 89.0082 141.752 89.2202C141.752 89.3216 141.724 89.4137 141.669 89.4967C141.613 89.5796 141.531 89.6257 141.42 89.6257C141.033 89.598 140.683 89.5888 140.397 89.5796C140.102 89.5704 139.77 89.5704 139.411 89.5704C138.674 89.5704 137.918 89.5888 137.134 89.6257C137.015 89.6257 136.922 89.5796 136.876 89.4967C136.83 89.4137 136.803 89.3216 136.803 89.2202C136.812 89.0082 136.858 88.8976 136.941 88.87C137.024 88.8423 137.125 88.8331 137.263 88.8331C137.558 88.8331 137.78 88.8054 137.945 88.7502C138.102 88.6949 138.203 88.6119 138.25 88.5013C138.296 88.3907 138.296 88.2433 138.268 88.0682C138.24 87.893 138.176 87.6719 138.074 87.4138L137.448 85.8931H132.923C132.628 86.6396 132.434 87.1465 132.333 87.4138C132.231 87.7272 132.167 87.9852 132.13 88.1695C132.093 88.3539 132.112 88.4921 132.185 88.5935C132.259 88.6949 132.397 88.7594 132.6 88.787C132.803 88.8147 133.079 88.8331 133.43 88.8331C133.568 88.8331 133.669 88.8423 133.752 88.87C133.835 88.8976 133.881 89.0082 133.89 89.2202C133.89 89.3216 133.863 89.4137 133.807 89.4967C133.752 89.5796 133.669 89.6257 133.559 89.6257C133.171 89.598 132.83 89.5888 132.545 89.5796C132.259 89.5704 131.927 89.5704 131.568 89.5704H131.07C130.932 89.5704 130.803 89.5704 130.674 89.5796C130.545 89.5888 130.407 89.5888 130.268 89.598C130.13 89.6073 129.964 89.6165 129.761 89.6257C129.642 89.6257 129.549 89.5796 129.503 89.4967C129.457 89.4137 129.43 89.3216 129.43 89.2202C129.439 89.0082 129.485 88.8976 129.568 88.87C129.651 88.8423 129.752 88.8331 129.89 88.8331C130.139 88.8331 130.333 88.7962 130.49 88.7133C130.646 88.6303 130.766 88.529 130.877 88.3907C130.978 88.2525 131.07 88.105 131.144 87.9299C131.218 87.7548 131.291 87.5889 131.365 87.4138L134.572 79.8289C134.655 79.6077 134.692 79.4326 134.664 79.2944C134.637 79.1561 134.582 79.0547 134.489 78.9626C134.397 78.8796 134.277 78.8151 134.139 78.769C134.001 78.7229 133.853 78.6953 133.706 78.6677C133.522 78.6308 133.402 78.5939 133.337 78.5663C133.273 78.5386 133.245 78.428 133.245 78.2437C133.245 78.0317 133.319 77.9211 133.457 77.9027C133.595 77.8935 133.771 77.8843 133.982 77.8843ZM133.245 85.1098H137.098L135.245 80.4003H135.19L133.245 85.1098Z" fill="#040305"/>
<path d="M71.6071 95.4962H72.3352L72.2154 96.086C72.4089 95.8833 72.6024 95.7266 72.8052 95.616C73.0909 95.4501 73.4043 95.3672 73.7453 95.3672C74.2429 95.3672 74.63 95.5607 74.8973 95.9478C75.1645 96.3349 75.2198 96.8786 75.0724 97.5975C74.8696 98.5652 74.4733 99.2564 73.8743 99.6619C73.4964 99.92 73.1001 100.058 72.6762 100.058C72.3444 100.058 72.0771 99.9845 71.8836 99.837C71.7638 99.7541 71.6532 99.6158 71.5334 99.4131L71.0541 101.68H70.3076L71.6071 95.4962ZM74.289 97.662C74.3627 97.3118 74.3719 97.0077 74.3259 96.7496C74.2337 96.2612 73.9388 96.0215 73.4227 96.0215C72.9066 96.0215 72.5011 96.2796 72.1969 96.7957C72.0403 97.0722 71.9112 97.4224 71.8191 97.8463C71.7453 98.1873 71.7361 98.4823 71.7914 98.7219C71.8836 99.1827 72.1877 99.4131 72.7038 99.4131C73.054 99.4131 73.3674 99.2656 73.6623 98.9799C73.9572 98.6758 74.1692 98.2426 74.289 97.662Z" fill="#040305"/>
<path d="M76.8234 95.4778H77.5331L77.3672 96.2428C77.4593 96.0953 77.6344 95.911 77.9109 95.699C78.1782 95.4871 78.4639 95.3765 78.7588 95.3765C78.768 95.3765 78.7957 95.3765 78.8325 95.3765C78.8694 95.3765 78.9247 95.3857 78.9984 95.3949L78.8325 96.1783C78.7865 96.1691 78.7496 96.1598 78.7127 96.1598C78.6759 96.1598 78.639 96.1598 78.5929 96.1598C78.2151 96.1598 77.9017 96.2796 77.6529 96.5193C77.404 96.7589 77.2381 97.0354 77.1736 97.3487L76.6391 99.9016H75.8926L76.8234 95.4778Z" fill="#040305"/>
<path d="M83.4315 97.5979C83.2841 98.3167 82.9799 98.9066 82.5375 99.3674C82.0952 99.8374 81.5053 100.068 80.768 100.068C80.1598 100.068 79.7174 99.865 79.4501 99.4503C79.1829 99.0356 79.1183 98.4826 79.2658 97.7914C79.4225 97.0449 79.745 96.4551 80.2151 96.0127C80.6851 95.5703 81.2381 95.3491 81.874 95.3491C82.4454 95.3491 82.8878 95.5427 83.2011 95.9205C83.5052 96.2984 83.5882 96.8606 83.4315 97.5979ZM82.6481 97.6163C82.7403 97.2016 82.7403 96.8698 82.6666 96.6025C82.5468 96.197 82.2242 95.9943 81.7081 95.9943C81.2565 95.9943 80.8879 96.1694 80.6021 96.5196C80.3257 96.8698 80.1321 97.2845 80.0215 97.773C79.9202 98.243 79.9386 98.6393 80.086 98.9526C80.2243 99.266 80.5192 99.4227 80.9708 99.4227C81.4685 99.4227 81.8463 99.2383 82.1044 98.8605C82.3717 98.4918 82.5468 98.0771 82.6481 97.6163Z" fill="#040305"/>
<path d="M85.1276 95.4962H85.8557L85.7359 96.086C85.9294 95.8833 86.123 95.7266 86.3257 95.616C86.6114 95.4501 86.9248 95.3672 87.2658 95.3672C87.7634 95.3672 88.1505 95.5607 88.4178 95.9478C88.6851 96.3349 88.7403 96.8786 88.5929 97.5975C88.3901 98.5652 87.9938 99.2564 87.3948 99.6619C87.0169 99.92 86.6206 100.058 86.1967 100.058C85.8649 100.058 85.5976 99.9845 85.4041 99.837C85.2843 99.7541 85.1737 99.6158 85.0539 99.4131L84.5746 101.68H83.8281L85.1276 95.4962ZM87.8095 97.662C87.8832 97.3118 87.8925 97.0077 87.8464 96.7496C87.7542 96.2612 87.4593 96.0215 86.9432 96.0215C86.4271 96.0215 86.0216 96.2796 85.7174 96.7957C85.5608 97.0722 85.4317 97.4224 85.3396 97.8463C85.2658 98.1873 85.2566 98.4823 85.3119 98.7219C85.4041 99.1827 85.7082 99.4131 86.2243 99.4131C86.5745 99.4131 86.8879 99.2656 87.1828 98.9799C87.4777 98.6758 87.6805 98.2426 87.8095 97.662Z" fill="#040305"/>
<path d="M90.3254 95.4967H91.0811L90.1503 99.9113H89.3945L90.3254 95.4967ZM90.6756 93.8286H91.4313L91.247 94.6765H90.4913L90.6756 93.8286Z" fill="#040305"/>
<path d="M95.9199 96.169C96.0213 96.3902 96.0674 96.6575 96.049 96.9524C96.049 97.1551 96.0029 97.4777 95.9107 97.9293H92.6666C92.5837 98.3809 92.6113 98.7403 92.7588 99.0076C92.897 99.2748 93.1827 99.4131 93.5975 99.4131C93.9845 99.4131 94.3255 99.2841 94.6112 99.026C94.7771 98.8786 94.9062 98.7034 95.0075 98.5099H95.7356C95.6803 98.6758 95.5789 98.8509 95.4315 99.0537C95.284 99.2564 95.1273 99.4131 94.9615 99.5421C94.685 99.7633 94.3808 99.9108 94.0306 99.9845C93.8371 100.031 93.6343 100.049 93.4039 100.049C92.8509 100.049 92.427 99.8462 92.1321 99.45C91.8372 99.0444 91.7634 98.4823 91.9201 97.7634C92.0676 97.0537 92.3901 96.4731 92.8694 96.0308C93.3486 95.5884 93.9016 95.3672 94.5283 95.3672C94.8416 95.3672 95.1366 95.4409 95.3946 95.5884C95.6342 95.7451 95.8186 95.9386 95.9199 96.169ZM95.2656 97.3394C95.3025 97.0169 95.2932 96.7588 95.2195 96.5653C95.0905 96.2059 94.7863 96.0308 94.3163 96.0308C93.9753 96.0308 93.662 96.1506 93.3763 96.3994C93.0906 96.6482 92.9062 96.9616 92.8049 97.3394H95.2656Z" fill="#040305"/>
<path d="M100.186 95.6159C100.306 95.6989 100.426 95.8463 100.546 96.0491L101.025 93.8096H101.744L100.444 99.9107H99.7714L99.9004 99.2932C99.67 99.5697 99.4211 99.7632 99.1539 99.883C98.8866 100.003 98.6101 100.067 98.2968 100.067C97.7991 100.067 97.4212 99.8554 97.1447 99.4407C96.8683 99.0259 96.813 98.473 96.9604 97.7817C97.0987 97.1366 97.3751 96.5744 97.8083 96.1044C98.2415 95.6344 98.7576 95.3948 99.3751 95.3948C99.7161 95.3948 99.9833 95.4685 100.186 95.6159ZM98.6746 99.413C99.0156 99.413 99.3382 99.2655 99.6147 98.9706C99.9004 98.6757 100.103 98.2518 100.223 97.6988C100.343 97.1366 100.315 96.7219 100.14 96.4546C99.9649 96.1873 99.7161 96.0491 99.3751 96.0491C98.9972 96.0491 98.6654 96.1966 98.3705 96.4823C98.0756 96.768 97.8728 97.1919 97.753 97.7449C97.6516 98.2149 97.6701 98.6204 97.7991 98.9338C97.9373 99.2563 98.2323 99.413 98.6746 99.413Z" fill="#040305"/>
<path d="M104.905 97.2196C105.081 97.2011 105.21 97.1274 105.302 97.0076C105.348 96.9431 105.385 96.8417 105.412 96.7219C105.468 96.4639 105.412 96.2795 105.256 96.1689C105.099 96.0583 104.85 95.9938 104.518 95.9938C104.131 95.9938 103.827 96.0952 103.624 96.3072C103.505 96.427 103.412 96.5929 103.339 96.8233H102.647C102.776 96.2795 103.035 95.9017 103.422 95.6805C103.809 95.4685 104.223 95.3579 104.675 95.3579C105.2 95.3579 105.597 95.4593 105.882 95.6528C106.168 95.8556 106.26 96.1597 106.168 96.5837L105.624 99.1365C105.606 99.2103 105.606 99.2748 105.634 99.3209C105.652 99.3669 105.716 99.3946 105.818 99.3946C105.855 99.3946 105.892 99.3946 105.928 99.3854C105.975 99.3854 106.021 99.3762 106.067 99.3669L105.947 99.9199C105.827 99.9568 105.735 99.9752 105.67 99.9844C105.606 99.9936 105.523 99.9937 105.422 99.9937C105.163 99.9937 104.998 99.9015 104.924 99.7172C104.887 99.625 104.869 99.4868 104.887 99.3117C104.693 99.5144 104.435 99.6803 104.122 99.8278C103.809 99.9752 103.477 100.049 103.136 100.049C102.721 100.049 102.417 99.9199 102.205 99.6711C101.993 99.4222 101.929 99.1089 102.012 98.731C102.104 98.3163 102.297 98.003 102.601 97.7726C102.906 97.5421 103.274 97.4039 103.698 97.3578L104.905 97.2196ZM103.431 99.4222C103.689 99.4222 103.956 99.3577 104.233 99.2379C104.684 99.0352 104.961 98.7034 105.062 98.2518L105.182 97.6527C105.081 97.708 104.952 97.7633 104.804 97.8002C104.657 97.8371 104.509 97.8647 104.362 97.8831L103.901 97.9384C103.624 97.9753 103.403 98.0306 103.256 98.1043C102.998 98.2334 102.841 98.4453 102.776 98.7218C102.73 98.9338 102.767 99.1089 102.906 99.2287C103.044 99.3577 103.219 99.4222 103.431 99.4222Z" fill="#040305"/>
<path d="M110.454 95.6159C110.573 95.6989 110.693 95.8463 110.813 96.0491L111.292 93.8096H112.011L110.712 99.9107H110.039L110.168 99.2932C109.938 99.5697 109.689 99.7632 109.421 99.883C109.154 100.003 108.878 100.067 108.564 100.067C108.067 100.067 107.689 99.8554 107.412 99.4407C107.136 99.0259 107.081 98.473 107.228 97.7817C107.366 97.1366 107.643 96.5744 108.076 96.1044C108.509 95.6344 109.025 95.3948 109.643 95.3948C109.993 95.3948 110.26 95.4685 110.454 95.6159ZM108.942 99.413C109.283 99.413 109.606 99.2655 109.882 98.9706C110.168 98.6757 110.371 98.2518 110.491 97.6988C110.61 97.1366 110.583 96.7219 110.408 96.4546C110.232 96.1873 109.984 96.0491 109.643 96.0491C109.265 96.0491 108.933 96.1966 108.638 96.4823C108.343 96.768 108.14 97.1919 108.021 97.7449C107.919 98.2149 107.938 98.6204 108.067 98.9338C108.214 99.2563 108.5 99.413 108.942 99.413Z" fill="#040305"/>
<path d="M116.463 96.169C116.564 96.3902 116.61 96.6575 116.592 96.9524C116.592 97.1551 116.546 97.4777 116.454 97.9293H113.21C113.127 98.3809 113.154 98.7403 113.302 99.0076C113.44 99.2748 113.726 99.4131 114.14 99.4131C114.528 99.4131 114.869 99.2841 115.154 99.026C115.32 98.8786 115.449 98.7034 115.551 98.5099H116.279C116.223 98.6758 116.122 98.8509 115.974 99.0537C115.827 99.2564 115.67 99.4131 115.504 99.5421C115.228 99.7633 114.924 99.9108 114.574 99.9845C114.38 100.031 114.177 100.049 113.947 100.049C113.394 100.049 112.97 99.8462 112.675 99.45C112.38 99.0444 112.306 98.4823 112.463 97.7634C112.611 97.0537 112.933 96.4731 113.412 96.0308C113.892 95.5884 114.445 95.3672 115.071 95.3672C115.385 95.3672 115.68 95.4409 115.938 95.5884C116.177 95.7451 116.362 95.9386 116.463 96.169ZM115.809 97.3394C115.845 97.0169 115.836 96.7588 115.762 96.5653C115.633 96.2059 115.329 96.0308 114.859 96.0308C114.518 96.0308 114.205 96.1506 113.919 96.3994C113.634 96.6482 113.449 96.9616 113.348 97.3394H115.809Z" fill="#040305"/>
<path d="M118.112 98.5191C118.084 98.768 118.103 98.9615 118.176 99.0905C118.315 99.3301 118.61 99.45 119.07 99.45C119.347 99.45 119.605 99.3854 119.835 99.2656C120.075 99.1458 120.213 98.9615 120.268 98.7127C120.315 98.5191 120.259 98.3809 120.103 98.2795C120.01 98.215 119.808 98.1505 119.513 98.0675L118.951 97.9201C118.591 97.8279 118.333 97.7173 118.176 97.6067C117.9 97.404 117.799 97.1275 117.872 96.768C117.964 96.3533 118.186 96.0123 118.545 95.7543C118.904 95.4962 119.338 95.3672 119.845 95.3672C120.508 95.3672 120.95 95.5607 121.162 95.957C121.291 96.2059 121.328 96.4731 121.264 96.7588H120.563C120.582 96.5929 120.554 96.4363 120.48 96.298C120.351 96.1045 120.075 96.0031 119.651 96.0031C119.365 96.0031 119.144 96.0584 118.978 96.169C118.812 96.2796 118.711 96.4178 118.674 96.5929C118.637 96.7865 118.693 96.9432 118.858 97.0537C118.951 97.1183 119.107 97.1828 119.31 97.2381L119.78 97.3579C120.287 97.4869 120.619 97.6159 120.775 97.7357C121.024 97.9293 121.107 98.2242 121.015 98.6297C120.932 99.026 120.711 99.367 120.351 99.6527C119.992 99.9384 119.504 100.086 118.895 100.086C118.232 100.086 117.799 99.9384 117.587 99.6343C117.375 99.3394 117.31 98.9615 117.384 98.5191H118.112Z" fill="#040305"/>
<path d="M62.7889 192.896L59.7099 184.924H56.2461V196.048H58.7569L58.7019 187.838L61.9459 196.048H63.6503L66.8759 187.929L66.8209 196.048H69.3501V184.924H65.8679L62.7889 192.896ZM81.9757 196.048L77.6505 184.924H74.6265L70.3012 196.048H73.0503L73.9484 193.501H78.3286L79.2266 196.048H81.9757ZM76.1476 187.306L77.6871 191.705H74.5898L76.1476 187.306ZM92.388 193.189C92.388 191.778 91.4534 191.21 90.482 191.063C91.7466 190.788 92.4614 189.835 92.4614 188.259C92.4614 185.877 91.1051 184.924 88.8142 184.924H82.9495V196.048H85.497V192.016H88.2461C88.9608 192.016 89.8589 192.273 89.8589 193.556C89.8589 194.875 89.8772 195.554 90.0238 196.048H92.5713C92.4247 195.517 92.388 194.839 92.388 193.189ZM85.497 189.982V187.086H88.356C89.364 187.086 89.9505 187.49 89.9505 188.552C89.9505 189.579 89.3457 189.982 88.356 189.982H85.497ZM99.4927 196.342C102.517 196.342 105.247 194.619 105.247 190.477C105.247 186.335 102.517 184.63 99.4927 184.63C96.4687 184.63 93.7563 186.335 93.7563 190.477C93.7563 194.619 96.4687 196.342 99.4927 196.342ZM99.4927 194.106C97.4767 194.106 96.3588 192.658 96.3588 190.477C96.3588 188.314 97.4767 186.885 99.4927 186.885C101.509 186.885 102.627 188.314 102.627 190.477C102.627 192.658 101.509 194.106 99.4927 194.106ZM111.681 196.048V187.105H115.163V184.924H105.633V187.105H109.115V196.048H111.681ZM121.793 196.048V187.105H125.275V184.924H115.745V187.105H119.227V196.048H121.793ZM135.919 196.048L131.594 184.924H128.57L124.245 196.048H126.994L127.892 193.501H132.272L133.17 196.048H135.919ZM130.091 187.306L131.631 191.705H128.534L130.091 187.306Z" fill="black"/>
<path d="M25.6745 224.539V216.171H28.8105V214.827H21.0985V216.171H24.2185V224.539H25.6745ZM33.1718 216.923C31.3638 216.923 29.5718 218.139 29.5718 220.827C29.5718 223.547 31.3958 224.747 33.2038 224.747C34.8998 224.747 36.1798 223.803 36.5158 222.203H35.0278C34.8038 222.779 34.3078 223.371 33.1878 223.371C31.8278 223.371 31.2198 222.491 31.0758 221.403H36.6758C36.8358 218.267 35.1238 216.923 33.1718 216.923ZM33.1558 218.283C34.4198 218.283 35.0438 219.067 35.1878 220.283H31.0918C31.2358 219.195 31.8758 218.283 33.1558 218.283ZM39.2179 224.539V214.811H37.7619V224.539H39.2179ZM41.3625 218.843C41.8745 218.843 42.3065 218.443 42.3065 217.931C42.3065 217.403 41.8745 217.019 41.3625 217.019C40.8345 217.019 40.4025 217.403 40.4025 217.931C40.4025 218.443 40.8345 218.843 41.3625 218.843ZM41.3625 224.651C41.8745 224.651 42.3065 224.251 42.3065 223.739C42.3065 223.211 41.8745 222.827 41.3625 222.827C40.8345 222.827 40.4025 223.211 40.4025 223.739C40.4025 224.251 40.8345 224.651 41.3625 224.651ZM50.2994 222.507V220.155H52.6834V218.987H50.2994V216.635H49.0834V218.987H46.6994V220.155H49.0834V222.507H50.2994ZM58.1113 218.155C56.8953 218.155 56.0793 218.411 55.4873 218.907L55.8393 216.235H60.6873V214.827H54.8793L54.1113 220.363H55.3753C55.6953 220.011 56.6073 219.275 57.7113 219.275C59.2953 219.275 59.7913 220.059 59.7913 221.179C59.7913 222.235 59.3913 223.403 57.5993 223.403C56.0313 223.403 55.4873 222.747 55.3273 221.995H53.9193C54.0953 223.691 55.6473 224.747 57.5993 224.747C59.8713 224.747 61.2473 223.291 61.2473 221.179C61.2473 218.939 59.7273 218.155 58.1113 218.155ZM68.8643 214.811H66.9123L62.2723 220.987V222.363H67.5203V224.539H68.8643V222.363H70.3843V221.115H68.8643V214.811ZM67.4723 216.187V221.051H63.7763L67.4723 216.187ZM80.7642 215.307C80.1722 214.811 79.3882 214.571 78.4122 214.571C76.6202 214.571 74.7162 215.531 74.7162 218.027C74.7162 220.219 76.0922 221.307 78.0762 221.307C79.4522 221.307 80.5562 220.923 80.9082 219.835V220.171C80.9082 221.851 80.3002 223.387 78.4122 223.387C76.9562 223.387 76.3322 222.779 76.2042 222.171H74.8762C75.0522 223.835 76.7002 224.699 78.4122 224.699C80.7962 224.699 82.1082 223.051 82.1082 219.499C82.1082 217.467 81.6602 216.091 80.7642 215.307ZM78.2362 220.123C76.8442 220.123 75.9962 219.323 75.9962 217.995C75.9962 216.699 76.9242 215.883 78.4602 215.883C79.7882 215.883 80.6842 216.667 80.6842 217.899C80.6842 219.131 79.9482 220.123 78.2362 220.123ZM88.4148 223.115C88.4628 221.259 93.8868 220.315 93.8868 217.371C93.8868 215.259 92.0148 214.619 90.5588 214.619C88.4468 214.619 87.1988 215.963 87.0228 217.787H88.3988C88.5108 216.779 89.0708 215.931 90.5268 215.931C91.7748 215.931 92.5428 216.539 92.5428 217.483C92.5428 219.835 86.3668 220.107 86.7028 224.539H93.9668V223.115H88.4148ZM99.1883 217.947C97.7803 217.947 96.5803 218.459 96.2283 219.547C96.2283 217.131 96.8203 215.867 98.8523 215.867C100.292 215.867 100.82 216.491 100.948 217.083H102.372C102.196 215.435 100.564 214.571 98.8523 214.571C96.4683 214.571 95.0443 216.203 95.0443 219.771C95.0443 221.739 95.4923 223.083 96.3723 223.867C96.9803 224.427 97.8123 224.699 98.8523 224.699C100.644 224.699 102.532 223.723 102.532 221.227C102.532 219.035 101.156 217.947 99.1883 217.947ZM98.8523 223.355C97.4923 223.355 96.5483 222.571 96.5483 221.355C96.5483 220.139 97.3963 219.131 99.0603 219.131C100.42 219.131 101.268 219.947 101.268 221.243C101.268 222.555 100.356 223.355 98.8523 223.355ZM107.234 224.539V214.827H106.21C106.034 215.883 105.01 216.699 103.618 216.699V217.531H105.89V224.539H107.234ZM115.986 218.155C114.77 218.155 113.954 218.411 113.362 218.907L113.714 216.235H118.562V214.827H112.754L111.986 220.363H113.25C113.57 220.011 114.482 219.275 115.586 219.275C117.17 219.275 117.666 220.059 117.666 221.179C117.666 222.235 117.266 223.403 115.474 223.403C113.906 223.403 113.362 222.747 113.202 221.995H111.794C111.97 223.691 113.522 224.747 115.474 224.747C117.746 224.747 119.122 223.291 119.122 221.179C119.122 218.939 117.602 218.155 115.986 218.155ZM124.563 217.947C123.155 217.947 121.955 218.459 121.603 219.547C121.603 217.131 122.195 215.867 124.227 215.867C125.667 215.867 126.195 216.491 126.323 217.083H127.747C127.571 215.435 125.939 214.571 124.227 214.571C121.843 214.571 120.419 216.203 120.419 219.771C120.419 221.739 120.867 223.083 121.747 223.867C122.355 224.427 123.187 224.699 124.227 224.699C126.019 224.699 127.907 223.723 127.907 221.227C127.907 219.035 126.531 217.947 124.563 217.947ZM124.227 223.355C122.867 223.355 121.923 222.571 121.923 221.355C121.923 220.139 122.771 219.131 124.435 219.131C125.795 219.131 126.643 219.947 126.643 221.243C126.643 222.555 125.731 223.355 124.227 223.355ZM133.345 217.947C131.937 217.947 130.737 218.459 130.385 219.547C130.385 217.131 130.977 215.867 133.009 215.867C134.449 215.867 134.977 216.491 135.105 217.083H136.529C136.353 215.435 134.721 214.571 133.009 214.571C130.625 214.571 129.201 216.203 129.201 219.771C129.201 221.739 129.649 223.083 130.529 223.867C131.137 224.427 131.969 224.699 133.009 224.699C134.801 224.699 136.689 223.723 136.689 221.227C136.689 219.035 135.313 217.947 133.345 217.947ZM133.009 223.355C131.649 223.355 130.705 222.571 130.705 221.355C130.705 220.139 131.553 219.131 133.217 219.131C134.577 219.131 135.425 219.947 135.425 221.243C135.425 222.555 134.513 223.355 133.009 223.355ZM146.929 219.323C147.729 218.971 148.337 218.347 148.337 217.243C148.337 215.467 146.801 214.571 144.961 214.571C143.057 214.571 141.649 215.499 141.425 217.147H142.833C142.993 216.363 143.521 215.803 144.929 215.803C146.689 215.803 146.977 216.699 146.977 217.419C146.977 218.139 146.353 218.811 145.041 218.811H143.857V220.027H145.025C146.465 220.027 147.281 220.571 147.281 221.499C147.281 222.459 146.913 223.291 145.009 223.291C143.185 223.291 142.689 222.587 142.593 221.819H141.185C141.249 223.595 142.753 224.699 144.993 224.699C147.169 224.699 148.753 223.643 148.753 221.531C148.753 220.187 147.921 219.579 146.929 219.323ZM154.111 218.155C152.895 218.155 152.079 218.411 151.487 218.907L151.839 216.235H156.687V214.827H150.879L150.111 220.363H151.375C151.695 220.011 152.607 219.275 153.711 219.275C155.295 219.275 155.791 220.059 155.791 221.179C155.791 222.235 155.391 223.403 153.599 223.403C152.031 223.403 151.487 222.747 151.327 221.995H149.919C150.095 223.691 151.647 224.747 153.599 224.747C155.871 224.747 157.247 223.291 157.247 221.179C157.247 218.939 155.727 218.155 154.111 218.155ZM161.421 224.539V214.827H160.397C160.221 215.883 159.197 216.699 157.805 216.699V217.531H160.077V224.539H161.421ZM168.827 215.307C168.235 214.811 167.451 214.571 166.475 214.571C164.683 214.571 162.779 215.531 162.779 218.027C162.779 220.219 164.155 221.307 166.139 221.307C167.515 221.307 168.619 220.923 168.971 219.835V220.171C168.971 221.851 168.363 223.387 166.475 223.387C165.019 223.387 164.395 222.779 164.267 222.171H162.939C163.115 223.835 164.763 224.699 166.475 224.699C168.859 224.699 170.171 223.051 170.171 219.499C170.171 217.467 169.723 216.091 168.827 215.307ZM166.299 220.123C164.907 220.123 164.059 219.323 164.059 217.995C164.059 216.699 164.987 215.883 166.523 215.883C167.851 215.883 168.747 216.667 168.747 217.899C168.747 219.131 168.011 220.123 166.299 220.123ZM11.6694 237.219C12.1814 237.219 12.6134 236.819 12.6134 236.307C12.6134 235.779 12.1814 235.395 11.6694 235.395C11.1414 235.395 10.7094 235.779 10.7094 236.307C10.7094 236.819 11.1414 237.219 11.6694 237.219ZM12.3894 245.539V238.131H10.9494V245.539H12.3894ZM17.4304 237.923C16.1184 237.923 15.3184 238.803 15.0304 239.283V238.131H13.5744V245.539H15.0304V241.267C15.0304 240.099 15.6544 239.315 16.7904 239.315C17.9424 239.315 18.5184 240.003 18.5184 241.267V245.539H19.9744V240.739C19.9744 239.027 19.0784 237.923 17.4304 237.923ZM29.1685 237.923C27.9365 237.923 27.1525 238.723 26.8165 239.219C26.4645 238.403 25.7605 237.923 24.7205 237.923C23.4405 237.923 22.8325 238.755 22.6085 239.219V238.131H21.1525V245.539H22.6085V241.267C22.6085 240.147 23.0565 239.315 24.1445 239.315C25.2485 239.315 25.6485 240.003 25.6485 241.267V245.539H27.1045V241.267C27.1045 240.147 27.5525 239.315 28.6405 239.315C29.7605 239.315 30.1445 240.003 30.1445 241.267V245.539H31.6005V240.739C31.6005 239.027 30.8165 237.923 29.1685 237.923ZM36.3135 245.747C38.1535 245.747 39.9775 244.595 39.9775 241.843C39.9775 239.091 38.1695 237.907 36.3135 237.907C34.4735 237.907 32.6655 239.091 32.6655 241.843C32.6655 244.595 34.4735 245.747 36.3135 245.747ZM36.3135 244.403C34.6975 244.403 34.1375 243.107 34.1375 241.843C34.1375 240.547 34.6975 239.267 36.3135 239.267C37.9135 239.267 38.5055 240.563 38.5055 241.843C38.5055 243.091 37.9295 244.403 36.3135 244.403ZM49.0592 237.923C47.8272 237.923 47.0432 238.723 46.7072 239.219C46.3552 238.403 45.6512 237.923 44.6112 237.923C43.3312 237.923 42.7232 238.755 42.4992 239.219V238.131H41.0432V245.539H42.4992V241.267C42.4992 240.147 42.9472 239.315 44.0352 239.315C45.1392 239.315 45.5392 240.003 45.5392 241.267V245.539H46.9952V241.267C46.9952 240.147 47.4432 239.315 48.5312 239.315C49.6512 239.315 50.0352 240.003 50.0352 241.267V245.539H51.4912V240.739C51.4912 239.027 50.7072 237.923 49.0592 237.923ZM55.7882 237.955C54.1722 237.955 52.9242 238.723 52.7322 240.275H54.0922C54.2042 239.651 54.6682 239.219 55.7882 239.219C57.1962 239.219 57.5482 239.843 57.5482 240.771V241.187C53.1642 240.851 52.4922 242.195 52.4922 243.507C52.4922 245.059 53.5642 245.747 55.0042 245.747C56.4922 245.747 57.2282 244.995 57.5482 244.579V245.539H58.9882V240.771C58.9882 238.643 57.5162 237.955 55.7882 237.955ZM55.3082 244.531C54.4762 244.531 53.9802 244.227 53.9802 243.443C53.9802 242.339 54.9242 242.067 57.5482 242.211V243.395C57.1482 244.051 56.4282 244.531 55.3082 244.531ZM61.6242 238.131H60.1682V245.539H61.6242V241.779C61.6242 239.971 62.8882 238.931 64.3762 239.683H64.4082V237.987C62.9042 237.683 62.1522 238.259 61.6242 239.507V238.131ZM68.4385 245.747C70.2785 245.747 72.1025 244.595 72.1025 241.843C72.1025 239.091 70.2945 237.907 68.4385 237.907C66.5985 237.907 64.7905 239.091 64.7905 241.843C64.7905 244.595 66.5985 245.747 68.4385 245.747ZM68.4385 244.403C66.8225 244.403 66.2625 243.107 66.2625 241.843C66.2625 240.547 66.8225 239.267 68.4385 239.267C70.0385 239.267 70.6305 240.563 70.6305 241.843C70.6305 243.091 70.0545 244.403 68.4385 244.403ZM77.0339 238.131H75.1299V236.275H73.6899V238.131H72.4579V239.443H73.6899V242.819C73.6899 245.107 74.9379 246.099 77.0339 245.571V244.243C75.5619 244.419 75.1299 244.067 75.1299 242.819V239.443H77.0339V238.131ZM82.3933 238.131H80.4893V236.275H79.0493V238.131H77.8173V239.443H79.0493V242.819C79.0493 245.107 80.2973 246.099 82.3933 245.571V244.243C80.9213 244.419 80.4893 244.067 80.4893 242.819V239.443H82.3933V238.131ZM86.5069 237.955C84.8909 237.955 83.6429 238.723 83.4509 240.275H84.8109C84.9229 239.651 85.3869 239.219 86.5069 239.219C87.9149 239.219 88.2669 239.843 88.2669 240.771V241.187C83.8829 240.851 83.2109 242.195 83.2109 243.507C83.2109 245.059 84.2829 245.747 85.7229 245.747C87.2109 245.747 87.9469 244.995 88.2669 244.579V245.539H89.7069V240.771C89.7069 238.643 88.2349 237.955 86.5069 237.955ZM86.0269 244.531C85.1949 244.531 84.6989 244.227 84.6989 243.443C84.6989 242.339 85.6429 242.067 88.2669 242.211V243.395C87.8669 244.051 87.1469 244.531 86.0269 244.531ZM97.7669 234.995C93.5269 234.995 90.8869 237.587 90.8869 241.763C90.8869 245.811 93.7349 248.547 97.9909 248.547C99.1429 248.547 100.519 248.259 101.383 247.779V246.483C100.343 247.139 99.4629 247.427 97.9909 247.427C94.3429 247.427 92.0709 245.251 92.0709 241.763C92.0709 238.163 94.1349 236.099 97.7669 236.099C101.111 236.099 103.191 237.955 103.191 240.931C103.191 242.851 102.647 243.955 101.687 243.955C100.855 243.955 100.791 243.283 100.791 242.387V238.547H99.3349V239.155C98.7589 238.643 98.0869 238.387 97.2709 238.387C95.3829 238.387 94.1029 239.763 94.1029 241.827C94.1029 243.891 95.3829 245.283 97.2869 245.283C98.3429 245.283 99.1589 244.851 99.7509 244.019C100.071 244.755 100.711 245.171 101.559 245.171C103.287 245.171 104.327 243.587 104.327 240.915C104.327 237.267 101.815 234.995 97.7669 234.995ZM97.5269 243.939C95.8789 243.939 95.6229 242.611 95.6229 241.827C95.6229 241.043 95.8789 239.715 97.5269 239.715C98.7429 239.715 99.4629 240.499 99.4629 241.827C99.4629 243.139 98.7429 243.939 97.5269 243.939ZM109.368 237.923C108.056 237.923 107.256 238.803 106.968 239.283V235.827H105.512V245.539H106.968V241.267C106.968 240.099 107.592 239.315 108.728 239.315C109.88 239.315 110.456 240.003 110.456 241.267V245.539H111.912V240.739C111.912 239.027 111.016 237.923 109.368 237.923ZM116.626 245.747C118.466 245.747 120.29 244.595 120.29 241.843C120.29 239.091 118.482 237.907 116.626 237.907C114.786 237.907 112.978 239.091 112.978 241.843C112.978 244.595 114.786 245.747 116.626 245.747ZM116.626 244.403C115.01 244.403 114.45 243.107 114.45 241.843C114.45 240.547 115.01 239.267 116.626 239.267C118.226 239.267 118.818 240.563 118.818 241.843C118.818 243.091 118.242 244.403 116.626 244.403ZM125.221 238.131H123.317V236.275H121.877V238.131H120.645V239.443H121.877V242.819C121.877 245.107 123.125 246.099 125.221 245.571V244.243C123.749 244.419 123.317 244.067 123.317 242.819V239.443H125.221V238.131ZM134.325 237.923C133.093 237.923 132.309 238.723 131.973 239.219C131.621 238.403 130.917 237.923 129.877 237.923C128.597 237.923 127.989 238.755 127.765 239.219V238.131H126.309V245.539H127.765V241.267C127.765 240.147 128.213 239.315 129.301 239.315C130.405 239.315 130.805 240.003 130.805 241.267V245.539H132.261V241.267C132.261 240.147 132.709 239.315 133.797 239.315C134.917 239.315 135.301 240.003 135.301 241.267V245.539H136.757V240.739C136.757 239.027 135.973 237.923 134.325 237.923ZM141.054 237.955C139.438 237.955 138.19 238.723 137.998 240.275H139.358C139.47 239.651 139.934 239.219 141.054 239.219C142.462 239.219 142.814 239.843 142.814 240.771V241.187C138.43 240.851 137.758 242.195 137.758 243.507C137.758 245.059 138.83 245.747 140.27 245.747C141.758 245.747 142.494 244.995 142.814 244.579V245.539H144.254V240.771C144.254 238.643 142.782 237.955 141.054 237.955ZM140.574 244.531C139.742 244.531 139.246 244.227 139.246 243.443C139.246 242.339 140.19 242.067 142.814 242.211V243.395C142.414 244.051 141.694 244.531 140.574 244.531ZM146.154 237.219C146.666 237.219 147.098 236.819 147.098 236.307C147.098 235.779 146.666 235.395 146.154 235.395C145.626 235.395 145.194 235.779 145.194 236.307C145.194 236.819 145.626 237.219 146.154 237.219ZM146.874 245.539V238.131H145.434V245.539H146.874ZM149.515 245.539V235.811H148.059V245.539H149.515ZM151.659 245.651C152.171 245.651 152.603 245.251 152.603 244.739C152.603 244.211 152.171 243.827 151.659 243.827C151.131 243.827 150.699 244.211 150.699 244.739C150.699 245.251 151.131 245.651 151.659 245.651ZM157.377 245.747C159.057 245.747 160.561 244.723 160.881 242.723H159.425C159.249 243.555 158.657 244.387 157.377 244.387C155.697 244.387 155.153 243.107 155.153 241.827C155.153 240.531 155.697 239.267 157.377 239.267C158.641 239.267 159.217 240.051 159.393 240.883H160.849C160.529 238.883 159.057 237.907 157.377 237.907C155.473 237.907 153.681 239.091 153.681 241.827C153.681 244.563 155.473 245.747 157.377 245.747ZM165.517 245.747C167.357 245.747 169.181 244.595 169.181 241.843C169.181 239.091 167.373 237.907 165.517 237.907C163.677 237.907 161.869 239.091 161.869 241.843C161.869 244.595 163.677 245.747 165.517 245.747ZM165.517 244.403C163.901 244.403 163.341 243.107 163.341 241.843C163.341 240.547 163.901 239.267 165.517 239.267C167.117 239.267 167.709 240.563 167.709 241.843C167.709 243.091 167.133 244.403 165.517 244.403ZM178.262 237.923C177.03 237.923 176.246 238.723 175.91 239.219C175.558 238.403 174.854 237.923 173.814 237.923C172.534 237.923 171.926 238.755 171.702 239.219V238.131H170.246V245.539H171.702V241.267C171.702 240.147 172.15 239.315 173.238 239.315C174.342 239.315 174.742 240.003 174.742 241.267V245.539H176.198V241.267C176.198 240.147 176.646 239.315 177.734 239.315C178.854 239.315 179.238 240.003 179.238 241.267V245.539H180.694V240.739C180.694 239.027 179.91 237.923 178.262 237.923Z" fill="black"/>
<defs>
<filter id="filter0_d_1793_357" x="27.7638" y="21.2119" width="136.109" height="136.109" filterUnits="userSpaceOnUse" color-interpolation-filters="sRGB">
<feFlood flood-opacity="0" result="BackgroundImageFix"/>
<feColorMatrix in="SourceAlpha" type="matrix" values="0 0 0 0 0 0 0 0 0 0 0 0 0 0 0 0 0 0 127 0" result="hardAlpha"/>
<feOffset dy="3.05455"/>
<feGaussianBlur stdDeviation="1.52727"/>
<feComposite in2="hardAlpha" operator="out"/>
<feColorMatrix type="matrix" values="0 0 0 0 0 0 0 0 0 0 0 0 0 0 0 0 0 0 0.1 0"/>
<feBlend mode="normal" in2="BackgroundImageFix" result="effect1_dropShadow_1793_357"/>
<feBlend mode="normal" in="SourceGraphic" in2="effect1_dropShadow_1793_357" result="shape"/>
</filter>
</defs>
</svg>
