<svg width="23" height="24" viewBox="0 0 23 24" fill="none" xmlns="http://www.w3.org/2000/svg">
<path d="M19.8366 15.9122C19.1834 15.6718 18.9523 15.0597 18.9529 14.6086C18.9533 14.335 19.04 13.6673 19.8371 13.3764C21.8176 12.6458 23 11.3566 23 9.92753C23 7.22822 19.1911 5.95342 16.4448 5.88478C16.4366 5.88456 16.4284 5.88451 16.4202 5.8846C12.1407 5.93357 8.98491 6.68511 6.73828 7.57003V5.58785L11.6917 3.73033C12.2733 3.51223 12.2733 2.68657 11.6917 2.46847L6.30106 0.44699C5.86109 0.281947 5.39062 0.607855 5.39062 1.07792V8.16484C2.79931 9.44206 0 11.7912 0 14.6443C0 20.8546 10.2477 23.4041 16.8457 23.4041C19.7139 23.4041 23 22.1641 23 19.3611C23 17.9321 21.8176 16.6429 19.8366 15.9122V15.9122ZM6.73824 2.0503L9.53597 3.09945L6.73824 4.1486V2.0503ZM16.8457 22.0565C6.27321 22.0565 1.34761 17.6336 1.34761 14.6444C1.34761 13.1163 2.66243 11.1898 5.39058 9.68338V13.0032C4.669 13.3132 4.04292 13.8591 4.04292 14.6443C4.04292 16.0684 5.96077 16.6658 7.41206 16.6658C8.88411 16.6658 10.7812 16.0577 10.7812 14.6443C10.7812 13.2202 8.86336 12.6228 7.41206 12.6228C7.18337 12.6228 6.95786 12.6361 6.73824 12.661V9.02626C9.13257 7.99719 12.3457 7.28042 16.4232 7.2323C18.4907 7.28634 21.6523 8.24075 21.6523 9.92753C21.6523 10.7558 20.778 11.5929 19.3728 12.1112C18.2841 12.5085 17.6068 13.4648 17.6052 14.6068C17.6037 15.7728 18.2969 16.7816 19.3706 17.1767C20.778 17.6958 21.6523 18.5328 21.6523 19.3611C21.6523 21.2933 18.8472 22.0565 16.8457 22.0565V22.0565ZM7.41206 13.9705C8.60537 13.9705 9.43355 14.4384 9.43355 14.6444C9.43355 14.8468 8.62073 15.3182 7.41206 15.3182C6.21876 15.3182 5.39058 14.8503 5.39058 14.6444C5.39058 14.4419 6.2034 13.9705 7.41206 13.9705Z" fill="white"/>
<path d="M14.1504 12.6227C13.0357 12.6227 12.1289 13.5295 12.1289 14.6442C12.1289 15.7588 13.0357 16.6656 14.1504 16.6656C15.265 16.6656 16.1719 15.7588 16.1719 14.6442C16.1719 13.5295 15.265 12.6227 14.1504 12.6227ZM14.1504 15.318C13.7788 15.318 13.4766 15.0157 13.4766 14.6442C13.4766 14.2726 13.7788 13.9703 14.1504 13.9703C14.5219 13.9703 14.8242 14.2726 14.8242 14.6442C14.8242 15.0157 14.5219 15.318 14.1504 15.318Z" fill="white"/>
</svg>
