<svg width="74" height="75" viewBox="0 0 74 75" fill="none" xmlns="http://www.w3.org/2000/svg">
<g filter="url(#filter0_d_2372_8835)">
<circle cx="37" cy="33.4036" r="25" fill="black"/>
<path d="M44.8366 35.9122C44.1834 35.6718 43.9523 35.0597 43.9529 34.6086C43.9533 34.335 44.04 33.6673 44.8371 33.3764C46.8176 32.6458 48 31.3566 48 29.9275C48 27.2282 44.1911 25.9534 41.4448 25.8848C41.4366 25.8846 41.4284 25.8845 41.4202 25.8846C37.1407 25.9336 33.9849 26.6851 31.7383 27.57V25.5878L36.6917 23.7303C37.2733 23.5122 37.2733 22.6866 36.6917 22.4685L31.3011 20.447C30.8611 20.2819 30.3906 20.6079 30.3906 21.0779V28.1648C27.7993 29.4421 25 31.7912 25 34.6443C25 40.8546 35.2477 43.4041 41.8457 43.4041C44.7139 43.4041 48 42.1641 48 39.3611C48 37.9321 46.8176 36.6429 44.8366 35.9122ZM31.7382 22.0503L34.536 23.0994L31.7382 24.1486V22.0503ZM41.8457 42.0565C31.2732 42.0565 26.3476 37.6336 26.3476 34.6444C26.3476 33.1163 27.6624 31.1898 30.3906 29.6834V33.0032C29.669 33.3132 29.0429 33.8591 29.0429 34.6443C29.0429 36.0684 30.9608 36.6658 32.4121 36.6658C33.8841 36.6658 35.7812 36.0577 35.7812 34.6443C35.7812 33.2202 33.8634 32.6228 32.4121 32.6228C32.1834 32.6228 31.9579 32.6361 31.7382 32.661V29.0263C34.1326 27.9972 37.3457 27.2804 41.4232 27.2323C43.4907 27.2863 46.6523 28.2408 46.6523 29.9275C46.6523 30.7558 45.778 31.5929 44.3728 32.1112C43.2841 32.5085 42.6068 33.4648 42.6052 34.6068C42.6037 35.7728 43.2969 36.7816 44.3706 37.1767C45.778 37.6958 46.6523 38.5329 46.6523 39.3611C46.6523 41.2933 43.8472 42.0565 41.8457 42.0565ZM32.4121 33.9705C33.6054 33.9705 34.4335 34.4384 34.4335 34.6444C34.4335 34.8468 33.6207 35.3182 32.4121 35.3182C31.2188 35.3182 30.3906 34.8503 30.3906 34.6444C30.3906 34.4419 31.2034 33.9705 32.4121 33.9705Z" fill="white"/>
<path d="M39.1504 32.6227C38.0357 32.6227 37.1289 33.5295 37.1289 34.6442C37.1289 35.7588 38.0357 36.6656 39.1504 36.6656C40.265 36.6656 41.1719 35.7588 41.1719 34.6442C41.1719 33.5295 40.265 32.6227 39.1504 32.6227ZM39.1504 35.318C38.7788 35.318 38.4766 35.0157 38.4766 34.6442C38.4766 34.2726 38.7788 33.9703 39.1504 33.9703C39.5219 33.9703 39.8242 34.2726 39.8242 34.6442C39.8242 35.0157 39.5219 35.318 39.1504 35.318Z" fill="white"/>
</g>
<defs>
<filter id="filter0_d_2372_8835" x="0" y="0.403564" width="74" height="74" filterUnits="userSpaceOnUse" color-interpolation-filters="sRGB">
<feFlood flood-opacity="0" result="BackgroundImageFix"/>
<feColorMatrix in="SourceAlpha" type="matrix" values="0 0 0 0 0 0 0 0 0 0 0 0 0 0 0 0 0 0 127 0" result="hardAlpha"/>
<feOffset dy="4"/>
<feGaussianBlur stdDeviation="6"/>
<feComposite in2="hardAlpha" operator="out"/>
<feColorMatrix type="matrix" values="0 0 0 0 0 0 0 0 0 0 0 0 0 0 0 0 0 0 0.25 0"/>
<feBlend mode="normal" in2="BackgroundImageFix" result="effect1_dropShadow_2372_8835"/>
<feBlend mode="normal" in="SourceGraphic" in2="effect1_dropShadow_2372_8835" result="shape"/>
</filter>
</defs>
</svg>
