<svg width="65" height="65" viewBox="0 0 65 65" fill="none" xmlns="http://www.w3.org/2000/svg">
<path fill-rule="evenodd" clip-rule="evenodd" d="M40.7381 40.1656L38.7685 36.8606H39.171C39.8119 36.8656 40.4088 36.5348 40.7442 35.9886C41.0673 35.4244 41.0788 34.734 40.7747 34.1593L38.6161 30.1714H39.171C39.8621 30.1903 40.5016 29.8073 40.8113 29.1892C41.121 28.5711 41.0449 27.8295 40.6161 27.2872L33.9513 18.7077C33.6048 18.2613 33.0714 18 32.5062 18C31.941 18 31.4076 18.2613 31.061 18.7077L24.3962 27.2933C23.9701 27.8275 23.8939 28.561 24.2011 29.1714C24.5121 29.7882 25.1508 30.1705 25.8414 30.1531H26.3963L24.2377 34.1532C23.9277 34.7198 23.9394 35.4079 24.2686 35.9636C24.5977 36.5193 25.1955 36.8602 25.8414 36.8606H26.2438L24.2743 40.1656C23.9236 40.7316 23.9081 41.4435 24.234 42.0242C24.5599 42.6049 25.1755 42.9627 25.8414 42.9583H31.4513C31.3417 43.143 31.2828 43.3533 31.2806 43.5681V44.7876C31.2806 45.4612 31.8266 46.0072 32.5001 46.0072C33.1736 46.0072 33.7196 45.4612 33.7196 44.7876V43.5681C33.7174 43.3533 33.6585 43.143 33.5489 42.9583H39.1588C39.8175 42.9584 40.4253 42.6044 40.7503 42.0315C41.0786 41.4516 41.0739 40.741 40.7381 40.1656ZM25.8414 41.129L29.5 35.0313H25.8414L29.5 28.3238H25.8414L32.5062 19.7383L39.171 28.3238H35.5124L39.171 35.0313H35.5124L39.171 41.129H25.8414Z" fill="black"/>
</svg>
