<svg width="65" height="65" viewBox="0 0 65 65" fill="none" xmlns="http://www.w3.org/2000/svg">
<path d="M42.1517 37.0847L42.1517 37.0846C42.5019 36.7357 42.8422 36.3715 43.1631 36.0019L43.1254 35.9691L43.1631 36.0019C43.6047 35.4931 44.375 35.4391 44.8836 35.8807C45.3921 36.3223 45.4464 37.0923 45.0048 37.6009C44.6453 38.0148 44.2646 38.4225 43.8729 38.8127C41.8184 40.859 39.7626 42.2022 37.7166 42.8451L37.7166 42.845L37.7143 42.8459C37.671 42.8618 37.6269 42.8752 37.5823 42.8861L37.5823 42.8861L37.5799 42.8868C35.0201 43.6519 32.4713 43.321 29.952 41.885L29.9516 41.8849C29.4028 41.5774 28.7055 41.6783 28.2543 42.1294C28.2364 42.1474 28.2181 42.1648 28.1993 42.1814C26.8763 43.3494 24.7484 45.5558 23.7335 46.8123L23.7724 46.8437L23.7335 46.8123C23.1409 47.5461 22.2607 47.9956 21.3185 48.0455L21.3184 48.0455C21.2602 48.0486 21.2013 48.0501 21.1429 48.0501C20.2622 48.0501 19.4116 47.6998 18.7857 47.0742C18.7857 47.0742 18.7857 47.0742 18.7857 47.0742L17.9261 46.2143L17.926 46.2142C17.2557 45.5442 16.902 44.6168 16.9557 43.6705L16.9058 43.6676L16.9557 43.6705C17.0095 42.7229 17.4663 41.8402 18.2094 41.249L18.1783 41.2099L18.2095 41.249C19.4366 40.2727 21.7636 38.2154 22.8599 36.9L22.86 36.8999C22.8834 36.8718 22.9084 36.8449 22.9347 36.8184C23.389 36.3639 23.4881 35.6628 23.1744 35.1127L23.131 35.1375L23.1744 35.1127C21.8723 32.83 21.4817 30.5212 21.9956 28.2003C22.5098 25.8783 23.9306 23.5394 26.2604 21.2002C27.8432 19.6113 29.6217 18.2748 31.404 17.3346C33.5229 16.2172 35.6265 15.6511 37.6567 15.6501C37.6567 15.6501 37.6567 15.6501 37.6567 15.6501H37.6568H37.6568H37.6568H37.6568H37.6568H37.6568H37.6569H37.6569H37.6569H37.6569H37.6569H37.6569H37.657H37.657H37.657H37.657H37.657H37.6571H37.6571H37.6571H37.6571H37.6571H37.6571H37.6572H37.6572H37.6572H37.6572H37.6572H37.6573H37.6573H37.6573H37.6573H37.6573H37.6573H37.6574H37.6574H37.6574H37.6574H37.6574H37.6575H37.6575H37.6575H37.6575H37.6575H37.6575H37.6576H37.6576H37.6576H37.6576H37.6576H37.6577H37.6577H37.6577H37.6577H37.6577H37.6577H37.6578H37.6578H37.6578H37.6578H37.6578H37.6579H37.6579H37.6579H37.6579H37.6579H37.6579H37.658H37.658H37.658H37.658H37.658H37.6581H37.6581H37.6581H37.6581H37.6581H37.6582H37.6582H37.6582H37.6582H37.6582H37.6582H37.6583H37.6583H37.6583H37.6583H37.6583H37.6584H37.6584H37.6584H37.6584H37.6584H37.6585H37.6585H37.6585H37.6585H37.6585H37.6585H37.6586H37.6586H37.6586H37.6586H37.6586H37.6587H37.6587H37.6587H37.6587H37.6587H37.6588H37.6588H37.6588H37.6588H37.6588H37.6588H37.6589H37.6589H37.6589H37.6589H37.6589H37.659H37.659H37.659H37.659H37.659H37.6591H37.6591H37.6591H37.6591H37.6591H37.6592H37.6592H37.6592H37.6592H37.6592H37.6592H37.6593H37.6593H37.6593H37.6593H37.6593H37.6594H37.6594H37.6594H37.6594H37.6594H37.6595H37.6595H37.6595H37.6595H37.6595H37.6595H37.6596H37.6596H37.6596H37.6596H37.6596H37.6597H37.6597H37.6597H37.6597H37.6597H37.6598H37.6598H37.6598H37.6598H37.6598H37.6598H37.6599H37.6599H37.6599H37.6599H37.6599H37.66H37.66H37.66H37.66H37.66H37.6601H37.6601H37.6601H37.6601H37.6601H37.6601H37.6602H37.6602H37.6602H37.6602H37.6602H37.6603H37.6603H37.6603H37.6603H37.6603H37.6603H37.6604H37.6604H37.6604H37.6604H37.6604H37.6605H37.6605H37.6605H37.6605H37.6605H37.6606H37.6606H37.6606H37.6606H37.6606H37.6606H37.6607H37.6607H37.6607H37.6607H37.6607H37.6608H37.6608H37.6608H37.6608H37.6608H37.6608H37.6609H37.6609H37.6609H37.6609H37.6609H37.661H37.661H37.661H37.661H37.661H37.661H37.6611H37.6611H37.6611H37.6611H37.6611H37.6611H37.6612H37.6612H37.6612H37.6612H37.6612H37.6613H37.6613H37.6613H37.6613H37.6613H37.6613H37.6614H37.6614H37.6614H37.6614H37.6614C40.5971 15.6501 43.4053 16.9094 45.7835 19.2969C46.2587 19.7743 46.2572 20.5462 45.7799 21.0217C45.3028 21.4969 44.5306 21.4954 44.0552 21.0181C42.1218 19.0768 39.9703 18.0892 37.6614 18.0892H37.6577C34.5654 18.0907 31.0421 19.8556 27.9887 22.9214C26.3367 24.5799 25.3363 26.0794 24.7827 27.4272L24.7701 27.458L24.7936 27.4815L37.5881 40.276L37.6116 40.2995L37.6424 40.2869C38.9922 39.7356 40.4929 38.7365 42.1517 37.0847ZM26.5597 40.3751C27.7833 39.1779 29.6642 38.9245 31.15 39.7604C31.1531 39.7623 31.1559 39.7639 31.1583 39.765C31.1586 39.7652 31.1589 39.7653 31.1592 39.7655C32.0759 40.2883 33.2163 40.7858 34.5904 40.8507L34.7195 40.8568L34.6281 40.7654L24.2978 30.4349L24.2067 30.3438L24.2125 30.4724C24.2737 31.8485 24.7706 32.9884 25.2931 33.9041C26.1394 35.3882 25.8948 37.269 24.7016 38.4999L24.7015 38.4998L24.6992 38.5025C23.4716 39.9617 21.0617 42.0966 19.7282 43.1577C19.4545 43.3754 19.3994 43.6592 19.3907 43.8083L19.3907 43.8084C19.3824 43.9568 19.4048 44.2438 19.6508 44.4895L20.5104 45.3492C20.7556 45.5943 21.0413 45.6173 21.1896 45.6097L21.1897 45.6097C21.3373 45.6019 21.6188 45.5486 21.8361 45.2795C22.9302 43.9253 25.1288 41.6427 26.5579 40.3768L26.5579 40.3768L26.5597 40.3751ZM39.2941 28.4858C39.2941 25.7133 41.5497 23.4577 44.3223 23.4577C47.0948 23.4577 49.3504 25.7133 49.3504 28.4858C49.3504 31.2584 47.0948 33.514 44.3223 33.514C41.5497 33.514 39.2941 31.2584 39.2941 28.4858ZM41.7332 28.4858C41.7332 29.9134 42.8947 31.0749 44.3223 31.0749C45.7498 31.0749 46.9113 29.9134 46.9113 28.4858C46.9113 27.0583 45.7498 25.8968 44.3223 25.8968C42.8947 25.8968 41.7332 27.0583 41.7332 28.4858Z" fill="black" stroke="#1D1F2A" stroke-width="0.1"/>
</svg>
