<svg width="65" height="65" viewBox="0 0 65 65" fill="none" xmlns="http://www.w3.org/2000/svg">
<path fill-rule="evenodd" clip-rule="evenodd" d="M48.113 25.3903L41.7605 19.0378C41.3638 18.6405 40.8256 18.4171 40.2642 18.4166H24.7358C24.1744 18.4171 23.6362 18.6405 23.2395 19.0378L16.887 25.3903C16.1138 26.1464 16.0347 27.3637 16.7035 28.2136L30.8201 46.5652C31.2209 47.0875 31.8417 47.3936 32.5 47.3936C33.1583 47.3936 33.7791 47.0875 34.1799 46.5652L48.2965 28.2136C48.9653 27.3637 48.8862 26.1464 48.113 25.3903ZM23.0489 22.2211L25.2511 26.1808H19.0892L23.0489 22.2211ZM36.2268 26.1808H28.7732L32.5 21.5223L36.2268 26.1808ZM36.8197 28.2983L32.5 42.3444L28.1803 28.2983H36.8197ZM25.964 28.2983L30.2907 42.3655L19.4421 28.2983H25.964ZM39.036 28.2983H45.5579L34.7375 42.3655L39.036 28.2983ZM39.7418 26.1808L41.944 22.2211L45.9038 26.1808H39.7418ZM40.2571 20.5341L40.3842 20.6612L37.9773 24.9879L34.4128 20.5271L40.2571 20.5341ZM30.5731 20.5341L27.0086 24.995L24.6017 20.6682L24.7288 20.5412L30.5731 20.5341Z" fill="black"/>
</svg>
