<svg width="100" height="100" viewBox="0 0 100 100" fill="none" xmlns="http://www.w3.org/2000/svg">
<circle cx="50" cy="50" r="50" fill="white"/>
<path fill-rule="evenodd" clip-rule="evenodd" d="M38.7534 43.0345C43.2673 43.0345 46.9266 39.3752 46.9266 34.8613C46.9266 30.3473 43.2673 26.688 38.7534 26.688C34.2394 26.688 30.5801 30.3473 30.5801 34.8613C30.587 39.3724 34.2422 43.0276 38.7534 43.0345ZM38.7534 30.4603C41.184 30.4603 43.1543 32.4307 43.1543 34.8613C43.1543 37.2919 41.184 39.2623 38.7534 39.2623C36.3228 39.2623 34.3524 37.2919 34.3524 34.8613C34.3524 32.4307 36.3228 30.4603 38.7534 30.4603Z" fill="black"/>
<path fill-rule="evenodd" clip-rule="evenodd" d="M36.9766 46.8066V51.8363C36.9766 52.8779 37.821 53.7224 38.8627 53.7224C39.9044 53.7224 40.7488 52.8779 40.7488 51.8363V46.8066C40.7488 45.7649 39.9044 44.9204 38.8627 44.9204C37.821 44.9204 36.9766 45.7649 36.9766 46.8066Z" fill="black"/>
<path fill-rule="evenodd" clip-rule="evenodd" d="M38.8627 24.802C39.9044 24.802 40.7488 23.9575 40.7488 22.9158V17.8861C40.7488 16.8445 39.9044 16 38.8627 16C37.821 16 36.9766 16.8445 36.9766 17.8861V22.9158C36.9766 23.9575 37.821 24.802 38.8627 24.802Z" fill="black"/>
<path fill-rule="evenodd" clip-rule="evenodd" d="M21.8861 36.7479H26.9158C27.9575 36.7479 28.802 35.9034 28.802 34.8617C28.802 33.82 27.9575 32.9756 26.9158 32.9756H21.8861C20.8445 32.9756 20 33.82 20 34.8617C20 35.9034 20.8445 36.7479 21.8861 36.7479Z" fill="black"/>
<path fill-rule="evenodd" clip-rule="evenodd" d="M48.9219 34.8617C48.9219 35.9034 49.7663 36.7479 50.808 36.7479H55.8377C56.8794 36.7479 57.7239 35.9034 57.7239 34.8617C57.7239 33.82 56.8794 32.9756 55.8377 32.9756H50.808C49.7663 32.9756 48.9219 33.82 48.9219 34.8617Z" fill="black"/>
<path fill-rule="evenodd" clip-rule="evenodd" d="M29.0788 27.7441C29.822 28.4366 30.9801 28.4161 31.6983 27.6978C32.4166 26.9796 32.437 25.8215 31.7446 25.0783L28.186 21.5198C27.7158 21.0152 27.0077 20.8075 26.3394 20.9781C25.6711 21.1488 25.1493 21.6706 24.9786 22.3389C24.808 23.0072 25.0157 23.7153 25.5203 24.1855L29.0788 27.7441Z" fill="black"/>
<path fill-rule="evenodd" clip-rule="evenodd" d="M45.9774 41.9784C45.2419 42.7148 45.2419 43.9077 45.9774 44.6441L49.5359 48.2026C50.2791 48.8951 51.4372 48.8747 52.1554 48.1564C52.8737 47.4381 52.8941 46.28 52.2017 45.5369L48.6431 41.9784C47.9067 41.2429 46.7138 41.2429 45.9774 41.9784Z" fill="black"/>
<path fill-rule="evenodd" clip-rule="evenodd" d="M47.3103 28.2979C47.8104 28.2975 48.2898 28.0985 48.6432 27.7446L52.2017 24.1861C52.8942 23.443 52.8738 22.2849 52.1555 21.5666C51.4372 20.8483 50.2791 20.8279 49.536 21.5204L45.9774 25.0789C45.4387 25.6183 45.2777 26.429 45.5693 27.1333C45.861 27.8377 46.548 28.2972 47.3103 28.2979Z" fill="black"/>
<path fill-rule="evenodd" clip-rule="evenodd" d="M29.0788 41.9784L25.5203 45.5369C25.0157 46.0071 24.808 46.7153 24.9786 47.3835C25.1493 48.0518 25.6711 48.5736 26.3394 48.7443C27.0077 48.915 27.7158 48.7073 28.186 48.2027L31.7446 44.6441C32.437 43.901 32.4166 42.7429 31.6983 42.0246C30.9801 41.3063 29.822 41.2859 29.0788 41.9784Z" fill="black"/>
<path d="M52.6475 46.6484C52.0869 46.6484 51.552 46.8837 51.1732 47.297L32.2718 67.9167C31.7358 68.5014 31.596 69.3475 31.9154 70.0735C32.2348 70.7995 32.953 71.2682 33.7461 71.2682H62.0982C62.6588 71.2682 63.1937 71.0329 63.5725 70.6196L82.4739 49.9999C83.0099 49.4152 83.1497 48.5691 82.8303 47.8431C82.5109 47.1171 81.7927 46.6484 80.9996 46.6484H52.6475Z" stroke="black" stroke-width="4" stroke-linejoin="round"/>
<path d="M51.7893 70.9862L72.8386 47.7891M41.0499 70.9862L62.0992 47.7891M44.4865 55.0919H77.1344M37.6133 62.3947H70.2612" stroke="black" stroke-width="4" stroke-linecap="round" stroke-linejoin="round"/>
</svg>
