<svg width="16" height="16" viewBox="0 0 16 16" fill="none" xmlns="http://www.w3.org/2000/svg">
<path d="M8.86841 1.36842V7.13158H14.6316C15.1112 7.13158 15.5 7.52038 15.5 8C15.5 8.47961 15.1112 8.86842 14.6316 8.86842H8.86841V14.6316C8.86841 15.1112 8.4796 15.5 7.99999 15.5C7.52037 15.5 7.13157 15.1112 7.13157 14.6316V8.86842H1.36842C0.888804 8.86842 0.5 8.47961 0.5 8C0.5 7.52038 0.888805 7.13158 1.36842 7.13158H7.13157V1.36842C7.13157 0.888804 7.52037 0.5 7.99999 0.5C8.4796 0.5 8.86841 0.888805 8.86841 1.36842Z" fill="white"/>
</svg>
