<svg width="34" height="34" viewBox="0 0 34 34" fill="none" xmlns="http://www.w3.org/2000/svg">
<path d="M26.1517 22.0847L26.1517 22.0846C26.5019 21.7357 26.8422 21.3715 27.1631 21.0019L27.1254 20.9691L27.1631 21.0019C27.6047 20.4931 28.375 20.4391 28.8836 20.8807C29.3921 21.3223 29.4464 22.0923 29.0048 22.6009C28.6453 23.0148 28.2646 23.4225 27.8729 23.8127C25.8184 25.859 23.7626 27.2022 21.7166 27.8451L21.7166 27.845L21.7143 27.8459C21.671 27.8618 21.6269 27.8752 21.5823 27.8861L21.5823 27.8861L21.5799 27.8868C19.0201 28.6519 16.4713 28.321 13.952 26.885L13.9516 26.8849C13.4028 26.5774 12.7055 26.6783 12.2543 27.1294C12.2364 27.1474 12.2181 27.1648 12.1993 27.1814C10.8763 28.3494 8.74837 30.5558 7.73355 31.8123L7.77245 31.8437L7.73355 31.8123C7.14092 32.5461 6.26072 32.9956 5.31852 33.0455L5.31844 33.0455C5.26016 33.0486 5.20131 33.0501 5.14288 33.0501C4.26222 33.0501 3.41157 32.6998 2.78572 32.0742C2.78571 32.0742 2.78571 32.0742 2.7857 32.0742L1.92605 31.2143L1.92604 31.2142C1.25573 30.5442 0.901991 29.6168 0.955733 28.6705L0.905814 28.6676L0.955733 28.6705C1.00948 27.7229 1.46632 26.8402 2.20945 26.249L2.17832 26.2099L2.20945 26.249C3.43661 25.2727 5.76364 23.2154 6.85995 21.9L6.85998 21.8999C6.88337 21.8718 6.90837 21.8449 6.93466 21.8184C7.38896 21.3639 7.48806 20.6628 7.17442 20.1127L7.13099 20.1375L7.17442 20.1127C5.87231 17.83 5.48167 15.5212 5.9956 13.2003C6.5098 10.8783 7.93065 8.5394 10.2604 6.20025C11.8432 4.6113 13.6217 3.27476 15.404 2.33464C17.5229 1.21724 19.6265 0.651089 21.6567 0.650098C21.6567 0.650098 21.6567 0.650098 21.6567 0.650098H21.6568H21.6568H21.6568H21.6568H21.6568H21.6568H21.6569H21.6569H21.6569H21.6569H21.6569H21.6569H21.657H21.657H21.657H21.657H21.657H21.6571H21.6571H21.6571H21.6571H21.6571H21.6571H21.6572H21.6572H21.6572H21.6572H21.6572H21.6573H21.6573H21.6573H21.6573H21.6573H21.6573H21.6574H21.6574H21.6574H21.6574H21.6574H21.6575H21.6575H21.6575H21.6575H21.6575H21.6575H21.6576H21.6576H21.6576H21.6576H21.6576H21.6577H21.6577H21.6577H21.6577H21.6577H21.6577H21.6578H21.6578H21.6578H21.6578H21.6578H21.6579H21.6579H21.6579H21.6579H21.6579H21.6579H21.658H21.658H21.658H21.658H21.658H21.6581H21.6581H21.6581H21.6581H21.6581H21.6582H21.6582H21.6582H21.6582H21.6582H21.6582H21.6583H21.6583H21.6583H21.6583H21.6583H21.6584H21.6584H21.6584H21.6584H21.6584H21.6585H21.6585H21.6585H21.6585H21.6585H21.6585H21.6586H21.6586H21.6586H21.6586H21.6586H21.6587H21.6587H21.6587H21.6587H21.6587H21.6588H21.6588H21.6588H21.6588H21.6588H21.6588H21.6589H21.6589H21.6589H21.6589H21.6589H21.659H21.659H21.659H21.659H21.659H21.6591H21.6591H21.6591H21.6591H21.6591H21.6592H21.6592H21.6592H21.6592H21.6592H21.6592H21.6593H21.6593H21.6593H21.6593H21.6593H21.6594H21.6594H21.6594H21.6594H21.6594H21.6595H21.6595H21.6595H21.6595H21.6595H21.6595H21.6596H21.6596H21.6596H21.6596H21.6596H21.6597H21.6597H21.6597H21.6597H21.6597H21.6598H21.6598H21.6598H21.6598H21.6598H21.6598H21.6599H21.6599H21.6599H21.6599H21.6599H21.66H21.66H21.66H21.66H21.66H21.6601H21.6601H21.6601H21.6601H21.6601H21.6601H21.6602H21.6602H21.6602H21.6602H21.6602H21.6603H21.6603H21.6603H21.6603H21.6603H21.6603H21.6604H21.6604H21.6604H21.6604H21.6604H21.6605H21.6605H21.6605H21.6605H21.6605H21.6606H21.6606H21.6606H21.6606H21.6606H21.6606H21.6607H21.6607H21.6607H21.6607H21.6607H21.6608H21.6608H21.6608H21.6608H21.6608H21.6608H21.6609H21.6609H21.6609H21.6609H21.6609H21.661H21.661H21.661H21.661H21.661H21.661H21.6611H21.6611H21.6611H21.6611H21.6611H21.6611H21.6612H21.6612H21.6612H21.6612H21.6612H21.6613H21.6613H21.6613H21.6613H21.6613H21.6613H21.6614H21.6614H21.6614H21.6614H21.6614C24.5971 0.650098 27.4053 1.90937 29.7835 4.29693C30.2587 4.77427 30.2572 5.54625 29.7799 6.02167C29.3028 6.49686 28.5306 6.49543 28.0552 6.0181C26.1218 4.07679 23.9703 3.08916 21.6614 3.08916H21.6577C18.5654 3.09066 15.0421 4.85559 11.9887 7.9214C10.3367 9.57992 9.33629 11.0794 8.78274 12.4272L8.77008 12.458L8.79363 12.4815L21.5881 25.276L21.6116 25.2995L21.6424 25.2869C22.9922 24.7356 24.4929 23.7365 26.1517 22.0847ZM10.5597 25.3751C11.7833 24.1779 13.6642 23.9245 15.15 24.7604C15.1531 24.7623 15.1559 24.7639 15.1583 24.765C15.1586 24.7652 15.1589 24.7653 15.1592 24.7655C16.0759 25.2883 17.2163 25.7858 18.5904 25.8507L18.7195 25.8568L18.6281 25.7654L8.29776 15.4349L8.20673 15.3438L8.21246 15.4724C8.2737 16.8485 8.77064 17.9884 9.29312 18.9041C10.1394 20.3882 9.8948 22.269 8.70159 23.4999L8.7015 23.4998L8.69923 23.5025C7.47156 24.9617 5.06172 27.0966 3.72816 28.1577C3.45448 28.3754 3.39938 28.6592 3.39075 28.8083L3.39074 28.8084C3.38237 28.9568 3.40485 29.2438 3.6508 29.4895L4.51045 30.3492C4.75559 30.5943 5.04129 30.6173 5.18957 30.6097L5.18967 30.6097C5.33731 30.6019 5.61882 30.5486 5.83613 30.2795C6.93019 28.9253 9.12883 26.6427 10.5579 25.3768L10.5579 25.3768L10.5597 25.3751ZM23.2941 13.4858C23.2941 10.7133 25.5497 8.45772 28.3223 8.45772C31.0948 8.45772 33.3504 10.7133 33.3504 13.4858C33.3504 16.2584 31.0948 18.514 28.3223 18.514C25.5497 18.514 23.2941 16.2584 23.2941 13.4858ZM25.7332 13.4858C25.7332 14.9134 26.8947 16.0749 28.3223 16.0749C29.7498 16.0749 30.9113 14.9134 30.9113 13.4858C30.9113 12.0583 29.7498 10.8968 28.3223 10.8968C26.8947 10.8968 25.7332 12.0583 25.7332 13.4858Z" fill="white" stroke="#1D1F2A" stroke-width="0.1"/>
</svg>
