<svg width="17" height="29" viewBox="0 0 17 29" fill="none" xmlns="http://www.w3.org/2000/svg">
<path fill-rule="evenodd" clip-rule="evenodd" d="M16.7381 22.1656L14.7685 18.8606H15.171C15.8119 18.8656 16.4088 18.5348 16.7442 17.9886C17.0673 17.4244 17.0788 16.734 16.7747 16.1593L14.6161 12.1714H15.171C15.8621 12.1903 16.5016 11.8073 16.8113 11.1892C17.121 10.5711 17.0449 9.82954 16.6161 9.28722L9.95135 0.707748C9.60483 0.261251 9.07138 0 8.50619 0C7.941 0 7.40755 0.261251 7.06103 0.707748L0.396244 9.29331C-0.0299144 9.82755 -0.106114 10.561 0.201118 11.1714C0.51211 11.7882 1.15083 12.1705 1.8414 12.1531H2.39629L0.237704 16.1532C-0.0723096 16.7198 -0.0605715 17.4079 0.268587 17.9636C0.597746 18.5193 1.19554 18.8602 1.8414 18.8606H2.24385L0.27429 22.1656C-0.0764252 22.7316 -0.0918576 23.4435 0.233999 24.0242C0.559856 24.6049 1.17553 24.9627 1.8414 24.9583H7.45129C7.34168 25.143 7.28278 25.3533 7.28055 25.5681V26.7876C7.28055 27.4612 7.82656 28.0072 8.50009 28.0072C9.17363 28.0072 9.71963 27.4612 9.71963 26.7876V25.5681C9.7174 25.3533 9.65851 25.143 9.5489 24.9583H15.1588C15.8175 24.9584 16.4253 24.6044 16.7503 24.0315C17.0786 23.4516 17.0739 22.741 16.7381 22.1656ZM1.8414 23.129L5.50002 17.0313H1.8414L5.50002 10.3238H1.8414L8.50619 1.73826L15.171 10.3238H11.5124L15.171 17.0313H11.5124L15.171 23.129H1.8414Z" fill="white"/>
</svg>
