<svg width="100" height="100" viewBox="0 0 100 100" fill="none" xmlns="http://www.w3.org/2000/svg">
<circle cx="50" cy="50" r="50" fill="white"/>
<path d="M51 26.2679C50.3812 25.9107 49.6188 25.9107 49 26.2679L29.9474 37.2679C29.3286 37.6252 28.9474 38.2855 28.9474 39V61C28.9474 61.7145 29.3286 62.3748 29.9474 62.7321L49 73.7321C49.6188 74.0893 50.3812 74.0893 51 73.7321L70.0526 62.7321C70.6714 62.3748 71.0526 61.7145 71.0526 61V39C71.0526 38.2855 70.6714 37.6252 70.0526 37.2679L51 26.2679Z" stroke="black" stroke-width="4" stroke-linejoin="round"/>
<path d="M29 38L50 49M50 49V74M50 49L71 38" stroke="black" stroke-width="4" stroke-linecap="round" stroke-linejoin="round"/>
<path d="M21 45L16 50L21 55" stroke="black" stroke-width="4" stroke-linecap="round" stroke-linejoin="round"/>
<path d="M79 55L84 50L79 45" stroke="black" stroke-width="4" stroke-linecap="round" stroke-linejoin="round"/>
</svg>
