<svg width="24" height="22" viewBox="0 0 24 22" fill="none" xmlns="http://www.w3.org/2000/svg">
<path d="M23.9177 17.3071C24.0145 17.481 24.0145 17.6937 23.9758 17.9643C23.8983 18.4668 23.7821 18.9694 23.6077 19.4333C23.3558 20.1872 22.639 20.6897 21.961 21.057C21.1667 21.5016 20.3142 21.8495 19.4037 21.9655C18.5125 22.0815 17.6601 21.8882 16.8077 21.6369C15.4709 21.2696 14.1729 20.7864 12.8943 20.2838C11.0151 19.5493 9.29087 18.4089 7.76038 17.1138C5.95867 15.5867 4.38943 13.8084 3.01393 11.8948C1.67718 10.0198 0.243554 7.97087 0.0304483 5.61266C-0.066418 4.66551 0.0691944 3.71836 0.417913 2.84852C0.689139 2.17199 1.11535 1.55344 1.56094 0.992881C1.79341 0.702937 2.04527 0.374335 2.39399 0.181039C2.8202 -0.0702462 3.34328 0.00707142 3.80823 0.026401C4.21507 0.026401 4.58316 0.12305 4.75752 0.528971C4.97063 0.992882 5.26123 1.74674 5.59057 2.50059C5.88117 3.17713 6.1524 3.85366 6.443 4.5302C6.55924 4.80081 6.71422 5.0521 6.77234 5.32271C6.83046 5.63199 6.63673 5.88327 6.50112 6.13456C5.68744 7.25567 4.02134 8.3188 4.97063 9.86517C5.24185 10.3098 6.61736 12.6293 8.72904 14.4849C10.1433 15.722 11.7513 16.7658 13.4755 17.5004C14.0179 17.7323 14.5798 18.0609 15.1997 18.0609C15.7422 18.0609 16.2071 17.829 16.614 17.3844C17.0595 16.9011 17.5051 16.3599 17.9313 15.838C18.1832 15.5287 18.5707 14.7362 19.055 14.8909C19.1325 14.9102 19.1906 14.9489 19.2681 14.9682C19.6168 15.1228 19.9655 15.2775 20.3143 15.4514C21.3023 15.9153 22.3097 16.3986 23.2977 16.8818L23.6658 17.0558C23.8208 17.1331 23.9177 17.2104 23.9758 17.3071H23.9177Z" fill="white" fill-opacity="0.5"/>
</svg>
