<svg width="51" height="51" viewBox="0 0 51 51" fill="none" xmlns="http://www.w3.org/2000/svg">
<g filter="url(#filter0_b_2468_1585)">
<path fill-rule="evenodd" clip-rule="evenodd" d="M24.9998 0.976807C11.1879 0.976807 0 12.169 0 25.9863C0 30.8701 1.42391 35.4284 3.84456 39.2744L0 50.9957L12.0015 47.3125C15.8054 49.6323 20.2399 50.9957 25.0201 50.9957C38.8321 50.9957 50.0199 39.8035 50.0199 25.9863C50.0199 12.169 38.8117 0.976807 24.9998 0.976807Z" fill="black" fill-opacity="0.1"/>
<path d="M4.79475 39.5861C4.88753 39.3032 4.84946 38.9937 4.69088 38.7418C2.36602 35.0479 1 30.6731 1 25.9863C1 12.7209 11.7405 1.97681 24.9998 1.97681C38.2601 1.97681 49.0199 12.722 49.0199 25.9863C49.0199 39.2516 38.2794 49.9957 25.0201 49.9957C20.434 49.9957 16.1784 48.6885 12.5222 46.4587C12.278 46.3098 11.9816 46.2725 11.7081 46.3565L1.55171 49.4735L4.79475 39.5861Z" stroke="white" stroke-opacity="0.5" stroke-width="2" stroke-miterlimit="10" stroke-linejoin="round"/>
</g>
<path d="M36.9177 32.3071C37.0145 32.481 37.0145 32.6937 36.9758 32.9643C36.8983 33.4668 36.7821 33.9694 36.6077 34.4333C36.3559 35.1872 35.639 35.6897 34.961 36.057C34.1667 36.5016 33.3142 36.8495 32.4037 36.9655C31.5125 37.0815 30.6601 36.8882 29.8077 36.6369C28.4709 36.2696 27.1729 35.7864 25.8943 35.2838C24.0151 34.5493 22.2909 33.4089 20.7604 32.1138C18.9587 30.5867 17.3894 28.8084 16.0139 26.8948C14.6772 25.0198 13.2436 22.9709 13.0304 20.6127C12.9336 19.6655 13.0692 18.7184 13.4179 17.8485C13.6891 17.172 14.1154 16.5534 14.5609 15.9929C14.7934 15.7029 15.0453 15.3743 15.394 15.181C15.8202 14.9298 16.3433 15.0071 16.8082 15.0264C17.2151 15.0264 17.5832 15.123 17.7575 15.529C17.9706 15.9929 18.2612 16.7467 18.5906 17.5006C18.8812 18.1771 19.1524 18.8537 19.443 19.5302C19.5592 19.8008 19.7142 20.0521 19.7723 20.3227C19.8305 20.632 19.6367 20.8833 19.5011 21.1346C18.6874 22.2557 17.0213 23.3188 17.9706 24.8652C18.2419 25.3098 19.6174 27.6293 21.729 29.4849C23.1433 30.722 24.7513 31.7658 26.4755 32.5004C27.0179 32.7323 27.5798 33.0609 28.1997 33.0609C28.7422 33.0609 29.2071 32.829 29.614 32.3844C30.0595 31.9011 30.5051 31.3599 30.9313 30.838C31.1832 30.5287 31.5707 29.7362 32.055 29.8909C32.1325 29.9102 32.1906 29.9489 32.2681 29.9682C32.6168 30.1228 32.9655 30.2775 33.3143 30.4514C34.3023 30.9153 35.3097 31.3986 36.2977 31.8818L36.6658 32.0558C36.8208 32.1331 36.9177 32.2104 36.9758 32.3071H36.9177Z" fill="white" fill-opacity="0.5"/>
<defs>
<filter id="filter0_b_2468_1585" x="-5" y="-4.02319" width="60.02" height="60.0189" filterUnits="userSpaceOnUse" color-interpolation-filters="sRGB">
<feFlood flood-opacity="0" result="BackgroundImageFix"/>
<feGaussianBlur in="BackgroundImageFix" stdDeviation="2.5"/>
<feComposite in2="SourceAlpha" operator="in" result="effect1_backgroundBlur_2468_1585"/>
<feBlend mode="normal" in="SourceGraphic" in2="effect1_backgroundBlur_2468_1585" result="shape"/>
</filter>
</defs>
</svg>
