<svg width="356" height="108" viewBox="0 0 356 108" fill="none" xmlns="http://www.w3.org/2000/svg">
<path d="M352.019 5.47127C352.224 5.19771 352.36 4.85575 352.36 4.44541C352.36 4.10345 352.292 3.76149 352.155 3.48793C352.018 3.21437 351.745 3.00919 351.471 2.87241C351.129 2.73563 350.787 2.66724 350.309 2.66724H347.915V8.3437H349.283V6.15518H349.625L350.856 8.27531H352.36L350.993 6.0184C351.471 5.95001 351.813 5.74484 352.019 5.47127ZM350.787 5.06093C350.651 5.19771 350.446 5.2661 350.172 5.2661H349.283V3.76149H350.172C350.446 3.76149 350.651 3.82989 350.787 3.96667C350.924 4.10345 350.993 4.24023 350.993 4.5138C350.993 4.71897 350.924 4.92414 350.787 5.06093Z" fill="white"/>
<path d="M350.036 0.27356C347.163 0.27356 344.77 2.66725 344.77 5.53968C344.77 8.48049 347.163 10.8058 350.036 10.8058C352.976 10.8058 355.302 8.4121 355.302 5.53968C355.302 2.59886 352.976 0.27356 350.036 0.27356ZM350.036 10.1903C347.437 10.1903 345.385 8.07015 345.385 5.53968C345.385 2.94081 347.505 0.88908 350.036 0.88908C352.635 0.88908 354.686 3.0092 354.686 5.53968C354.755 8.13854 352.635 10.1903 350.036 10.1903Z" fill="white"/>
<path d="M87.6973 87.4126H94.1228L98.5962 101.714L103.002 87.4126H109.238L101.863 107.286H95.2072L87.6973 87.4126Z" fill="white"/>
<path d="M111.515 87.4126H117.669V107.286H111.515V87.4126Z" fill="white"/>
<path d="M134.316 104.005H127.321L126.359 107.286H120.082L127.552 87.4126H134.248L141.718 107.286H135.292L134.316 104.005ZM133.028 99.7078L130.832 92.5639L128.65 99.7078H133.028Z" fill="white"/>
<path d="M143.629 87.4126H151.708L154.826 99.5045L157.93 87.4126H165.983V107.286H160.967V92.1301L157.076 107.286H152.535L148.658 92.1301V107.286H143.629V87.4126Z" fill="white"/>
<path d="M169.141 97.3627C169.141 94.1183 170.045 91.5924 171.852 89.7849C173.66 87.9775 176.177 87.0737 179.403 87.0737C182.711 87.0737 185.259 87.9639 187.048 89.7442C188.838 91.5155 189.733 94.0008 189.733 97.2C189.733 99.5226 189.339 101.429 188.553 102.921C187.776 104.403 186.646 105.559 185.164 106.391C183.691 107.213 181.852 107.624 179.647 107.624C177.406 107.624 175.549 107.268 174.075 106.554C172.611 105.84 171.423 104.71 170.51 103.165C169.598 101.619 169.141 99.6852 169.141 97.3627ZM175.282 97.3898C175.282 99.396 175.652 100.837 176.394 101.714C177.144 102.591 178.16 103.029 179.444 103.029C180.763 103.029 181.784 102.6 182.507 101.741C183.23 100.883 183.592 99.3418 183.592 97.1187C183.592 95.2479 183.212 93.8833 182.453 93.0248C181.703 92.1572 180.682 91.7234 179.389 91.7234C178.151 91.7234 177.157 92.1617 176.407 93.0383C175.657 93.9149 175.282 95.3654 175.282 97.3898Z" fill="white"/>
<path d="M193.081 87.4126H198.815L206.298 98.4065V87.4126H212.086V107.286H206.298L198.856 96.3731V107.286H193.081V87.4126Z" fill="white"/>
<path d="M214.77 87.4126H233.437V92.3199H227.174V107.286H221.033V92.3199H214.77V87.4126Z" fill="white"/>
<path d="M236.216 87.4126H252.673V91.6556H242.37V94.8141H251.927V98.8674H242.37V102.785H252.971V107.286H236.216V87.4126Z" fill="white"/>
<path d="M46.9257 40.8295C52.3286 36.5209 55.7481 30.3657 55.7481 23.5265C55.6797 10.5322 43.4377 0 28.3233 0C13.1404 0 0.898438 10.5322 0.898438 23.5265C0.898438 36.5209 13.1404 47.0531 28.3233 47.0531C32.0848 47.0531 35.7095 46.3692 38.9923 45.2065L44.6004 49.0364L45.5578 49.7203C47.0624 50.6094 48.8406 51.0198 50.6872 50.883C54.7906 50.4727 57.9366 47.1899 58.347 43.2232C57.3211 43.8387 56.0901 44.2491 54.7906 44.3858C51.5079 44.7278 48.6354 43.2232 46.9257 40.8295ZM40.6337 38.1622C39.8814 37.8887 39.1975 37.6151 38.5136 37.4783C36.4618 36.9312 34.6153 37.068 34.0681 37.1364C33.9313 37.1364 33.9314 37.1364 33.863 37.1364C31.1957 37.4783 29.0072 39.3933 28.2549 41.9238C29.3491 41.1715 30.6486 40.7611 32.0164 40.7611C33.179 40.7611 34.2049 41.0347 35.1624 41.5818C35.5727 41.787 36.1883 42.1289 36.8722 42.6077C34.3417 44.8646 31.4009 46.164 28.1865 46.164C19.2273 46.164 11.9778 36.0421 11.9778 23.5265C12.1146 11.011 19.364 0.889085 28.3233 0.889085C37.2825 0.889085 44.532 11.011 44.532 23.5265C44.532 29.1346 43.0274 34.264 40.6337 38.1622Z" fill="white"/>
<path d="M107.52 0.27356H94.1835C95.0726 0.615515 95.2777 0.820689 95.4829 1.02586C97.3979 2.53047 98.2869 4.51381 98.2869 6.56554C98.2185 8.82245 97.4662 10.8058 96.5772 12.7207C93.9099 18.6708 85.7714 36.4525 85.7714 36.4525C85.7714 36.4525 76.265 15.6616 72.8454 8.20693C71.546 5.40289 71.0673 2.87242 73.8029 0.341951C68.0581 0.341951 56.8419 0.341951 56.5684 0.341951C60.1931 3.28277 61.0138 4.37703 63.0655 8.75406C65.596 14.0886 81.5995 46.6427 81.8731 47.1899C82.1466 46.7111 98.9025 9.43797 101.228 6.01841C102.322 4.17185 102.801 2.80403 107.52 0.27356Z" fill="white"/>
<path d="M141.443 38.641C138.912 33.3065 122.909 0.752297 122.635 0.27356C122.361 0.752297 105.674 37.9571 103.28 41.445C102.118 43.1548 101.639 44.591 96.9883 47.0531H110.325C109.435 46.7111 109.23 46.506 109.025 46.3008C107.11 44.8646 106.221 42.8128 106.221 40.7611C106.221 40.0772 106.289 39.3933 106.426 38.7778C106.563 38.0255 106.768 37.3415 107.042 36.6576C107.042 36.5892 107.11 36.5209 107.11 36.4525C108.068 34.1272 110.325 32.4858 112.992 32.4858H128.517C129.748 35.153 130.842 37.4783 131.594 39.1881C132.894 41.9921 133.372 44.5226 130.637 47.0531C136.382 47.0531 147.598 47.0531 147.871 47.0531C144.315 44.1123 143.563 43.018 141.443 38.641ZM112.855 31.5283C111.692 31.5967 110.598 31.8703 109.572 32.4174C109.23 32.6226 108.888 32.8277 108.615 33.0329C108.683 32.8277 108.82 32.6226 108.888 32.4174C109.025 32.1438 109.162 31.8019 109.299 31.5283C112.65 24.0737 118.737 10.9426 118.737 10.9426C118.737 10.9426 124.071 22.5691 128.175 31.5283H112.855Z" fill="white"/>
<path d="M276.925 40.0772C274.805 36.9996 272.89 33.7168 270.701 30.7076C269.949 29.6817 268.992 28.8611 268.034 27.972C267.077 27.1513 265.982 26.5358 264.82 26.1254C264.683 26.057 264.478 25.9886 264.273 25.9202C265.299 25.5783 265.914 25.3731 266.598 25.2363C268.718 24.826 270.701 24.0053 272.685 23.0478C276.515 21.0645 278.566 17.7133 278.772 13.473C278.977 9.09602 275.557 0.20517 264.478 0.20517C257.707 0.20517 231.582 0.136779 228.709 0.20517V0.410344C229.872 1.09425 235.07 4.03507 235.07 9.36958C235.07 15.9351 235.07 22.8426 235.07 29.4082C235.07 32.4858 235.138 35.5634 235.001 38.641C234.865 41.7186 233.36 44.0439 230.624 45.4801C229.735 45.8904 228.846 46.3008 227.957 46.7795V47.1215H252.441V46.9163C251.826 46.6427 251.278 46.4376 250.936 46.3008C246.217 44.3174 244.234 40.7611 244.918 35.9053C245.465 32.1438 247.175 29.0662 250.731 27.2881C252.783 26.2622 254.972 26.1254 257.023 27.5616C258.323 28.4507 259.417 29.545 260.306 30.7076C262.426 33.5116 264.136 36.4525 266.051 39.3933C267.487 41.6502 267.35 43.7019 265.709 45.6853C265.367 46.0956 265.025 46.3692 264.615 46.9163V47.1215C270.36 47.1215 281.507 47.1215 284.038 47.1215V46.9163C280.892 45.2749 278.635 42.5393 276.925 40.0772ZM255.177 25.1679C251.21 25.1679 248.269 26.8777 245.876 29.8185C245.397 30.3657 244.85 31.4599 244.85 31.4599C244.85 31.4599 244.85 19.9018 244.85 14.7041C244.85 13.1311 244.918 11.5581 244.85 9.9851C244.713 5.60807 248.064 1.29943 253.399 1.29943C255.792 1.29943 258.186 1.02586 260.511 1.57299C264.068 2.46208 266.598 5.06094 267.487 8.75406C268.171 11.5581 268.239 14.7041 267.487 17.5081C266.53 21.2012 264.068 23.3898 260.443 24.3472C258.733 24.826 256.955 25.1679 255.177 25.1679Z" fill="white"/>
<path d="M189.11 0.27356H180.767H144.93V11.3529H145.272C145.819 9.09601 146.981 7.04428 148.554 5.47128C148.623 5.40289 148.691 5.3345 148.828 5.26611C149.991 4.17185 151.29 3.35116 152.795 2.73564C154.162 2.18851 155.735 1.91495 157.308 1.91495C161.48 1.91495 164.9 5.26611 164.968 9.43797V38.0938C164.968 42.4709 161.891 46.0956 157.856 46.9847V47.1899H181.929V46.9847C177.826 46.0956 174.817 42.4709 174.817 38.0938V9.36958C174.817 7.24945 175.637 5.40289 177.005 4.03507C178.373 2.66725 180.22 1.84656 182.271 1.84656H182.34H187.743C191.846 1.91495 195.197 5.26611 195.197 9.43797V38.0938C195.197 42.4709 192.12 46.0956 188.084 46.9847V47.1899H212.158V46.9847C208.055 46.0956 205.045 42.4709 205.045 38.0938V8.95923C205.319 4.99255 208.602 1.84656 212.637 1.84656C214.21 1.84656 215.783 2.12012 217.151 2.73564C218.587 3.28277 219.955 4.17185 221.049 5.19772C221.117 5.26611 221.254 5.3345 221.323 5.47128C222.896 7.04428 224.058 9.09601 224.605 11.3529H224.947V0.27356H189.11Z" fill="white"/>
<path d="M313.514 0C298.399 0 286.089 10.5322 286.089 23.5265C286.089 36.5209 298.331 47.0531 313.514 47.0531C328.628 47.0531 340.939 36.5209 340.939 23.5265C340.939 10.5322 328.628 0 313.514 0ZM313.514 46.164C304.554 46.164 297.305 36.0421 297.305 23.5265C297.305 11.011 304.554 0.889085 313.514 0.889085C322.473 0.889085 329.722 11.011 329.722 23.5265C329.722 35.9737 322.473 46.164 313.514 46.164Z" fill="white"/>
</svg>
